<svg width="716" height="166" viewBox="0 0 716 166" fill="none" xmlns="http://www.w3.org/2000/svg">
<mask id="path-1-inside-1_1845_1977" fill="white">
<path d="M0 0H716V22H0V0Z"/>
</mask>
<path d="M716 21H0V23H716V21Z" fill="black" mask="url(#path-1-inside-1_1845_1977)"/>
<path d="M13.9787 14H12.348L16.0121 3.81818H17.7869L21.451 14H19.8203L16.9418 5.66761H16.8622L13.9787 14ZM14.2521 10.0128H19.5419V11.3054H14.2521V10.0128ZM23.7814 14.0945C23.5096 14.0945 23.276 13.9983 23.0804 13.8061C22.8849 13.6106 22.7871 13.3752 22.7871 13.1001C22.7871 12.8284 22.8849 12.5964 23.0804 12.4041C23.276 12.2086 23.5096 12.1108 23.7814 12.1108C24.0532 12.1108 24.2869 12.2086 24.4824 12.4041C24.678 12.5964 24.7757 12.8284 24.7757 13.1001C24.7757 13.2824 24.7293 13.4498 24.6365 13.6023C24.5471 13.7514 24.4277 13.8707 24.2786 13.9602C24.1294 14.0497 23.9637 14.0945 23.7814 14.0945ZM30.3129 14V3.81818H34.131C34.9132 3.81818 35.5695 3.95407 36.0998 4.22585C36.6334 4.49763 37.0361 4.87879 37.3079 5.36932C37.583 5.85653 37.7205 6.42495 37.7205 7.07457C37.7205 7.72751 37.5813 8.29427 37.3029 8.77486C37.0278 9.25213 36.6218 9.62169 36.0849 9.88352C35.5479 10.142 34.8884 10.2713 34.1062 10.2713H31.3867V8.74006H33.8576C34.315 8.74006 34.6895 8.67708 34.9812 8.55114C35.2728 8.42187 35.4883 8.23461 35.6275 7.98935C35.77 7.74077 35.8413 7.43584 35.8413 7.07457C35.8413 6.7133 35.77 6.40507 35.6275 6.14986C35.485 5.89134 35.2679 5.69579 34.9762 5.56321C34.6845 5.42732 34.3084 5.35938 33.8477 5.35938H32.1573V14H30.3129ZM35.5728 9.38636L38.0934 14H36.0352L33.5593 9.38636H35.5728ZM42.6101 14.1491C41.8445 14.1491 41.1832 13.9901 40.6264 13.6719C40.0729 13.3504 39.647 12.8963 39.3487 12.3097C39.0504 11.7197 38.9013 11.0253 38.9013 10.2266C38.9013 9.44105 39.0504 8.75166 39.3487 8.15838C39.6503 7.56179 40.0713 7.09777 40.6115 6.76633C41.1518 6.43158 41.7865 6.2642 42.5156 6.2642C42.9863 6.2642 43.4304 6.34044 43.848 6.4929C44.2689 6.64205 44.6402 6.87405 44.9616 7.18892C45.2865 7.50379 45.5417 7.90483 45.7273 8.39205C45.9129 8.87595 46.0057 9.45265 46.0057 10.1222V10.674H39.7464V9.46094H44.2805C44.2772 9.11624 44.2027 8.80966 44.0568 8.54119C43.911 8.26941 43.7071 8.05563 43.4453 7.89986C43.1868 7.74408 42.8852 7.66619 42.5405 7.66619C42.1726 7.66619 41.8494 7.75568 41.571 7.93466C41.2926 8.11032 41.0755 8.34233 40.9197 8.63068C40.7673 8.91572 40.6894 9.22893 40.6861 9.57031V10.6293C40.6861 11.0734 40.7673 11.4545 40.9297 11.7727C41.0921 12.0876 41.3191 12.3295 41.6108 12.4986C41.9025 12.6643 42.2438 12.7472 42.6349 12.7472C42.8968 12.7472 43.1338 12.7107 43.3459 12.6378C43.558 12.5616 43.742 12.4505 43.8977 12.3047C44.0535 12.1589 44.1712 11.9782 44.2507 11.7628L45.9311 11.9517C45.825 12.3958 45.6229 12.7836 45.3246 13.1151C45.0296 13.4432 44.6518 13.6984 44.1911 13.8807C43.7304 14.0597 43.2034 14.1491 42.6101 14.1491ZM47.5282 14V6.36364H49.2484V7.66122H49.3379C49.497 7.22372 49.7605 6.88234 50.1284 6.63707C50.4963 6.38849 50.9354 6.2642 51.4458 6.2642C51.9629 6.2642 52.3987 6.39015 52.7534 6.64205C53.1113 6.89062 53.3632 7.23035 53.5091 7.66122H53.5886C53.7576 7.23698 54.0427 6.89891 54.4437 6.64702C54.8481 6.39181 55.327 6.2642 55.8805 6.2642C56.5832 6.2642 57.1565 6.48627 57.6007 6.9304C58.0448 7.37453 58.2669 8.02249 58.2669 8.87429V14H56.4622V9.1527C56.4622 8.67874 56.3362 8.33239 56.0843 8.11364C55.8324 7.89157 55.5242 7.78054 55.1596 7.78054C54.7254 7.78054 54.3857 7.91643 54.1404 8.18821C53.8985 8.45668 53.7775 8.80634 53.7775 9.23722V14H52.0126V9.07812C52.0126 8.68371 51.8933 8.36884 51.6547 8.13352C51.4193 7.8982 51.1111 7.78054 50.7299 7.78054C50.4714 7.78054 50.2361 7.84683 50.024 7.9794C49.8118 8.10866 49.6428 8.29261 49.5169 8.53125C49.3909 8.76657 49.3279 9.04167 49.3279 9.35653V14H47.5282ZM64.9599 10.7884V6.36364H66.7596V14H65.0146V12.6428H64.935C64.7627 13.0703 64.4793 13.42 64.0849 13.6918C63.6938 13.9635 63.2115 14.0994 62.6381 14.0994C62.1377 14.0994 61.6952 13.9884 61.3107 13.7663C60.9296 13.541 60.6313 13.2145 60.4158 12.7869C60.2004 12.3561 60.0927 11.8357 60.0927 11.2259V6.36364H61.8924V10.9474C61.8924 11.4313 62.025 11.8158 62.2901 12.1009C62.5553 12.3859 62.9033 12.5284 63.3342 12.5284C63.5993 12.5284 63.8562 12.4638 64.1048 12.3345C64.3533 12.2053 64.5572 12.013 64.7163 11.7578C64.8787 11.4993 64.9599 11.1761 64.9599 10.7884ZM70.41 9.52557V14H68.6103V6.36364H70.3304V7.66122H70.4199C70.5956 7.23366 70.8757 6.89394 71.2601 6.64205C71.6479 6.39015 72.1268 6.2642 72.6969 6.2642C73.2239 6.2642 73.6829 6.37689 74.074 6.60227C74.4685 6.82765 74.7734 7.15412 74.9888 7.58168C75.2076 8.00923 75.3153 8.52794 75.312 9.13778V14H73.5123V9.41619C73.5123 8.90578 73.3797 8.50639 73.1145 8.21804C72.8527 7.92969 72.4898 7.78551 72.0257 7.78551C71.7109 7.78551 71.4308 7.85511 71.1855 7.99432C70.9436 8.13021 70.753 8.32741 70.6138 8.58594C70.4779 8.84446 70.41 9.15767 70.41 9.52557ZM80.5222 14.1491C79.7566 14.1491 79.0953 13.9901 78.5385 13.6719C77.985 13.3504 77.5591 12.8963 77.2608 12.3097C76.9625 11.7197 76.8134 11.0253 76.8134 10.2266C76.8134 9.44105 76.9625 8.75166 77.2608 8.15838C77.5624 7.56179 77.9834 7.09777 78.5236 6.76633C79.0639 6.43158 79.6986 6.2642 80.4277 6.2642C80.8984 6.2642 81.3425 6.34044 81.7601 6.4929C82.181 6.64205 82.5523 6.87405 82.8738 7.18892C83.1986 7.50379 83.4538 7.90483 83.6394 8.39205C83.825 8.87595 83.9178 9.45265 83.9178 10.1222V10.674H77.6586V9.46094H82.1926C82.1893 9.11624 82.1148 8.80966 81.9689 8.54119C81.8231 8.26941 81.6193 8.05563 81.3574 7.89986C81.0989 7.74408 80.7973 7.66619 80.4526 7.66619C80.0847 7.66619 79.7615 7.75568 79.4831 7.93466C79.2047 8.11032 78.9876 8.34233 78.8319 8.63068C78.6794 8.91572 78.6015 9.22893 78.5982 9.57031V10.6293C78.5982 11.0734 78.6794 11.4545 78.8418 11.7727C79.0042 12.0876 79.2312 12.3295 79.5229 12.4986C79.8146 12.6643 80.156 12.7472 80.5471 12.7472C80.8089 12.7472 81.0459 12.7107 81.258 12.6378C81.4701 12.5616 81.6541 12.4505 81.8098 12.3047C81.9656 12.1589 82.0833 11.9782 82.1628 11.7628L83.8432 11.9517C83.7372 12.3958 83.535 12.7836 83.2367 13.1151C82.9417 13.4432 82.5639 13.6984 82.1032 13.8807C81.6425 14.0597 81.1155 14.1491 80.5222 14.1491ZM85.4403 14V6.36364H87.1854V7.63636H87.2649C87.4041 7.19555 87.6428 6.85582 87.9808 6.61719C88.3222 6.37524 88.7116 6.25426 89.1491 6.25426C89.2486 6.25426 89.3596 6.25923 89.4822 6.26918C89.6082 6.2758 89.7126 6.2874 89.7955 6.30398V7.95952C89.7192 7.933 89.5982 7.9098 89.4325 7.88991C89.2701 7.86671 89.1127 7.85511 88.9602 7.85511C88.6321 7.85511 88.3371 7.92637 88.0753 8.06889C87.8168 8.2081 87.6129 8.40199 87.4638 8.65057C87.3146 8.89915 87.2401 9.18584 87.2401 9.51065V14H85.4403ZM93.0518 14.1541C92.5679 14.1541 92.1321 14.0679 91.7443 13.8956C91.3598 13.7199 91.0549 13.4614 90.8295 13.12C90.6075 12.7786 90.4964 12.3577 90.4964 11.8572C90.4964 11.4264 90.576 11.0701 90.7351 10.7884C90.8942 10.5066 91.1113 10.2812 91.3864 10.1122C91.6615 9.94318 91.9714 9.81558 92.3161 9.7294C92.6641 9.63991 93.0237 9.57528 93.3949 9.53551C93.8423 9.48911 94.2053 9.44768 94.4837 9.41122C94.7621 9.37145 94.9643 9.31179 95.0902 9.23224C95.2195 9.14938 95.2841 9.02178 95.2841 8.84943V8.8196C95.2841 8.44508 95.1731 8.15507 94.951 7.94957C94.7289 7.74408 94.4091 7.64134 93.9915 7.64134C93.5507 7.64134 93.201 7.73745 92.9425 7.92969C92.6873 8.12192 92.5149 8.34896 92.4254 8.6108L90.745 8.37216C90.8776 7.90814 91.0964 7.52036 91.4013 7.20881C91.7062 6.89394 92.0791 6.65862 92.5199 6.50284C92.9607 6.34375 93.4479 6.2642 93.9815 6.2642C94.3494 6.2642 94.7157 6.30729 95.0803 6.39347C95.4448 6.47964 95.7779 6.62216 96.0795 6.82102C96.3812 7.01657 96.6231 7.28338 96.8054 7.62145C96.991 7.95952 97.0838 8.3821 97.0838 8.8892V14H95.3537V12.951H95.294C95.1847 13.1631 95.0305 13.362 94.8317 13.5476C94.6361 13.7299 94.3892 13.8774 94.0909 13.9901C93.7959 14.0994 93.4496 14.1541 93.0518 14.1541ZM93.5192 12.8317C93.8804 12.8317 94.1937 12.7604 94.4588 12.6179C94.724 12.4721 94.9278 12.2798 95.0703 12.0412C95.2161 11.8026 95.2891 11.5424 95.2891 11.2607V10.3608C95.2327 10.4072 95.1366 10.4503 95.0007 10.4901C94.8681 10.5298 94.719 10.5646 94.5533 10.5945C94.3875 10.6243 94.2235 10.6508 94.0611 10.674C93.8987 10.6972 93.7578 10.7171 93.6385 10.7337C93.37 10.7701 93.1297 10.8298 92.9176 10.9126C92.7055 10.9955 92.5381 11.1115 92.4155 11.2607C92.2929 11.4065 92.2315 11.5954 92.2315 11.8274C92.2315 12.1589 92.3525 12.4091 92.5945 12.5781C92.8364 12.7472 93.1446 12.8317 93.5192 12.8317ZM102.707 6.36364V7.75568H98.3168V6.36364H102.707ZM99.4006 4.53409H101.2V11.7031C101.2 11.9451 101.237 12.1307 101.31 12.2599C101.386 12.3859 101.485 12.4721 101.608 12.5185C101.731 12.5649 101.866 12.5881 102.016 12.5881C102.128 12.5881 102.231 12.5798 102.324 12.5632C102.42 12.5466 102.493 12.5317 102.543 12.5185L102.846 13.9254C102.75 13.9586 102.612 13.995 102.433 14.0348C102.258 14.0746 102.042 14.0978 101.787 14.1044C101.336 14.1177 100.93 14.0497 100.569 13.9006C100.208 13.7481 99.9209 13.5128 99.7088 13.1946C99.5 12.8764 99.3973 12.4787 99.4006 12.0014V4.53409ZM104.212 14V6.36364H106.012V14H104.212ZM105.117 5.27983C104.832 5.27983 104.586 5.18537 104.381 4.99645C104.175 4.80421 104.073 4.57386 104.073 4.3054C104.073 4.03362 104.175 3.80327 104.381 3.61435C104.586 3.42211 104.832 3.32599 105.117 3.32599C105.405 3.32599 105.65 3.42211 105.852 3.61435C106.058 3.80327 106.161 4.03362 106.161 4.3054C106.161 4.57386 106.058 4.80421 105.852 4.99645C105.65 5.18537 105.405 5.27983 105.117 5.27983ZM111.193 14.1491C110.447 14.1491 109.801 13.9851 109.254 13.657C108.707 13.3288 108.283 12.8698 107.982 12.2798C107.683 11.6899 107.534 11.0005 107.534 10.2116C107.534 9.42282 107.683 8.73177 107.982 8.13849C108.283 7.54522 108.707 7.08452 109.254 6.75639C109.801 6.42827 110.447 6.2642 111.193 6.2642C111.939 6.2642 112.585 6.42827 113.132 6.75639C113.679 7.08452 114.102 7.54522 114.4 8.13849C114.701 8.73177 114.852 9.42282 114.852 10.2116C114.852 11.0005 114.701 11.6899 114.4 12.2798C114.102 12.8698 113.679 13.3288 113.132 13.657C112.585 13.9851 111.939 14.1491 111.193 14.1491ZM111.203 12.7074C111.607 12.7074 111.946 12.5964 112.217 12.3743C112.489 12.1489 112.691 11.8473 112.824 11.4695C112.96 11.0916 113.028 10.6707 113.028 10.2067C113.028 9.73935 112.96 9.31676 112.824 8.93892C112.691 8.55777 112.489 8.2545 112.217 8.02912C111.946 7.80374 111.607 7.69105 111.203 7.69105C110.789 7.69105 110.444 7.80374 110.169 8.02912C109.897 8.2545 109.693 8.55777 109.558 8.93892C109.425 9.31676 109.359 9.73935 109.359 10.2067C109.359 10.6707 109.425 11.0916 109.558 11.4695C109.693 11.8473 109.897 12.1489 110.169 12.3743C110.444 12.5964 110.789 12.7074 111.203 12.7074ZM118.18 9.52557V14H116.38V6.36364H118.1V7.66122H118.189C118.365 7.23366 118.645 6.89394 119.03 6.64205C119.417 6.39015 119.896 6.2642 120.466 6.2642C120.993 6.2642 121.452 6.37689 121.844 6.60227C122.238 6.82765 122.543 7.15412 122.758 7.58168C122.977 8.00923 123.085 8.52794 123.081 9.13778V14H121.282V9.41619C121.282 8.90578 121.149 8.50639 120.884 8.21804C120.622 7.92969 120.259 7.78551 119.795 7.78551C119.48 7.78551 119.2 7.85511 118.955 7.99432C118.713 8.13021 118.523 8.32741 118.383 8.58594C118.247 8.84446 118.18 9.15767 118.18 9.52557Z" fill="black"/>
<path d="M1.23295 61V50.8182H4.79261C5.50189 50.8182 6.08688 50.9408 6.54759 51.1861C7.00829 51.428 7.35133 51.7545 7.5767 52.1655C7.80208 52.5732 7.91477 53.0256 7.91477 53.5227C7.91477 53.9602 7.83688 54.3215 7.68111 54.6065C7.52865 54.8916 7.32647 55.117 7.07457 55.2827C6.82599 55.4484 6.55587 55.571 6.2642 55.6506V55.75C6.57576 55.7699 6.88897 55.8793 7.20384 56.0781C7.5187 56.277 7.7822 56.562 7.99432 56.9332C8.20644 57.3045 8.3125 57.7585 8.3125 58.2955C8.3125 58.8059 8.1965 59.2649 7.96449 59.6726C7.73248 60.0803 7.36624 60.4034 6.86577 60.642C6.36529 60.8807 5.71402 61 4.91193 61H1.23295ZM2.46591 59.9062H4.91193C5.71733 59.9062 6.28906 59.7505 6.62713 59.4389C6.96851 59.1241 7.1392 58.7429 7.1392 58.2955C7.1392 57.9508 7.05137 57.6326 6.87571 57.3409C6.70005 57.0459 6.44981 56.8106 6.125 56.6349C5.80019 56.456 5.41572 56.3665 4.97159 56.3665H2.46591V59.9062ZM2.46591 55.2926H4.75284C5.12405 55.2926 5.45881 55.2197 5.7571 55.0739C6.05871 54.928 6.29735 54.7225 6.47301 54.4574C6.65199 54.1922 6.74148 53.8807 6.74148 53.5227C6.74148 53.0753 6.5857 52.6958 6.27415 52.3842C5.9626 52.0694 5.46875 51.9119 4.79261 51.9119H2.46591V55.2926ZM12.4265 61.179C11.9426 61.179 11.5034 61.0878 11.109 60.9055C10.7146 60.7199 10.4014 60.4531 10.1694 60.1051C9.93738 59.7538 9.82138 59.3295 9.82138 58.8324C9.82138 58.3949 9.90755 58.0402 10.0799 57.7685C10.2522 57.4934 10.4826 57.2779 10.771 57.1222C11.0593 56.9664 11.3775 56.8504 11.7255 56.7741C12.0768 56.6946 12.4298 56.6316 12.7844 56.5852C13.2485 56.5256 13.6246 56.4808 13.913 56.451C14.2047 56.4179 14.4168 56.3632 14.5494 56.2869C14.6853 56.2107 14.7532 56.0781 14.7532 55.8892V55.8494C14.7532 55.3589 14.619 54.9777 14.3505 54.706C14.0853 54.4342 13.6826 54.2983 13.1424 54.2983C12.5823 54.2983 12.1431 54.4209 11.8249 54.6662C11.5067 54.9115 11.283 55.1733 11.1538 55.4517L10.0401 55.054C10.239 54.59 10.5041 54.2287 10.8356 53.9702C11.1703 53.7083 11.5349 53.526 11.9293 53.4233C12.3271 53.3172 12.7182 53.2642 13.1026 53.2642C13.3479 53.2642 13.6296 53.294 13.9478 53.3537C14.2693 53.41 14.5792 53.5277 14.8775 53.7067C15.1791 53.8857 15.4293 54.1558 15.6282 54.517C15.8271 54.8783 15.9265 55.3622 15.9265 55.9688V61H14.7532V59.9659H14.6935C14.614 60.1316 14.4814 60.3089 14.2958 60.4979C14.1102 60.6868 13.8633 60.8475 13.555 60.9801C13.2468 61.1127 12.8706 61.179 12.4265 61.179ZM12.6055 60.125C13.0695 60.125 13.4606 60.0339 13.7788 59.8516C14.1003 59.6693 14.3422 59.4339 14.5046 59.1456C14.6703 58.8572 14.7532 58.554 14.7532 58.2358V57.1619C14.7035 57.2216 14.5941 57.2763 14.4251 57.326C14.2594 57.3724 14.0671 57.4138 13.8484 57.4503C13.6329 57.4834 13.4225 57.5133 13.217 57.5398C13.0148 57.563 12.8507 57.5829 12.7248 57.5994C12.4199 57.6392 12.1348 57.7038 11.8697 57.7933C11.6078 57.8795 11.3957 58.0104 11.2333 58.1861C11.0742 58.3584 10.9947 58.5937 10.9947 58.892C10.9947 59.2997 11.1455 59.608 11.4471 59.8168C11.752 60.0223 12.1381 60.125 12.6055 60.125ZM23.4771 55.0739L22.4231 55.3722C22.3568 55.1965 22.2591 55.0258 22.1298 54.8601C22.0038 54.6911 21.8315 54.5518 21.6127 54.4425C21.394 54.3331 21.1139 54.2784 20.7725 54.2784C20.3052 54.2784 19.9158 54.3861 19.6042 54.6016C19.296 54.8137 19.1419 55.0838 19.1419 55.4119C19.1419 55.7036 19.2479 55.9339 19.46 56.103C19.6722 56.272 20.0036 56.4129 20.4544 56.5256L21.5879 56.804C22.2707 56.9697 22.7794 57.2232 23.1142 57.5646C23.4489 57.9027 23.6163 58.3385 23.6163 58.8722C23.6163 59.3097 23.4904 59.7008 23.2385 60.0455C22.9899 60.3902 22.6419 60.6619 22.1944 60.8608C21.747 61.0597 21.2266 61.1591 20.6333 61.1591C19.8545 61.1591 19.2098 60.9901 18.6994 60.652C18.189 60.3139 17.8658 59.8201 17.7299 59.1705L18.8436 58.892C18.9496 59.303 19.1502 59.6113 19.4451 59.8168C19.7434 60.0223 20.1329 60.125 20.6135 60.125C21.1603 60.125 21.5945 60.009 21.916 59.777C22.2408 59.5417 22.4032 59.2599 22.4032 58.9318C22.4032 58.6667 22.3104 58.4446 22.1248 58.2656C21.9392 58.0833 21.6542 57.9474 21.2697 57.858L19.997 57.5597C19.2976 57.3939 18.7839 57.1371 18.4558 56.7891C18.131 56.4377 17.9686 55.9986 17.9686 55.4716C17.9686 55.0407 18.0895 54.6596 18.3315 54.3281C18.5768 53.9967 18.9099 53.7365 19.3308 53.5476C19.755 53.3587 20.2356 53.2642 20.7725 53.2642C21.5282 53.2642 22.1215 53.4299 22.5524 53.7614C22.9866 54.0928 23.2948 54.5303 23.4771 55.0739ZM25.3825 61V53.3636H26.5558V61H25.3825ZM25.979 52.0909C25.7504 52.0909 25.5531 52.013 25.3874 51.8572C25.225 51.7015 25.1438 51.5142 25.1438 51.2955C25.1438 51.0767 25.225 50.8894 25.3874 50.7337C25.5531 50.5779 25.7504 50.5 25.979 50.5C26.2077 50.5 26.4033 50.5779 26.5657 50.7337C26.7314 50.8894 26.8143 51.0767 26.8143 51.2955C26.8143 51.5142 26.7314 51.7015 26.5657 51.8572C26.4033 52.013 26.2077 52.0909 25.979 52.0909ZM31.807 61.1591C31.0911 61.1591 30.4746 60.9901 29.9576 60.652C29.4405 60.3139 29.0428 59.8482 28.7644 59.255C28.486 58.6617 28.3468 57.9839 28.3468 57.2216C28.3468 56.446 28.4893 55.7616 28.7743 55.1683C29.0627 54.5717 29.4637 54.1061 29.9775 53.7713C30.4945 53.4332 31.0977 53.2642 31.7871 53.2642C32.324 53.2642 32.8079 53.3636 33.2388 53.5625C33.6697 53.7614 34.0227 54.0398 34.2978 54.3977C34.5729 54.7557 34.7435 55.1733 34.8098 55.6506H33.6365C33.5471 55.3026 33.3482 54.9943 33.04 54.7259C32.735 54.4541 32.324 54.3182 31.807 54.3182C31.3496 54.3182 30.9486 54.4375 30.6039 54.6761C30.2625 54.9115 29.9957 55.2446 29.8034 55.6754C29.6145 56.103 29.5201 56.6051 29.5201 57.1818C29.5201 57.7718 29.6129 58.2855 29.7985 58.723C29.9874 59.1605 30.2525 59.5002 30.5939 59.7422C30.9386 59.9841 31.343 60.1051 31.807 60.1051C32.1119 60.1051 32.3887 60.0521 32.6373 59.946C32.8858 59.84 33.0963 59.6875 33.2686 59.4886C33.441 59.2898 33.5636 59.0511 33.6365 58.7727H34.8098C34.7435 59.2235 34.5795 59.6295 34.3176 59.9908C34.0591 60.3487 33.7161 60.6338 33.2885 60.8459C32.8643 61.0547 32.3704 61.1591 31.807 61.1591ZM46.1898 53.3636C46.1301 52.8598 45.8882 52.4688 45.464 52.1903C45.0397 51.9119 44.5194 51.7727 43.9029 51.7727C43.4521 51.7727 43.0577 51.8456 42.7196 51.9915C42.3849 52.1373 42.123 52.3378 41.9341 52.593C41.7485 52.8482 41.6557 53.1383 41.6557 53.4631C41.6557 53.7348 41.7203 53.9685 41.8496 54.1641C41.9822 54.3563 42.1512 54.517 42.3567 54.6463C42.5622 54.7723 42.7776 54.8767 43.003 54.9595C43.2284 55.0391 43.4355 55.1037 43.6245 55.1534L44.6586 55.4318C44.9237 55.5014 45.2187 55.5975 45.5435 55.7202C45.8716 55.8428 46.1848 56.0102 46.4831 56.2223C46.7847 56.4311 47.0333 56.6996 47.2289 57.0277C47.4244 57.3558 47.5222 57.7585 47.5222 58.2358C47.5222 58.786 47.378 59.2831 47.0897 59.7273C46.8046 60.1714 46.387 60.5244 45.8368 60.7862C45.29 61.0481 44.6254 61.179 43.8432 61.179C43.1141 61.179 42.4827 61.0613 41.949 60.826C41.4187 60.5907 41.0011 60.2625 40.6962 59.8416C40.3946 59.4207 40.2239 58.9318 40.1841 58.375H41.4569C41.49 58.7595 41.6193 59.0777 41.8446 59.3295C42.0733 59.5781 42.3617 59.7637 42.7097 59.8864C43.061 60.0057 43.4389 60.0653 43.8432 60.0653C44.3139 60.0653 44.7364 59.9891 45.111 59.8366C45.4855 59.6809 45.7821 59.4654 46.0009 59.1903C46.2196 58.9119 46.329 58.5871 46.329 58.2159C46.329 57.8778 46.2346 57.6027 46.0456 57.3906C45.8567 57.1785 45.6081 57.0062 45.2999 56.8736C44.9917 56.741 44.6586 56.625 44.3006 56.5256L43.0478 56.1676C42.2523 55.9389 41.6226 55.6125 41.1586 55.1882C40.6945 54.764 40.4625 54.2088 40.4625 53.5227C40.4625 52.9527 40.6167 52.4555 40.9249 52.0312C41.2364 51.6037 41.6541 51.2723 42.1777 51.0369C42.7047 50.7983 43.293 50.679 43.9426 50.679C44.5989 50.679 45.1822 50.7966 45.6926 51.032C46.2031 51.264 46.6074 51.5821 46.9057 51.9865C47.2073 52.3909 47.3664 52.8499 47.383 53.3636H46.1898ZM51.6374 61.179C51.1535 61.179 50.7144 61.0878 50.32 60.9055C49.9255 60.7199 49.6123 60.4531 49.3803 60.1051C49.1483 59.7538 49.0323 59.3295 49.0323 58.8324C49.0323 58.3949 49.1185 58.0402 49.2908 57.7685C49.4632 57.4934 49.6935 57.2779 49.9819 57.1222C50.2702 56.9664 50.5884 56.8504 50.9364 56.7741C51.2878 56.6946 51.6407 56.6316 51.9954 56.5852C52.4594 56.5256 52.8356 56.4808 53.1239 56.451C53.4156 56.4179 53.6277 56.3632 53.7603 56.2869C53.8962 56.2107 53.9641 56.0781 53.9641 55.8892V55.8494C53.9641 55.3589 53.8299 54.9777 53.5614 54.706C53.2963 54.4342 52.8936 54.2983 52.3533 54.2983C51.7932 54.2983 51.354 54.4209 51.0359 54.6662C50.7177 54.9115 50.494 55.1733 50.3647 55.4517L49.2511 55.054C49.4499 54.59 49.7151 54.2287 50.0465 53.9702C50.3813 53.7083 50.7459 53.526 51.1403 53.4233C51.538 53.3172 51.9291 53.2642 52.3136 53.2642C52.5588 53.2642 52.8406 53.294 53.1587 53.3537C53.4802 53.41 53.7901 53.5277 54.0884 53.7067C54.39 53.8857 54.6403 54.1558 54.8391 54.517C55.038 54.8783 55.1374 55.3622 55.1374 55.9688V61H53.9641V59.9659H53.9045C53.8249 60.1316 53.6924 60.3089 53.5067 60.4979C53.3211 60.6868 53.0742 60.8475 52.766 60.9801C52.4577 61.1127 52.0816 61.179 51.6374 61.179ZM51.8164 60.125C52.2804 60.125 52.6715 60.0339 52.9897 59.8516C53.3112 59.6693 53.5531 59.4339 53.7156 59.1456C53.8813 58.8572 53.9641 58.554 53.9641 58.2358V57.1619C53.9144 57.2216 53.805 57.2763 53.636 57.326C53.4703 57.3724 53.2781 57.4138 53.0593 57.4503C52.8439 57.4834 52.6334 57.5133 52.4279 57.5398C52.2257 57.563 52.0617 57.5829 51.9357 57.5994C51.6308 57.6392 51.3458 57.7038 51.0806 57.7933C50.8188 57.8795 50.6067 58.0104 50.4442 58.1861C50.2852 58.3584 50.2056 58.5937 50.2056 58.892C50.2056 59.2997 50.3564 59.608 50.658 59.8168C50.9629 60.0223 51.3491 60.125 51.8164 60.125ZM58.4522 50.8182V61H57.2789V50.8182H58.4522ZM62.8484 61.179C62.3645 61.179 61.9253 61.0878 61.5309 60.9055C61.1365 60.7199 60.8233 60.4531 60.5913 60.1051C60.3593 59.7538 60.2433 59.3295 60.2433 58.8324C60.2433 58.3949 60.3294 58.0402 60.5018 57.7685C60.6741 57.4934 60.9045 57.2779 61.1928 57.1222C61.4812 56.9664 61.7994 56.8504 62.1474 56.7741C62.4987 56.6946 62.8517 56.6316 63.2063 56.5852C63.6703 56.5256 64.0465 56.4808 64.3349 56.451C64.6265 56.4179 64.8387 56.3632 64.9712 56.2869C65.1071 56.2107 65.1751 56.0781 65.1751 55.8892V55.8494C65.1751 55.3589 65.0408 54.9777 64.7724 54.706C64.5072 54.4342 64.1045 54.2983 63.5643 54.2983C63.0041 54.2983 62.565 54.4209 62.2468 54.6662C61.9286 54.9115 61.7049 55.1733 61.5756 55.4517L60.462 55.054C60.6609 54.59 60.926 54.2287 61.2575 53.9702C61.5922 53.7083 61.9568 53.526 62.3512 53.4233C62.7489 53.3172 63.14 53.2642 63.5245 53.2642C63.7698 53.2642 64.0515 53.294 64.3697 53.3537C64.6912 53.41 65.0011 53.5277 65.2994 53.7067C65.601 53.8857 65.8512 54.1558 66.0501 54.517C66.2489 54.8783 66.3484 55.3622 66.3484 55.9688V61H65.1751V59.9659H65.1154C65.0359 60.1316 64.9033 60.3089 64.7177 60.4979C64.5321 60.6868 64.2852 60.8475 63.9769 60.9801C63.6687 61.1127 63.2925 61.179 62.8484 61.179ZM63.0273 60.125C63.4914 60.125 63.8825 60.0339 64.2006 59.8516C64.5221 59.6693 64.7641 59.4339 64.9265 59.1456C65.0922 58.8572 65.1751 58.554 65.1751 58.2358V57.1619C65.1254 57.2216 65.016 57.2763 64.8469 57.326C64.6812 57.3724 64.489 57.4138 64.2702 57.4503C64.0548 57.4834 63.8443 57.5133 63.6388 57.5398C63.4367 57.563 63.2726 57.5829 63.1467 57.5994C62.8417 57.6392 62.5567 57.7038 62.2915 57.7933C62.0297 57.8795 61.8176 58.0104 61.6552 58.1861C61.4961 58.3584 61.4165 58.5937 61.4165 58.892C61.4165 59.2997 61.5674 59.608 61.869 59.8168C62.1739 60.0223 62.56 60.125 63.0273 60.125ZM68.4899 61V53.3636H69.6234V54.517H69.7029C69.8422 54.1392 70.094 53.8326 70.4586 53.5973C70.8232 53.362 71.2342 53.2443 71.6916 53.2443C71.7778 53.2443 71.8855 53.246 72.0147 53.2493C72.144 53.2526 72.2418 53.2576 72.3081 53.2642V54.4574C72.2683 54.4474 72.1771 54.4325 72.0346 54.4126C71.8954 54.3894 71.7479 54.3778 71.5922 54.3778C71.2209 54.3778 70.8895 54.4557 70.5978 54.6115C70.3095 54.764 70.0808 54.9761 69.9118 55.2479C69.746 55.5163 69.6632 55.8229 69.6632 56.1676V61H68.4899ZM74.687 63.8636C74.4881 63.8636 74.3108 63.8471 74.155 63.8139C73.9992 63.7841 73.8915 63.7543 73.8319 63.7244L74.1301 62.6903C74.4152 62.7633 74.6671 62.7898 74.8858 62.7699C75.1046 62.75 75.2985 62.6522 75.4675 62.4766C75.6399 62.3042 75.7973 62.0241 75.9398 61.6364L76.1586 61.0398L73.3347 53.3636H74.6074L76.7154 59.4489H76.7949L78.9029 53.3636H80.1756L76.9341 62.1136C76.7883 62.508 76.6077 62.8345 76.3922 63.093C76.1768 63.3549 75.9266 63.5488 75.6415 63.6747C75.3598 63.8007 75.0416 63.8636 74.687 63.8636ZM594.176 61H592.883L596.622 50.8182H597.895L601.633 61H600.341L597.298 52.429H597.219L594.176 61ZM594.653 57.0227H599.863V58.1165H594.653V57.0227ZM603.219 61V50.8182H609.364V51.9119H604.452V55.3523H609.046V56.446H604.452V59.9062H609.444V61H603.219ZM614.729 61H611.586V50.8182H614.868C615.855 50.8182 616.701 51.022 617.403 51.4297C618.106 51.834 618.644 52.4157 619.019 53.1747C619.394 53.9304 619.581 54.8352 619.581 55.8892C619.581 56.9498 619.392 57.8629 619.014 58.6286C618.636 59.3909 618.086 59.9775 617.363 60.3885C616.641 60.7962 615.763 61 614.729 61ZM612.819 59.9062H614.649C615.491 59.9062 616.189 59.7438 616.742 59.419C617.296 59.0942 617.708 58.6319 617.98 58.032C618.252 57.4321 618.388 56.7178 618.388 55.8892C618.388 55.0672 618.253 54.3596 617.985 53.7663C617.716 53.1697 617.315 52.7124 616.782 52.3942C616.248 52.0727 615.584 51.9119 614.788 51.9119H612.819V59.9062ZM9.42614 88H8.19318C8.12027 87.6454 7.99266 87.3338 7.81037 87.0653C7.63139 86.7969 7.41264 86.5715 7.15412 86.3892C6.89891 86.2036 6.61553 86.0644 6.30398 85.9716C5.99242 85.8788 5.66761 85.8324 5.32955 85.8324C4.71307 85.8324 4.15459 85.9882 3.65412 86.2997C3.15696 86.6113 2.76089 87.0703 2.46591 87.6768C2.17424 88.2834 2.02841 89.0275 2.02841 89.9091C2.02841 90.7907 2.17424 91.5348 2.46591 92.1413C2.76089 92.7479 3.15696 93.2069 3.65412 93.5185C4.15459 93.83 4.71307 93.9858 5.32955 93.9858C5.66761 93.9858 5.99242 93.9394 6.30398 93.8466C6.61553 93.7538 6.89891 93.6162 7.15412 93.4339C7.41264 93.2483 7.63139 93.0213 7.81037 92.7528C7.99266 92.4811 8.12027 92.1695 8.19318 91.8182H9.42614C9.33333 92.3385 9.1643 92.8042 8.91903 93.2152C8.67377 93.6262 8.36885 93.9759 8.00426 94.2642C7.63968 94.5492 7.23035 94.7663 6.77628 94.9155C6.32552 95.0646 5.84328 95.1392 5.32955 95.1392C4.46117 95.1392 3.68892 94.9271 3.01278 94.5028C2.33665 94.0786 1.80469 93.4754 1.4169 92.6932C1.02912 91.911 0.835227 90.983 0.835227 89.9091C0.835227 88.8352 1.02912 87.9072 1.4169 87.125C1.80469 86.3428 2.33665 85.7396 3.01278 85.3153C3.68892 84.8911 4.46117 84.679 5.32955 84.679C5.84328 84.679 6.32552 84.7536 6.77628 84.9027C7.23035 85.0518 7.63968 85.2706 8.00426 85.5589C8.36885 85.844 8.67377 86.192 8.91903 86.603C9.1643 87.0107 9.33333 87.4763 9.42614 88ZM14.3617 95.1591C13.6723 95.1591 13.0674 94.995 12.5471 94.6669C12.03 94.3388 11.6257 93.8797 11.334 93.2898C11.0456 92.6998 10.9015 92.0104 10.9015 91.2216C10.9015 90.4261 11.0456 89.7318 11.334 89.1385C11.6257 88.5452 12.03 88.0845 12.5471 87.7564C13.0674 87.4283 13.6723 87.2642 14.3617 87.2642C15.0511 87.2642 15.6543 87.4283 16.1713 87.7564C16.6917 88.0845 17.0961 88.5452 17.3844 89.1385C17.6761 89.7318 17.8219 90.4261 17.8219 91.2216C17.8219 92.0104 17.6761 92.6998 17.3844 93.2898C17.0961 93.8797 16.6917 94.3388 16.1713 94.6669C15.6543 94.995 15.0511 95.1591 14.3617 95.1591ZM14.3617 94.1051C14.8854 94.1051 15.3162 93.9709 15.6543 93.7024C15.9924 93.4339 16.2426 93.081 16.405 92.6435C16.5674 92.206 16.6486 91.732 16.6486 91.2216C16.6486 90.7112 16.5674 90.2356 16.405 89.7947C16.2426 89.3539 15.9924 88.9976 15.6543 88.7259C15.3162 88.4541 14.8854 88.3182 14.3617 88.3182C13.838 88.3182 13.4071 88.4541 13.0691 88.7259C12.731 88.9976 12.4808 89.3539 12.3184 89.7947C12.156 90.2356 12.0748 90.7112 12.0748 91.2216C12.0748 91.732 12.156 92.206 12.3184 92.6435C12.4808 93.081 12.731 93.4339 13.0691 93.7024C13.4071 93.9709 13.838 94.1051 14.3617 94.1051ZM25.022 89.0739L23.968 89.3722C23.9018 89.1965 23.804 89.0258 23.6747 88.8601C23.5488 88.6911 23.3764 88.5518 23.1577 88.4425C22.9389 88.3331 22.6589 88.2784 22.3175 88.2784C21.8501 88.2784 21.4607 88.3861 21.1491 88.6016C20.8409 88.8137 20.6868 89.0838 20.6868 89.4119C20.6868 89.7036 20.7929 89.9339 21.005 90.103C21.2171 90.272 21.5485 90.4129 21.9993 90.5256L23.1328 90.804C23.8156 90.9697 24.3243 91.2232 24.6591 91.5646C24.9938 91.9027 25.1612 92.3385 25.1612 92.8722C25.1612 93.3097 25.0353 93.7008 24.7834 94.0455C24.5348 94.3902 24.1868 94.6619 23.7393 94.8608C23.2919 95.0597 22.7715 95.1591 22.1783 95.1591C21.3994 95.1591 20.7547 94.9901 20.2443 94.652C19.7339 94.3139 19.4107 93.8201 19.2749 93.1705L20.3885 92.892C20.4946 93.303 20.6951 93.6113 20.9901 93.8168C21.2884 94.0223 21.6778 94.125 22.1584 94.125C22.7053 94.125 23.1394 94.009 23.4609 93.777C23.7857 93.5417 23.9482 93.2599 23.9482 92.9318C23.9482 92.6667 23.8554 92.4446 23.6697 92.2656C23.4841 92.0833 23.1991 91.9474 22.8146 91.858L21.5419 91.5597C20.8426 91.3939 20.3288 91.1371 20.0007 90.7891C19.6759 90.4377 19.5135 89.9986 19.5135 89.4716C19.5135 89.0407 19.6345 88.6596 19.8764 88.3281C20.1217 87.9967 20.4548 87.7365 20.8757 87.5476C21.3 87.3587 21.7805 87.2642 22.3175 87.2642C23.0732 87.2642 23.6664 87.4299 24.0973 87.7614C24.5315 88.0928 24.8397 88.5303 25.022 89.0739ZM30.2484 87.3636V88.358H26.291V87.3636H30.2484ZM27.4444 85.5341H28.6177V92.8125C28.6177 93.1439 28.6658 93.3925 28.7619 93.5582C28.8613 93.7206 28.9873 93.83 29.1397 93.8864C29.2955 93.9394 29.4596 93.9659 29.6319 93.9659C29.7612 93.9659 29.8672 93.9593 29.9501 93.946C30.033 93.9295 30.0993 93.9162 30.149 93.9062L30.3876 94.9602C30.3081 94.9901 30.197 95.0199 30.0545 95.0497C29.912 95.0829 29.7314 95.0994 29.5126 95.0994C29.1812 95.0994 28.8564 95.0282 28.5382 94.8857C28.2233 94.7431 27.9615 94.526 27.7527 94.2344C27.5472 93.9427 27.4444 93.5748 27.4444 93.1307V85.5341ZM39.0531 95.1591C38.3637 95.1591 37.7588 94.995 37.2385 94.6669C36.7214 94.3388 36.3171 93.8797 36.0254 93.2898C35.737 92.6998 35.5929 92.0104 35.5929 91.2216C35.5929 90.4261 35.737 89.7318 36.0254 89.1385C36.3171 88.5452 36.7214 88.0845 37.2385 87.7564C37.7588 87.4283 38.3637 87.2642 39.0531 87.2642C39.7425 87.2642 40.3457 87.4283 40.8627 87.7564C41.3831 88.0845 41.7875 88.5452 42.0758 89.1385C42.3675 89.7318 42.5133 90.4261 42.5133 91.2216C42.5133 92.0104 42.3675 92.6998 42.0758 93.2898C41.7875 93.8797 41.3831 94.3388 40.8627 94.6669C40.3457 94.995 39.7425 95.1591 39.0531 95.1591ZM39.0531 94.1051C39.5768 94.1051 40.0076 93.9709 40.3457 93.7024C40.6838 93.4339 40.934 93.081 41.0964 92.6435C41.2588 92.206 41.34 91.732 41.34 91.2216C41.34 90.7112 41.2588 90.2356 41.0964 89.7947C40.934 89.3539 40.6838 88.9976 40.3457 88.7259C40.0076 88.4541 39.5768 88.3182 39.0531 88.3182C38.5294 88.3182 38.0985 88.4541 37.7605 88.7259C37.4224 88.9976 37.1722 89.3539 37.0098 89.7947C36.8474 90.2356 36.7662 90.7112 36.7662 91.2216C36.7662 91.732 36.8474 92.206 37.0098 92.6435C37.1722 93.081 37.4224 93.4339 37.7605 93.7024C38.0985 93.9709 38.5294 94.1051 39.0531 94.1051ZM47.7049 87.3636V88.358H43.5884V87.3636H47.7049ZM44.8214 95V86.3097C44.8214 85.8722 44.9241 85.5076 45.1296 85.2159C45.3351 84.9242 45.6019 84.7055 45.93 84.5597C46.2582 84.4138 46.6045 84.3409 46.9691 84.3409C47.2575 84.3409 47.4928 84.3641 47.6751 84.4105C47.8574 84.4569 47.9933 84.5 48.0827 84.5398L47.7447 85.554C47.685 85.5341 47.6022 85.5092 47.4961 85.4794C47.3933 85.4496 47.2575 85.4347 47.0884 85.4347C46.7006 85.4347 46.4206 85.5324 46.2482 85.728C46.0792 85.9235 45.9947 86.2102 45.9947 86.5881V95H44.8214ZM53.4458 95V84.8182H54.6788V93.9062H59.4118V95H53.4458ZM61.1618 95V87.3636H62.335V95H61.1618ZM61.7583 86.0909C61.5297 86.0909 61.3324 86.013 61.1667 85.8572C61.0043 85.7015 60.9231 85.5142 60.9231 85.2955C60.9231 85.0767 61.0043 84.8894 61.1667 84.7337C61.3324 84.5779 61.5297 84.5 61.7583 84.5C61.987 84.5 62.1826 84.5779 62.345 84.7337C62.5107 84.8894 62.5936 85.0767 62.5936 85.2955C62.5936 85.5142 62.5107 85.7015 62.345 85.8572C62.1826 86.013 61.987 86.0909 61.7583 86.0909ZM70.7283 87.3636L67.9045 95H66.7113L63.8874 87.3636H65.1602L67.2681 93.4489H67.3477L69.4556 87.3636H70.7283ZM72.277 95V87.3636H73.4503V95H72.277ZM72.8736 86.0909C72.6449 86.0909 72.4477 86.013 72.282 85.8572C72.1196 85.7015 72.0384 85.5142 72.0384 85.2955C72.0384 85.0767 72.1196 84.8894 72.282 84.7337C72.4477 84.5779 72.6449 84.5 72.8736 84.5C73.1023 84.5 73.2978 84.5779 73.4602 84.7337C73.6259 84.8894 73.7088 85.0767 73.7088 85.2955C73.7088 85.5142 73.6259 85.7015 73.4602 85.8572C73.2978 86.013 73.1023 86.0909 72.8736 86.0909ZM76.7725 90.4062V95H75.5993V87.3636H76.7328V88.5568H76.8322C77.0112 88.169 77.283 87.8575 77.6475 87.6222C78.0121 87.3835 78.4828 87.2642 79.0595 87.2642C79.5765 87.2642 80.0289 87.3703 80.4167 87.5824C80.8045 87.7912 81.1061 88.1094 81.3216 88.5369C81.537 88.9612 81.6447 89.4981 81.6447 90.1477V95H80.4714V90.2273C80.4714 89.6274 80.3156 89.16 80.0041 88.8253C79.6925 88.4872 79.265 88.3182 78.7214 88.3182C78.3469 88.3182 78.0121 88.3994 77.7172 88.5618C77.4255 88.7242 77.1951 88.9612 77.0261 89.2727C76.8571 89.5843 76.7725 89.9621 76.7725 90.4062ZM86.8711 98.0227C86.3043 98.0227 85.8171 97.9498 85.4094 97.804C85.0018 97.6615 84.6621 97.4725 84.3903 97.2372C84.1218 97.0052 83.908 96.7566 83.7489 96.4915L84.6836 95.8352C84.7897 95.9744 84.9239 96.1335 85.0863 96.3125C85.2487 96.4948 85.4708 96.6522 85.7525 96.7848C86.0375 96.9207 86.4104 96.9886 86.8711 96.9886C87.4876 96.9886 87.9963 96.8395 88.3974 96.5412C88.7984 96.2429 88.9989 95.7756 88.9989 95.1392V93.5881H88.8995C88.8133 93.7273 88.6907 93.8996 88.5316 94.1051C88.3758 94.3073 88.1504 94.4879 87.8555 94.647C87.5638 94.8028 87.1694 94.8807 86.6722 94.8807C86.0558 94.8807 85.5022 94.7348 85.0117 94.4432C84.5245 94.1515 84.1384 93.7273 83.8533 93.1705C83.5716 92.6136 83.4308 91.9375 83.4308 91.142C83.4308 90.3598 83.5683 89.6787 83.8434 89.0987C84.1185 88.5154 84.5013 88.0646 84.9918 87.7464C85.4824 87.425 86.0491 87.2642 86.6921 87.2642C87.1893 87.2642 87.5837 87.3471 87.8754 87.5128C88.1703 87.6752 88.3957 87.8608 88.5515 88.0696C88.7106 88.2751 88.8332 88.4441 88.9194 88.5767H89.0387V87.3636H90.1722V95.2188C90.1722 95.875 90.0231 96.4086 89.7248 96.8196C89.4298 97.2339 89.0321 97.5372 88.5316 97.7294C88.0344 97.925 87.4809 98.0227 86.8711 98.0227ZM86.8313 93.8267C87.302 93.8267 87.6997 93.719 88.0245 93.5036C88.3493 93.2881 88.5962 92.9782 88.7653 92.5739C88.9343 92.1695 89.0188 91.6856 89.0188 91.1222C89.0188 90.572 88.936 90.0864 88.7702 89.6655C88.6045 89.2446 88.3593 88.9148 88.0344 88.6761C87.7096 88.4375 87.3086 88.3182 86.8313 88.3182C86.3342 88.3182 85.9199 88.4441 85.5884 88.696C85.2603 88.9479 85.0134 89.286 84.8477 89.7102C84.6853 90.1345 84.604 90.6051 84.604 91.1222C84.604 91.6525 84.6869 92.1214 84.8526 92.5291C85.0217 92.9335 85.2702 93.2517 85.5984 93.4837C85.9298 93.7124 86.3408 93.8267 86.8313 93.8267ZM94.07 93.608L93.9904 94.1449C93.9341 94.5227 93.8479 94.9271 93.7319 95.358C93.6192 95.7888 93.5015 96.1948 93.3789 96.576C93.2563 96.9571 93.1552 97.2604 93.0756 97.4858H92.1808C92.2238 97.2737 92.2802 96.9936 92.3498 96.6456C92.4194 96.2976 92.489 95.9081 92.5586 95.4773C92.6315 95.0497 92.6912 94.6122 92.7376 94.1648L92.7972 93.608H94.07ZM108.931 89.9091C108.931 90.983 108.737 91.911 108.35 92.6932C107.962 93.4754 107.43 94.0786 106.754 94.5028C106.078 94.9271 105.305 95.1392 104.437 95.1392C103.569 95.1392 102.796 94.9271 102.12 94.5028C101.444 94.0786 100.912 93.4754 100.524 92.6932C100.137 91.911 99.9426 90.983 99.9426 89.9091C99.9426 88.8352 100.137 87.9072 100.524 87.125C100.912 86.3428 101.444 85.7396 102.12 85.3153C102.796 84.8911 103.569 84.679 104.437 84.679C105.305 84.679 106.078 84.8911 106.754 85.3153C107.43 85.7396 107.962 86.3428 108.35 87.125C108.737 87.9072 108.931 88.8352 108.931 89.9091ZM107.738 89.9091C107.738 89.0275 107.591 88.2834 107.296 87.6768C107.004 87.0703 106.608 86.6113 106.107 86.2997C105.61 85.9882 105.053 85.8324 104.437 85.8324C103.82 85.8324 103.262 85.9882 102.762 86.2997C102.264 86.6113 101.868 87.0703 101.573 87.6768C101.282 88.2834 101.136 89.0275 101.136 89.9091C101.136 90.7907 101.282 91.5348 101.573 92.1413C101.868 92.7479 102.264 93.2069 102.762 93.5185C103.262 93.83 103.82 93.9858 104.437 93.9858C105.053 93.9858 105.61 93.83 106.107 93.5185C106.608 93.2069 107.004 92.7479 107.296 92.1413C107.591 91.5348 107.738 90.7907 107.738 89.9091ZM114.166 87.3636V88.358H110.209V87.3636H114.166ZM111.362 85.5341H112.536V92.8125C112.536 93.1439 112.584 93.3925 112.68 93.5582C112.779 93.7206 112.905 93.83 113.058 93.8864C113.213 93.9394 113.378 93.9659 113.55 93.9659C113.679 93.9659 113.785 93.9593 113.868 93.946C113.951 93.9295 114.017 93.9162 114.067 93.9062L114.306 94.9602C114.226 94.9901 114.115 95.0199 113.972 95.0497C113.83 95.0829 113.649 95.0994 113.431 95.0994C113.099 95.0994 112.774 95.0282 112.456 94.8857C112.141 94.7431 111.879 94.526 111.671 94.2344C111.465 93.9427 111.362 93.5748 111.362 93.1307V85.5341ZM117.269 90.4062V95H116.095V84.8182H117.269V88.5568H117.368C117.547 88.1624 117.816 87.8492 118.173 87.6172C118.535 87.3819 119.015 87.2642 119.615 87.2642C120.136 87.2642 120.591 87.3686 120.982 87.5774C121.374 87.7829 121.677 88.0994 121.892 88.527C122.111 88.9512 122.22 89.4915 122.22 90.1477V95H121.047V90.2273C121.047 89.6207 120.89 89.1518 120.575 88.8203C120.263 88.4856 119.831 88.3182 119.277 88.3182C118.893 88.3182 118.548 88.3994 118.243 88.5618C117.941 88.7242 117.703 88.9612 117.527 89.2727C117.355 89.5843 117.269 89.9621 117.269 90.4062ZM127.569 95.1591C126.833 95.1591 126.198 94.9967 125.664 94.6719C125.134 94.3438 124.725 93.8864 124.436 93.2997C124.151 92.7098 124.009 92.0237 124.009 91.2415C124.009 90.4593 124.151 89.7699 124.436 89.1733C124.725 88.5734 125.126 88.1061 125.64 87.7713C126.157 87.4332 126.76 87.2642 127.449 87.2642C127.847 87.2642 128.24 87.3305 128.627 87.4631C129.015 87.5956 129.368 87.8111 129.686 88.1094C130.005 88.4044 130.258 88.7955 130.447 89.2827C130.636 89.7699 130.73 90.3698 130.73 91.0824V91.5795H124.844V90.5653H129.537C129.537 90.1345 129.451 89.75 129.279 89.4119C129.11 89.0739 128.868 88.8071 128.553 88.6115C128.241 88.416 127.873 88.3182 127.449 88.3182C126.982 88.3182 126.578 88.4342 126.236 88.6662C125.898 88.8949 125.638 89.1932 125.456 89.5611C125.273 89.929 125.182 90.3234 125.182 90.7443V91.4205C125.182 91.9972 125.282 92.486 125.48 92.8871C125.683 93.2848 125.963 93.5881 126.321 93.7969C126.679 94.0024 127.095 94.1051 127.569 94.1051C127.877 94.1051 128.155 94.062 128.404 93.9759C128.656 93.8864 128.873 93.7538 129.055 93.5781C129.237 93.3991 129.378 93.1771 129.478 92.9119L130.611 93.2301C130.492 93.6146 130.291 93.9527 130.01 94.2443C129.728 94.5327 129.38 94.758 128.966 94.9205C128.551 95.0795 128.086 95.1591 127.569 95.1591ZM132.515 95V87.3636H133.649V88.517H133.728C133.868 88.1392 134.119 87.8326 134.484 87.5973C134.849 87.362 135.26 87.2443 135.717 87.2443C135.803 87.2443 135.911 87.246 136.04 87.2493C136.169 87.2526 136.267 87.2576 136.333 87.2642V88.4574C136.294 88.4474 136.203 88.4325 136.06 88.4126C135.921 88.3894 135.773 88.3778 135.618 88.3778C135.246 88.3778 134.915 88.4557 134.623 88.6115C134.335 88.764 134.106 88.9761 133.937 89.2479C133.771 89.5163 133.689 89.8229 133.689 90.1676V95H132.515ZM142.238 95H140.946L144.684 84.8182H145.957L149.696 95H148.403L145.361 86.429H145.281L142.238 95ZM142.716 91.0227H147.926V92.1165H142.716V91.0227ZM152.296 84.8182V95H151.123V84.8182H152.296ZM155.618 84.8182V95H154.445V84.8182H155.618ZM160.869 95.1591C160.18 95.1591 159.575 94.995 159.055 94.6669C158.538 94.3388 158.133 93.8797 157.842 93.2898C157.553 92.6998 157.409 92.0104 157.409 91.2216C157.409 90.4261 157.553 89.7318 157.842 89.1385C158.133 88.5452 158.538 88.0845 159.055 87.7564C159.575 87.4283 160.18 87.2642 160.869 87.2642C161.559 87.2642 162.162 87.4283 162.679 87.7564C163.2 88.0845 163.604 88.5452 163.892 89.1385C164.184 89.7318 164.33 90.4261 164.33 91.2216C164.33 92.0104 164.184 92.6998 163.892 93.2898C163.604 93.8797 163.2 94.3388 162.679 94.6669C162.162 94.995 161.559 95.1591 160.869 95.1591ZM160.869 94.1051C161.393 94.1051 161.824 93.9709 162.162 93.7024C162.5 93.4339 162.75 93.081 162.913 92.6435C163.075 92.206 163.156 91.732 163.156 91.2216C163.156 90.7112 163.075 90.2356 162.913 89.7947C162.75 89.3539 162.5 88.9976 162.162 88.7259C161.824 88.4541 161.393 88.3182 160.869 88.3182C160.346 88.3182 159.915 88.4541 159.577 88.7259C159.239 88.9976 158.989 89.3539 158.826 89.7947C158.664 90.2356 158.583 90.7112 158.583 91.2216C158.583 91.732 158.664 92.206 158.826 92.6435C158.989 93.081 159.239 93.4339 159.577 93.7024C159.915 93.9709 160.346 94.1051 160.869 94.1051ZM167.591 95L165.264 87.3636H166.497L168.148 93.2102H168.227L169.858 87.3636H171.111L172.722 93.1903H172.801L174.452 87.3636H175.685L173.358 95H172.205L170.534 89.1335H170.415L168.744 95H167.591ZM179.483 95.179C178.999 95.179 178.56 95.0878 178.166 94.9055C177.771 94.7199 177.458 94.4531 177.226 94.1051C176.994 93.7538 176.878 93.3295 176.878 92.8324C176.878 92.3949 176.964 92.0402 177.137 91.7685C177.309 91.4934 177.539 91.2779 177.828 91.1222C178.116 90.9664 178.434 90.8504 178.782 90.7741C179.133 90.6946 179.486 90.6316 179.841 90.5852C180.305 90.5256 180.681 90.4808 180.97 90.451C181.261 90.4179 181.473 90.3632 181.606 90.2869C181.742 90.2107 181.81 90.0781 181.81 89.8892V89.8494C181.81 89.3589 181.676 88.9777 181.407 88.706C181.142 88.4342 180.739 88.2983 180.199 88.2983C179.639 88.2983 179.2 88.4209 178.882 88.6662C178.563 88.9115 178.34 89.1733 178.21 89.4517L177.097 89.054C177.296 88.59 177.561 88.2287 177.892 87.9702C178.227 87.7083 178.592 87.526 178.986 87.4233C179.384 87.3172 179.775 87.2642 180.159 87.2642C180.405 87.2642 180.686 87.294 181.004 87.3537C181.326 87.41 181.636 87.5277 181.934 87.7067C182.236 87.8857 182.486 88.1558 182.685 88.517C182.884 88.8783 182.983 89.3622 182.983 89.9688V95H181.81V93.9659H181.75C181.671 94.1316 181.538 94.3089 181.352 94.4979C181.167 94.6868 180.92 94.8475 180.612 94.9801C180.303 95.1127 179.927 95.179 179.483 95.179ZM179.662 94.125C180.126 94.125 180.517 94.0339 180.835 93.8516C181.157 93.6693 181.399 93.4339 181.561 93.1456C181.727 92.8572 181.81 92.554 181.81 92.2358V91.1619C181.76 91.2216 181.651 91.2763 181.482 91.326C181.316 91.3724 181.124 91.4138 180.905 91.4503C180.69 91.4834 180.479 91.5133 180.274 91.5398C180.071 91.563 179.907 91.5829 179.781 91.5994C179.477 91.6392 179.191 91.7038 178.926 91.7933C178.664 91.8795 178.452 92.0104 178.29 92.1861C178.131 92.3584 178.051 92.5937 178.051 92.892C178.051 93.2997 178.202 93.608 178.504 93.8168C178.809 94.0223 179.195 94.125 179.662 94.125ZM186.298 90.4062V95H185.125V87.3636H186.258V88.5568H186.358C186.537 88.169 186.808 87.8575 187.173 87.6222C187.538 87.3835 188.008 87.2642 188.585 87.2642C189.102 87.2642 189.554 87.3703 189.942 87.5824C190.33 87.7912 190.632 88.1094 190.847 88.5369C191.062 88.9612 191.17 89.4981 191.17 90.1477V95H189.997V90.2273C189.997 89.6274 189.841 89.16 189.529 88.8253C189.218 88.4872 188.79 88.3182 188.247 88.3182C187.872 88.3182 187.538 88.3994 187.243 88.5618C186.951 88.7242 186.721 88.9612 186.551 89.2727C186.382 89.5843 186.298 89.9621 186.298 90.4062ZM196.416 95.1591C195.7 95.1591 195.084 94.9901 194.567 94.652C194.05 94.3139 193.652 93.8482 193.374 93.255C193.095 92.6617 192.956 91.9839 192.956 91.2216C192.956 90.446 193.099 89.7616 193.384 89.1683C193.672 88.5717 194.073 88.1061 194.587 87.7713C195.104 87.4332 195.707 87.2642 196.396 87.2642C196.933 87.2642 197.417 87.3636 197.848 87.5625C198.279 87.7614 198.632 88.0398 198.907 88.3977C199.182 88.7557 199.353 89.1733 199.419 89.6506H198.246C198.156 89.3026 197.958 88.9943 197.649 88.7259C197.344 88.4541 196.933 88.3182 196.416 88.3182C195.959 88.3182 195.558 88.4375 195.213 88.6761C194.872 88.9115 194.605 89.2446 194.413 89.6754C194.224 90.103 194.129 90.6051 194.129 91.1818C194.129 91.7718 194.222 92.2855 194.408 92.723C194.597 93.1605 194.862 93.5002 195.203 93.7422C195.548 93.9841 195.952 94.1051 196.416 94.1051C196.721 94.1051 196.998 94.0521 197.247 93.946C197.495 93.84 197.706 93.6875 197.878 93.4886C198.05 93.2898 198.173 93.0511 198.246 92.7727H199.419C199.353 93.2235 199.189 93.6295 198.927 93.9908C198.669 94.3487 198.325 94.6338 197.898 94.8459C197.474 95.0547 196.98 95.1591 196.416 95.1591ZM204.336 95.1591C203.6 95.1591 202.966 94.9967 202.432 94.6719C201.902 94.3438 201.492 93.8864 201.204 93.2997C200.919 92.7098 200.776 92.0237 200.776 91.2415C200.776 90.4593 200.919 89.7699 201.204 89.1733C201.492 88.5734 201.893 88.1061 202.407 87.7713C202.924 87.4332 203.527 87.2642 204.217 87.2642C204.615 87.2642 205.007 87.3305 205.395 87.4631C205.783 87.5956 206.136 87.8111 206.454 88.1094C206.772 88.4044 207.026 88.7955 207.215 89.2827C207.404 89.7699 207.498 90.3698 207.498 91.0824V91.5795H201.612V90.5653H206.305C206.305 90.1345 206.219 89.75 206.046 89.4119C205.877 89.0739 205.635 88.8071 205.32 88.6115C205.009 88.416 204.641 88.3182 204.217 88.3182C203.749 88.3182 203.345 88.4342 203.004 88.6662C202.666 88.8949 202.405 89.1932 202.223 89.5611C202.041 89.929 201.95 90.3234 201.95 90.7443V91.4205C201.95 91.9972 202.049 92.486 202.248 92.8871C202.45 93.2848 202.73 93.5881 203.088 93.7969C203.446 94.0024 203.862 94.1051 204.336 94.1051C204.644 94.1051 204.923 94.062 205.171 93.9759C205.423 93.8864 205.64 93.7538 205.823 93.5781C206.005 93.3991 206.146 93.1771 206.245 92.9119L207.379 93.2301C207.259 93.6146 207.059 93.9527 206.777 94.2443C206.495 94.5327 206.147 94.758 205.733 94.9205C205.319 95.0795 204.853 95.1591 204.336 95.1591ZM214.692 89.0739L213.638 89.3722C213.572 89.1965 213.474 89.0258 213.345 88.8601C213.219 88.6911 213.046 88.5518 212.828 88.4425C212.609 88.3331 212.329 88.2784 211.987 88.2784C211.52 88.2784 211.131 88.3861 210.819 88.6016C210.511 88.8137 210.357 89.0838 210.357 89.4119C210.357 89.7036 210.463 89.9339 210.675 90.103C210.887 90.272 211.218 90.4129 211.669 90.5256L212.803 90.804C213.485 90.9697 213.994 91.2232 214.329 91.5646C214.664 91.9027 214.831 92.3385 214.831 92.8722C214.831 93.3097 214.705 93.7008 214.453 94.0455C214.205 94.3902 213.857 94.6619 213.409 94.8608C212.962 95.0597 212.441 95.1591 211.848 95.1591C211.069 95.1591 210.425 94.9901 209.914 94.652C209.404 94.3139 209.081 93.8201 208.945 93.1705L210.058 92.892C210.164 93.303 210.365 93.6113 210.66 93.8168C210.958 94.0223 211.348 94.125 211.828 94.125C212.375 94.125 212.809 94.009 213.131 93.777C213.456 93.5417 213.618 93.2599 213.618 92.9318C213.618 92.6667 213.525 92.4446 213.34 92.2656C213.154 92.0833 212.869 91.9474 212.485 91.858L211.212 91.5597C210.512 91.3939 209.999 91.1371 209.671 90.7891C209.346 90.4377 209.183 89.9986 209.183 89.4716C209.183 89.0407 209.304 88.6596 209.546 88.3281C209.792 87.9967 210.125 87.7365 210.546 87.5476C210.97 87.3587 211.45 87.2642 211.987 87.2642C212.743 87.2642 213.336 87.4299 213.767 87.7614C214.201 88.0928 214.51 88.5303 214.692 89.0739ZM595.174 95H593.881L597.62 84.8182H598.893L602.631 95H601.339L598.296 86.429H598.217L595.174 95ZM595.651 91.0227H600.862V92.1165H595.651V91.0227ZM604.217 95V84.8182H610.362V85.9119H605.45V89.3523H610.044V90.446H605.45V93.9062H610.442V95H604.217ZM615.727 95H612.585V84.8182H615.866C616.853 84.8182 617.699 85.022 618.401 85.4297C619.104 85.834 619.643 86.4157 620.017 87.1747C620.392 87.9304 620.579 88.8352 620.579 89.8892C620.579 90.9498 620.39 91.8629 620.012 92.6286C619.634 93.3909 619.084 93.9775 618.362 94.3885C617.639 94.7962 616.761 95 615.727 95ZM613.817 93.9062H615.647C616.489 93.9062 617.187 93.7438 617.74 93.419C618.294 93.0942 618.706 92.6319 618.978 92.032C619.25 91.4321 619.386 90.7178 619.386 89.8892C619.386 89.0672 619.251 88.3596 618.983 87.7663C618.714 87.1697 618.313 86.7124 617.78 86.3942C617.246 86.0727 616.582 85.9119 615.786 85.9119H613.817V93.9062ZM0.497159 120.593V118.818H8.85938V120.593H5.74219V129H3.61435V120.593H0.497159ZM12.5396 129.149C11.7673 129.149 11.0995 128.985 10.536 128.657C9.97591 128.326 9.54338 127.865 9.23846 127.275C8.93353 126.682 8.78107 125.994 8.78107 125.212C8.78107 124.423 8.93353 123.733 9.23846 123.143C9.54338 122.55 9.97591 122.089 10.536 121.761C11.0995 121.43 11.7673 121.264 12.5396 121.264C13.3118 121.264 13.978 121.43 14.5382 121.761C15.1016 122.089 15.5358 122.55 15.8407 123.143C16.1457 123.733 16.2981 124.423 16.2981 125.212C16.2981 125.994 16.1457 126.682 15.8407 127.275C15.5358 127.865 15.1016 128.326 14.5382 128.657C13.978 128.985 13.3118 129.149 12.5396 129.149ZM12.5495 127.509C12.9009 127.509 13.1942 127.409 13.4295 127.21C13.6648 127.008 13.8422 126.733 13.9615 126.385C14.0841 126.037 14.1454 125.641 14.1454 125.197C14.1454 124.753 14.0841 124.357 13.9615 124.009C13.8422 123.661 13.6648 123.385 13.4295 123.183C13.1942 122.981 12.9009 122.88 12.5495 122.88C12.1949 122.88 11.8966 122.981 11.6547 123.183C11.416 123.385 11.2354 123.661 11.1127 124.009C10.9934 124.357 10.9338 124.753 10.9338 125.197C10.9338 125.641 10.9934 126.037 11.1127 126.385C11.2354 126.733 11.416 127.008 11.6547 127.21C11.8966 127.409 12.1949 127.509 12.5495 127.509ZM21.737 121.364V122.955H17.1383V121.364H21.737ZM18.1824 119.534H20.3002V126.653C20.3002 126.849 20.3301 127.001 20.3897 127.111C20.4494 127.217 20.5323 127.291 20.6383 127.335C20.7477 127.378 20.8736 127.399 21.0162 127.399C21.1156 127.399 21.215 127.391 21.3145 127.374C21.4139 127.354 21.4901 127.339 21.5431 127.33L21.8762 128.906C21.7702 128.939 21.621 128.977 21.4288 129.02C21.2366 129.066 21.0029 129.094 20.7278 129.104C20.2174 129.124 19.7699 129.056 19.3855 128.901C19.0043 128.745 18.7077 128.503 18.4956 128.175C18.2834 127.847 18.179 127.432 18.1824 126.932V119.534ZM25.2942 129.144C24.807 129.144 24.3728 129.06 23.9917 128.891C23.6105 128.718 23.3089 128.465 23.0868 128.13C22.8681 127.792 22.7587 127.371 22.7587 126.867C22.7587 126.443 22.8366 126.087 22.9924 125.798C23.1481 125.51 23.3603 125.278 23.6287 125.102C23.8972 124.927 24.2021 124.794 24.5435 124.705C24.8882 124.615 25.2495 124.552 25.6273 124.516C26.0714 124.469 26.4294 124.426 26.7012 124.386C26.973 124.343 27.1702 124.28 27.2928 124.197C27.4154 124.115 27.4767 123.992 27.4767 123.83V123.8C27.4767 123.485 27.3773 123.241 27.1784 123.069C26.9829 122.897 26.7045 122.81 26.3432 122.81C25.9621 122.81 25.6588 122.895 25.4334 123.064C25.208 123.23 25.0589 123.438 24.986 123.69L23.0272 123.531C23.1266 123.067 23.3221 122.666 23.6138 122.328C23.9055 121.987 24.2817 121.725 24.7424 121.543C25.2064 121.357 25.7433 121.264 26.3532 121.264C26.7774 121.264 27.1834 121.314 27.5712 121.413C27.9623 121.513 28.3087 121.667 28.6103 121.876C28.9152 122.085 29.1555 122.353 29.3311 122.681C29.5068 123.006 29.5946 123.395 29.5946 123.849V129H27.5861V127.941H27.5265C27.4038 128.18 27.2398 128.39 27.0343 128.572C26.8288 128.751 26.5819 128.892 26.2935 128.995C26.0051 129.094 25.6721 129.144 25.2942 129.144ZM25.9007 127.683C26.2123 127.683 26.4874 127.621 26.726 127.499C26.9647 127.373 27.1519 127.204 27.2878 126.991C27.4237 126.779 27.4917 126.539 27.4917 126.271V125.46C27.4254 125.503 27.3342 125.543 27.2182 125.58C27.1055 125.613 26.9779 125.644 26.8354 125.674C26.6929 125.701 26.5504 125.725 26.4078 125.749C26.2653 125.768 26.1361 125.787 26.0201 125.803C25.7715 125.84 25.5544 125.898 25.3688 125.977C25.1832 126.057 25.039 126.165 24.9363 126.3C24.8335 126.433 24.7821 126.599 24.7821 126.798C24.7821 127.086 24.8865 127.306 25.0953 127.459C25.3075 127.608 25.5759 127.683 25.9007 127.683ZM33.3556 118.818V129H31.2377V118.818H33.3556ZM594.167 129H591.86L595.375 118.818H598.15L601.659 129H599.353L596.802 121.145H596.723L594.167 129ZM594.023 124.998H599.472V126.678H594.023V124.998ZM602.885 129V118.818H609.746V120.593H605.038V123.019H609.393V124.794H605.038V127.225H609.766V129H602.885ZM615.067 129H611.457V118.818H615.096C616.121 118.818 617.002 119.022 617.741 119.43C618.48 119.834 619.049 120.416 619.447 121.175C619.848 121.934 620.048 122.842 620.048 123.899C620.048 124.96 619.848 125.871 619.447 126.634C619.049 127.396 618.477 127.981 617.731 128.388C616.989 128.796 616.101 129 615.067 129ZM613.61 127.156H614.977C615.613 127.156 616.149 127.043 616.583 126.817C617.02 126.589 617.349 126.236 617.567 125.759C617.789 125.278 617.9 124.658 617.9 123.899C617.9 123.147 617.789 122.532 617.567 122.055C617.349 121.577 617.022 121.226 616.588 121.001C616.154 120.775 615.618 120.663 614.982 120.663H613.61V127.156ZM1.3125 141.918C1.3125 140.685 1.47656 139.55 1.80469 138.513C2.13613 137.475 2.64157 136.514 3.32102 135.629H5.34446C5.08594 135.957 4.84564 136.358 4.62358 136.832C4.40152 137.303 4.20762 137.82 4.0419 138.384C3.87618 138.947 3.74692 139.53 3.65412 140.134C3.56132 140.733 3.51491 141.328 3.51491 141.918C3.51491 142.704 3.59446 143.498 3.75355 144.3C3.91596 145.098 4.13471 145.841 4.4098 146.527C4.68821 147.213 4.99976 147.775 5.34446 148.212H3.32102C2.64157 147.327 2.13613 146.366 1.80469 145.329C1.47656 144.291 1.3125 143.155 1.3125 141.918ZM6.57369 146V138.364H8.69158V146H6.57369ZM7.63761 137.379C7.32274 137.379 7.05262 137.275 6.82724 137.066C6.60517 136.854 6.49414 136.6 6.49414 136.305C6.49414 136.014 6.60517 135.763 6.82724 135.555C7.05262 135.343 7.32274 135.237 7.63761 135.237C7.95247 135.237 8.22094 135.343 8.443 135.555C8.66838 135.763 8.78107 136.014 8.78107 136.305C8.78107 136.6 8.66838 136.854 8.443 137.066C8.22094 137.275 7.95247 137.379 7.63761 137.379ZM12.506 141.585V146H10.3881V138.364H12.4066V139.711H12.4961C12.6651 139.267 12.9485 138.915 13.3462 138.657C13.744 138.395 14.2262 138.264 14.793 138.264C15.3233 138.264 15.7856 138.38 16.18 138.612C16.5745 138.844 16.881 139.176 17.0998 139.607C17.3185 140.034 17.4279 140.545 17.4279 141.138V146H15.31V141.516C15.3133 141.048 15.194 140.684 14.9521 140.422C14.7101 140.157 14.377 140.024 13.9528 140.024C13.6677 140.024 13.4158 140.085 13.1971 140.208C12.9817 140.331 12.8126 140.51 12.69 140.745C12.5707 140.977 12.5094 141.257 12.506 141.585ZM24.669 146L21.7557 135.818H24.1072L25.7926 142.893H25.8771L27.7365 135.818H29.75L31.6044 142.908H31.6939L33.3793 135.818H35.7308L32.8175 146H30.7195L28.7805 139.343H28.701L26.767 146H24.669ZM39.4732 146.149C38.7009 146.149 38.0331 145.985 37.4696 145.657C36.9095 145.326 36.477 144.865 36.1721 144.275C35.8671 143.682 35.7147 142.994 35.7147 142.212C35.7147 141.423 35.8671 140.733 36.1721 140.143C36.477 139.55 36.9095 139.089 37.4696 138.761C38.0331 138.43 38.7009 138.264 39.4732 138.264C40.2454 138.264 40.9116 138.43 41.4718 138.761C42.0352 139.089 42.4694 139.55 42.7743 140.143C43.0792 140.733 43.2317 141.423 43.2317 142.212C43.2317 142.994 43.0792 143.682 42.7743 144.275C42.4694 144.865 42.0352 145.326 41.4718 145.657C40.9116 145.985 40.2454 146.149 39.4732 146.149ZM39.4831 144.509C39.8345 144.509 40.1278 144.409 40.3631 144.21C40.5984 144.008 40.7757 143.733 40.8951 143.385C41.0177 143.037 41.079 142.641 41.079 142.197C41.079 141.753 41.0177 141.357 40.8951 141.009C40.7757 140.661 40.5984 140.385 40.3631 140.183C40.1278 139.981 39.8345 139.88 39.4831 139.88C39.1285 139.88 38.8302 139.981 38.5882 140.183C38.3496 140.385 38.169 140.661 38.0463 141.009C37.927 141.357 37.8674 141.753 37.8674 142.197C37.8674 142.641 37.927 143.037 38.0463 143.385C38.169 143.733 38.3496 144.008 38.5882 144.21C38.8302 144.409 39.1285 144.509 39.4831 144.509ZM44.6088 146V138.364H46.6621V139.696H46.7417C46.8809 139.222 47.1145 138.864 47.4426 138.622C47.7708 138.377 48.1486 138.254 48.5762 138.254C48.6822 138.254 48.7966 138.261 48.9192 138.274C49.0418 138.287 49.1496 138.306 49.2424 138.329V140.208C49.1429 140.178 49.0054 140.152 48.8297 140.129C48.6541 140.105 48.4933 140.094 48.3475 140.094C48.0359 140.094 47.7575 140.162 47.5123 140.298C47.2703 140.43 47.0781 140.616 46.9355 140.854C46.7963 141.093 46.7267 141.368 46.7267 141.68V146H44.6088ZM52.7958 146.124C52.2158 146.124 51.6905 145.975 51.2198 145.677C50.7525 145.375 50.3813 144.933 50.1062 144.349C49.8344 143.763 49.6985 143.044 49.6985 142.192C49.6985 141.317 49.8394 140.589 50.1211 140.009C50.4028 139.426 50.7773 138.99 51.2447 138.702C51.7153 138.41 52.2307 138.264 52.7908 138.264C53.2184 138.264 53.5747 138.337 53.8597 138.483C54.1481 138.625 54.3801 138.804 54.5558 139.02C54.7347 139.232 54.8706 139.441 54.9634 139.646H55.0281V135.818H57.141V146H55.0529V144.777H54.9634C54.864 144.989 54.7231 145.2 54.5408 145.408C54.3619 145.614 54.1282 145.785 53.8398 145.92C53.5548 146.056 53.2068 146.124 52.7958 146.124ZM53.467 144.439C53.8084 144.439 54.0967 144.346 54.332 144.161C54.5707 143.972 54.753 143.708 54.8789 143.37C55.0082 143.032 55.0728 142.636 55.0728 142.182C55.0728 141.728 55.0098 141.333 54.8839 140.999C54.7579 140.664 54.5756 140.405 54.337 140.223C54.0984 140.041 53.8084 139.95 53.467 139.95C53.119 139.95 52.8256 140.044 52.587 140.233C52.3484 140.422 52.1677 140.684 52.0451 141.018C51.9225 141.353 51.8612 141.741 51.8612 142.182C51.8612 142.626 51.9225 143.019 52.0451 143.36C52.171 143.698 52.3517 143.963 52.587 144.156C52.8256 144.344 53.119 144.439 53.467 144.439ZM65.236 140.541L63.2971 140.661C63.2639 140.495 63.1926 140.346 63.0833 140.213C62.9739 140.077 62.8297 139.969 62.6507 139.89C62.4751 139.807 62.2646 139.766 62.0194 139.766C61.6912 139.766 61.4145 139.835 61.1891 139.974C60.9637 140.11 60.851 140.293 60.851 140.521C60.851 140.704 60.9239 140.858 61.0698 140.984C61.2156 141.11 61.4659 141.211 61.8205 141.287L63.2026 141.565C63.945 141.718 64.4985 141.963 64.8631 142.301C65.2277 142.639 65.41 143.083 65.41 143.634C65.41 144.134 65.2625 144.573 64.9675 144.951C64.6758 145.329 64.2748 145.624 63.7644 145.836C63.2573 146.045 62.6723 146.149 62.0094 146.149C60.9985 146.149 60.1931 145.939 59.5932 145.518C58.9966 145.094 58.647 144.517 58.5442 143.788L60.6273 143.678C60.6903 143.987 60.8427 144.222 61.0847 144.384C61.3266 144.543 61.6365 144.623 62.0144 144.623C62.3856 144.623 62.6839 144.552 62.9093 144.409C63.138 144.263 63.254 144.076 63.2573 143.847C63.254 143.655 63.1728 143.498 63.0137 143.375C62.8546 143.249 62.6093 143.153 62.2779 143.087L60.9554 142.823C60.2097 142.674 59.6545 142.415 59.29 142.048C58.9287 141.68 58.748 141.211 58.748 140.641C58.748 140.15 58.8806 139.728 59.1458 139.373C59.4142 139.018 59.7904 138.745 60.2743 138.553C60.7615 138.36 61.3316 138.264 61.9846 138.264C62.949 138.264 63.708 138.468 64.2615 138.876C64.8184 139.283 65.1432 139.839 65.236 140.541ZM70.3132 141.918C70.3132 143.155 70.1475 144.291 69.8161 145.329C69.4879 146.366 68.9841 147.327 68.3047 148.212H66.2812C66.5398 147.884 66.7801 147.483 67.0021 147.009C67.2242 146.535 67.4181 146.018 67.5838 145.458C67.7495 144.895 67.8788 144.311 67.9716 143.708C68.0644 143.105 68.1108 142.508 68.1108 141.918C68.1108 141.133 68.0296 140.341 67.8672 139.542C67.7081 138.74 67.4893 137.997 67.2109 137.315C66.9358 136.629 66.6259 136.067 66.2812 135.629H68.3047C68.9841 136.514 69.4879 137.475 69.8161 138.513C70.1475 139.55 70.3132 140.685 70.3132 141.918ZM379.97 140.909C379.97 142.019 379.76 142.964 379.339 143.743C378.921 144.522 378.351 145.117 377.628 145.528C376.909 145.935 376.1 146.139 375.202 146.139C374.297 146.139 373.485 145.934 372.766 145.523C372.047 145.112 371.479 144.517 371.061 143.738C370.643 142.959 370.434 142.016 370.434 140.909C370.434 139.799 370.643 138.854 371.061 138.075C371.479 137.296 372.047 136.703 372.766 136.295C373.485 135.884 374.297 135.679 375.202 135.679C376.1 135.679 376.909 135.884 377.628 136.295C378.351 136.703 378.921 137.296 379.339 138.075C379.76 138.854 379.97 139.799 379.97 140.909ZM377.787 140.909C377.787 140.19 377.68 139.583 377.464 139.089C377.252 138.596 376.952 138.221 376.564 137.966C376.177 137.711 375.723 137.583 375.202 137.583C374.682 137.583 374.228 137.711 373.84 137.966C373.452 138.221 373.151 138.596 372.935 139.089C372.723 139.583 372.617 140.19 372.617 140.909C372.617 141.628 372.723 142.235 372.935 142.729C373.151 143.223 373.452 143.597 373.84 143.852C374.228 144.107 374.682 144.235 375.202 144.235C375.723 144.235 376.177 144.107 376.564 143.852C376.952 143.597 377.252 143.223 377.464 142.729C377.68 142.235 377.787 141.628 377.787 140.909ZM383.643 141.585V146H381.525V138.364H383.543V139.711H383.633C383.802 139.267 384.085 138.915 384.483 138.657C384.881 138.395 385.363 138.264 385.93 138.264C386.46 138.264 386.922 138.38 387.317 138.612C387.711 138.844 388.018 139.176 388.237 139.607C388.455 140.034 388.565 140.545 388.565 141.138V146H386.447V141.516C386.45 141.048 386.331 140.684 386.089 140.422C385.847 140.157 385.514 140.024 385.089 140.024C384.804 140.024 384.553 140.085 384.334 140.208C384.118 140.331 383.949 140.51 383.827 140.745C383.707 140.977 383.646 141.257 383.643 141.585ZM392.352 135.818V146H390.234V135.818H392.352ZM395.356 148.864C395.087 148.864 394.835 148.842 394.6 148.799C394.368 148.759 394.176 148.708 394.023 148.645L394.501 147.064C394.749 147.14 394.973 147.182 395.172 147.188C395.374 147.195 395.548 147.148 395.694 147.049C395.843 146.95 395.964 146.781 396.057 146.542L396.181 146.219L393.442 138.364H395.669L397.25 143.972H397.33L398.925 138.364H401.168L398.2 146.825C398.057 147.236 397.863 147.594 397.618 147.899C397.376 148.207 397.069 148.444 396.698 148.61C396.327 148.779 395.879 148.864 395.356 148.864ZM405.144 137.593V135.818H413.506V137.593H410.389V146H408.261V137.593H405.144ZM416.961 141.585V146H414.843V135.818H416.901V139.711H416.991C417.163 139.26 417.442 138.907 417.826 138.652C418.211 138.393 418.693 138.264 419.273 138.264C419.803 138.264 420.266 138.38 420.66 138.612C421.058 138.841 421.366 139.171 421.585 139.602C421.807 140.029 421.916 140.541 421.913 141.138V146H419.795V141.516C419.798 141.045 419.679 140.679 419.437 140.417C419.198 140.155 418.864 140.024 418.433 140.024C418.144 140.024 417.889 140.085 417.667 140.208C417.448 140.331 417.276 140.51 417.15 140.745C417.027 140.977 416.964 141.257 416.961 141.585ZM423.58 146V138.364H425.633V139.696H425.712C425.852 139.222 426.085 138.864 426.413 138.622C426.741 138.377 427.119 138.254 427.547 138.254C427.653 138.254 427.767 138.261 427.89 138.274C428.013 138.287 428.12 138.306 428.213 138.329V140.208C428.114 140.178 427.976 140.152 427.8 140.129C427.625 140.105 427.464 140.094 427.318 140.094C427.007 140.094 426.728 140.162 426.483 140.298C426.241 140.43 426.049 140.616 425.906 140.854C425.767 141.093 425.697 141.368 425.697 141.68V146H423.58ZM432.433 146.149C431.647 146.149 430.971 145.99 430.404 145.672C429.841 145.35 429.407 144.896 429.102 144.31C428.797 143.72 428.644 143.022 428.644 142.217C428.644 141.431 428.797 140.742 429.102 140.148C429.407 139.555 429.836 139.093 430.389 138.761C430.946 138.43 431.599 138.264 432.348 138.264C432.852 138.264 433.321 138.345 433.755 138.508C434.193 138.667 434.574 138.907 434.899 139.229C435.227 139.55 435.482 139.955 435.664 140.442C435.847 140.926 435.938 141.492 435.938 142.142V142.724H429.49V141.411H433.944C433.944 141.106 433.878 140.836 433.745 140.601C433.613 140.366 433.429 140.182 433.193 140.049C432.961 139.913 432.691 139.845 432.383 139.845C432.061 139.845 431.776 139.92 431.528 140.069C431.283 140.215 431.09 140.412 430.951 140.661C430.812 140.906 430.741 141.179 430.737 141.481V142.729C430.737 143.107 430.807 143.433 430.946 143.708C431.089 143.983 431.289 144.195 431.548 144.344C431.806 144.494 432.113 144.568 432.468 144.568C432.703 144.568 432.918 144.535 433.114 144.469C433.309 144.402 433.477 144.303 433.616 144.17C433.755 144.038 433.861 143.875 433.934 143.683L435.893 143.812C435.794 144.283 435.59 144.694 435.281 145.045C434.977 145.393 434.582 145.665 434.098 145.861C433.618 146.053 433.062 146.149 432.433 146.149ZM440.8 146.149C440.014 146.149 439.338 145.99 438.771 145.672C438.208 145.35 437.774 144.896 437.469 144.31C437.164 143.72 437.012 143.022 437.012 142.217C437.012 141.431 437.164 140.742 437.469 140.148C437.774 139.555 438.203 139.093 438.757 138.761C439.313 138.43 439.966 138.264 440.715 138.264C441.219 138.264 441.688 138.345 442.122 138.508C442.56 138.667 442.941 138.907 443.266 139.229C443.594 139.55 443.849 139.955 444.031 140.442C444.214 140.926 444.305 141.492 444.305 142.142V142.724H437.857V141.411H442.311C442.311 141.106 442.245 140.836 442.112 140.601C441.98 140.366 441.796 140.182 441.561 140.049C441.329 139.913 441.058 139.845 440.75 139.845C440.429 139.845 440.144 139.92 439.895 140.069C439.65 140.215 439.458 140.412 439.318 140.661C439.179 140.906 439.108 141.179 439.105 141.481V142.729C439.105 143.107 439.174 143.433 439.313 143.708C439.456 143.983 439.656 144.195 439.915 144.344C440.173 144.494 440.48 144.568 440.835 144.568C441.07 144.568 441.285 144.535 441.481 144.469C441.677 144.402 441.844 144.303 441.983 144.17C442.122 144.038 442.228 143.875 442.301 143.683L444.26 143.812C444.161 144.283 443.957 144.694 443.649 145.045C443.344 145.393 442.949 145.665 442.465 145.861C441.985 146.053 441.43 146.149 440.8 146.149ZM448.579 137.593V135.818H456.941V137.593H453.824V146H451.696V137.593H448.579ZM460.397 141.585V146H458.279V135.818H460.337V139.711H460.426C460.599 139.26 460.877 138.907 461.262 138.652C461.646 138.393 462.128 138.264 462.708 138.264C463.239 138.264 463.701 138.38 464.096 138.612C464.493 138.841 464.801 139.171 465.02 139.602C465.242 140.029 465.352 140.541 465.348 141.138V146H463.23V141.516C463.234 141.045 463.114 140.679 462.873 140.417C462.634 140.155 462.299 140.024 461.868 140.024C461.58 140.024 461.325 140.085 461.103 140.208C460.884 140.331 460.712 140.51 460.586 140.745C460.463 140.977 460.4 141.257 460.397 141.585ZM470.465 146.149C469.693 146.149 469.025 145.985 468.462 145.657C467.902 145.326 467.469 144.865 467.164 144.275C466.859 143.682 466.707 142.994 466.707 142.212C466.707 141.423 466.859 140.733 467.164 140.143C467.469 139.55 467.902 139.089 468.462 138.761C469.025 138.43 469.693 138.264 470.465 138.264C471.238 138.264 471.904 138.43 472.464 138.761C473.027 139.089 473.462 139.55 473.767 140.143C474.071 140.733 474.224 141.423 474.224 142.212C474.224 142.994 474.071 143.682 473.767 144.275C473.462 144.865 473.027 145.326 472.464 145.657C471.904 145.985 471.238 146.149 470.465 146.149ZM470.475 144.509C470.827 144.509 471.12 144.409 471.355 144.21C471.591 144.008 471.768 143.733 471.887 143.385C472.01 143.037 472.071 142.641 472.071 142.197C472.071 141.753 472.01 141.357 471.887 141.009C471.768 140.661 471.591 140.385 471.355 140.183C471.12 139.981 470.827 139.88 470.475 139.88C470.121 139.88 469.822 139.981 469.58 140.183C469.342 140.385 469.161 140.661 469.039 141.009C468.919 141.357 468.86 141.753 468.86 142.197C468.86 142.641 468.919 143.037 469.039 143.385C469.161 143.733 469.342 144.008 469.58 144.21C469.822 144.409 470.121 144.509 470.475 144.509ZM480.498 142.749V138.364H482.616V146H480.583V144.613H480.503C480.331 145.06 480.044 145.42 479.643 145.692C479.245 145.964 478.76 146.099 478.186 146.099C477.676 146.099 477.227 145.983 476.839 145.751C476.451 145.519 476.148 145.19 475.929 144.762C475.714 144.335 475.604 143.822 475.601 143.226V138.364H477.719V142.848C477.722 143.299 477.843 143.655 478.082 143.917C478.32 144.179 478.64 144.31 479.041 144.31C479.297 144.31 479.535 144.252 479.757 144.136C479.979 144.016 480.158 143.841 480.294 143.609C480.433 143.377 480.501 143.09 480.498 142.749ZM490.664 140.541L488.725 140.661C488.692 140.495 488.62 140.346 488.511 140.213C488.402 140.077 488.257 139.969 488.078 139.89C487.903 139.807 487.692 139.766 487.447 139.766C487.119 139.766 486.842 139.835 486.617 139.974C486.391 140.11 486.279 140.293 486.279 140.521C486.279 140.704 486.352 140.858 486.498 140.984C486.643 141.11 486.894 141.211 487.248 141.287L488.63 141.565C489.373 141.718 489.926 141.963 490.291 142.301C490.655 142.639 490.838 143.083 490.838 143.634C490.838 144.134 490.69 144.573 490.395 144.951C490.104 145.329 489.703 145.624 489.192 145.836C488.685 146.045 488.1 146.149 487.437 146.149C486.426 146.149 485.621 145.939 485.021 145.518C484.424 145.094 484.075 144.517 483.972 143.788L486.055 143.678C486.118 143.987 486.27 144.222 486.512 144.384C486.754 144.543 487.064 144.623 487.442 144.623C487.813 144.623 488.112 144.552 488.337 144.409C488.566 144.263 488.682 144.076 488.685 143.847C488.682 143.655 488.6 143.498 488.441 143.375C488.282 143.249 488.037 143.153 487.706 143.087L486.383 142.823C485.637 142.674 485.082 142.415 484.718 142.048C484.356 141.68 484.176 141.211 484.176 140.641C484.176 140.15 484.308 139.728 484.574 139.373C484.842 139.018 485.218 138.745 485.702 138.553C486.189 138.36 486.759 138.264 487.412 138.264C488.377 138.264 489.136 138.468 489.689 138.876C490.246 139.283 490.571 139.839 490.664 140.541ZM494.349 146.144C493.862 146.144 493.427 146.06 493.046 145.891C492.665 145.718 492.364 145.465 492.142 145.13C491.923 144.792 491.813 144.371 491.813 143.867C491.813 143.443 491.891 143.087 492.047 142.798C492.203 142.51 492.415 142.278 492.683 142.102C492.952 141.927 493.257 141.794 493.598 141.705C493.943 141.615 494.304 141.552 494.682 141.516C495.126 141.469 495.484 141.426 495.756 141.386C496.028 141.343 496.225 141.28 496.347 141.197C496.47 141.115 496.531 140.992 496.531 140.83V140.8C496.531 140.485 496.432 140.241 496.233 140.069C496.038 139.897 495.759 139.81 495.398 139.81C495.017 139.81 494.713 139.895 494.488 140.064C494.263 140.23 494.114 140.438 494.041 140.69L492.082 140.531C492.181 140.067 492.377 139.666 492.669 139.328C492.96 138.987 493.336 138.725 493.797 138.543C494.261 138.357 494.798 138.264 495.408 138.264C495.832 138.264 496.238 138.314 496.626 138.413C497.017 138.513 497.363 138.667 497.665 138.876C497.97 139.085 498.21 139.353 498.386 139.681C498.561 140.006 498.649 140.395 498.649 140.849V146H496.641V144.941H496.581C496.459 145.18 496.294 145.39 496.089 145.572C495.883 145.751 495.637 145.892 495.348 145.995C495.06 146.094 494.727 146.144 494.349 146.144ZM494.955 144.683C495.267 144.683 495.542 144.621 495.781 144.499C496.019 144.373 496.207 144.204 496.343 143.991C496.478 143.779 496.546 143.539 496.546 143.271V142.46C496.48 142.503 496.389 142.543 496.273 142.58C496.16 142.613 496.033 142.644 495.89 142.674C495.748 142.701 495.605 142.725 495.463 142.749C495.32 142.768 495.191 142.787 495.075 142.803C494.826 142.84 494.609 142.898 494.423 142.977C494.238 143.057 494.094 143.165 493.991 143.3C493.888 143.433 493.837 143.599 493.837 143.798C493.837 144.086 493.941 144.306 494.15 144.459C494.362 144.608 494.631 144.683 494.955 144.683ZM502.41 141.585V146H500.292V138.364H502.311V139.711H502.4C502.569 139.267 502.853 138.915 503.251 138.657C503.648 138.395 504.131 138.264 504.697 138.264C505.228 138.264 505.69 138.38 506.084 138.612C506.479 138.844 506.785 139.176 507.004 139.607C507.223 140.034 507.332 140.545 507.332 141.138V146H505.214V141.516C505.218 141.048 505.098 140.684 504.856 140.422C504.614 140.157 504.281 140.024 503.857 140.024C503.572 140.024 503.32 140.085 503.101 140.208C502.886 140.331 502.717 140.51 502.594 140.745C502.475 140.977 502.414 141.257 502.41 141.585ZM511.815 146.124C511.235 146.124 510.71 145.975 510.239 145.677C509.772 145.375 509.401 144.933 509.126 144.349C508.854 143.763 508.718 143.044 508.718 142.192C508.718 141.317 508.859 140.589 509.141 140.009C509.422 139.426 509.797 138.99 510.264 138.702C510.735 138.41 511.25 138.264 511.81 138.264C512.238 138.264 512.594 138.337 512.879 138.483C513.168 138.625 513.4 138.804 513.575 139.02C513.754 139.232 513.89 139.441 513.983 139.646H514.048V135.818H516.161V146H514.072V144.777H513.983C513.884 144.989 513.743 145.2 513.56 145.408C513.381 145.614 513.148 145.785 512.859 145.92C512.574 146.056 512.226 146.124 511.815 146.124ZM512.487 144.439C512.828 144.439 513.116 144.346 513.352 144.161C513.59 143.972 513.772 143.708 513.898 143.37C514.028 143.032 514.092 142.636 514.092 142.182C514.092 141.728 514.029 141.333 513.903 140.999C513.777 140.664 513.595 140.405 513.357 140.223C513.118 140.041 512.828 139.95 512.487 139.95C512.138 139.95 511.845 140.044 511.607 140.233C511.368 140.422 511.187 140.684 511.065 141.018C510.942 141.353 510.881 141.741 510.881 142.182C510.881 142.626 510.942 143.019 511.065 143.36C511.191 143.698 511.371 143.963 511.607 144.156C511.845 144.344 512.138 144.439 512.487 144.439ZM521.182 146V135.818H528.043V137.593H523.335V140.019H527.69V141.794H523.335V144.225H528.062V146H521.182ZM529.714 146V138.364H531.733V139.711H531.822C531.981 139.263 532.247 138.911 532.618 138.652C532.989 138.393 533.433 138.264 533.95 138.264C534.474 138.264 534.92 138.395 535.287 138.657C535.655 138.915 535.901 139.267 536.023 139.711H536.103C536.259 139.273 536.54 138.924 536.948 138.662C537.359 138.397 537.845 138.264 538.405 138.264C539.117 138.264 539.696 138.491 540.14 138.945C540.587 139.396 540.811 140.036 540.811 140.864V146H538.698V141.282C538.698 140.858 538.585 140.54 538.36 140.327C538.135 140.115 537.853 140.009 537.515 140.009C537.13 140.009 536.83 140.132 536.615 140.377C536.399 140.619 536.292 140.939 536.292 141.337V146H534.238V141.237C534.238 140.863 534.131 140.564 533.915 140.342C533.703 140.12 533.423 140.009 533.075 140.009C532.84 140.009 532.628 140.069 532.439 140.188C532.253 140.304 532.106 140.468 531.996 140.68C531.887 140.889 531.832 141.134 531.832 141.416V146H529.714ZM542.484 146V138.364H544.602V146H542.484ZM543.548 137.379C543.233 137.379 542.963 137.275 542.737 137.066C542.515 136.854 542.404 136.6 542.404 136.305C542.404 136.014 542.515 135.763 542.737 135.555C542.963 135.343 543.233 135.237 543.548 135.237C543.863 135.237 544.131 135.343 544.353 135.555C544.579 135.763 544.691 136.014 544.691 136.305C544.691 136.6 544.579 136.854 544.353 137.066C544.131 137.275 543.863 137.379 543.548 137.379ZM546.298 146V138.364H548.352V139.696H548.431C548.57 139.222 548.804 138.864 549.132 138.622C549.46 138.377 549.838 138.254 550.266 138.254C550.372 138.254 550.486 138.261 550.609 138.274C550.731 138.287 550.839 138.306 550.932 138.329V140.208C550.832 140.178 550.695 140.152 550.519 140.129C550.344 140.105 550.183 140.094 550.037 140.094C549.725 140.094 549.447 140.162 549.202 140.298C548.96 140.43 548.768 140.616 548.625 140.854C548.486 141.093 548.416 141.368 548.416 141.68V146H546.298ZM553.986 146.144C553.498 146.144 553.064 146.06 552.683 145.891C552.302 145.718 552 145.465 551.778 145.13C551.559 144.792 551.45 144.371 551.45 143.867C551.45 143.443 551.528 143.087 551.684 142.798C551.84 142.51 552.052 142.278 552.32 142.102C552.589 141.927 552.894 141.794 553.235 141.705C553.58 141.615 553.941 141.552 554.319 141.516C554.763 141.469 555.121 141.426 555.393 141.386C555.664 141.343 555.862 141.28 555.984 141.197C556.107 141.115 556.168 140.992 556.168 140.83V140.8C556.168 140.485 556.069 140.241 555.87 140.069C555.674 139.897 555.396 139.81 555.035 139.81C554.653 139.81 554.35 139.895 554.125 140.064C553.899 140.23 553.75 140.438 553.677 140.69L551.719 140.531C551.818 140.067 552.014 139.666 552.305 139.328C552.597 138.987 552.973 138.725 553.434 138.543C553.898 138.357 554.435 138.264 555.045 138.264C555.469 138.264 555.875 138.314 556.263 138.413C556.654 138.513 557 138.667 557.302 138.876C557.607 139.085 557.847 139.353 558.023 139.681C558.198 140.006 558.286 140.395 558.286 140.849V146H556.278V144.941H556.218C556.095 145.18 555.931 145.39 555.726 145.572C555.52 145.751 555.273 145.892 554.985 145.995C554.697 146.094 554.363 146.144 553.986 146.144ZM554.592 144.683C554.904 144.683 555.179 144.621 555.417 144.499C555.656 144.373 555.843 144.204 555.979 143.991C556.115 143.779 556.183 143.539 556.183 143.271V142.46C556.117 142.503 556.026 142.543 555.91 142.58C555.797 142.613 555.669 142.644 555.527 142.674C555.384 142.701 555.242 142.725 555.099 142.749C554.957 142.768 554.827 142.787 554.711 142.803C554.463 142.84 554.246 142.898 554.06 142.977C553.875 143.057 553.73 143.165 553.628 143.3C553.525 143.433 553.474 143.599 553.474 143.798C553.474 144.086 553.578 144.306 553.787 144.459C553.999 144.608 554.267 144.683 554.592 144.683ZM563.991 138.364V139.955H559.392V138.364H563.991ZM560.436 136.534H562.554V143.653C562.554 143.849 562.584 144.001 562.644 144.111C562.703 144.217 562.786 144.291 562.892 144.335C563.002 144.378 563.128 144.399 563.27 144.399C563.369 144.399 563.469 144.391 563.568 144.374C563.668 144.354 563.744 144.339 563.797 144.33L564.13 145.906C564.024 145.939 563.875 145.977 563.683 146.02C563.49 146.066 563.257 146.094 562.982 146.104C562.471 146.124 562.024 146.056 561.639 145.901C561.258 145.745 560.962 145.503 560.749 145.175C560.537 144.847 560.433 144.432 560.436 143.932V136.534ZM565.371 146V138.364H567.488V146H565.371ZM566.434 137.379C566.12 137.379 565.849 137.275 565.624 137.066C565.402 136.854 565.291 136.6 565.291 136.305C565.291 136.014 565.402 135.763 565.624 135.555C565.849 135.343 566.12 135.237 566.434 135.237C566.749 135.237 567.018 135.343 567.24 135.555C567.465 135.763 567.578 136.014 567.578 136.305C567.578 136.6 567.465 136.854 567.24 137.066C567.018 137.275 566.749 137.379 566.434 137.379ZM576.074 146H572.465V135.818H576.104C577.128 135.818 578.01 136.022 578.749 136.43C579.488 136.834 580.057 137.416 580.454 138.175C580.855 138.934 581.056 139.842 581.056 140.899C581.056 141.96 580.855 142.871 580.454 143.634C580.057 144.396 579.485 144.981 578.739 145.388C577.997 145.796 577.108 146 576.074 146ZM574.618 144.156H575.985C576.621 144.156 577.157 144.043 577.591 143.817C578.028 143.589 578.356 143.236 578.575 142.759C578.797 142.278 578.908 141.658 578.908 140.899C578.908 140.147 578.797 139.532 578.575 139.055C578.356 138.577 578.03 138.226 577.596 138.001C577.162 137.775 576.626 137.663 575.99 137.663H574.618V144.156ZM582.611 146V138.364H584.729V146H582.611ZM583.675 137.379C583.36 137.379 583.09 137.275 582.864 137.066C582.642 136.854 582.531 136.6 582.531 136.305C582.531 136.014 582.642 135.763 582.864 135.555C583.09 135.343 583.36 135.237 583.675 135.237C583.99 135.237 584.258 135.343 584.48 135.555C584.705 135.763 584.818 136.014 584.818 136.305C584.818 136.6 584.705 136.854 584.48 137.066C584.258 137.275 583.99 137.379 583.675 137.379ZM586.425 146V138.364H588.479V139.696H588.558C588.697 139.222 588.931 138.864 589.259 138.622C589.587 138.377 589.965 138.254 590.393 138.254C590.499 138.254 590.613 138.261 590.736 138.274C590.858 138.287 590.966 138.306 591.059 138.329V140.208C590.959 140.178 590.822 140.152 590.646 140.129C590.47 140.105 590.31 140.094 590.164 140.094C589.852 140.094 589.574 140.162 589.329 140.298C589.087 140.43 588.894 140.616 588.752 140.854C588.613 141.093 588.543 141.368 588.543 141.68V146H586.425ZM594.272 141.585V146H592.154V135.818H594.212V139.711H594.301C594.474 139.26 594.752 138.907 595.137 138.652C595.521 138.393 596.003 138.264 596.583 138.264C597.114 138.264 597.576 138.38 597.971 138.612C598.368 138.841 598.676 139.171 598.895 139.602C599.117 140.029 599.227 140.541 599.223 141.138V146H597.105V141.516C597.109 141.045 596.989 140.679 596.748 140.417C596.509 140.155 596.174 140.024 595.743 140.024C595.455 140.024 595.2 140.085 594.978 140.208C594.759 140.331 594.587 140.51 594.461 140.745C594.338 140.977 594.275 141.257 594.272 141.585ZM603.068 146.144C602.58 146.144 602.146 146.06 601.765 145.891C601.384 145.718 601.082 145.465 600.86 145.13C600.642 144.792 600.532 144.371 600.532 143.867C600.532 143.443 600.61 143.087 600.766 142.798C600.922 142.51 601.134 142.278 601.402 142.102C601.671 141.927 601.976 141.794 602.317 141.705C602.662 141.615 603.023 141.552 603.401 141.516C603.845 141.469 604.203 141.426 604.475 141.386C604.746 141.343 604.944 141.28 605.066 141.197C605.189 141.115 605.25 140.992 605.25 140.83V140.8C605.25 140.485 605.151 140.241 604.952 140.069C604.756 139.897 604.478 139.81 604.117 139.81C603.735 139.81 603.432 139.895 603.207 140.064C602.981 140.23 602.832 140.438 602.759 140.69L600.801 140.531C600.9 140.067 601.096 139.666 601.387 139.328C601.679 138.987 602.055 138.725 602.516 138.543C602.98 138.357 603.517 138.264 604.127 138.264C604.551 138.264 604.957 138.314 605.345 138.413C605.736 138.513 606.082 138.667 606.384 138.876C606.689 139.085 606.929 139.353 607.105 139.681C607.28 140.006 607.368 140.395 607.368 140.849V146H605.36V144.941H605.3C605.177 145.18 605.013 145.39 604.808 145.572C604.602 145.751 604.355 145.892 604.067 145.995C603.779 146.094 603.445 146.144 603.068 146.144ZM603.674 144.683C603.986 144.683 604.261 144.621 604.499 144.499C604.738 144.373 604.925 144.204 605.061 143.991C605.197 143.779 605.265 143.539 605.265 143.271V142.46C605.199 142.503 605.108 142.543 604.992 142.58C604.879 142.613 604.751 142.644 604.609 142.674C604.466 142.701 604.324 142.725 604.181 142.749C604.039 142.768 603.91 142.787 603.794 142.803C603.545 142.84 603.328 142.898 603.142 142.977C602.957 143.057 602.812 143.165 602.71 143.3C602.607 143.433 602.556 143.599 602.556 143.798C602.556 144.086 602.66 144.306 602.869 144.459C603.081 144.608 603.349 144.683 603.674 144.683ZM609.011 146V138.364H611.03V139.711H611.119C611.278 139.263 611.543 138.911 611.915 138.652C612.286 138.393 612.73 138.264 613.247 138.264C613.771 138.264 614.216 138.395 614.584 138.657C614.952 138.915 615.198 139.267 615.32 139.711H615.4C615.555 139.273 615.837 138.924 616.245 138.662C616.656 138.397 617.141 138.264 617.702 138.264C618.414 138.264 618.992 138.491 619.437 138.945C619.884 139.396 620.108 140.036 620.108 140.864V146H617.995V141.282C617.995 140.858 617.882 140.54 617.657 140.327C617.431 140.115 617.15 140.009 616.812 140.009C616.427 140.009 616.127 140.132 615.912 140.377C615.696 140.619 615.589 140.939 615.589 141.337V146H613.535V141.237C613.535 140.863 613.428 140.564 613.212 140.342C613 140.12 612.72 140.009 612.372 140.009C612.137 140.009 611.925 140.069 611.736 140.188C611.55 140.304 611.403 140.468 611.293 140.68C611.184 140.889 611.129 141.134 611.129 141.416V146H609.011Z" fill="black"/>
</svg>
