<svg width="16" height="15" viewBox="0 0 16 15" fill="none" xmlns="http://www.w3.org/2000/svg">
<g clip-path="url(#clip0_377_5004)">
<path d="M6.93016 7.5002C6.93016 6.5102 7.32016 5.6202 7.95016 4.9502H3.59016C2.11016 4.9502 0.910156 6.1602 0.910156 7.6302C0.910156 9.1102 2.12016 10.3102 3.59016 10.3102H8.00016C8.07016 10.3102 8.14016 10.2902 8.21016 10.2902C7.43016 9.6102 6.93016 8.6202 6.93016 7.5002Z" fill="#7C7C7C"/>
<path d="M11.3501 3.75C10.2701 3.75 9.3001 4.22 8.6101 4.95C7.9901 5.62 7.6001 6.51 7.6001 7.5C7.6001 8.62 8.1001 9.61 8.8701 10.3C9.5301 10.89 10.3901 11.25 11.3501 11.25C13.4201 11.25 15.1001 9.57 15.1001 7.5C15.1001 5.43 13.4201 3.75 11.3501 3.75ZM11.1101 8.72L9.9301 9.64L9.9201 9.63H9.9101L8.2001 7.43L8.8801 6.9L10.0301 8.38L11.3201 7.38L13.9201 5.36L14.4901 6.09L11.1101 8.72Z" fill="#7C7C7C"/>
</g>
<defs>
<clipPath id="clip0_377_5004">
<rect width="15" height="15" fill="white" transform="translate(0.5)"/>
</clipPath>
</defs>
</svg>
