<svg width="16" height="16" viewBox="0 0 16 16" fill="none" xmlns="http://www.w3.org/2000/svg">
<g clip-path="url(#clip0_377_4994)">
<path d="M7.99982 1.14795C4.02982 1.14795 0.819824 4.36795 0.819824 8.32795C0.819824 12.2879 4.03982 15.5079 7.99982 15.5079C11.9598 15.5079 15.1798 12.2879 15.1798 8.32795C15.1798 4.36795 11.9698 1.14795 7.99982 1.14795ZM12.9698 5.11795H12.9598H12.9498H12.9398C11.9998 5.21795 11.0698 5.67795 10.2098 6.31795C9.33982 6.97795 8.53982 7.80795 7.85982 8.63795C7.17982 9.46795 6.60982 10.2979 6.20982 10.9379C5.79982 11.5779 5.55982 12.0279 5.50982 12.1079L4.62982 11.4079L3.02982 8.63795L4.84982 9.55795C4.85982 9.53795 4.87982 9.51795 4.88982 9.49795C4.89982 9.48795 4.91982 9.46795 4.92982 9.44795C4.93982 9.42795 4.95982 9.40795 4.96982 9.38795C4.98982 9.36795 5.00982 9.34795 5.01982 9.32795C5.08982 9.23795 5.15982 9.14795 5.21982 9.05795C5.27982 8.98795 5.32982 8.91795 5.37982 8.84795C5.39982 8.83795 5.39982 8.82795 5.40982 8.81795C5.41982 8.80795 5.41982 8.79795 5.42982 8.79795C5.49982 8.71795 5.55982 8.62795 5.62982 8.54795C5.69982 8.46795 5.75982 8.38795 5.82982 8.30795C5.85982 8.26795 5.89982 8.22795 5.92982 8.18795C5.93982 8.17795 5.93982 8.16795 5.94982 8.16795C5.95982 8.14795 5.96982 8.12795 5.98982 8.11795C6.03982 8.04795 6.08982 7.98795 6.14982 7.92795C6.19982 7.85795 6.24982 7.79795 6.30982 7.73795C6.35982 7.68795 6.39982 7.63795 6.44982 7.58795L6.45982 7.57795L6.46982 7.56795C6.51982 7.51795 6.55982 7.46795 6.60982 7.41795C6.65982 7.36795 6.69982 7.31795 6.73982 7.27795C6.77982 7.23795 6.81982 7.17795 6.86982 7.12795C6.88982 7.10795 6.91982 7.07795 6.93982 7.05795L6.94982 7.04795C6.94982 7.04795 6.95982 7.04795 6.95982 7.03795C6.96982 7.02795 6.97982 7.01795 6.99982 6.99795C7.03982 6.95795 7.07982 6.91795 7.11982 6.87795C7.15982 6.83795 7.19982 6.79795 7.23982 6.76795C7.26982 6.72795 7.30982 6.69795 7.34982 6.65795C7.36982 6.63795 7.38982 6.61795 7.41982 6.59795L7.42982 6.58795C7.43982 6.57795 7.45982 6.56795 7.46982 6.54795C7.49982 6.51795 7.53982 6.48795 7.56982 6.45795C7.59982 6.42795 7.63982 6.39795 7.66982 6.36795C7.69982 6.33795 7.73982 6.30795 7.76982 6.27795C7.79982 6.24795 7.83982 6.21795 7.86982 6.18795C7.86982 6.18795 7.86982 6.18795 7.87982 6.17795C7.90982 6.15795 7.93982 6.12795 7.95982 6.10795C7.98982 6.07795 8.01982 6.05795 8.04982 6.02795C8.06982 6.00795 8.09982 5.98795 8.12982 5.96795C8.15982 5.94795 8.18982 5.91795 8.21982 5.89795C8.23982 5.86795 8.26982 5.84795 8.29982 5.82795C8.32982 5.80795 8.34982 5.78795 8.37982 5.76795C8.40982 5.74795 8.42982 5.72795 8.45982 5.70795C8.48982 5.68795 8.50982 5.66795 8.53982 5.64795C8.55982 5.62795 8.58982 5.60795 8.60982 5.58795C8.62982 5.56795 8.65982 5.54795 8.67982 5.53795C8.67982 5.53795 8.68982 5.53795 8.68982 5.52795C8.70982 5.50795 8.72982 5.49795 8.75982 5.47795C8.77982 5.45795 8.80982 5.44795 8.82982 5.42795C8.85982 5.41795 8.87982 5.40795 8.89982 5.38795C8.91982 5.36795 8.94982 5.35795 8.96982 5.34795C8.99982 5.32795 9.01982 5.31795 9.03982 5.29795C9.05982 5.28795 9.07982 5.26795 9.10982 5.25795C9.12982 5.24795 9.14983 5.22795 9.17982 5.21795C9.19983 5.20795 9.21982 5.18795 9.23982 5.17795C9.25982 5.16795 9.27982 5.15795 9.29982 5.14795C9.31983 5.13795 9.33982 5.12795 9.35982 5.10795C9.37982 5.09795 9.39982 5.08795 9.41982 5.07795C9.41982 5.07795 9.42982 5.07795 9.42982 5.06795C9.44983 5.05795 9.45982 5.04795 9.47982 5.03795C9.50982 5.02795 9.52982 5.01795 9.54982 5.00795C9.56983 4.99795 9.57982 4.98795 9.59982 4.97795C9.61983 4.96795 9.63982 4.95795 9.65982 4.94795C9.67982 4.93795 9.69982 4.92795 9.71982 4.91795C9.73983 4.90795 9.75982 4.89795 9.77982 4.88795C9.79982 4.88795 9.81982 4.87795 9.82982 4.86795C9.84982 4.85795 9.86982 4.84795 9.88982 4.83795C9.90983 4.82795 9.92982 4.82795 9.94982 4.81795C9.96982 4.80795 9.97982 4.80795 9.99982 4.79795C10.0198 4.78795 10.0398 4.77795 10.0498 4.77795C10.0598 4.77795 10.0698 4.76795 10.0698 4.76795C10.0798 4.76795 10.0898 4.75795 10.0998 4.75795C10.1298 4.74795 10.1498 4.73795 10.1698 4.72795C10.1898 4.71795 10.1998 4.71795 10.2198 4.70795C10.2398 4.69795 10.2598 4.69795 10.2698 4.68795C10.2898 4.67795 10.3098 4.67795 10.3298 4.66795C10.3498 4.65795 10.3698 4.65795 10.3798 4.64795C10.3998 4.64795 10.4198 4.64795 10.4398 4.63795C10.4598 4.62795 10.4698 4.62795 10.4898 4.62795C10.5098 4.61795 10.5298 4.61795 10.5498 4.60795C10.5698 4.59795 10.5898 4.59795 10.5998 4.59795C10.6098 4.59795 10.6198 4.59795 10.6298 4.58795C10.6398 4.58795 10.6398 4.58795 10.6498 4.57795C10.6698 4.57795 10.6898 4.56795 10.6998 4.56795C10.7198 4.56795 10.7398 4.55795 10.7598 4.55795C10.7798 4.55795 10.7998 4.54795 10.8198 4.54795C10.8398 4.54795 10.8598 4.53795 10.8798 4.53795C10.8998 4.53795 10.9198 4.52795 10.9298 4.52795C10.9398 4.52795 10.9598 4.52795 10.9698 4.51795C10.9798 4.51795 10.9998 4.51795 11.0098 4.50795C11.0198 4.50795 11.0398 4.50795 11.0498 4.50795C11.0598 4.50795 11.0798 4.50795 11.0898 4.50795C11.0998 4.50795 11.1098 4.50795 11.1098 4.50795H11.1298C11.1398 4.50795 11.1498 4.50795 11.1498 4.50795C11.1598 4.50795 11.1698 4.50795 11.1698 4.50795C11.1998 4.50795 11.2298 4.50795 11.2598 4.50795C11.2898 4.50795 11.3198 4.50795 11.3398 4.50795C11.3698 4.50795 11.3898 4.50795 11.4198 4.50795C11.4298 4.50795 11.4298 4.50795 11.4398 4.50795C11.4498 4.50795 11.4698 4.50795 11.4798 4.50795C11.5298 4.50795 11.5698 4.51795 11.6098 4.51795C11.6398 4.51795 11.6598 4.52795 11.6798 4.52795H11.6898C11.6898 4.52795 11.6898 4.52795 11.6998 4.52795H11.7098C11.7398 4.53795 11.7698 4.53795 11.7898 4.54795C11.8098 4.55795 11.8298 4.55795 11.8398 4.56795C11.8498 4.56795 11.8598 4.57795 11.8598 4.57795C11.8598 4.57795 11.8698 4.57795 11.8798 4.58795H11.8898C11.8898 4.58795 11.8898 4.58795 11.8998 4.58795L12.9498 5.10795C12.9798 5.11795 12.9798 5.11795 12.9698 5.11795Z" fill="#7C7C7C"/>
</g>
<defs>
<clipPath id="clip0_377_4994">
<rect width="15" height="15" fill="white" transform="translate(0.5 0.828125)"/>
</clipPath>
</defs>
</svg>
