<svg width="31" height="30" viewBox="0 0 31 30" fill="none" xmlns="http://www.w3.org/2000/svg">
<path d="M28.6175 13.0478H6.6968L16.2736 3.47093C17.039 2.70557 17.039 1.44959 16.2736 0.684232C16.0921 0.502304 15.8764 0.35797 15.639 0.25949C15.4016 0.161011 15.1471 0.110321 14.8901 0.110321C14.6331 0.110321 14.3786 0.161011 14.1412 0.25949C13.9038 0.35797 13.6881 0.502304 13.5066 0.684232L0.573912 13.6169C0.391984 13.7984 0.24765 14.0141 0.14917 14.2515C0.0506909 14.4889 0 14.7434 0 15.0004C0 15.2574 0.0506909 15.5119 0.14917 15.7493C0.24765 15.9867 0.391984 16.2024 0.573912 16.384L13.5066 29.3166C13.6882 29.4983 13.9039 29.6424 14.1413 29.7407C14.3787 29.8391 14.6331 29.8897 14.8901 29.8897C15.147 29.8897 15.4015 29.8391 15.6389 29.7407C15.8762 29.6424 16.0919 29.4983 16.2736 29.3166C16.4553 29.1349 16.5994 28.9192 16.6978 28.6818C16.7961 28.4444 16.8467 28.19 16.8467 27.9331C16.8467 27.6761 16.7961 27.4217 16.6978 27.1843C16.5994 26.9469 16.4553 26.7312 16.2736 26.5495L6.6968 16.9727H28.6175C29.6969 16.9727 30.58 16.0896 30.58 15.0102C30.58 13.9309 29.6969 13.0478 28.6175 13.0478Z" fill="black"/>
</svg>
