<svg width="176" height="22" viewBox="0 0 176 22" fill="none" xmlns="http://www.w3.org/2000/svg">
<rect y="1" width="20" height="20" rx="10" fill="#F4CC47"/>
<path d="M14.3313 16C13.2779 16 12.1979 15.7362 11.0913 15.2087C9.98458 14.6812 8.95458 13.9406 8.00125 12.9869C7.05542 12.0335 6.31875 11.0054 5.79125 9.9025C5.26375 8.79958 5 7.72167 5 6.66875C5 6.48125 5.0625 6.32292 5.1875 6.19375C5.3125 6.06458 5.46875 6 5.65625 6H7.20187C7.37187 6 7.52021 6.05354 7.64687 6.16062C7.77354 6.26771 7.85917 6.405 7.90375 6.5725L8.21375 8.0625C8.24292 8.2375 8.23771 8.39021 8.19812 8.52063C8.15854 8.65104 8.08917 8.75792 7.99 8.84125L6.61875 10.12C6.87542 10.5854 7.15896 11.0179 7.46938 11.4175C7.77979 11.8171 8.11104 12.1956 8.46313 12.5531C8.82563 12.9156 9.21604 13.2531 9.63438 13.5656C10.0527 13.8777 10.5119 14.1723 11.0119 14.4494L12.3488 13.0887C12.4504 12.9792 12.5648 12.9069 12.6919 12.8719C12.8185 12.8373 12.959 12.8304 13.1131 12.8512L14.4275 13.12C14.5975 13.1617 14.7354 13.2473 14.8413 13.3769C14.9471 13.5065 15 13.6548 15 13.8219V15.3438C15 15.5313 14.9354 15.6875 14.8063 15.8125C14.6771 15.9375 14.5188 16 14.3313 16Z" fill="black"/>
<path d="M35.2159 15.6989V7.26136H36.6477V15.6989H35.2159ZM31.7131 12.196V10.7642H40.1506V12.196H31.7131ZM47.388 4.73011C47.9249 4.73437 48.4618 4.83665 48.9988 5.03693C49.5357 5.23722 50.0257 5.5696 50.4689 6.03409C50.9121 6.49432 51.2679 7.12287 51.5364 7.91974C51.8049 8.71662 51.9391 9.71591 51.9391 10.9176C51.9391 12.081 51.8283 13.1143 51.6067 14.0178C51.3894 14.9169 51.074 15.6754 50.6607 16.2933C50.2516 16.9112 49.753 17.38 49.165 17.6996C48.5811 18.0192 47.9206 18.179 47.1834 18.179C46.4505 18.179 45.7963 18.0341 45.2211 17.7443C44.65 17.4503 44.1813 17.0433 43.8148 16.5234C43.4526 15.9993 43.2203 15.392 43.1181 14.7017H44.6777C44.8184 15.3026 45.0975 15.799 45.5151 16.1911C45.937 16.5788 46.4931 16.7727 47.1834 16.7727C48.1934 16.7727 48.9902 16.3317 49.574 15.4496C50.1621 14.5675 50.4561 13.321 50.4561 11.7102H50.3539C50.1152 12.0682 49.8319 12.3771 49.5037 12.6371C49.1756 12.897 48.8113 13.0973 48.4107 13.2379C48.0101 13.3786 47.584 13.4489 47.1323 13.4489C46.3823 13.4489 45.6941 13.2635 45.0676 12.8928C44.4455 12.5178 43.9469 12.0043 43.5719 11.3523C43.2012 10.696 43.0158 9.94602 43.0158 9.10227C43.0158 8.30114 43.1948 7.56818 43.5527 6.90341C43.915 6.23437 44.4221 5.7017 45.074 5.3054C45.7303 4.90909 46.5016 4.71733 47.388 4.73011ZM47.388 6.13636C46.851 6.13636 46.3674 6.2706 45.937 6.53906C45.5108 6.80327 45.1721 7.16122 44.9206 7.61293C44.6735 8.06037 44.5499 8.55682 44.5499 9.10227C44.5499 9.64773 44.6692 10.1442 44.9078 10.5916C45.1507 11.0348 45.481 11.3885 45.8986 11.6527C46.3205 11.9126 46.7999 12.0426 47.3368 12.0426C47.7417 12.0426 48.1188 11.9638 48.4682 11.8061C48.8176 11.6442 49.1223 11.4247 49.3823 11.1477C49.6465 10.8665 49.8532 10.549 50.0023 10.1953C50.1515 9.83736 50.226 9.46449 50.226 9.0767C50.226 8.56534 50.1025 8.08594 49.8553 7.63849C49.6124 7.19105 49.2757 6.82884 48.8453 6.55185C48.4192 6.27486 47.9334 6.13636 47.388 6.13636ZM54.5103 18L60.3654 6.41761V6.31534H53.6154V4.90909H62.0018V6.39205L56.1722 18H54.5103ZM68.9867 4.90909V18H67.4015V6.57102H67.3248L64.1287 8.69318V7.08239L67.4015 4.90909H68.9867ZM77.5073 15.3153V14.0114L83.2601 4.90909H84.2061V6.92898H83.5669L79.2203 13.8068V13.9091H86.9675V15.3153H77.5073ZM83.6692 18V14.919V14.3118V4.90909H85.1777V18H83.6692ZM98.6186 18.179C97.7408 18.179 96.9652 18.0234 96.2919 17.7124C95.6229 17.397 95.1009 16.9645 94.7259 16.4148C94.3509 15.8608 94.1655 15.2301 94.1697 14.5227C94.1655 13.9687 94.2741 13.4574 94.4957 12.9886C94.7173 12.5156 95.0199 12.1214 95.4034 11.8061C95.7912 11.4865 96.2237 11.2841 96.701 11.1989V11.1222C96.0746 10.9602 95.576 10.6087 95.2053 10.0675C94.8345 9.52202 94.6513 8.90199 94.6555 8.20739C94.6513 7.54261 94.8196 6.94815 95.1605 6.42401C95.5014 5.89986 95.9702 5.48651 96.5668 5.18395C97.1676 4.88139 97.8516 4.73011 98.6186 4.73011C99.3771 4.73011 100.055 4.88139 100.651 5.18395C101.248 5.48651 101.717 5.89986 102.058 6.42401C102.403 6.94815 102.577 7.54261 102.582 8.20739C102.577 8.90199 102.388 9.52202 102.013 10.0675C101.642 10.6087 101.15 10.9602 100.536 11.1222V11.1989C101.009 11.2841 101.435 11.4865 101.815 11.8061C102.194 12.1214 102.496 12.5156 102.722 12.9886C102.948 13.4574 103.063 13.9687 103.067 14.5227C103.063 15.2301 102.871 15.8608 102.492 16.4148C102.117 16.9645 101.595 17.397 100.926 17.7124C100.261 18.0234 99.4922 18.179 98.6186 18.179ZM98.6186 16.7727C99.2109 16.7727 99.7223 16.6768 100.153 16.4851C100.583 16.2933 100.915 16.0227 101.15 15.6733C101.384 15.3239 101.504 14.9148 101.508 14.446C101.504 13.9517 101.376 13.5149 101.124 13.1357C100.873 12.7564 100.53 12.4581 100.095 12.2408C99.6648 12.0234 99.1726 11.9148 98.6186 11.9148C98.0604 11.9148 97.5618 12.0234 97.1229 12.2408C96.6882 12.4581 96.3452 12.7564 96.0938 13.1357C95.8466 13.5149 95.7251 13.9517 95.7294 14.446C95.7251 14.9148 95.8381 15.3239 96.0682 15.6733C96.3026 16.0227 96.6371 16.2933 97.0717 16.4851C97.5064 16.6768 98.022 16.7727 98.6186 16.7727ZM98.6186 10.5597C99.0874 10.5597 99.5028 10.4659 99.8651 10.2784C100.232 10.0909 100.519 9.82884 100.728 9.49219C100.937 9.15554 101.043 8.76136 101.048 8.30966C101.043 7.86648 100.939 7.48082 100.734 7.1527C100.53 6.82031 100.246 6.56463 99.8842 6.38565C99.522 6.20241 99.1001 6.1108 98.6186 6.1108C98.1286 6.1108 97.7003 6.20241 97.3338 6.38565C96.9673 6.56463 96.6839 6.82031 96.4837 7.1527C96.2834 7.48082 96.1854 7.86648 96.1896 8.30966C96.1854 8.76136 96.2855 9.15554 96.4901 9.49219C96.6989 9.82884 96.9865 10.0909 97.353 10.2784C97.7195 10.4659 98.1413 10.5597 98.6186 10.5597ZM109.71 18.179C108.833 18.179 108.057 18.0234 107.384 17.7124C106.715 17.397 106.193 16.9645 105.818 16.4148C105.443 15.8608 105.257 15.2301 105.262 14.5227C105.257 13.9687 105.366 13.4574 105.588 12.9886C105.809 12.5156 106.112 12.1214 106.495 11.8061C106.883 11.4865 107.316 11.2841 107.793 11.1989V11.1222C107.166 10.9602 106.668 10.6087 106.297 10.0675C105.926 9.52202 105.743 8.90199 105.747 8.20739C105.743 7.54261 105.911 6.94815 106.252 6.42401C106.593 5.89986 107.062 5.48651 107.659 5.18395C108.259 4.88139 108.943 4.73011 109.71 4.73011C110.469 4.73011 111.146 4.88139 111.743 5.18395C112.34 5.48651 112.808 5.89986 113.149 6.42401C113.494 6.94815 113.669 7.54261 113.673 8.20739C113.669 8.90199 113.48 9.52202 113.105 10.0675C112.734 10.6087 112.242 10.9602 111.628 11.1222V11.1989C112.101 11.2841 112.527 11.4865 112.906 11.8061C113.286 12.1214 113.588 12.5156 113.814 12.9886C114.04 13.4574 114.155 13.9687 114.159 14.5227C114.155 15.2301 113.963 15.8608 113.584 16.4148C113.209 16.9645 112.687 17.397 112.018 17.7124C111.353 18.0234 110.584 18.179 109.71 18.179ZM109.71 16.7727C110.303 16.7727 110.814 16.6768 111.244 16.4851C111.675 16.2933 112.007 16.0227 112.242 15.6733C112.476 15.3239 112.595 14.9148 112.6 14.446C112.595 13.9517 112.468 13.5149 112.216 13.1357C111.965 12.7564 111.622 12.4581 111.187 12.2408C110.757 12.0234 110.264 11.9148 109.71 11.9148C109.152 11.9148 108.654 12.0234 108.215 12.2408C107.78 12.4581 107.437 12.7564 107.186 13.1357C106.938 13.5149 106.817 13.9517 106.821 14.446C106.817 14.9148 106.93 15.3239 107.16 15.6733C107.394 16.0227 107.729 16.2933 108.164 16.4851C108.598 16.6768 109.114 16.7727 109.71 16.7727ZM109.71 10.5597C110.179 10.5597 110.595 10.4659 110.957 10.2784C111.323 10.0909 111.611 9.82884 111.82 9.49219C112.029 9.15554 112.135 8.76136 112.139 8.30966C112.135 7.86648 112.031 7.48082 111.826 7.1527C111.622 6.82031 111.338 6.56463 110.976 6.38565C110.614 6.20241 110.192 6.1108 109.71 6.1108C109.22 6.1108 108.792 6.20241 108.426 6.38565C108.059 6.56463 107.776 6.82031 107.575 7.1527C107.375 7.48082 107.277 7.86648 107.281 8.30966C107.277 8.76136 107.377 9.15554 107.582 9.49219C107.791 9.82884 108.078 10.0909 108.445 10.2784C108.811 10.4659 109.233 10.5597 109.71 10.5597ZM120.956 18.179C120.419 18.1705 119.882 18.0682 119.345 17.8722C118.808 17.6761 118.318 17.3459 117.875 16.8814C117.431 16.4126 117.076 15.7798 116.807 14.983C116.539 14.1818 116.404 13.1761 116.404 11.9659C116.404 10.8068 116.513 9.77983 116.73 8.88494C116.948 7.98579 117.263 7.2294 117.676 6.61577C118.09 5.99787 118.588 5.52912 119.172 5.20952C119.76 4.88991 120.423 4.73011 121.16 4.73011C121.893 4.73011 122.545 4.87713 123.116 5.17116C123.691 5.46094 124.16 5.86577 124.522 6.38565C124.885 6.90554 125.119 7.50426 125.225 8.18182H123.666C123.521 7.59375 123.24 7.10582 122.822 6.71804C122.404 6.33026 121.85 6.13636 121.16 6.13636C120.146 6.13636 119.347 6.57741 118.763 7.45952C118.184 8.34162 117.892 9.57955 117.887 11.1733H117.99C118.228 10.8111 118.512 10.5021 118.84 10.2464C119.172 9.98651 119.539 9.78622 119.939 9.6456C120.34 9.50497 120.764 9.43466 121.211 9.43466C121.961 9.43466 122.647 9.62216 123.27 9.99716C123.892 10.3679 124.39 10.8814 124.765 11.5376C125.14 12.1896 125.328 12.9375 125.328 13.7812C125.328 14.5909 125.147 15.3324 124.784 16.0057C124.422 16.6747 123.913 17.2074 123.257 17.6037C122.605 17.9957 121.838 18.1875 120.956 18.179ZM120.956 16.7727C121.493 16.7727 121.974 16.6385 122.4 16.37C122.831 16.1016 123.169 15.7415 123.417 15.2898C123.668 14.8381 123.794 14.3352 123.794 13.7812C123.794 13.2401 123.672 12.7479 123.429 12.3047C123.191 11.8572 122.86 11.5014 122.439 11.2372C122.021 10.973 121.544 10.8409 121.007 10.8409C120.602 10.8409 120.225 10.9219 119.875 11.0838C119.526 11.2415 119.219 11.4588 118.955 11.7358C118.695 12.0128 118.49 12.3303 118.341 12.6882C118.192 13.0419 118.118 13.4148 118.118 13.8068C118.118 14.3267 118.239 14.8125 118.482 15.2642C118.729 15.7159 119.066 16.0803 119.492 16.3572C119.922 16.6342 120.41 16.7727 120.956 16.7727ZM137.251 18.179C136.714 18.1705 136.177 18.0682 135.64 17.8722C135.103 17.6761 134.613 17.3459 134.17 16.8814C133.726 16.4126 133.371 15.7798 133.102 14.983C132.834 14.1818 132.699 13.1761 132.699 11.9659C132.699 10.8068 132.808 9.77983 133.025 8.88494C133.243 7.98579 133.558 7.2294 133.971 6.61577C134.385 5.99787 134.883 5.52912 135.467 5.20952C136.055 4.88991 136.718 4.73011 137.455 4.73011C138.188 4.73011 138.84 4.87713 139.411 5.17116C139.986 5.46094 140.455 5.86577 140.817 6.38565C141.18 6.90554 141.414 7.50426 141.52 8.18182H139.961C139.816 7.59375 139.535 7.10582 139.117 6.71804C138.699 6.33026 138.145 6.13636 137.455 6.13636C136.441 6.13636 135.642 6.57741 135.058 7.45952C134.479 8.34162 134.187 9.57955 134.182 11.1733H134.285C134.523 10.8111 134.807 10.5021 135.135 10.2464C135.467 9.98651 135.834 9.78622 136.234 9.6456C136.635 9.50497 137.059 9.43466 137.506 9.43466C138.256 9.43466 138.942 9.62216 139.564 9.99716C140.187 10.3679 140.685 10.8814 141.06 11.5376C141.435 12.1896 141.623 12.9375 141.623 13.7812C141.623 14.5909 141.442 15.3324 141.079 16.0057C140.717 16.6747 140.208 17.2074 139.552 17.6037C138.9 17.9957 138.133 18.1875 137.251 18.179ZM137.251 16.7727C137.787 16.7727 138.269 16.6385 138.695 16.37C139.126 16.1016 139.464 15.7415 139.711 15.2898C139.963 14.8381 140.089 14.3352 140.089 13.7812C140.089 13.2401 139.967 12.7479 139.724 12.3047C139.486 11.8572 139.155 11.5014 138.733 11.2372C138.316 10.973 137.839 10.8409 137.302 10.8409C136.897 10.8409 136.52 10.9219 136.17 11.0838C135.821 11.2415 135.514 11.4588 135.25 11.7358C134.99 12.0128 134.785 12.3303 134.636 12.6882C134.487 13.0419 134.412 13.4148 134.412 13.8068C134.412 14.3267 134.534 14.8125 134.777 15.2642C135.024 15.7159 135.361 16.0803 135.787 16.3572C136.217 16.6342 136.705 16.7727 137.251 16.7727ZM144.136 18V16.8494L148.457 12.1193C148.964 11.5653 149.382 11.0838 149.71 10.6747C150.038 10.2614 150.281 9.87358 150.439 9.51136C150.601 9.14489 150.682 8.76136 150.682 8.3608C150.682 7.90057 150.571 7.50213 150.349 7.16548C150.132 6.82883 149.834 6.56889 149.455 6.38565C149.075 6.20241 148.649 6.1108 148.176 6.1108C147.673 6.1108 147.234 6.2152 146.859 6.42401C146.489 6.62855 146.201 6.91619 145.996 7.28693C145.796 7.65767 145.696 8.09233 145.696 8.59091H144.188C144.188 7.82386 144.364 7.15057 144.718 6.57102C145.072 5.99148 145.553 5.53977 146.163 5.21591C146.776 4.89204 147.464 4.73011 148.227 4.73011C148.994 4.73011 149.674 4.89204 150.266 5.21591C150.859 5.53977 151.323 5.97656 151.66 6.52628C151.996 7.07599 152.165 7.6875 152.165 8.3608C152.165 8.84233 152.077 9.31321 151.903 9.77344C151.732 10.2294 151.434 10.7386 151.008 11.3011C150.586 11.8594 150 12.5412 149.25 13.3466L146.31 16.4915V16.5938H152.395V18H144.136ZM159.381 18.179C158.844 18.1705 158.308 18.0682 157.771 17.8722C157.234 17.6761 156.744 17.3459 156.3 16.8814C155.857 16.4126 155.501 15.7798 155.233 14.983C154.964 14.1818 154.83 13.1761 154.83 11.9659C154.83 10.8068 154.939 9.77983 155.156 8.88494C155.374 7.98579 155.689 7.2294 156.102 6.61577C156.516 5.99787 157.014 5.52912 157.598 5.20952C158.186 4.88991 158.849 4.73011 159.586 4.73011C160.319 4.73011 160.971 4.87713 161.542 5.17116C162.117 5.46094 162.586 5.86577 162.948 6.38565C163.31 6.90554 163.545 7.50426 163.651 8.18182H162.092C161.947 7.59375 161.665 7.10582 161.248 6.71804C160.83 6.33026 160.276 6.13636 159.586 6.13636C158.572 6.13636 157.773 6.57741 157.189 7.45952C156.609 8.34162 156.317 9.57955 156.313 11.1733H156.415C156.654 10.8111 156.938 10.5021 157.266 10.2464C157.598 9.98651 157.964 9.78622 158.365 9.6456C158.766 9.50497 159.19 9.43466 159.637 9.43466C160.387 9.43466 161.073 9.62216 161.695 9.99716C162.317 10.3679 162.816 10.8814 163.191 11.5376C163.566 12.1896 163.754 12.9375 163.754 13.7812C163.754 14.5909 163.572 15.3324 163.21 16.0057C162.848 16.6747 162.339 17.2074 161.683 17.6037C161.031 17.9957 160.263 18.1875 159.381 18.179ZM159.381 16.7727C159.918 16.7727 160.4 16.6385 160.826 16.37C161.256 16.1016 161.595 15.7415 161.842 15.2898C162.094 14.8381 162.219 14.3352 162.219 13.7812C162.219 13.2401 162.098 12.7479 161.855 12.3047C161.616 11.8572 161.286 11.5014 160.864 11.2372C160.447 10.973 159.969 10.8409 159.433 10.8409C159.028 10.8409 158.651 10.9219 158.301 11.0838C157.952 11.2415 157.645 11.4588 157.381 11.7358C157.121 12.0128 156.916 12.3303 156.767 12.6882C156.618 13.0419 156.543 13.4148 156.543 13.8068C156.543 14.3267 156.665 14.8125 156.908 15.2642C157.155 15.7159 157.491 16.0803 157.918 16.3572C158.348 16.6342 158.836 16.7727 159.381 16.7727ZM170.358 18.179C169.608 18.179 168.933 18.0298 168.332 17.7315C167.731 17.4332 167.249 17.0241 166.887 16.5043C166.525 15.9844 166.327 15.392 166.293 14.7273H167.827C167.887 15.3196 168.155 15.8097 168.632 16.1974C169.114 16.581 169.689 16.7727 170.358 16.7727C170.895 16.7727 171.372 16.647 171.79 16.3956C172.212 16.1442 172.542 15.799 172.781 15.3601C173.024 14.9169 173.145 14.4162 173.145 13.858C173.145 13.2869 173.019 12.7777 172.768 12.3303C172.521 11.8786 172.18 11.5227 171.745 11.2628C171.311 11.0028 170.814 10.8707 170.256 10.8665C169.855 10.8622 169.444 10.924 169.022 11.0518C168.6 11.1754 168.253 11.3352 167.98 11.5312L166.497 11.3523L167.29 4.90909H174.091V6.31534H168.619L168.159 10.1761H168.236C168.504 9.96307 168.841 9.78622 169.246 9.6456C169.651 9.50497 170.073 9.43466 170.512 9.43466C171.313 9.43466 172.026 9.62642 172.653 10.0099C173.284 10.3892 173.778 10.9091 174.136 11.5696C174.498 12.2301 174.679 12.9844 174.679 13.8324C174.679 14.6676 174.492 15.4134 174.117 16.0696C173.746 16.7216 173.235 17.2372 172.583 17.6165C171.931 17.9915 171.189 18.179 170.358 18.179Z" fill="black"/>
</svg>
