<svg width="15" height="15" viewBox="0 0 15 15" fill="none" xmlns="http://www.w3.org/2000/svg">
<path d="M7.50007 0.319824C3.53007 0.319824 0.320068 3.53982 0.320068 7.49982C0.320068 11.4598 3.54007 14.6798 7.50007 14.6798C11.4601 14.6798 14.6801 11.4598 14.6801 7.49982C14.6801 3.53982 11.4701 0.319824 7.50007 0.319824ZM12.4701 4.28982H12.4601H12.4501H12.4401C11.5001 4.38982 10.5701 4.84982 9.71007 5.48982C8.84007 6.14982 8.04007 6.97982 7.36007 7.80982C6.68007 8.63982 6.11007 9.46982 5.71007 10.1098C5.30007 10.7498 5.06007 11.1998 5.01007 11.2798L4.13007 10.5798L2.53007 7.80982L4.35007 8.72982C4.36007 8.70982 4.38007 8.68983 4.39007 8.66982C4.40007 8.65982 4.42007 8.63982 4.43007 8.61982C4.44007 8.59982 4.46007 8.57983 4.47007 8.55982C4.49007 8.53982 4.51007 8.51982 4.52007 8.49982C4.59007 8.40982 4.66007 8.31982 4.72007 8.22982C4.78007 8.15982 4.83007 8.08982 4.88007 8.01982C4.90007 8.00982 4.90007 7.99982 4.91007 7.98982C4.92007 7.97982 4.92007 7.96982 4.93007 7.96982C5.00007 7.88982 5.06007 7.79982 5.13007 7.71982C5.20007 7.63982 5.26007 7.55982 5.33007 7.47982C5.36007 7.43982 5.40007 7.39982 5.43007 7.35982C5.44007 7.34982 5.44007 7.33982 5.45007 7.33982C5.46007 7.31982 5.47007 7.29982 5.49007 7.28982C5.54007 7.21982 5.59007 7.15982 5.65007 7.09982C5.70007 7.02982 5.75007 6.96982 5.81007 6.90982C5.86007 6.85982 5.90007 6.80982 5.95007 6.75982L5.96007 6.74982L5.97007 6.73982C6.02007 6.68982 6.06007 6.63982 6.11007 6.58982C6.16007 6.53982 6.20007 6.48982 6.24007 6.44982C6.28007 6.40982 6.32007 6.34982 6.37007 6.29982C6.39007 6.27982 6.42007 6.24982 6.44007 6.22982L6.45007 6.21982C6.45007 6.21982 6.46007 6.21982 6.46007 6.20982C6.47007 6.19982 6.48007 6.18982 6.50007 6.16982C6.54007 6.12982 6.58007 6.08982 6.62007 6.04982C6.66007 6.00982 6.70007 5.96982 6.74007 5.93982C6.77007 5.89982 6.81007 5.86982 6.85007 5.82982C6.87007 5.80982 6.89007 5.78982 6.92007 5.76982L6.93007 5.75982C6.94007 5.74982 6.96007 5.73982 6.97007 5.71982C7.00007 5.68982 7.04007 5.65982 7.07007 5.62982C7.10007 5.59982 7.14007 5.56982 7.17007 5.53982C7.20007 5.50982 7.24007 5.47982 7.27007 5.44982C7.30007 5.41982 7.34007 5.38982 7.37007 5.35982C7.37007 5.35982 7.37007 5.35982 7.38007 5.34982C7.41007 5.32982 7.44007 5.29982 7.46007 5.27982C7.49007 5.24982 7.52007 5.22982 7.55007 5.19982C7.57007 5.17982 7.60007 5.15982 7.63007 5.13982C7.66007 5.11982 7.69007 5.08982 7.72007 5.06982C7.74007 5.03982 7.77007 5.01982 7.80007 4.99982C7.83007 4.97982 7.85007 4.95982 7.88007 4.93982C7.91007 4.91982 7.93007 4.89982 7.96007 4.87982C7.99007 4.85982 8.01007 4.83982 8.04007 4.81982C8.06007 4.79982 8.09007 4.77982 8.11007 4.75982C8.13007 4.73982 8.16007 4.71982 8.18007 4.70982C8.18007 4.70982 8.19007 4.70982 8.19007 4.69982C8.21007 4.67982 8.23007 4.66982 8.26007 4.64982C8.28007 4.62982 8.31007 4.61982 8.33007 4.59982C8.36007 4.58982 8.38007 4.57982 8.40007 4.55982C8.42007 4.53982 8.45007 4.52982 8.47007 4.51982C8.50007 4.49982 8.52007 4.48982 8.54007 4.46982C8.56007 4.45982 8.58007 4.43982 8.61007 4.42982C8.63007 4.41982 8.65007 4.39982 8.68007 4.38982C8.70007 4.37982 8.72007 4.35982 8.74007 4.34982C8.76007 4.33982 8.78007 4.32982 8.80007 4.31982C8.82007 4.30982 8.84007 4.29982 8.86007 4.27982C8.88007 4.26982 8.90007 4.25982 8.92007 4.24982C8.92007 4.24982 8.93007 4.24982 8.93007 4.23982C8.95007 4.22982 8.96007 4.21982 8.98007 4.20982C9.01007 4.19982 9.03007 4.18982 9.05007 4.17982C9.07007 4.16982 9.08007 4.15982 9.10007 4.14982C9.12007 4.13982 9.14007 4.12982 9.16007 4.11982C9.18007 4.10982 9.20007 4.09982 9.22007 4.08982C9.24007 4.07982 9.26007 4.06982 9.28007 4.05982C9.30007 4.05982 9.32007 4.04982 9.33007 4.03982C9.35007 4.02982 9.37007 4.01982 9.39007 4.00982C9.41007 3.99982 9.43007 3.99982 9.45007 3.98982C9.47007 3.97982 9.48007 3.97982 9.50007 3.96982C9.52007 3.95982 9.54007 3.94982 9.55007 3.94982C9.56007 3.94982 9.57007 3.93982 9.57007 3.93982C9.58007 3.93982 9.59007 3.92982 9.60007 3.92982C9.63007 3.91982 9.65007 3.90982 9.67007 3.89982C9.69007 3.88982 9.70007 3.88982 9.72007 3.87982C9.74007 3.86982 9.76007 3.86982 9.77007 3.85982C9.79007 3.84982 9.81007 3.84982 9.83007 3.83982C9.85007 3.82982 9.87007 3.82982 9.88007 3.81982C9.90007 3.81982 9.92007 3.81982 9.94007 3.80982C9.96007 3.79982 9.97007 3.79982 9.99007 3.79982C10.0101 3.78982 10.0301 3.78982 10.0501 3.77982C10.0701 3.76982 10.0901 3.76982 10.1001 3.76982C10.1101 3.76982 10.1201 3.76982 10.1301 3.75982C10.1401 3.75982 10.1401 3.75982 10.1501 3.74982C10.1701 3.74982 10.1901 3.73982 10.2001 3.73982C10.2201 3.73982 10.2401 3.72982 10.2601 3.72982C10.2801 3.72982 10.3001 3.71982 10.3201 3.71982C10.3401 3.71982 10.3601 3.70982 10.3801 3.70982C10.4001 3.70982 10.4201 3.69982 10.4301 3.69982C10.4401 3.69982 10.4601 3.69982 10.4701 3.68982C10.4801 3.68982 10.5001 3.68982 10.5101 3.67982C10.5201 3.67982 10.5401 3.67982 10.5501 3.67982C10.5601 3.67982 10.5801 3.67982 10.5901 3.67982C10.6001 3.67982 10.6101 3.67982 10.6101 3.67982H10.6301C10.6401 3.67982 10.6501 3.67982 10.6501 3.67982C10.6601 3.67982 10.6701 3.67982 10.6701 3.67982C10.7001 3.67982 10.7301 3.67982 10.7601 3.67982C10.7901 3.67982 10.8201 3.67982 10.8401 3.67982C10.8701 3.67982 10.8901 3.67982 10.9201 3.67982C10.9301 3.67982 10.9301 3.67982 10.9401 3.67982C10.9501 3.67982 10.9701 3.67982 10.9801 3.67982C11.0301 3.67982 11.0701 3.68982 11.1101 3.68982C11.1401 3.68982 11.1601 3.69982 11.1801 3.69982H11.1901C11.1901 3.69982 11.1901 3.69982 11.2001 3.69982H11.2101C11.2401 3.70982 11.2701 3.70982 11.2901 3.71982C11.3101 3.72982 11.3301 3.72982 11.3401 3.73982C11.3501 3.73982 11.3601 3.74982 11.3601 3.74982C11.3601 3.74982 11.3701 3.74982 11.3801 3.75982H11.3901C11.3901 3.75982 11.3901 3.75982 11.4001 3.75982L12.4501 4.27982C12.4801 4.28982 12.4801 4.28982 12.4701 4.28982Z" fill="#7C7C7C"/>
</svg>
