<svg width="21" height="20" viewBox="0 0 21 20" fill="none" xmlns="http://www.w3.org/2000/svg">
<path d="M6.92646 0.47998H5.85979C4.80646 0.47998 3.95312 1.33331 3.95312 2.38665V17.6133C3.95312 18.6533 4.80646 19.52 5.85979 19.52H6.92646V0.47998Z" fill="white"/>
<path d="M14.9665 0.47998H7.95312V19.5066H14.9531C16.1665 19.5066 17.1665 18.6533 17.1665 17.6V2.38665C17.1798 1.33331 16.1798 0.47998 14.9665 0.47998ZM13.8331 6.53331H10.8998C10.5265 6.53331 10.2331 6.25331 10.2331 5.91998C10.2331 5.58665 10.5398 5.30665 10.8998 5.30665H13.8465C14.2198 5.30665 14.5131 5.58665 14.5131 5.91998C14.4998 6.26665 14.2065 6.53331 13.8331 6.53331ZM13.8331 4.81331H10.8998C10.5265 4.81331 10.2331 4.53331 10.2331 4.19998C10.2331 3.86665 10.5398 3.58665 10.8998 3.58665H13.8465C14.2198 3.58665 14.5131 3.86665 14.5131 4.19998C14.5131 4.53331 14.2065 4.81331 13.8331 4.81331Z" fill="white"/>
</svg>
