<svg width="21" height="20" viewBox="0 0 21 20" fill="none" xmlns="http://www.w3.org/2000/svg">
<path d="M6.82422 6.27979V16.4798C6.82422 18.1065 8.15755 19.4265 9.77089 19.4265H14.2242C15.8509 19.4265 17.1709 18.0931 17.1709 16.4798V6.27979H6.82422ZM10.1442 16.3865C10.1442 16.7731 9.82422 17.0931 9.43755 17.0931C9.05089 17.0931 8.73089 16.7731 8.73089 16.3865V9.30645C8.73089 8.91978 9.05089 8.59978 9.43755 8.59978C9.82422 8.59978 10.1442 8.91978 10.1442 9.30645V16.3865ZM12.7176 16.3865C12.7176 16.7731 12.3976 17.0931 12.0109 17.0931C11.6242 17.0931 11.3042 16.7731 11.3042 16.3865V9.30645C11.3042 8.91978 11.6242 8.59978 12.0109 8.59978C12.3976 8.59978 12.7176 8.91978 12.7176 9.30645V16.3865ZM15.2776 16.3865C15.2776 16.7731 14.9576 17.0931 14.5709 17.0931C14.1842 17.0931 13.8642 16.7731 13.8642 16.3865V9.30645C13.8642 8.91978 14.1842 8.59978 14.5709 8.59978C14.9576 8.59978 15.2776 8.91978 15.2776 9.30645V16.3865Z" fill="white"/>
<path d="M11.1184 0.973242C10.5851 0.439909 9.69177 0.439909 9.15844 0.973242L8.49177 1.63991C7.9051 1.06658 7.01177 0.986575 6.43844 1.50658L4.41177 3.38658C3.83844 3.91991 3.83844 4.86658 4.41177 5.47991L4.51844 5.59991L3.79844 6.33324C3.2651 6.86658 3.2651 7.75991 3.79844 8.29324L4.9851 9.47991L12.3051 2.15991L11.1184 0.973242ZM5.19844 3.43991L6.4251 2.30658C6.85177 1.90658 7.49177 1.85324 8.0251 2.10658L4.97177 5.15991C4.6651 4.57324 4.73177 3.86658 5.19844 3.43991Z" fill="white"/>
<path d="M11.4512 5.1067H17.1845V3.88003C17.1845 3.88003 17.0112 2.85337 15.8112 3.1867C14.6112 3.52003 11.9712 4.32003 11.9712 4.32003C11.9712 4.32003 11.5045 4.4667 11.4512 5.1067Z" fill="white"/>
</svg>
