<svg width="21" height="20" viewBox="0 0 21 20" fill="none" xmlns="http://www.w3.org/2000/svg">
<path d="M16.906 7.82786L12.6445 3.56641L3.47109 12.7399L7.73254 17.0013L16.906 7.82786Z" fill="white"/>
<path d="M13.2969 2.92001L17.6835 7.05335C18.2835 6.45335 19.5102 5.64001 19.2835 4.66668C19.2035 4.26668 18.9502 3.92001 18.6835 3.61335C18.1369 2.97335 17.5102 2.41335 16.8835 1.85335C16.5902 1.58668 16.2835 1.32001 15.8969 1.20001C14.7502 0.86668 13.9502 2.20001 13.2969 2.92001Z" fill="white"/>
<path d="M3.00356 13.04L1.75022 18.6667C1.72356 18.7867 1.83022 18.8934 1.95022 18.8534L7.28356 17.3067L3.00356 13.04Z" fill="white"/>
</svg>
