<svg width="15" height="16" viewBox="0 0 15 16" fill="none" xmlns="http://www.w3.org/2000/svg">
<g clip-path="url(#clip0_377_5001)">
<path d="M7.50002 1.56396C3.72002 1.56396 0.650024 4.63396 0.650024 8.41396C0.650024 12.194 3.72002 15.264 7.50002 15.264C11.28 15.264 14.35 12.194 14.35 8.41396C14.35 4.63396 11.28 1.56396 7.50002 1.56396ZM2.53002 8.41396C2.53002 5.66396 4.76002 3.44396 7.50002 3.44396C8.20002 3.44396 8.87002 3.59396 9.48002 3.85396L3.58002 11.454C2.93002 10.604 2.53002 9.56396 2.53002 8.41396ZM7.50002 13.384C6.80002 13.384 6.13002 13.234 5.52002 12.974L11.42 5.37396C12.07 6.21396 12.48 7.26396 12.48 8.40396C12.47 11.164 10.25 13.384 7.50002 13.384Z" fill="#7C7C7C"/>
</g>
<defs>
<clipPath id="clip0_377_5001">
<rect width="15" height="15" fill="white" transform="translate(0 0.914062)"/>
</clipPath>
</defs>
</svg>
