<svg width="15" height="15" viewBox="0 0 15 15" fill="none" xmlns="http://www.w3.org/2000/svg">
<path d="M7.50002 0.649902C3.72002 0.649902 0.650024 3.7199 0.650024 7.4999C0.650024 11.2799 3.72002 14.3499 7.50002 14.3499C11.28 14.3499 14.35 11.2799 14.35 7.4999C14.35 3.7199 11.28 0.649902 7.50002 0.649902ZM2.53002 7.4999C2.53002 4.7499 4.76002 2.5299 7.50002 2.5299C8.20002 2.5299 8.87002 2.6799 9.48002 2.9399L3.58002 10.5399C2.93002 9.6899 2.53002 8.6499 2.53002 7.4999ZM7.50002 12.4699C6.80002 12.4699 6.13002 12.3199 5.52002 12.0599L11.42 4.4599C12.07 5.2999 12.48 6.3499 12.48 7.4899C12.47 10.2499 10.25 12.4699 7.50002 12.4699Z" fill="#7C7C7C"/>
</svg>
