<svg width="11" height="15" viewBox="0 0 11 15" fill="none" xmlns="http://www.w3.org/2000/svg">
<path d="M2.90002 4.70996V12.36C2.90002 13.58 3.90002 14.57 5.11002 14.57H8.45002C9.67002 14.57 10.66 13.57 10.66 12.36V4.70996H2.90002ZM5.39002 12.29C5.39002 12.58 5.15002 12.82 4.86002 12.82C4.57002 12.82 4.33002 12.58 4.33002 12.29V6.97996C4.33002 6.68996 4.57002 6.44996 4.86002 6.44996C5.15002 6.44996 5.39002 6.68996 5.39002 6.97996V12.29ZM7.32002 12.29C7.32002 12.58 7.08002 12.82 6.79002 12.82C6.50002 12.82 6.26002 12.58 6.26002 12.29V6.97996C6.26002 6.68996 6.50002 6.44996 6.79002 6.44996C7.08002 6.44996 7.32002 6.68996 7.32002 6.97996V12.29ZM9.24002 12.29C9.24002 12.58 9.00002 12.82 8.71002 12.82C8.42002 12.82 8.18002 12.58 8.18002 12.29V6.97996C8.18002 6.68996 8.42002 6.44996 8.71002 6.44996C9.00002 6.44996 9.24002 6.68996 9.24002 6.97996V12.29Z" fill="#7C7C7C"/>
<path d="M6.12002 0.730176C5.72002 0.330176 5.05002 0.330176 4.65002 0.730176L4.15002 1.23018C3.71002 0.800176 3.04002 0.740176 2.61002 1.13018L1.09002 2.54018C0.660017 2.94018 0.660017 3.65018 1.09002 4.11018L1.17002 4.20018L0.630017 4.75018C0.230017 5.15018 0.230017 5.82018 0.630017 6.22018L1.52002 7.11018L7.01002 1.62018L6.12002 0.730176ZM1.68002 2.58018L2.60002 1.73018C2.92002 1.43018 3.40002 1.39018 3.80002 1.58018L1.51002 3.87018C1.28002 3.43018 1.33002 2.90018 1.68002 2.58018Z" fill="#7C7C7C"/>
<path d="M6.37 3.83027H10.67V2.91027C10.67 2.91027 10.54 2.14027 9.64 2.39027C8.74 2.64027 6.76 3.24027 6.76 3.24027C6.76 3.24027 6.41 3.35027 6.37 3.83027Z" fill="#7C7C7C"/>
</svg>
