<svg width="17" height="20" viewBox="0 0 11 16" fill="none" xmlns="http://www.w3.org/2000/svg">
<path d="M2.8999 5.20996V12.86C2.8999 14.08 3.8999 15.07 5.1099 15.07H8.4499C9.6699 15.07 10.6599 14.07 10.6599 12.86V5.20996H2.8999ZM5.3899 12.79C5.3899 13.08 5.1499 13.32 4.8599 13.32C4.5699 13.32 4.3299 13.08 4.3299 12.79V7.47996C4.3299 7.18996 4.5699 6.94996 4.8599 6.94996C5.1499 6.94996 5.3899 7.18996 5.3899 7.47996V12.79ZM7.3199 12.79C7.3199 13.08 7.0799 13.32 6.7899 13.32C6.4999 13.32 6.2599 13.08 6.2599 12.79V7.47996C6.2599 7.18996 6.4999 6.94996 6.7899 6.94996C7.0799 6.94996 7.3199 7.18996 7.3199 7.47996V12.79ZM9.2399 12.79C9.2399 13.08 8.9999 13.32 8.7099 13.32C8.4199 13.32 8.1799 13.08 8.1799 12.79V7.47996C8.1799 7.18996 8.4199 6.94996 8.7099 6.94996C8.9999 6.94996 9.2399 7.18996 9.2399 7.47996V12.79Z" fill="#7C7C7C"/>
<path d="M6.12008 1.22993C5.72008 0.829932 5.05008 0.829932 4.65008 1.22993L4.15008 1.72993C3.71008 1.29993 3.04008 1.23993 2.61008 1.62993L1.09008 3.03993C0.660078 3.43993 0.660078 4.14993 1.09008 4.60993L1.17008 4.69993L0.630078 5.24993C0.230078 5.64993 0.230078 6.31993 0.630078 6.71993L1.52008 7.60993L7.01008 2.11993L6.12008 1.22993ZM1.68008 3.07993L2.60008 2.22993C2.92008 1.92993 3.40008 1.88993 3.80008 2.07993L1.51008 4.36993C1.28008 3.92993 1.33008 3.39993 1.68008 3.07993Z" fill="#7C7C7C"/>
<path d="M6.37012 4.33002H10.6701V3.41002C10.6701 3.41002 10.5401 2.64002 9.64012 2.89002C8.74012 3.14002 6.76012 3.74002 6.76012 3.74002C6.76012 3.74002 6.41012 3.85002 6.37012 4.33002Z" fill="#7C7C7C"/>
</svg>
