<svg width="15" height="15" viewBox="0 0 15 15" fill="none" xmlns="http://www.w3.org/2000/svg">
<g clip-path="url(#clip0_377_5002)">
<path d="M12.2772 5.8709L9.08112 2.6748L2.20103 9.55489L5.39713 12.751L12.2772 5.8709Z" fill="#7C7C7C"/>
<path d="M9.57001 2.18977L12.86 5.28977C13.31 4.83977 14.23 4.22977 14.06 3.49977C14 3.19977 13.81 2.93977 13.61 2.70977C13.2 2.22977 12.73 1.80977 12.26 1.38977C12.04 1.18977 11.81 0.989766 11.52 0.899766C10.66 0.649766 10.06 1.64977 9.57001 2.18977Z" fill="#7C7C7C"/>
<path d="M1.85002 9.77979L0.910018 13.9998C0.890018 14.0898 0.970018 14.1698 1.06002 14.1398L5.06002 12.9798L1.85002 9.77979Z" fill="#7C7C7C"/>
</g>
<defs>
<clipPath id="clip0_377_5002">
<rect width="15" height="15" fill="white"/>
</clipPath>
</defs>
</svg>
