<svg width="226" height="22" viewBox="0 0 226 22" fill="none" xmlns="http://www.w3.org/2000/svg">
<rect y="1" width="20" height="20" rx="10" fill="#F4CC47"/>
<path d="M14.31 8.75185V12.4534C14.31 12.7978 14.1732 13.1281 13.9297 13.3716C13.6862 13.6151 13.3559 13.7519 13.0116 13.7519H7.29844C6.95407 13.7519 6.62381 13.6151 6.3803 13.3716C6.1368 13.1281 6 12.7978 6 12.4534V8.75185L10.0231 11.1192C10.063 11.1427 10.1086 11.1552 10.155 11.1552C10.2014 11.1552 10.247 11.1427 10.2869 11.1192L14.31 8.75185ZM13.0116 7C13.3311 6.99995 13.6393 7.11769 13.8775 7.33071C14.1156 7.54372 14.2668 7.83705 14.3022 8.15457L10.155 10.5941L6.00779 8.15457C6.04319 7.83705 6.19441 7.54372 6.43253 7.33071C6.67065 7.11769 6.97895 6.99995 7.29844 7H13.0116Z" fill="black"/>
<path d="M35.3693 18.2045C34.4489 18.2045 33.6563 17.9872 32.9915 17.5526C32.3267 17.1179 31.8153 16.5192 31.4574 15.7564C31.0994 14.9936 30.9205 14.1222 30.9205 13.142C30.9205 12.1449 31.1037 11.2649 31.4702 10.5021C31.8409 9.73509 32.3565 9.13636 33.017 8.70597C33.6818 8.27131 34.4574 8.05398 35.3438 8.05398C36.0341 8.05398 36.6562 8.18182 37.2102 8.4375C37.7642 8.69318 38.218 9.05114 38.5717 9.51136C38.9254 9.97159 39.1449 10.5085 39.2301 11.1222H37.7216C37.6065 10.6747 37.3509 10.2784 36.9545 9.93324C36.5625 9.58381 36.0341 9.40909 35.3693 9.40909C34.7813 9.40909 34.2656 9.5625 33.8224 9.86932C33.3835 10.1719 33.0405 10.6001 32.7933 11.1541C32.5504 11.7038 32.429 12.3494 32.429 13.0909C32.429 13.8494 32.5483 14.5099 32.7869 15.0724C33.0298 15.6349 33.3707 16.0717 33.8097 16.3828C34.2528 16.6939 34.7727 16.8494 35.3693 16.8494C35.7614 16.8494 36.1172 16.7812 36.4368 16.6449C36.7564 16.5085 37.027 16.3125 37.2486 16.0568C37.4702 15.8011 37.6278 15.4943 37.7216 15.1364H39.2301C39.1449 15.7159 38.9339 16.2379 38.5973 16.7024C38.2649 17.1626 37.8239 17.5291 37.2741 17.8018C36.7287 18.0703 36.0938 18.2045 35.3693 18.2045ZM45.424 18.2045C44.5376 18.2045 43.7599 17.9936 43.0909 17.5717C42.4261 17.1499 41.9062 16.5597 41.5312 15.8011C41.1605 15.0426 40.9751 14.1562 40.9751 13.142C40.9751 12.1193 41.1605 11.2266 41.5312 10.4638C41.9062 9.70099 42.4261 9.10866 43.0909 8.68679C43.7599 8.26491 44.5376 8.05398 45.424 8.05398C46.3104 8.05398 47.0859 8.26491 47.7507 8.68679C48.4197 9.10866 48.9396 9.70099 49.3104 10.4638C49.6854 11.2266 49.8729 12.1193 49.8729 13.142C49.8729 14.1562 49.6854 15.0426 49.3104 15.8011C48.9396 16.5597 48.4197 17.1499 47.7507 17.5717C47.0859 17.9936 46.3104 18.2045 45.424 18.2045ZM45.424 16.8494C46.0973 16.8494 46.6513 16.6768 47.0859 16.3317C47.5206 15.9865 47.8423 15.5327 48.0511 14.9702C48.2599 14.4077 48.3643 13.7983 48.3643 13.142C48.3643 12.4858 48.2599 11.8743 48.0511 11.3075C47.8423 10.7408 47.5206 10.2827 47.0859 9.93324C46.6513 9.58381 46.0973 9.40909 45.424 9.40909C44.7507 9.40909 44.1967 9.58381 43.7621 9.93324C43.3274 10.2827 43.0057 10.7408 42.7969 11.3075C42.5881 11.8743 42.4837 12.4858 42.4837 13.142C42.4837 13.7983 42.5881 14.4077 42.7969 14.9702C43.0057 15.5327 43.3274 15.9865 43.7621 16.3317C44.1967 16.6768 44.7507 16.8494 45.424 16.8494ZM53.6841 12.0938V18H52.1756V8.18182H53.633V9.71591H53.7608C53.9909 9.21733 54.3404 8.81676 54.8091 8.5142C55.2779 8.20739 55.883 8.05398 56.6245 8.05398C57.2892 8.05398 57.8709 8.19034 58.3695 8.46307C58.8681 8.73153 59.2559 9.14062 59.5328 9.69034C59.8098 10.2358 59.9483 10.9261 59.9483 11.7614V18H58.4398V11.8636C58.4398 11.0923 58.2395 10.4915 57.839 10.0611C57.4384 9.62642 56.8887 9.40909 56.1898 9.40909C55.7083 9.40909 55.2779 9.51349 54.8986 9.7223C54.5236 9.93111 54.2275 10.2358 54.0101 10.6364C53.7928 11.0369 53.6841 11.5227 53.6841 12.0938ZM64.2134 12.0938V18H62.7049V8.18182H64.1623V9.71591H64.2901C64.5202 9.21733 64.8697 8.81676 65.3384 8.5142C65.8072 8.20739 66.4123 8.05398 67.1538 8.05398C67.8185 8.05398 68.4002 8.19034 68.8988 8.46307C69.3974 8.73153 69.7852 9.14062 70.0621 9.69034C70.3391 10.2358 70.4776 10.9261 70.4776 11.7614V18H68.9691V11.8636C68.9691 11.0923 68.7688 10.4915 68.3683 10.0611C67.9677 9.62642 67.418 9.40909 66.7191 9.40909C66.2376 9.40909 65.8072 9.51349 65.4279 9.7223C65.0529 9.93111 64.7567 10.2358 64.5394 10.6364C64.3221 11.0369 64.2134 11.5227 64.2134 12.0938ZM77.3507 18.2045C76.4047 18.2045 75.5886 17.9957 74.9025 17.5781C74.2207 17.1562 73.6944 16.5682 73.3237 15.8139C72.9572 15.0554 72.774 14.1733 72.774 13.1676C72.774 12.1619 72.9572 11.2756 73.3237 10.5085C73.6944 9.73722 74.21 9.13636 74.8706 8.70597C75.5353 8.27131 76.3109 8.05398 77.1973 8.05398C77.7086 8.05398 78.2136 8.1392 78.7122 8.30966C79.2108 8.48011 79.6646 8.7571 80.0737 9.14062C80.4828 9.51989 80.8088 10.0227 81.0517 10.6491C81.2946 11.2756 81.416 12.0469 81.416 12.9631V13.6023H73.8478V12.2983H79.8819C79.8819 11.7443 79.7711 11.25 79.5495 10.8153C79.3322 10.3807 79.0211 10.0376 78.6163 9.78622C78.2157 9.5348 77.7427 9.40909 77.1973 9.40909C76.5964 9.40909 76.0765 9.55824 75.6376 9.85653C75.2029 10.1506 74.8684 10.5341 74.6341 11.0071C74.3997 11.4801 74.2825 11.9872 74.2825 12.5284V13.3977C74.2825 14.1392 74.4103 14.7678 74.666 15.2834C74.926 15.7947 75.286 16.1847 75.7463 16.4531C76.2065 16.7173 76.7413 16.8494 77.3507 16.8494C77.747 16.8494 78.1049 16.794 78.4245 16.6832C78.7484 16.5682 79.0275 16.3977 79.2619 16.1719C79.4963 15.9418 79.6774 15.6562 79.8052 15.3153L81.2626 15.7244C81.1092 16.2188 80.8514 16.6534 80.4892 17.0284C80.127 17.3991 79.6795 17.6889 79.1468 17.8977C78.6142 18.1023 78.0154 18.2045 77.3507 18.2045ZM87.6994 18.2045C86.7789 18.2045 85.9863 17.9872 85.3216 17.5526C84.6568 17.1179 84.1454 16.5192 83.7875 15.7564C83.4295 14.9936 83.2505 14.1222 83.2505 13.142C83.2505 12.1449 83.4338 11.2649 83.8002 10.5021C84.171 9.73509 84.6866 9.13636 85.3471 8.70597C86.0119 8.27131 86.7875 8.05398 87.6738 8.05398C88.3642 8.05398 88.9863 8.18182 89.5403 8.4375C90.0943 8.69318 90.5481 9.05114 90.9018 9.51136C91.2555 9.97159 91.475 10.5085 91.5602 11.1222H90.0517C89.9366 10.6747 89.6809 10.2784 89.2846 9.93324C88.8926 9.58381 88.3642 9.40909 87.6994 9.40909C87.1113 9.40909 86.5957 9.5625 86.1525 9.86932C85.7136 10.1719 85.3706 10.6001 85.1234 11.1541C84.8805 11.7038 84.7591 12.3494 84.7591 13.0909C84.7591 13.8494 84.8784 14.5099 85.117 15.0724C85.3599 15.6349 85.7008 16.0717 86.1397 16.3828C86.5829 16.6939 87.1028 16.8494 87.6994 16.8494C88.0914 16.8494 88.4473 16.7812 88.7669 16.6449C89.0865 16.5085 89.3571 16.3125 89.5787 16.0568C89.8002 15.8011 89.9579 15.4943 90.0517 15.1364H91.5602C91.475 15.7159 91.264 16.2379 90.9274 16.7024C90.595 17.1626 90.1539 17.5291 89.6042 17.8018C89.0588 18.0703 88.4238 18.2045 87.6994 18.2045ZM98.0353 8.18182V9.46023H92.9473V8.18182H98.0353ZM94.4302 5.82955H95.9387V15.1875C95.9387 15.6136 96.0005 15.9332 96.1241 16.1463C96.252 16.3551 96.4139 16.4957 96.6099 16.5682C96.8102 16.6364 97.0211 16.6705 97.2427 16.6705C97.4089 16.6705 97.5453 16.6619 97.6518 16.6449C97.7583 16.6236 97.8436 16.6065 97.9075 16.5938L98.2143 17.9489C98.112 17.9872 97.9693 18.0256 97.786 18.0639C97.6028 18.1065 97.3706 18.1278 97.0893 18.1278C96.6632 18.1278 96.2456 18.0362 95.8365 17.853C95.4316 17.6697 95.095 17.3906 94.8265 17.0156C94.5623 16.6406 94.4302 16.1676 94.4302 15.5966V5.82955ZM107.847 21.4517C106.543 21.4517 105.39 21.2727 104.389 20.9148C103.388 20.5611 102.546 20.0391 101.864 19.3487C101.182 18.6584 100.667 17.8125 100.317 16.8111C99.9679 15.8097 99.7931 14.6634 99.7931 13.3722C99.7931 12.1236 99.97 11.0071 100.324 10.0227C100.682 9.03835 101.199 8.20312 101.877 7.51705C102.559 6.8267 103.385 6.30043 104.357 5.93821C105.333 5.57599 106.437 5.39489 107.668 5.39489C108.866 5.39489 109.914 5.59091 110.813 5.98295C111.716 6.37074 112.471 6.89702 113.076 7.56179C113.685 8.2223 114.141 8.96591 114.444 9.79261C114.751 10.6193 114.904 11.4716 114.904 12.3494C114.904 12.9673 114.874 13.5937 114.814 14.2287C114.755 14.8636 114.629 15.4474 114.437 15.9801C114.246 16.5085 113.949 16.9347 113.549 17.2585C113.153 17.5824 112.616 17.7443 111.938 17.7443C111.64 17.7443 111.312 17.6974 110.954 17.6037C110.596 17.5099 110.278 17.3544 110.001 17.1371C109.724 16.9197 109.56 16.6278 109.509 16.2614H109.432C109.33 16.5085 109.172 16.7429 108.959 16.9645C108.751 17.1861 108.476 17.3629 108.135 17.495C107.798 17.6271 107.387 17.6847 106.901 17.6676C106.347 17.6463 105.859 17.5227 105.437 17.2969C105.015 17.0668 104.662 16.7557 104.376 16.3636C104.095 15.9673 103.882 15.5092 103.737 14.9893C103.596 14.4652 103.526 13.9006 103.526 13.2955C103.526 12.7202 103.611 12.1939 103.782 11.7166C103.952 11.2393 104.189 10.8217 104.491 10.4638C104.798 10.1058 105.156 9.82031 105.565 9.60724C105.979 9.38991 106.424 9.25568 106.901 9.20455C107.327 9.16193 107.715 9.18111 108.064 9.26207C108.414 9.33878 108.702 9.45597 108.927 9.61364C109.153 9.76705 109.296 9.9375 109.356 10.125H109.432V9.40909H110.787V15.1875C110.787 15.5455 110.888 15.8608 111.088 16.1335C111.288 16.4062 111.58 16.5426 111.964 16.5426C112.398 16.5426 112.731 16.3935 112.961 16.0952C113.195 15.7969 113.355 15.3366 113.44 14.7145C113.53 14.0923 113.574 13.2955 113.574 12.3239C113.574 11.7528 113.496 11.1903 113.338 10.6364C113.184 10.0781 112.95 9.55611 112.635 9.07031C112.324 8.58452 111.93 8.15625 111.452 7.78551C110.975 7.41477 110.415 7.125 109.771 6.91619C109.132 6.70312 108.405 6.59659 107.591 6.59659C106.59 6.59659 105.693 6.75213 104.9 7.06321C104.112 7.37003 103.441 7.8196 102.887 8.41193C102.337 9 101.917 9.71591 101.628 10.5597C101.342 11.3991 101.199 12.3537 101.199 13.4233C101.199 14.5099 101.342 15.4751 101.628 16.3189C101.917 17.1626 102.344 17.8743 102.906 18.4538C103.473 19.0334 104.174 19.4723 105.009 19.7706C105.844 20.0732 106.807 20.2244 107.898 20.2244C108.367 20.2244 108.829 20.1797 109.285 20.0902C109.741 20.0007 110.144 19.9027 110.493 19.7962C110.843 19.6896 111.094 19.6108 111.248 19.5597L111.606 20.7358C111.341 20.8466 110.996 20.9574 110.57 21.0682C110.148 21.179 109.697 21.2706 109.215 21.343C108.738 21.4155 108.282 21.4517 107.847 21.4517ZM107.106 16.3636C107.677 16.3636 108.139 16.2486 108.493 16.0185C108.846 15.7884 109.104 15.4411 109.266 14.9766C109.428 14.5121 109.509 13.9261 109.509 13.2188C109.509 12.5028 109.42 11.9446 109.241 11.544C109.062 11.1435 108.797 10.8622 108.448 10.7003C108.099 10.5384 107.668 10.4574 107.157 10.4574C106.671 10.4574 106.256 10.5852 105.91 10.8409C105.569 11.0923 105.307 11.429 105.124 11.8509C104.945 12.2685 104.856 12.7244 104.856 13.2188C104.856 13.7642 104.928 14.2777 105.073 14.7592C105.218 15.2365 105.454 15.6243 105.782 15.9226C106.111 16.2166 106.552 16.3636 107.106 16.3636ZM117.162 18V8.18182H118.619V9.66477H118.722C118.901 9.17898 119.224 8.7848 119.693 8.48224C120.162 8.17969 120.69 8.02841 121.278 8.02841C121.389 8.02841 121.528 8.03054 121.694 8.0348C121.86 8.03906 121.986 8.04545 122.071 8.05398V9.58807C122.02 9.57528 121.903 9.55611 121.719 9.53054C121.54 9.50071 121.351 9.4858 121.151 9.4858C120.673 9.4858 120.247 9.58594 119.872 9.78622C119.501 9.98224 119.207 10.255 118.99 10.6044C118.777 10.9496 118.67 11.3437 118.67 11.7869V18H117.162ZM127.677 18.2045C126.731 18.2045 125.915 17.9957 125.229 17.5781C124.547 17.1562 124.021 16.5682 123.65 15.8139C123.283 15.0554 123.1 14.1733 123.1 13.1676C123.1 12.1619 123.283 11.2756 123.65 10.5085C124.021 9.73722 124.536 9.13636 125.197 8.70597C125.862 8.27131 126.637 8.05398 127.523 8.05398C128.035 8.05398 128.54 8.1392 129.038 8.30966C129.537 8.48011 129.991 8.7571 130.4 9.14062C130.809 9.51989 131.135 10.0227 131.378 10.6491C131.621 11.2756 131.742 12.0469 131.742 12.9631V13.6023H124.174V12.2983H130.208C130.208 11.7443 130.097 11.25 129.876 10.8153C129.658 10.3807 129.347 10.0376 128.942 9.78622C128.542 9.5348 128.069 9.40909 127.523 9.40909C126.923 9.40909 126.403 9.55824 125.964 9.85653C125.529 10.1506 125.195 10.5341 124.96 11.0071C124.726 11.4801 124.609 11.9872 124.609 12.5284V13.3977C124.609 14.1392 124.737 14.7678 124.992 15.2834C125.252 15.7947 125.612 16.1847 126.072 16.4531C126.533 16.7173 127.067 16.8494 127.677 16.8494C128.073 16.8494 128.431 16.794 128.751 16.6832C129.075 16.5682 129.354 16.3977 129.588 16.1719C129.822 15.9418 130.004 15.6562 130.131 15.3153L131.589 15.7244C131.435 16.2188 131.178 16.6534 130.815 17.0284C130.453 17.3991 130.006 17.6889 129.473 17.8977C128.94 18.1023 128.342 18.2045 127.677 18.2045ZM141.767 8.18182L138.136 18H136.602L132.971 8.18182H134.607L137.318 16.0057H137.42L140.13 8.18182H141.767ZM147.395 18.2045C146.508 18.2045 145.731 17.9936 145.062 17.5717C144.397 17.1499 143.877 16.5597 143.502 15.8011C143.131 15.0426 142.946 14.1562 142.946 13.142C142.946 12.1193 143.131 11.2266 143.502 10.4638C143.877 9.70099 144.397 9.10866 145.062 8.68679C145.731 8.26491 146.508 8.05398 147.395 8.05398C148.281 8.05398 149.057 8.26491 149.721 8.68679C150.39 9.10866 150.91 9.70099 151.281 10.4638C151.656 11.2266 151.844 12.1193 151.844 13.142C151.844 14.1562 151.656 15.0426 151.281 15.8011C150.91 16.5597 150.39 17.1499 149.721 17.5717C149.057 17.9936 148.281 18.2045 147.395 18.2045ZM147.395 16.8494C148.068 16.8494 148.622 16.6768 149.057 16.3317C149.491 15.9865 149.813 15.5327 150.022 14.9702C150.231 14.4077 150.335 13.7983 150.335 13.142C150.335 12.4858 150.231 11.8743 150.022 11.3075C149.813 10.7408 149.491 10.2827 149.057 9.93324C148.622 9.58381 148.068 9.40909 147.395 9.40909C146.721 9.40909 146.167 9.58381 145.733 9.93324C145.298 10.2827 144.976 10.7408 144.768 11.3075C144.559 11.8743 144.454 12.4858 144.454 13.142C144.454 13.7983 144.559 14.4077 144.768 14.9702C144.976 15.5327 145.298 15.9865 145.733 16.3317C146.167 16.6768 146.721 16.8494 147.395 16.8494ZM154.146 18V8.18182H155.604V9.66477H155.706C155.885 9.17898 156.209 8.7848 156.678 8.48224C157.146 8.17969 157.675 8.02841 158.263 8.02841C158.374 8.02841 158.512 8.03054 158.678 8.0348C158.844 8.03906 158.97 8.04545 159.055 8.05398V9.58807C159.004 9.57528 158.887 9.55611 158.704 9.53054C158.525 9.50071 158.335 9.4858 158.135 9.4858C157.658 9.4858 157.232 9.58594 156.857 9.78622C156.486 9.98224 156.192 10.255 155.974 10.6044C155.761 10.9496 155.655 11.3437 155.655 11.7869V18H154.146ZM164.661 18.2045C163.715 18.2045 162.899 17.9957 162.213 17.5781C161.531 17.1562 161.005 16.5682 160.634 15.8139C160.268 15.0554 160.085 14.1733 160.085 13.1676C160.085 12.1619 160.268 11.2756 160.634 10.5085C161.005 9.73722 161.521 9.13636 162.181 8.70597C162.846 8.27131 163.621 8.05398 164.508 8.05398C165.019 8.05398 165.524 8.1392 166.023 8.30966C166.521 8.48011 166.975 8.7571 167.384 9.14062C167.793 9.51989 168.119 10.0227 168.362 10.6491C168.605 11.2756 168.727 12.0469 168.727 12.9631V13.6023H161.158V12.2983H167.192C167.192 11.7443 167.082 11.25 166.86 10.8153C166.643 10.3807 166.332 10.0376 165.927 9.78622C165.526 9.5348 165.053 9.40909 164.508 9.40909C163.907 9.40909 163.387 9.55824 162.948 9.85653C162.513 10.1506 162.179 10.5341 161.945 11.0071C161.71 11.4801 161.593 11.9872 161.593 12.5284V13.3977C161.593 14.1392 161.721 14.7678 161.977 15.2834C162.237 15.7947 162.597 16.1847 163.057 16.4531C163.517 16.7173 164.052 16.8494 164.661 16.8494C165.058 16.8494 165.415 16.794 165.735 16.6832C166.059 16.5682 166.338 16.3977 166.572 16.1719C166.807 15.9418 166.988 15.6562 167.116 15.3153L168.573 15.7244C168.42 16.2188 168.162 16.6534 167.8 17.0284C167.438 17.3991 166.99 17.6889 166.457 17.8977C165.925 18.1023 165.326 18.2045 164.661 18.2045ZM173.911 18.2301C173.288 18.2301 172.724 18.1129 172.217 17.8786C171.71 17.6399 171.307 17.2969 171.009 16.8494C170.71 16.3977 170.561 15.8523 170.561 15.2131C170.561 14.6506 170.672 14.1946 170.893 13.8452C171.115 13.4915 171.411 13.2145 171.782 13.0142C172.153 12.8139 172.562 12.6648 173.009 12.5668C173.461 12.4645 173.915 12.3835 174.371 12.3239C174.967 12.2472 175.451 12.1896 175.822 12.1513C176.197 12.1087 176.469 12.0384 176.64 11.9403C176.815 11.8423 176.902 11.6719 176.902 11.429V11.3778C176.902 10.7472 176.729 10.2571 176.384 9.90767C176.043 9.55824 175.526 9.38352 174.831 9.38352C174.111 9.38352 173.546 9.54119 173.137 9.85653C172.728 10.1719 172.44 10.5085 172.274 10.8665L170.842 10.3551C171.098 9.75852 171.439 9.29403 171.865 8.96165C172.295 8.625 172.764 8.39062 173.271 8.25852C173.783 8.12216 174.286 8.05398 174.78 8.05398C175.095 8.05398 175.457 8.09233 175.866 8.16903C176.28 8.24148 176.678 8.39276 177.062 8.62287C177.45 8.85298 177.771 9.20028 178.027 9.66477C178.283 10.1293 178.411 10.7514 178.411 11.5312V18H176.902V16.6705H176.825C176.723 16.8835 176.553 17.1115 176.314 17.3544C176.075 17.5973 175.758 17.804 175.362 17.9744C174.965 18.1449 174.482 18.2301 173.911 18.2301ZM174.141 16.875C174.737 16.875 175.24 16.7578 175.649 16.5234C176.063 16.2891 176.374 15.9865 176.582 15.6158C176.795 15.245 176.902 14.8551 176.902 14.446V13.0653C176.838 13.142 176.697 13.2124 176.48 13.2763C176.267 13.3359 176.02 13.3892 175.739 13.4361C175.462 13.4787 175.191 13.517 174.927 13.5511C174.667 13.581 174.456 13.6065 174.294 13.6278C173.902 13.679 173.536 13.7621 173.195 13.8771C172.858 13.9879 172.585 14.1562 172.376 14.3821C172.172 14.6037 172.07 14.9062 172.07 15.2898C172.07 15.8139 172.263 16.2102 172.651 16.4787C173.043 16.7429 173.54 16.875 174.141 16.875ZM182.672 4.90909V18H181.164V4.90909H182.672ZM189.705 8.18182V9.46023H184.617V8.18182H189.705ZM186.1 5.82955H187.609V15.1875C187.609 15.6136 187.67 15.9332 187.794 16.1463C187.922 16.3551 188.084 16.4957 188.28 16.5682C188.48 16.6364 188.691 16.6705 188.913 16.6705C189.079 16.6705 189.215 16.6619 189.322 16.6449C189.428 16.6236 189.513 16.6065 189.577 16.5938L189.884 17.9489C189.782 17.9872 189.639 18.0256 189.456 18.0639C189.273 18.1065 189.04 18.1278 188.759 18.1278C188.333 18.1278 187.915 18.0362 187.506 17.853C187.102 17.6697 186.765 17.3906 186.496 17.0156C186.232 16.6406 186.1 16.1676 186.1 15.5966V5.82955ZM192.946 21.6818C192.69 21.6818 192.462 21.6605 192.262 21.6179C192.062 21.5795 191.923 21.5412 191.847 21.5028L192.23 20.1733C192.597 20.267 192.92 20.3011 193.202 20.2756C193.483 20.25 193.732 20.1243 193.95 19.8984C194.171 19.6768 194.374 19.3168 194.557 18.8182L194.838 18.0511L191.207 8.18182H192.844L195.554 16.0057H195.656L198.366 8.18182H200.003L195.835 19.4318C195.648 19.9389 195.415 20.3587 195.138 20.6911C194.862 21.0277 194.54 21.277 194.173 21.4389C193.811 21.6009 193.402 21.6818 192.946 21.6818ZM202.478 18.1023C202.163 18.1023 201.892 17.9893 201.666 17.7635C201.441 17.5376 201.328 17.267 201.328 16.9517C201.328 16.6364 201.441 16.3658 201.666 16.1399C201.892 15.9141 202.163 15.8011 202.478 15.8011C202.794 15.8011 203.064 15.9141 203.29 16.1399C203.516 16.3658 203.629 16.6364 203.629 16.9517C203.629 17.1605 203.575 17.3523 203.469 17.527C203.367 17.7017 203.228 17.8423 203.053 17.9489C202.883 18.0511 202.691 18.1023 202.478 18.1023ZM209.225 18.2301C208.603 18.2301 208.038 18.1129 207.531 17.8786C207.024 17.6399 206.621 17.2969 206.323 16.8494C206.025 16.3977 205.876 15.8523 205.876 15.2131C205.876 14.6506 205.986 14.1946 206.208 13.8452C206.43 13.4915 206.726 13.2145 207.096 13.0142C207.467 12.8139 207.876 12.6648 208.324 12.5668C208.775 12.4645 209.229 12.3835 209.685 12.3239C210.282 12.2472 210.765 12.1896 211.136 12.1513C211.511 12.1087 211.784 12.0384 211.954 11.9403C212.129 11.8423 212.216 11.6719 212.216 11.429V11.3778C212.216 10.7472 212.044 10.2571 211.699 9.90767C211.358 9.55824 210.84 9.38352 210.145 9.38352C209.425 9.38352 208.861 9.54119 208.452 9.85653C208.042 10.1719 207.755 10.5085 207.589 10.8665L206.157 10.3551C206.412 9.75852 206.753 9.29403 207.18 8.96165C207.61 8.625 208.079 8.39062 208.586 8.25852C209.097 8.12216 209.6 8.05398 210.094 8.05398C210.41 8.05398 210.772 8.09233 211.181 8.16903C211.594 8.24148 211.993 8.39276 212.376 8.62287C212.764 8.85298 213.086 9.20028 213.341 9.66477C213.597 10.1293 213.725 10.7514 213.725 11.5312V18H212.216V16.6705H212.14C212.037 16.8835 211.867 17.1115 211.628 17.3544C211.39 17.5973 211.072 17.804 210.676 17.9744C210.28 18.1449 209.796 18.2301 209.225 18.2301ZM209.455 16.875C210.052 16.875 210.555 16.7578 210.964 16.5234C211.377 16.2891 211.688 15.9865 211.897 15.6158C212.11 15.245 212.216 14.8551 212.216 14.446V13.0653C212.153 13.142 212.012 13.2124 211.795 13.2763C211.581 13.3359 211.334 13.3892 211.053 13.4361C210.776 13.4787 210.506 13.517 210.241 13.5511C209.981 13.581 209.77 13.6065 209.608 13.6278C209.216 13.679 208.85 13.7621 208.509 13.8771C208.172 13.9879 207.9 14.1562 207.691 14.3821C207.486 14.6037 207.384 14.9062 207.384 15.2898C207.384 15.8139 207.578 16.2102 207.966 16.4787C208.358 16.7429 208.854 16.875 209.455 16.875ZM220.595 18.2045C219.649 18.2045 218.833 17.9957 218.147 17.5781C217.465 17.1562 216.939 16.5682 216.568 15.8139C216.201 15.0554 216.018 14.1733 216.018 13.1676C216.018 12.1619 216.201 11.2756 216.568 10.5085C216.939 9.73722 217.454 9.13636 218.115 8.70597C218.779 8.27131 219.555 8.05398 220.441 8.05398C220.953 8.05398 221.458 8.1392 221.956 8.30966C222.455 8.48011 222.909 8.7571 223.318 9.14062C223.727 9.51989 224.053 10.0227 224.296 10.6491C224.539 11.2756 224.66 12.0469 224.66 12.9631V13.6023H217.092V12.2983H223.126C223.126 11.7443 223.015 11.25 222.794 10.8153C222.576 10.3807 222.265 10.0376 221.86 9.78622C221.46 9.5348 220.987 9.40909 220.441 9.40909C219.841 9.40909 219.321 9.55824 218.882 9.85653C218.447 10.1506 218.113 10.5341 217.878 11.0071C217.644 11.4801 217.527 11.9872 217.527 12.5284V13.3977C217.527 14.1392 217.654 14.7678 217.91 15.2834C218.17 15.7947 218.53 16.1847 218.99 16.4531C219.451 16.7173 219.985 16.8494 220.595 16.8494C220.991 16.8494 221.349 16.794 221.669 16.6832C221.993 16.5682 222.272 16.3977 222.506 16.1719C222.74 15.9418 222.922 15.6562 223.049 15.3153L224.507 15.7244C224.353 16.2188 224.096 16.6534 223.733 17.0284C223.371 17.3991 222.924 17.6889 222.391 17.8977C221.858 18.1023 221.26 18.2045 220.595 18.2045Z" fill="black"/>
</svg>
