<svg width="15" height="17" viewBox="0 0 15 17" fill="none" xmlns="http://www.w3.org/2000/svg">
<path d="M13.7486 6.85295C13.7401 5.31232 13.6721 4.4779 13.1274 3.9339C12.5055 3.31128 11.5032 3.31128 9.5 3.31128H7.375C5.37183 3.31128 4.36954 3.31128 3.74763 3.9339C3.125 4.55582 3.125 5.55811 3.125 7.56128V11.1029C3.125 13.1061 3.125 14.1084 3.74763 14.7303C4.36954 15.3529 5.37183 15.3529 7.375 15.3529H9.5C11.5032 15.3529 12.5055 15.3529 13.1274 14.7303C13.75 14.1084 13.75 13.1061 13.75 11.1029V10.3946" stroke="#9A4D49" stroke-width="1.5" stroke-linecap="round"/>
<path d="M1 6.85295V11.1029C1 11.6665 1.22388 12.207 1.6224 12.6055C2.02091 13.0041 2.56141 13.2279 3.125 13.2279M11.625 3.31128C11.625 2.74769 11.4011 2.20719 11.0026 1.80868C10.6041 1.41016 10.0636 1.18628 9.5 1.18628H6.66667C3.99554 1.18628 2.65962 1.18628 1.83017 2.01645C1.36692 2.47899 1.16221 3.09878 1.07225 4.01961" stroke="#9A4D49" stroke-width="1.5" stroke-linecap="round"/>
</svg>
