<svg width="240" height="71" viewBox="0 0 240 71" fill="none" xmlns="http://www.w3.org/2000/svg">
<path d="M27.5469 1.28194C26.8267 2.11288 26.6882 2.50066 26.6882 3.71938C26.6882 5.51976 27.353 6.68308 28.7656 7.34784C32.8095 9.28671 36.438 4.02406 33.1696 1.00495C32.5049 0.395595 32.1725 0.3125 30.4275 0.3125C28.4609 0.3125 28.3778 0.340198 27.5469 1.28194Z" fill="white"/>
<path d="M37.1028 4.07944C37.0197 4.32873 36.9366 4.7442 36.9366 5.04888C36.9366 5.96292 35.9395 7.62481 34.7208 8.73274C33.7513 9.61908 33.6128 9.84067 33.9175 10.1453C34.1391 10.3392 38.6262 13.6353 43.9443 17.4577L53.5555 24.4376V29.9773C53.5555 32.9964 53.6386 35.4892 53.7771 35.4892C53.8879 35.4615 54.2757 35.2953 54.6634 35.0737C55.5775 34.5475 58.2919 34.5475 59.5106 35.046L60.4801 35.4615V20.8645L49.2069 12.4443C42.9748 7.8187 37.7676 3.94095 37.6014 3.83016C37.4075 3.71937 37.1859 3.83016 37.1028 4.07944Z" fill="white"/>
<path d="M12.4237 12.6105L1.3444 20.6984L1.17821 27.8999C1.09512 31.833 1.06742 35.1291 1.09512 35.1845C1.15052 35.2399 1.56599 35.1291 2.06456 34.9629C3.31097 34.5475 5.74841 34.5752 6.88404 35.046L7.85348 35.4615V30.0881C7.85348 25.8225 7.93657 24.6592 8.24125 24.3268C8.46284 24.1052 12.8945 20.7815 18.0741 16.9314L27.4915 9.92377L26.1343 8.64965C25.2202 7.76331 24.6386 6.90467 24.3062 5.90753C24.0292 5.13198 23.7245 4.46723 23.6414 4.49493C23.5584 4.49493 18.5173 8.15109 12.4237 12.6105Z" fill="white"/>
<path d="M84.5775 49.643L92.7485 49.4768L92.8316 43.0231L92.887 36.5971H98.5651C101.695 36.5971 104.326 36.5694 104.465 36.5417C104.576 36.4863 106.708 39.3946 109.229 42.9677L113.799 49.4768L118.314 49.5599C121.942 49.6153 122.801 49.5599 122.635 49.2829C122.496 49.089 120.253 45.8483 117.621 42.1091C114.99 38.3421 112.83 35.1845 112.83 35.046C112.83 34.9075 113.55 34.4367 114.436 33.9658C117.871 32.1931 120.862 28.2323 121.665 24.4653C122.053 22.6372 122.053 19.1473 121.693 17.1807C120.918 13.026 117.788 9.00971 113.882 7.12624C109.589 5.07657 107.096 4.74419 94.632 4.74419H84.5775V49.643ZM108.232 12.749C110.226 13.5522 112.026 15.1587 112.885 16.876C113.411 17.9285 113.522 18.621 113.522 20.6707C113.522 22.8311 113.411 23.3574 112.747 24.7423C111.916 26.4319 110.919 27.429 109.174 28.3154C107.124 29.3679 104.742 29.6726 98.6482 29.6726H92.887V11.8903L99.7561 12.0011C106.154 12.0842 106.708 12.1396 108.232 12.749Z" fill="white"/>
<path d="M142.882 15.1587C142.578 15.2141 141.636 15.408 140.805 15.5742C139.974 15.7404 138.229 16.3774 136.955 16.9868C132.606 19.0641 129.338 23.2189 128.174 28.1491C127.51 31.0575 127.731 35.7938 128.701 38.536C130.141 42.6076 133.022 45.8483 136.899 47.8149C140.306 49.5044 141.553 49.7537 146.621 49.7537C150.887 49.726 151.33 49.6983 153.38 48.9782C155.928 48.0918 157.368 47.2886 159.086 45.7929C160.249 44.7681 160.304 44.6573 159.972 44.0479C159.778 43.6878 158.809 42.5245 157.867 41.472L156.122 39.5331L154.986 40.4194C152.272 42.5799 148.366 43.577 144.738 42.9954C140.833 42.4137 138.146 40.6133 136.678 37.6496C135.182 34.6582 133.88 34.9352 149.28 34.9352H162.77L162.603 31.8053C162.132 21.917 155.845 15.4911 146.206 15.131C144.683 15.0756 143.187 15.0756 142.882 15.1587ZM149.557 22.3048C152.189 23.5235 154.322 26.0718 154.792 28.62L154.986 29.6725H135.764L135.958 28.62C136.539 25.407 139.669 22.3602 143.104 21.6401C144.904 21.2523 147.951 21.557 149.557 22.3048Z" fill="white"/>
<path d="M217.944 15.2417C212.238 16.1835 207.391 19.4796 205.009 23.9944C203.569 26.7919 203.043 29.0077 203.043 32.4423C203.015 37.6219 204.455 41.2227 207.834 44.6572C211.435 48.258 215.562 49.8922 221.13 49.8922C226.752 49.8922 230.713 48.3688 234.314 44.768C236.918 42.1921 238.302 39.6716 238.995 36.2647C240.878 26.7088 235.616 18.0393 226.448 15.6849C224.37 15.1587 219.911 14.9371 217.944 15.2417ZM225.561 22.7757C232.957 26.2102 233.289 37.9543 226.088 41.8597C224.37 42.8014 224.232 42.8291 221.13 42.8291C218.194 42.8291 217.833 42.7738 216.476 42.0536C214.593 41.0565 213.042 39.45 212.072 37.4834C211.352 36.0154 211.297 35.683 211.297 32.4423C211.297 28.4538 211.684 27.2628 213.679 25.1023C215.95 22.6649 217.889 21.8893 221.545 22.0001C223.512 22.0555 224.343 22.2217 225.561 22.7757Z" fill="white"/>
<path d="M164.487 16.0728C164.57 16.3774 167.589 23.4682 171.19 31.8053C174.763 40.1425 177.976 47.5656 178.28 48.3134L178.834 49.643L187.144 49.4768L194.041 33.4118C197.835 24.5761 201.104 16.9314 201.325 16.4328L201.713 15.5188L193.902 15.685L188.612 27.9276C185.704 34.6582 183.238 40.2256 183.155 40.3087C183.072 40.3918 180.663 34.8521 177.782 28.0107L172.575 15.5465H168.448C164.487 15.5465 164.321 15.5742 164.487 16.0728Z" fill="white"/>
<path d="M27.0207 33.4672L23.6415 36.1816V54.2963L26.6606 56.0966C28.2948 57.0938 29.8459 57.9801 30.0952 58.0909C30.3998 58.2017 31.8401 57.5092 34.0283 56.2351L37.4906 54.2132V45.1835L37.4629 36.1816L34.2776 33.6057C32.5326 32.1931 30.9538 30.9744 30.7322 30.8913C30.5383 30.8082 28.8764 31.9715 27.0207 33.4672Z" fill="white"/>
<path d="M2.70168 37.5389C-1.12067 39.2008 0.23654 44.9897 4.44667 44.9897C6.52403 44.9897 8.21362 43.3001 8.21362 41.2227C8.21362 38.259 5.4161 36.3755 2.70168 37.5389Z" fill="white"/>
<path d="M55.1898 37.7327C51.8383 39.6716 53.1124 44.9066 56.9624 44.962C61.228 45.0451 62.6129 39.5331 58.8182 37.6497C57.5441 37.0126 56.4085 37.0403 55.1898 37.7327Z" fill="white"/>
<path d="M47.9051 53.6592C40.759 57.9801 34.7762 61.6362 34.6377 61.7747C34.4992 61.9132 34.6931 62.301 35.0809 62.6888C36.7705 64.3784 37.5737 67.8406 36.6874 69.5302C36.4935 69.8349 36.4658 70.1119 36.6043 70.1119C36.8536 70.1119 60.4524 55.8473 60.8402 55.4596C60.951 55.3488 61.0064 53.1329 60.9787 50.557L60.8956 45.8483L47.9051 53.6592Z" fill="white"/>
<path d="M0.375 55.5704L5.13909 58.4787C18.822 66.7881 24.3062 70.0842 24.3893 70.0011C24.4447 69.9457 24.3616 69.5857 24.1954 69.1702C23.4753 67.259 24.2231 64.4615 25.9127 62.7165L26.7437 61.8579L25.6911 61.1654C24.0293 60.1406 1.67682 46.6792 0.98436 46.3192L0.375 45.9868V55.5704Z" fill="white"/>
<path d="M84.5775 63.8798C84.5775 66.2341 84.6606 66.7881 84.9653 66.7881C85.2423 66.7881 85.4085 66.4003 85.4639 65.5971C85.547 64.4615 85.5747 64.4338 86.5995 64.3507C87.9567 64.2399 87.8182 63.6305 86.4056 63.5197C85.4639 63.4366 85.3808 63.3535 85.4639 62.6888C85.547 61.9963 85.6578 61.9409 87.015 61.8578C89.1754 61.7193 88.76 61.1377 86.4333 61.0269L84.5775 60.9438V63.8798Z" fill="white"/>
<path d="M93.8841 61.5531C93.247 62.0517 93.1639 62.301 93.1639 63.9906C93.1639 66.2064 93.6625 66.8989 95.2967 66.8989C96.7647 66.8989 97.3186 66.0679 97.3186 63.8798C97.3186 62.301 97.2355 62.0517 96.5985 61.5531C96.183 61.2208 95.5736 60.9715 95.2413 60.9715C94.9089 60.9715 94.2995 61.2208 93.8841 61.5531ZM95.8783 62.1348C96.0722 62.3287 96.2107 63.1873 96.2107 64.0737C96.2107 65.3755 96.0999 65.7079 95.6567 65.9571C94.8258 66.4003 93.9949 65.4309 93.9949 63.9629C93.9949 62.301 95.0197 61.2761 95.8783 62.1348Z" fill="white"/>
<path d="M102.581 63.8798C102.581 66.2342 102.664 66.7881 102.969 66.7881C103.246 66.7881 103.412 66.4003 103.468 65.6248C103.578 63.9075 104.299 63.8798 105.046 65.514C105.434 66.428 105.767 66.7881 106.182 66.7881H106.736L106.182 65.6802L105.6 64.5446L106.182 63.8244C106.902 62.9104 106.875 62.4672 106.044 61.6639C105.517 61.11 105.102 60.9715 103.966 60.9715H102.581V63.8798ZM105.24 62.1902C105.656 62.5226 105.711 62.6888 105.462 63.1043C105.046 63.769 103.606 63.769 103.468 63.1043C103.218 61.8855 104.16 61.4147 105.24 62.1902Z" fill="white"/>
<path d="M119.006 61.3038C118.757 61.6085 117.261 66.1787 117.261 66.6219C117.261 66.982 118.12 66.7604 118.258 66.3726C118.369 66.0956 118.812 65.9571 119.505 65.9571C120.225 65.9571 120.668 66.0956 120.751 66.3726C120.862 66.5942 121.167 66.7881 121.471 66.7881C121.887 66.7881 121.97 66.6496 121.832 66.2618C120.253 61.2484 119.754 60.3621 119.006 61.3038ZM120.28 64.7661C120.308 64.9877 120.003 65.1262 119.588 65.1262C118.896 65.1262 118.868 65.0708 119.062 64.1013C119.173 63.5197 119.311 62.938 119.422 62.7995C119.56 62.5225 120.253 64.0737 120.28 64.7661Z" fill="white"/>
<path d="M132.994 61.1377C132.855 61.2485 132.772 62.578 132.772 64.0737V66.7881H134.434C135.902 66.7881 136.124 66.705 136.567 66.068C137.01 65.3755 137.01 65.2924 136.595 64.5446C136.318 64.1014 136.235 63.6859 136.401 63.6028C136.816 63.3258 136.678 61.9132 136.235 61.5255C135.736 61.11 133.299 60.8053 132.994 61.1377ZM135.404 62.1902C136.179 62.7719 135.736 63.4643 134.573 63.4643C133.742 63.4643 133.603 63.3812 133.603 62.8273C133.603 62.4672 133.686 62.0794 133.797 61.9963C134.102 61.6916 134.85 61.7747 135.404 62.1902ZM135.487 64.5446C135.708 64.6831 135.819 65.0154 135.764 65.2924C135.708 65.6802 135.404 65.8464 134.628 65.9018C133.714 65.9849 133.603 65.9295 133.603 65.3201C133.603 64.96 133.686 64.5723 133.797 64.4892C134.046 64.2122 135.044 64.2676 135.487 64.5446Z" fill="white"/>
<path d="M142.107 61.1654C141.996 61.2485 141.913 62.578 141.913 64.0737V66.7881H143.852C145.403 66.7881 145.791 66.705 145.791 66.3726C145.791 66.068 145.458 65.9572 144.406 65.9572C143.048 65.9572 143.021 65.9295 143.021 65.1262C143.021 64.3507 143.104 64.2953 143.99 64.2953C144.655 64.2953 144.96 64.1568 144.96 63.8798C144.96 63.5751 144.655 63.4643 143.962 63.4643C143.048 63.4643 142.993 63.4089 143.076 62.6888C143.159 61.9963 143.27 61.9409 144.489 61.8578C145.403 61.8024 145.791 61.6639 145.791 61.3593C145.791 61.0546 145.375 60.9715 144.046 60.9715C143.076 60.9715 142.19 61.0546 142.107 61.1654Z" fill="white"/>
<path d="M150.776 61.3593C150.776 61.6086 151.109 61.8024 151.552 61.8578C152.3 61.9409 152.3 61.9409 152.383 64.3507C152.438 66.2342 152.549 66.7881 152.854 66.7881C153.158 66.7881 153.269 66.2342 153.324 64.3507C153.408 61.9409 153.408 61.9409 154.183 61.8578C154.599 61.8024 154.931 61.6086 154.931 61.3593C154.931 61.0546 154.46 60.9715 152.854 60.9715C151.247 60.9715 150.776 61.0546 150.776 61.3593Z" fill="white"/>
<path d="M159.64 61.3593C159.64 61.6086 159.972 61.8024 160.415 61.8578C161.163 61.9409 161.163 61.9409 161.246 64.3507C161.301 66.2342 161.412 66.7881 161.717 66.7881C162.022 66.7881 162.132 66.2342 162.188 64.3507C162.271 61.9409 162.271 61.9409 163.046 61.8578C163.462 61.8024 163.794 61.6086 163.794 61.3593C163.794 61.0546 163.323 60.9715 161.717 60.9715C160.11 60.9715 159.64 61.0546 159.64 61.3593Z" fill="white"/>
<path d="M168.974 61.1654C168.863 61.2485 168.78 62.578 168.78 64.0737V66.7881H170.719C172.27 66.7881 172.658 66.705 172.658 66.3726C172.658 66.068 172.325 65.9572 171.273 65.9572C169.916 65.9572 169.888 65.9295 169.888 65.1262C169.888 64.3507 169.971 64.2953 170.857 64.2953C171.522 64.2953 171.827 64.1568 171.827 63.8798C171.827 63.5751 171.522 63.4643 170.83 63.4643C169.916 63.4643 169.86 63.4089 169.943 62.6888C170.026 61.9963 170.137 61.9409 171.356 61.8578C172.27 61.8024 172.658 61.6639 172.658 61.3593C172.658 61.0546 172.242 60.9715 170.913 60.9715C169.943 60.9715 169.057 61.0546 168.974 61.1654Z" fill="white"/>
<path d="M177.92 63.8798C177.92 66.2342 178.003 66.7881 178.308 66.7881C178.585 66.7881 178.751 66.4003 178.807 65.6248C178.918 63.9075 179.638 63.8798 180.386 65.514C180.773 66.428 181.106 66.7881 181.521 66.7881H182.075L180.967 64.5723L181.521 63.7967C182.629 62.301 181.466 60.9715 179.001 60.9715H177.92V63.8798ZM180.579 62.1902C180.995 62.5226 181.05 62.6888 180.801 63.1043C180.386 63.769 178.945 63.769 178.807 63.1043C178.557 61.8855 179.499 61.4147 180.579 62.1902Z" fill="white"/>
<path d="M192.877 63.8798C192.877 66.2896 192.961 66.7881 193.293 66.7881C193.598 66.7881 193.708 66.4834 193.708 65.6802C193.708 64.6 193.736 64.5723 194.678 64.5723C195.952 64.5723 197.143 63.4643 196.894 62.5503C196.589 61.4978 195.703 60.9715 194.235 60.9715H192.877V63.8798ZM195.536 62.1902C196.257 62.7442 195.758 63.5751 194.567 63.6859C193.791 63.769 193.708 63.7136 193.708 62.9658C193.708 62.5226 193.791 62.0794 193.902 61.9963C194.207 61.6916 194.955 61.7747 195.536 62.1902Z" fill="white"/>
<path d="M202.018 63.8798V66.7881H203.818C205.231 66.7881 205.619 66.705 205.619 66.3726C205.619 66.068 205.286 65.9572 204.234 65.9572H202.849V63.4643C202.849 61.4424 202.766 60.9715 202.433 60.9715C202.101 60.9715 202.018 61.4701 202.018 63.8798Z" fill="white"/>
<path d="M212.405 61.3039C212.128 62.0517 210.604 66.6219 210.604 66.705C210.604 67.0097 211.684 66.705 211.823 66.3726C212.045 65.791 214.094 65.791 214.316 66.3726C214.454 66.7881 215.313 66.9543 215.313 66.5665C215.313 66.2064 213.928 62.0517 213.623 61.4977C213.319 60.8884 212.599 60.8053 212.405 61.3039ZM213.513 64.0737C213.706 65.0708 213.679 65.1262 212.986 65.1262C212.155 65.1262 212.155 65.1262 212.599 63.6859C212.959 62.4672 213.236 62.578 213.513 64.0737Z" fill="white"/>
<path d="M220.908 61.4423C220.188 62.024 219.855 63.6859 220.132 65.2647C220.299 66.0679 220.52 66.3449 221.268 66.6773C222.598 67.2313 224.176 66.5111 224.176 65.3478C224.176 64.683 223.761 64.7107 223.262 65.4309C222.958 65.8186 222.625 65.9848 222.071 65.9017C221.296 65.8187 221.268 65.7633 221.185 64.2122C221.074 61.9409 221.905 61.0823 222.985 62.3564C223.539 62.9934 224.176 63.0765 224.176 62.5503C224.176 61.2761 222.016 60.5283 220.908 61.4423Z" fill="white"/>
<path d="M229.633 61.1654C229.522 61.2485 229.439 62.578 229.439 64.0737V66.7881H231.378C232.929 66.7881 233.317 66.705 233.317 66.3726C233.317 66.0403 232.957 65.9572 231.766 65.9572C230.27 65.9572 230.242 65.9572 230.325 65.1816C230.408 64.5446 230.547 64.4338 231.461 64.3507C232.818 64.2399 232.68 63.6305 231.267 63.5197C230.325 63.4366 230.242 63.3535 230.325 62.6888C230.408 61.9963 230.519 61.9409 231.876 61.8578C232.901 61.8024 233.317 61.6639 233.317 61.3593C233.317 61.0546 232.901 60.9715 231.572 60.9715C230.602 60.9715 229.716 61.0546 229.633 61.1654Z" fill="white"/>
<path d="M28.4333 64.0183C26.2451 65.3478 26.0789 69.0594 28.1286 70.4997C28.544 70.8044 29.375 70.9428 30.566 70.9428C32.2002 70.9428 32.4772 70.8597 33.1142 70.1673C34.5823 68.5885 34.8315 67.0374 33.8898 65.4586C32.7265 63.5751 30.2336 62.9104 28.4333 64.0183Z" fill="white"/>
<path d="M238.441 65.9295C238.219 66.3449 238.524 66.7881 239.023 66.7881C239.272 66.7881 239.41 66.5942 239.355 66.3172C239.244 65.7633 238.69 65.5417 238.441 65.9295Z" fill="white"/>
</svg>
