<svg width="162" height="48" viewBox="0 0 162 48" fill="none" xmlns="http://www.w3.org/2000/svg">
<path d="M18.4179 0.657114C17.9298 1.22035 17.8359 1.48319 17.8359 2.30927C17.8359 3.52961 18.2865 4.31814 19.244 4.76873C21.9851 6.08294 24.4446 2.51579 22.2292 0.469369C21.7786 0.0563302 21.5533 6.67572e-06 20.3705 6.67572e-06C19.0375 6.67572e-06 18.9812 0.0187812 18.4179 0.657114Z" fill="#2B2B2B"/>
<path d="M24.8954 2.55347C24.8391 2.72245 24.7828 3.00406 24.7828 3.21058C24.7828 3.83014 24.1069 4.95661 23.2808 5.70759C22.6237 6.30837 22.5298 6.45857 22.7364 6.66509C22.8865 6.79651 25.928 9.03067 29.5327 11.6216L36.0475 16.3527V20.1076C36.0475 22.154 36.1038 23.8438 36.1977 23.8438C36.2728 23.825 36.5356 23.7123 36.7984 23.5621C37.418 23.2054 39.2579 23.2054 40.084 23.5434L40.7411 23.825V18.8685V13.9308L33.0999 8.22337C28.8756 5.08803 25.346 2.4596 25.2334 2.3845C25.1019 2.30941 24.9517 2.3845 24.8954 2.55347Z" fill="#2B2B2B"/>
<path d="M8.16725 8.33575L0.657456 13.8179L0.544809 18.6993C0.488486 21.3652 0.469711 23.5994 0.488486 23.637C0.526035 23.6745 0.807652 23.5994 1.14559 23.4868C1.99045 23.2051 3.6426 23.2239 4.41235 23.5431L5.06946 23.8247V20.1825C5.06946 17.2912 5.12578 16.5027 5.3323 16.2774C5.4825 16.1272 8.48642 13.8742 11.9972 11.2646L18.3806 6.51463L17.4606 5.651C16.8411 5.05022 16.4468 4.46821 16.2215 3.79233C16.0338 3.26664 15.8272 2.81605 15.7709 2.83483C15.7146 2.83483 12.2976 5.31306 8.16725 8.33575Z" fill="#2B2B2B"/>
<path d="M57.0742 18.2114V33.4375L59.8528 33.3812L62.6127 33.3249L62.669 28.9504L62.7066 24.5947H66.5553C68.6769 24.5947 70.4604 24.5759 70.5543 24.5572C70.6294 24.5196 72.075 26.4909 73.7835 28.9128L76.8813 33.3249L79.9415 33.3812C82.401 33.4187 82.983 33.3812 82.8704 33.1934C82.7765 33.062 81.2558 30.8654 79.4722 28.3308C77.6886 25.7775 76.2242 23.6372 76.2242 23.5433C76.2242 23.4495 76.7123 23.1303 77.3131 22.8111C79.6412 21.6096 81.6688 18.9248 82.2133 16.3715C82.4761 15.1324 82.4761 12.7668 82.232 11.4338C81.7064 8.61762 79.5848 5.89532 76.9376 4.61866C74.0276 3.22934 72.3379 3.00405 63.8894 3.00405H57.0742V18.2114ZM73.1076 8.42988C74.4594 8.97434 75.6797 10.0633 76.2617 11.2273C76.6185 11.9407 76.6936 12.4101 76.6936 13.7994C76.6936 15.2638 76.6185 15.6205 76.1679 16.5592C75.6046 17.7045 74.9288 18.3804 73.746 18.9811C72.3567 19.6946 70.742 19.9011 66.6117 19.9011H62.7066V13.8745V7.84787L67.3626 7.92297C71.6995 7.97929 72.075 8.01684 73.1076 8.42988Z" fill="#2B2B2B"/>
<path d="M96.5951 10.0634C96.3886 10.1009 95.7502 10.2323 95.187 10.345C94.6238 10.4576 93.441 10.8894 92.5773 11.3025C89.6297 12.7106 87.4144 15.5267 86.6258 18.8686C86.1752 20.8399 86.3254 24.0504 86.9825 25.909C87.9588 28.6689 89.9114 30.8655 92.5398 32.1985C94.8491 33.3437 95.6939 33.5127 99.1296 33.5127C102.021 33.4939 102.321 33.4751 103.711 32.987C105.438 32.3862 106.414 31.8418 107.578 30.8279C108.367 30.1333 108.404 30.0582 108.179 29.6452C108.048 29.4011 107.39 28.6126 106.752 27.8991L105.569 26.5849L104.8 27.1857C102.96 28.6501 100.312 29.326 97.853 28.9317C95.2058 28.5375 93.3846 27.3171 92.3896 25.3082C91.3758 23.2806 90.4934 23.4683 100.932 23.4683H110.075L109.963 21.3468C109.643 14.6443 105.382 10.2887 98.848 10.0446C97.8154 10.007 96.8016 10.007 96.5951 10.0634ZM101.12 14.9072C102.903 15.7333 104.349 17.4605 104.668 19.1878L104.8 19.9012H98.2848H91.77L91.9015 19.1878C92.2957 17.0099 94.4172 14.9447 96.7453 14.4566C97.9656 14.1937 100.031 14.4003 101.12 14.9072Z" fill="#2B2B2B"/>
<path d="M147.474 10.1196C143.606 10.7579 140.321 12.9921 138.706 16.0523C137.73 17.9485 137.373 19.4505 137.373 21.7785C137.355 25.2893 138.331 27.73 140.621 30.0581C143.062 32.4988 145.859 33.6064 149.633 33.6064C153.444 33.6064 156.129 32.5738 158.57 30.1332C160.335 28.3871 161.273 26.6787 161.743 24.3694C163.019 17.8922 159.452 12.0158 153.238 10.4199C151.83 10.0632 148.807 9.91304 147.474 10.1196ZM152.637 15.2262C157.65 17.5543 157.875 25.5146 152.994 28.1618C151.83 28.8002 151.736 28.819 149.633 28.819C147.643 28.819 147.399 28.7814 146.479 28.2933C145.202 27.6174 144.151 26.5285 143.494 25.1955C143.006 24.2004 142.968 23.9751 142.968 21.7785C142.968 19.075 143.231 18.2677 144.583 16.8033C146.122 15.1511 147.436 14.6254 149.915 14.7005C151.248 14.7381 151.811 14.8507 152.637 15.2262Z" fill="#2B2B2B"/>
<path d="M111.239 10.6828C111.295 10.8893 113.341 15.6956 115.782 21.3467C118.204 26.9979 120.382 32.0294 120.588 32.5363L120.964 33.4375L123.78 33.3812L126.596 33.3249L131.271 22.4357C133.843 16.4466 136.058 11.2648 136.209 10.9269L136.471 10.3073L133.824 10.3637L131.177 10.42L127.591 18.7183C125.62 23.2805 123.949 27.0542 123.893 27.1105C123.836 27.1668 122.203 23.4119 120.25 18.7746L116.721 10.3261H113.923C111.239 10.3261 111.126 10.3449 111.239 10.6828Z" fill="#2B2B2B"/>
<path d="M18.061 22.473L15.7705 24.3129V30.4522V36.5915L17.8169 37.8118C18.9246 38.4877 19.976 39.0885 20.145 39.1636C20.3515 39.2387 21.3278 38.7693 22.8109 37.9057L25.1578 36.5351V30.4147L25.139 24.3129L22.9799 22.5669C21.7971 21.6094 20.727 20.7833 20.5768 20.727C20.4454 20.6707 19.3189 21.4592 18.061 22.473Z" fill="#2B2B2B"/>
<path d="M1.57686 25.2329C-1.01402 26.3593 -0.0940717 30.2832 2.75965 30.2832C4.16774 30.2832 5.31298 29.138 5.31298 27.7299C5.31298 25.721 3.41676 24.4443 1.57686 25.2329Z" fill="#2B2B2B"/>
<path d="M37.1548 25.3644C34.8831 26.6786 35.7467 30.227 38.3564 30.2645C41.2476 30.3208 42.1864 26.5847 39.6143 25.308C38.7506 24.8762 37.9809 24.895 37.1548 25.3644Z" fill="#2B2B2B"/>
<path d="M32.2166 36.1595C27.3728 39.0883 23.3175 41.5665 23.2236 41.6604C23.1297 41.7543 23.2612 42.0171 23.524 42.28C24.6692 43.4252 25.2137 45.772 24.6129 46.9173C24.4815 47.1238 24.4627 47.3115 24.5566 47.3115C24.7256 47.3115 40.7214 37.6427 40.9843 37.3798C41.0594 37.3047 41.0969 35.8028 41.0781 34.0567L41.0218 30.8651L32.2166 36.1595Z" fill="#2B2B2B"/>
<path d="M0 34.2073V37.4552L3.22921 39.4266C12.5038 45.0589 16.2212 47.2931 16.2775 47.2368C16.315 47.1992 16.2587 46.9551 16.1461 46.6735C15.6579 45.3781 16.1648 43.4819 17.3101 42.2991L17.8733 41.7171L17.1599 41.2477C16.0334 40.553 0.882401 31.4286 0.413039 31.1846L0 30.9593V34.2073Z" fill="#2B2B2B"/>
<path d="M57.0742 43.0873C57.0742 44.6831 57.1305 45.0586 57.3371 45.0586C57.5248 45.0586 57.6375 44.7958 57.675 44.2513C57.7313 43.4815 57.7501 43.4628 58.4448 43.4064C59.3647 43.3313 59.2708 42.9183 58.3133 42.8432C57.675 42.7869 57.6187 42.7306 57.675 42.28C57.7313 41.8106 57.8064 41.7731 58.7264 41.7167C60.1908 41.6229 59.9092 41.2286 58.3321 41.1535L57.0742 41.0972V43.0873Z" fill="#2B2B2B"/>
<path d="M63.3827 41.5103C62.9509 41.8483 62.8945 42.0172 62.8945 43.1625C62.8945 44.6644 63.2325 45.1338 64.3402 45.1338C65.3352 45.1338 65.7107 44.5706 65.7107 43.0874C65.7107 42.0172 65.6544 41.8483 65.2226 41.5103C64.941 41.285 64.5279 41.116 64.3026 41.116C64.0773 41.116 63.6643 41.285 63.3827 41.5103ZM64.7344 41.9046C64.8659 42.036 64.9597 42.618 64.9597 43.2188C64.9597 44.1012 64.8846 44.3265 64.5842 44.4955C64.021 44.7958 63.4578 44.1387 63.4578 43.1437C63.4578 42.0172 64.1524 41.3226 64.7344 41.9046Z" fill="#2B2B2B"/>
<path d="M69.2783 43.0873C69.2783 44.6831 69.3346 45.0586 69.5412 45.0586C69.7289 45.0586 69.8416 44.7958 69.8791 44.2701C69.9542 43.106 70.4423 43.0873 70.9493 44.195C71.2121 44.8145 71.4374 45.0586 71.719 45.0586H72.0945L71.719 44.3076L71.3247 43.5379L71.719 43.0497C72.2071 42.4302 72.1884 42.1298 71.6251 41.5853C71.2684 41.2098 70.9868 41.116 70.217 41.116H69.2783V43.0873ZM71.0807 41.942C71.3623 42.1673 71.3998 42.28 71.2309 42.5616C70.9493 43.0122 69.973 43.0122 69.8791 42.5616C69.7101 41.7355 70.3485 41.4163 71.0807 41.942Z" fill="#2B2B2B"/>
<path d="M80.4113 41.3417C80.2423 41.5482 79.2285 44.646 79.2285 44.9464C79.2285 45.1904 79.8105 45.0402 79.9044 44.7774C79.9795 44.5896 80.2799 44.4958 80.7492 44.4958C81.2374 44.4958 81.5378 44.5896 81.5941 44.7774C81.6692 44.9276 81.8757 45.059 82.0822 45.059C82.3639 45.059 82.4202 44.9651 82.3263 44.7023C81.2562 41.3041 80.9182 40.7033 80.4113 41.3417ZM81.2749 43.6885C81.2937 43.8387 81.0872 43.9325 80.8056 43.9325C80.3362 43.9325 80.3174 43.895 80.4489 43.2379C80.524 42.8436 80.6178 42.4493 80.6929 42.3555C80.7868 42.1677 81.2562 43.2191 81.2749 43.6885Z" fill="#2B2B2B"/>
<path d="M89.8924 41.2286C89.7985 41.3037 89.7422 42.2049 89.7422 43.2187V45.0586H90.8687C91.8637 45.0586 92.0139 45.0023 92.3143 44.5705C92.6147 44.1011 92.6147 44.0448 92.3331 43.5379C92.1453 43.2375 92.089 42.9559 92.2016 42.8995C92.4833 42.7118 92.3894 41.7543 92.089 41.4914C91.7511 41.2098 90.0989 41.0033 89.8924 41.2286ZM91.5258 41.942C92.0514 42.3363 91.7511 42.8057 90.9625 42.8057C90.3993 42.8057 90.3054 42.7493 90.3054 42.3738C90.3054 42.1298 90.3617 41.8669 90.4368 41.8106C90.6434 41.6041 91.1503 41.6604 91.5258 41.942ZM91.5821 43.5379C91.7323 43.6317 91.8074 43.857 91.7698 44.0448C91.7323 44.3076 91.5258 44.4203 91.0001 44.4578C90.3805 44.5141 90.3054 44.4766 90.3054 44.0635C90.3054 43.8195 90.3617 43.5566 90.4368 43.5003C90.6058 43.3126 91.2817 43.3501 91.5821 43.5379Z" fill="#2B2B2B"/>
<path d="M96.0689 41.2474C95.9938 41.3037 95.9375 42.2049 95.9375 43.2187V45.0586H97.2517C98.3031 45.0586 98.5659 45.0023 98.5659 44.777C98.5659 44.5705 98.3406 44.4954 97.6272 44.4954C96.7073 44.4954 96.6885 44.4766 96.6885 43.9321C96.6885 43.4064 96.7448 43.3689 97.3456 43.3689C97.7962 43.3689 98.0027 43.275 98.0027 43.0873C98.0027 42.8808 97.7962 42.8057 97.3268 42.8057C96.7073 42.8057 96.6697 42.7681 96.726 42.28C96.7824 41.8106 96.8575 41.7731 97.6835 41.7167C98.3031 41.6792 98.5659 41.5853 98.5659 41.3788C98.5659 41.1723 98.2843 41.116 97.3831 41.116C96.726 41.116 96.1252 41.1723 96.0689 41.2474Z" fill="#2B2B2B"/>
<path d="M101.945 41.3788C101.945 41.5478 102.171 41.6792 102.471 41.7167C102.978 41.7731 102.978 41.7731 103.034 43.4064C103.072 44.6831 103.147 45.0586 103.353 45.0586C103.56 45.0586 103.635 44.6831 103.673 43.4064C103.729 41.7731 103.729 41.7731 104.255 41.7167C104.536 41.6792 104.761 41.5478 104.761 41.3788C104.761 41.1723 104.442 41.116 103.353 41.116C102.264 41.116 101.945 41.1723 101.945 41.3788Z" fill="#2B2B2B"/>
<path d="M107.953 41.3788C107.953 41.5478 108.178 41.6792 108.479 41.7167C108.986 41.7731 108.986 41.7731 109.042 43.4064C109.08 44.6831 109.155 45.0586 109.361 45.0586C109.568 45.0586 109.643 44.6831 109.68 43.4064C109.737 41.7731 109.737 41.7731 110.262 41.7167C110.544 41.6792 110.769 41.5478 110.769 41.3788C110.769 41.1723 110.45 41.116 109.361 41.116C108.272 41.116 107.953 41.1723 107.953 41.3788Z" fill="#2B2B2B"/>
<path d="M114.28 41.2474C114.205 41.3037 114.148 42.2049 114.148 43.2187V45.0586H115.463C116.514 45.0586 116.777 45.0023 116.777 44.777C116.777 44.5705 116.552 44.4954 115.838 44.4954C114.918 44.4954 114.899 44.4766 114.899 43.9321C114.899 43.4064 114.956 43.3689 115.557 43.3689C116.007 43.3689 116.214 43.275 116.214 43.0873C116.214 42.8808 116.007 42.8057 115.538 42.8057C114.918 42.8057 114.881 42.7681 114.937 42.28C114.993 41.8106 115.068 41.7731 115.894 41.7167C116.514 41.6792 116.777 41.5853 116.777 41.3788C116.777 41.1723 116.495 41.116 115.594 41.116C114.937 41.116 114.336 41.1723 114.28 41.2474Z" fill="#2B2B2B"/>
<path d="M120.345 43.0873C120.345 44.6831 120.401 45.0586 120.608 45.0586C120.795 45.0586 120.908 44.7958 120.946 44.2701C121.021 43.106 121.509 43.0873 122.016 44.195C122.278 44.8145 122.504 45.0586 122.785 45.0586H123.161L122.785 44.3076L122.41 43.5566L122.785 43.0309C123.536 42.0171 122.748 41.116 121.077 41.116H120.345V43.0873ZM122.147 41.942C122.429 42.1673 122.466 42.28 122.297 42.5616C122.016 43.0122 121.039 43.0122 120.946 42.5616C120.777 41.7355 121.415 41.4163 122.147 41.942Z" fill="#2B2B2B"/>
<path d="M130.482 43.0873C130.482 44.7207 130.539 45.0586 130.764 45.0586C130.971 45.0586 131.046 44.8521 131.046 44.3076C131.046 43.5754 131.064 43.5566 131.703 43.5566C132.566 43.5566 133.374 42.8057 133.205 42.1861C132.998 41.4727 132.397 41.116 131.402 41.116H130.482V43.0873ZM132.285 41.942C132.773 42.3175 132.435 42.8808 131.628 42.9559C131.102 43.0122 131.046 42.9746 131.046 42.4677C131.046 42.1673 131.102 41.8669 131.177 41.8106C131.384 41.6041 131.891 41.6604 132.285 41.942Z" fill="#2B2B2B"/>
<path d="M136.679 43.0873V45.0586H137.899C138.857 45.0586 139.119 45.0023 139.119 44.777C139.119 44.5705 138.894 44.4954 138.181 44.4954H137.242V42.8057C137.242 41.4351 137.186 41.116 136.96 41.116C136.735 41.116 136.679 41.4539 136.679 43.0873Z" fill="#2B2B2B"/>
<path d="M143.718 41.3413C143.531 41.8482 142.498 44.946 142.498 45.0023C142.498 45.2088 143.23 45.0023 143.324 44.777C143.474 44.3828 144.864 44.3828 145.014 44.777C145.108 45.0586 145.69 45.1713 145.69 44.9085C145.69 44.6644 144.751 41.8482 144.544 41.4727C144.338 41.0597 143.85 41.0034 143.718 41.3413ZM144.469 43.2187C144.601 43.8946 144.582 43.9322 144.113 43.9322C143.549 43.9322 143.549 43.9322 143.85 42.9559C144.094 42.1298 144.282 42.2049 144.469 43.2187Z" fill="#2B2B2B"/>
<path d="M149.482 41.4355C148.994 41.8297 148.769 42.9562 148.957 44.0263C149.069 44.5708 149.219 44.7586 149.726 44.9838C150.627 45.3593 151.698 44.8712 151.698 44.0827C151.698 43.6321 151.416 43.6509 151.078 44.139C150.872 44.4018 150.646 44.5145 150.271 44.4582C149.745 44.4018 149.726 44.3643 149.67 43.3129C149.595 41.7734 150.158 41.1914 150.89 42.055C151.266 42.4868 151.698 42.5432 151.698 42.1864C151.698 41.3228 150.233 40.8159 149.482 41.4355Z" fill="#2B2B2B"/>
<path d="M155.396 41.2474C155.321 41.3037 155.265 42.2049 155.265 43.2187V45.0586H156.579C157.63 45.0586 157.893 45.0023 157.893 44.777C157.893 44.5517 157.649 44.4954 156.842 44.4954C155.828 44.4954 155.809 44.4954 155.865 43.9697C155.922 43.5379 156.016 43.4628 156.635 43.4064C157.555 43.3313 157.461 42.9183 156.504 42.8432C155.865 42.7869 155.809 42.7306 155.865 42.28C155.922 41.8106 155.997 41.7731 156.917 41.7167C157.611 41.6792 157.893 41.5853 157.893 41.3788C157.893 41.1723 157.611 41.116 156.71 41.116C156.053 41.116 155.452 41.1723 155.396 41.2474Z" fill="#2B2B2B"/>
<path d="M19.0187 43.1814C17.5355 44.0826 17.4229 46.5983 18.8122 47.5746C19.0938 47.7811 19.6571 47.875 20.4644 47.875C21.5721 47.875 21.7598 47.8187 22.1916 47.3493C23.1867 46.2792 23.3556 45.2278 22.7173 44.1577C21.9288 42.881 20.2391 42.4304 19.0187 43.1814Z" fill="#2B2B2B"/>
<path d="M161.367 44.4766C161.217 44.7582 161.423 45.0586 161.761 45.0586C161.93 45.0586 162.024 44.9272 161.987 44.7394C161.912 44.3639 161.536 44.2137 161.367 44.4766Z" fill="#2B2B2B"/>
</svg>
