<svg width="277" height="260" viewBox="0 0 277 260" fill="none" xmlns="http://www.w3.org/2000/svg">
<g clip-path="url(#clip0_1266_3609)">
<path d="M23.7489 249.94C23.7489 249.94 -7.82031 230.939 3.72946 205.519C10.5173 190.575 39.989 196.138 36.8869 171.266C32.8241 138.656 0.437392 116.688 19.1273 88.8099C38.3705 60.0951 86.4138 94.348 133.375 63.9597C163.684 44.3367 217.634 33.3649 237.177 64.546C255.856 94.337 218.515 127.472 245.625 149.73C272.735 171.987 303.789 205.568 235.251 245.156C231.84 247.124 228.84 250.556 225.121 250.556C168.033 250.556 115.415 250.386 115.415 250.386" fill="#F9F9FA"/>
<path d="M17.5943 222.546C10.501 221.412 17.1374 242.238 27.2971 239.554C37.4568 236.87 23.5536 223.498 17.5943 222.546Z" fill="#8A8A8A"/>
<path d="M13.6252 210.749C9.56237 212.213 10.9469 221.04 16.9585 219.169C22.9701 217.297 17.6191 209.312 13.6252 210.749Z" fill="#8A8A8A"/>
<path d="M225.13 250.545C161.496 250.386 115.423 250.385 115.423 250.385Z" fill="#8A8A8A"/>
<path d="M119.847 146.685C119.536 144.302 118.011 142.526 116.447 142.716C114.884 142.906 113.866 144.993 114.179 147.376C114.493 149.76 116.015 151.535 117.579 151.345C119.142 151.155 120.161 149.069 119.847 146.685Z" fill="#9C4D4B"/>
<path d="M152.949 143.102C152.635 140.718 151.113 138.942 149.547 139.132C147.981 139.322 146.968 141.409 147.279 143.792C147.59 146.176 149.115 147.952 150.681 147.762C152.247 147.572 153.268 145.485 152.949 143.102Z" fill="#9C4D4B"/>
<path d="M128.966 155.783C137.4 151.929 144.433 155.006 144.757 155.155C144.842 155.192 144.918 155.246 144.982 155.314C145.046 155.381 145.095 155.46 145.128 155.547C145.161 155.633 145.176 155.725 145.173 155.818C145.17 155.91 145.148 156.001 145.11 156.085C145.031 156.255 144.888 156.387 144.712 156.453C144.537 156.518 144.342 156.512 144.171 156.435C144.089 156.399 135.897 152.857 126.959 158.469C126.8 158.569 126.608 158.602 126.425 158.561C126.242 158.52 126.082 158.409 125.979 158.252C125.93 158.174 125.896 158.087 125.88 157.995C125.864 157.904 125.866 157.811 125.886 157.721C125.906 157.63 125.944 157.545 125.998 157.469C126.051 157.394 126.119 157.329 126.197 157.28C127.086 156.721 128.011 156.221 128.966 155.783Z" fill="#9C4D4B"/>
<path d="M113.183 124.648C113.426 124.632 113.669 124.679 113.887 124.786C114.226 124.947 114.487 125.235 114.613 125.588C114.739 125.941 114.719 126.33 114.559 126.669C111.179 133.682 104.697 134.569 104.421 134.602C104.048 134.649 103.671 134.548 103.373 134.319C103.074 134.09 102.878 133.752 102.828 133.379C102.803 133.197 102.815 133.011 102.863 132.833C102.911 132.655 102.994 132.488 103.106 132.342C103.219 132.195 103.359 132.073 103.519 131.981C103.679 131.89 103.856 131.831 104.039 131.808C104.253 131.777 109.299 131.034 111.996 125.438C112.106 125.213 112.274 125.021 112.482 124.882C112.691 124.743 112.933 124.662 113.183 124.648Z" fill="#9C4D4B"/>
<path d="M146.307 121.015C146.532 120.95 146.77 120.942 146.999 120.99C147.228 121.038 147.442 121.141 147.623 121.29C152.415 125.325 157.339 123.999 157.546 123.941C157.907 123.838 158.294 123.882 158.624 124.062C158.953 124.242 159.199 124.545 159.307 124.904C159.36 125.081 159.377 125.266 159.358 125.449C159.339 125.633 159.283 125.81 159.195 125.972C159.107 126.134 158.987 126.276 158.844 126.392C158.7 126.507 158.535 126.593 158.358 126.644C158.083 126.718 151.793 128.488 145.792 123.432C145.65 123.313 145.532 123.168 145.446 123.004C145.36 122.839 145.308 122.66 145.292 122.475C145.276 122.29 145.297 122.104 145.354 121.928C145.41 121.751 145.501 121.588 145.622 121.447C145.803 121.239 146.042 121.089 146.307 121.015Z" fill="#9C4D4B"/>
<path d="M92.4477 174.866L102.596 183.908L118.245 174.866L129.046 183.908L141.964 176.54L156.109 185.918L165.336 176.54L177.02 185.918L185.974 179.862V116.93C185.988 116.601 185.872 116.28 185.651 116.035C185.43 115.791 185.122 115.643 184.794 115.623L168.856 115.347C168.803 115.343 168.75 115.343 168.697 115.347C164.744 115.898 161.479 112.476 161.859 108.141L163.175 93.1066C163.198 92.933 163.184 92.7565 163.135 92.5884C163.086 92.4202 163.003 92.264 162.891 92.1295C162.779 91.9951 162.64 91.8853 162.483 91.8072C162.326 91.729 162.155 91.6841 161.98 91.6753H90.9145C86.1746 91.6753 82.332 95.8592 82.332 101.034V179.353L92.4477 174.866Z" stroke="#9C4D4B" stroke-width="1.37628" stroke-miterlimit="10"/>
<path d="M179.792 195.576L167.681 186.562L153.946 194.252L141.664 185.499L129.046 193.985L118.245 183.908L104.278 194.508L89.6899 184.167L82.3433 188.805V213.008C82.3433 217.096 86.1969 220.41 90.9258 220.41H177.395C182.135 220.41 185.977 217.107 185.977 213.008V191.263L179.792 195.576Z" stroke="#9C4D4B" stroke-width="1.37628" stroke-miterlimit="10"/>
<path d="M168.432 118.015L187.585 117.318C187.669 117.313 187.751 117.285 187.821 117.236C187.89 117.187 187.945 117.12 187.978 117.042C188.011 116.964 188.022 116.878 188.01 116.794C187.997 116.71 187.962 116.632 187.907 116.567L187.152 115.68L187.133 115.658L163.885 91.5459L163.868 91.5266L162.371 89.776C162.315 89.7096 162.241 89.6606 162.158 89.6351C162.074 89.6096 161.986 89.6085 161.902 89.632C161.818 89.6555 161.743 89.7025 161.685 89.7676C161.627 89.8327 161.589 89.913 161.576 89.999L161.427 90.8991L158.479 108.961C157.697 113.751 163.409 118.381 168.432 118.015Z" fill="#9C4D4B"/>
<path d="M235.039 65.6278C233.895 65.3675 232.824 64.8529 231.906 64.1221L232.201 63.7533C233.063 64.4389 234.069 64.9215 235.143 65.1653L235.039 65.6278ZM238.512 65.6278L238.408 65.1681C239.481 64.92 240.484 64.4347 241.345 63.7478L241.642 64.1166C240.725 64.847 239.655 65.3624 238.512 65.625V65.6278ZM229.745 61.4108C229.232 60.3563 228.966 59.1982 228.969 58.0252H229.44C229.44 59.1267 229.691 60.2137 230.172 61.2044L229.745 61.4108ZM243.817 61.4108L243.393 61.2071C243.872 60.214 244.119 59.1251 244.117 58.0224L244.455 58.0004L244.59 58.0142C244.589 59.1868 244.321 60.3438 243.806 61.3971L243.817 61.4108ZM230.158 54.8542L229.732 54.6505C230.24 53.5935 230.979 52.6635 231.892 51.9282L232.19 52.2998C231.328 52.9842 230.631 53.8522 230.147 54.8404L230.158 54.8542ZM243.371 54.8157C242.887 53.8262 242.188 52.9573 241.326 52.2723L241.62 51.9007C242.538 52.6293 243.282 53.5537 243.797 54.6065L243.371 54.8157ZM235.113 50.874L235.008 50.4116C235.584 50.2794 236.174 50.2129 236.765 50.2134C237.341 50.2133 237.916 50.2761 238.479 50.4006L238.375 50.863C237.846 50.7451 237.306 50.686 236.765 50.6868C236.209 50.6824 235.655 50.7406 235.113 50.8602V50.874Z" fill="#8A8A8A"/>
<path d="M14.9134 164.88H14.7703V164.406H14.9079C15.9499 164.406 16.989 164.294 18.0073 164.073L18.1091 164.536C17.0593 164.764 15.9879 164.88 14.9134 164.88ZM11.4397 164.472C10.3459 164.213 9.28564 163.829 8.27972 163.327L8.48892 162.903C9.46395 163.386 10.4909 163.755 11.5498 164.004L11.4397 164.472ZM21.2911 163.448L21.0902 163.022C22.0689 162.554 22.9921 161.978 23.8427 161.304L24.1373 161.676C23.2581 162.372 22.3034 162.966 21.2911 163.448ZM5.45834 161.502C4.58998 160.79 3.80426 159.982 3.11591 159.094L3.48475 158.805C4.15122 159.664 4.91202 160.446 5.75286 161.136L5.45834 161.502ZM26.532 159.3L26.1631 159.006C26.8438 158.155 27.4281 157.232 27.9055 156.253L28.3294 156.46C27.8403 157.475 27.2373 158.432 26.532 159.311V159.3ZM1.37078 156.226C0.900177 155.206 0.545624 154.137 0.313792 153.038L0.778976 152.939C0.99965 154.004 1.34231 155.041 1.80018 156.028L1.37078 156.226ZM29.447 153.305L28.9845 153.201C29.2305 152.141 29.3561 151.057 29.3589 149.969H29.8323C29.8288 151.092 29.6995 152.211 29.447 153.305ZM0.473442 149.702H0C0.0209865 148.579 0.167789 147.462 0.437658 146.372L0.897336 146.487C0.635379 147.539 0.493179 148.618 0.473442 149.702ZM29.1001 147.258C28.8963 146.189 28.5722 145.146 28.134 144.15L28.5661 143.96C29.0182 144.987 29.3516 146.062 29.5598 147.164L29.1001 147.258ZM2.03415 143.429L1.613 143.214C2.12177 142.213 2.7423 141.273 3.46273 140.412L3.82607 140.715C3.12933 141.55 2.52827 142.46 2.03415 143.429ZM26.488 141.343C25.8385 140.47 25.0924 139.674 24.2639 138.97L24.5722 138.609C25.4266 139.337 26.1967 140.159 26.8678 141.059L26.488 141.343ZM6.17951 138.469L5.90426 138.092C6.79679 137.412 7.76363 136.836 8.78619 136.374L8.98163 136.804C7.98753 137.251 7.04746 137.809 6.17951 138.469ZM21.5664 137.153C20.6039 136.652 19.5883 136.261 18.5385 135.986L18.6569 135.529C19.7439 135.811 20.7956 136.214 21.7921 136.732L21.5664 137.153ZM12.0673 135.81L11.9737 135.345C12.9396 135.158 13.9214 135.066 14.9051 135.069L15.3208 135.053V135.526C15.1859 135.526 15.0455 135.526 14.9162 135.526C13.9595 135.527 13.0053 135.622 12.0673 135.81Z" fill="#8A8A8A"/>
<path d="M28.8742 162.752C31.3582 162.752 33.3719 160.738 33.3719 158.254C33.3719 155.77 31.3582 153.757 28.8742 153.757C26.3902 153.757 24.3765 155.77 24.3765 158.254C24.3765 160.738 26.3902 162.752 28.8742 162.752Z" fill="#8A8A8A"/>
<path d="M227.26 152.727C229.091 152.727 230.574 151.243 230.574 149.413C230.574 147.583 229.091 146.099 227.26 146.099C225.43 146.099 223.946 147.583 223.946 149.413C223.946 151.243 225.43 152.727 227.26 152.727Z" fill="#8A8A8A"/>
<path d="M233.69 52.3136C233.69 52.7817 233.551 53.2394 233.291 53.6287C233.031 54.018 232.661 54.3214 232.229 54.5006C231.796 54.6797 231.32 54.7266 230.861 54.6353C230.402 54.5439 229.98 54.3185 229.649 53.9874C229.318 53.6564 229.092 53.2346 229.001 52.7754C228.91 52.3162 228.957 51.8402 229.136 51.4077C229.315 50.9751 229.618 50.6054 230.008 50.3453C230.397 50.0852 230.855 49.9464 231.323 49.9464C231.634 49.9464 231.941 50.0076 232.229 50.1265C232.516 50.2455 232.777 50.4199 232.997 50.6397C233.216 50.8595 233.391 51.1205 233.51 51.4077C233.629 51.6949 233.69 52.0027 233.69 52.3136Z" fill="#8A8A8A"/>
<path d="M113.012 49.9464C113.012 50.6485 112.804 51.335 112.414 51.9188C112.024 52.5027 111.469 52.9578 110.82 53.2266C110.172 53.4955 109.458 53.5659 108.769 53.4292C108.081 53.2924 107.448 52.9545 106.951 52.4582C106.454 51.9618 106.116 51.3294 105.979 50.6408C105.841 49.9522 105.911 49.2383 106.18 48.5894C106.448 47.9406 106.903 47.3858 107.486 46.9953C108.07 46.6048 108.756 46.3961 109.458 46.3956C109.925 46.3952 110.387 46.4868 110.818 46.6651C111.249 46.8434 111.641 47.1048 111.971 47.4346C112.301 47.7644 112.563 48.1559 112.741 48.5869C112.92 49.0179 113.012 49.4798 113.012 49.9464Z" fill="#8A8A8A"/>
<path d="M115.853 60.8355C115.572 60.8351 115.292 60.8167 115.013 60.7805L115.076 60.3098C116.135 60.4484 117.211 60.3001 118.192 59.8804L118.38 60.3153C117.582 60.6598 116.722 60.8368 115.853 60.8355ZM111.884 59.4592C110.979 58.7389 110.286 57.788 109.877 56.7067L110.32 56.5388C110.7 57.5361 111.342 58.4127 112.178 59.0766L111.884 59.4592ZM121.033 58.193L120.648 57.9178C121.274 57.0526 121.655 56.0339 121.749 54.9698L122.219 55.0111C122.119 56.1579 121.709 57.2558 121.033 58.1875V58.193ZM109.937 54.4496H109.458C109.457 53.2952 109.769 52.1622 110.361 51.1713L110.766 51.4162C110.223 52.3326 109.936 53.3786 109.937 54.4441V54.4496ZM121.182 51.8732C120.715 50.9119 119.998 50.0942 119.106 49.506L119.368 49.1096C120.331 49.7453 121.105 50.6286 121.608 51.6667L121.182 51.8732ZM113.037 49.2334L112.811 48.8178C113.825 48.2749 114.965 48.0126 116.114 48.0581L116.095 48.5315C115.031 48.4901 113.976 48.7324 113.037 49.2334Z" fill="#8A8A8A"/>
<path d="M234.524 162.091C233.386 162.008 232.277 161.688 231.27 161.15L231.493 160.734C232.443 161.239 233.487 161.54 234.56 161.618L234.524 162.091ZM237.882 161.654L237.728 161.202C238.745 160.848 239.677 160.286 240.464 159.551L240.786 159.898C239.95 160.678 238.961 161.276 237.882 161.654ZM228.667 159C227.954 158.108 227.435 157.077 227.144 155.972L227.601 155.851C227.877 156.892 228.366 157.863 229.038 158.703L228.667 159ZM242.743 157.159L242.311 156.969C242.743 155.979 242.963 154.909 242.958 153.828H243.431C243.435 154.97 243.201 156.099 242.743 157.145V157.159ZM242.917 152.991C242.799 151.924 242.462 150.893 241.926 149.964L242.339 149.73C242.908 150.719 243.265 151.816 243.387 152.95L242.917 152.991ZM227.428 152.667L226.96 152.595C227.129 151.466 227.532 150.385 228.144 149.421L228.543 149.675C227.969 150.58 227.59 151.594 227.428 152.653V152.667ZM239.814 147.572C238.949 146.922 237.957 146.46 236.902 146.217L237.01 145.755C238.121 146.011 239.168 146.495 240.081 147.178L239.814 147.572ZM230.772 147.379L230.497 146.988C231.439 146.344 232.507 145.905 233.629 145.7L233.715 146.165C232.658 146.355 231.653 146.764 230.764 147.365L230.772 147.379Z" fill="#8A8A8A"/>
<path d="M175.278 37.3368L204.846 48.8426C202.369 34.1989 221.196 27.8487 218.727 13.2078L189.159 1.68835C191.628 16.332 172.806 22.6822 175.278 37.3368Z" stroke="#9C4D4B" stroke-width="1.37628" stroke-miterlimit="10"/>
<path d="M212.234 30.4554C216.165 25.3962 219.916 20.2709 218.727 13.2134L189.159 1.68835" stroke="#9C4D4B" stroke-width="1.37628" stroke-miterlimit="10"/>
<path d="M175.278 37.3369L204.846 48.8426C204.059 44.1633 205.435 40.351 207.598 36.8304" stroke="#9C4D4B" stroke-width="1.37628" stroke-miterlimit="10"/>
<path d="M147.334 77.8409L176.838 66.1617C165.066 57.1113 174.537 39.6518 162.765 30.6041L133.26 42.2915C145.032 51.3309 135.561 68.7904 147.334 77.8409Z" stroke="#9C4D4B" stroke-width="1.37628" stroke-miterlimit="10"/>
<path d="M147.334 77.8409L176.839 66.1617C171.502 62.0576 170.53 56.2249 169.957 50.2299" stroke="#9C4D4B" stroke-width="1.37628" stroke-miterlimit="10"/>
<path d="M150.628 35.4101L133.26 42.2915C139.445 47.0452 139.764 54.1275 140.383 61.0778" stroke="#9C4D4B" stroke-width="1.37628" stroke-miterlimit="10"/>
<path d="M200.048 101.51L175.578 81.3064C189.567 76.3242 185.936 56.8085 199.925 51.8154L224.395 72.0192C210.406 77.0014 214.037 96.5171 200.048 101.51Z" stroke="#9C4D4B" stroke-width="1.37628" stroke-miterlimit="10"/>
<path d="M213.131 84.6315C210.175 91.4165 207.855 98.7301 200.048 101.51L183.808 88.0942" stroke="#9C4D4B" stroke-width="1.37628" stroke-miterlimit="10"/>
<path d="M189.033 63.5881C191.298 58.5371 194.067 53.9018 199.925 51.8154L213.068 62.6605" stroke="#9C4D4B" stroke-width="1.37628" stroke-miterlimit="10"/>
<path d="M67.8092 248.688H64.6523L57.5043 237.887V248.688H54.3474V232.927H57.5043L64.6523 243.75V232.927H67.8092V248.688ZM76.4759 248.891C75.2733 248.891 74.1909 248.628 73.2288 248.102C72.2668 247.561 71.5076 246.802 70.9514 245.825C70.4102 244.848 70.1396 243.72 70.1396 242.442C70.1396 241.164 70.4177 240.037 70.9739 239.06C71.5452 238.083 72.3194 237.331 73.2965 236.805C74.2736 236.264 75.3635 235.993 76.5661 235.993C77.7687 235.993 78.8586 236.264 79.8357 236.805C80.8128 237.331 81.5795 238.083 82.1357 239.06C82.707 240.037 82.9926 241.164 82.9926 242.442C82.9926 243.72 82.6994 244.848 82.1132 245.825C81.5419 246.802 80.7602 247.561 79.7681 248.102C78.7909 248.628 77.6936 248.891 76.4759 248.891ZM76.4759 246.14C77.0471 246.14 77.5808 246.005 78.0769 245.734C78.588 245.449 78.9939 245.028 79.2945 244.472C79.5952 243.915 79.7455 243.239 79.7455 242.442C79.7455 241.255 79.4298 240.345 78.7985 239.714C78.1821 239.067 77.423 238.744 76.521 238.744C75.619 238.744 74.8599 239.067 74.2436 239.714C73.6422 240.345 73.3416 241.255 73.3416 242.442C73.3416 243.63 73.6347 244.547 74.221 245.193C74.8223 245.825 75.5739 246.14 76.4759 246.14ZM96.1832 232.949C97.8368 232.949 99.2875 233.272 100.535 233.919C101.798 234.565 102.768 235.49 103.444 236.692C104.136 237.88 104.481 239.263 104.481 240.841C104.481 242.42 104.136 243.803 103.444 244.99C102.768 246.163 101.798 247.072 100.535 247.719C99.2875 248.365 97.8368 248.688 96.1832 248.688H90.6813V232.949H96.1832ZM96.0705 246.005C97.7241 246.005 99.0019 245.554 99.9038 244.652C100.806 243.75 101.257 242.48 101.257 240.841C101.257 239.203 100.806 237.925 99.9038 237.008C99.0019 236.076 97.7241 235.61 96.0705 235.61H93.8381V246.005H96.0705ZM106.033 242.397C106.033 241.134 106.281 240.014 106.777 239.037C107.288 238.06 107.972 237.309 108.829 236.782C109.701 236.256 110.67 235.993 111.737 235.993C112.669 235.993 113.481 236.181 114.173 236.557C114.879 236.933 115.443 237.406 115.864 237.978V236.196H119.043V248.688H115.864V246.862C115.458 247.448 114.894 247.937 114.173 248.328C113.466 248.703 112.647 248.891 111.715 248.891C110.663 248.891 109.701 248.621 108.829 248.08C107.972 247.538 107.288 246.779 106.777 245.802C106.281 244.81 106.033 243.675 106.033 242.397ZM115.864 242.442C115.864 241.676 115.714 241.022 115.413 240.481C115.112 239.924 114.706 239.503 114.195 239.218C113.684 238.917 113.136 238.767 112.549 238.767C111.963 238.767 111.422 238.91 110.926 239.195C110.43 239.481 110.024 239.902 109.708 240.458C109.407 240.999 109.257 241.646 109.257 242.397C109.257 243.149 109.407 243.81 109.708 244.381C110.024 244.938 110.43 245.366 110.926 245.667C111.437 245.967 111.978 246.118 112.549 246.118C113.136 246.118 113.684 245.975 114.195 245.689C114.706 245.389 115.112 244.968 115.413 244.427C115.714 243.87 115.864 243.209 115.864 242.442ZM125.802 238.789V244.832C125.802 245.253 125.9 245.562 126.095 245.757C126.306 245.937 126.651 246.028 127.132 246.028H128.598V248.688H126.614C123.953 248.688 122.623 247.396 122.623 244.81V238.789H121.134V236.196H122.623V233.107H125.802V236.196H128.598V238.789H125.802ZM130.057 242.397C130.057 241.134 130.305 240.014 130.801 239.037C131.312 238.06 131.996 237.309 132.853 236.782C133.725 236.256 134.695 235.993 135.762 235.993C136.694 235.993 137.506 236.181 138.197 236.557C138.904 236.933 139.467 237.406 139.888 237.978V236.196H143.068V248.688H139.888V246.862C139.482 247.448 138.919 247.937 138.197 248.328C137.491 248.703 136.671 248.891 135.739 248.891C134.687 248.891 133.725 248.621 132.853 248.08C131.996 247.538 131.312 246.779 130.801 245.802C130.305 244.81 130.057 243.675 130.057 242.397ZM139.888 242.442C139.888 241.676 139.738 241.022 139.437 240.481C139.137 239.924 138.731 239.503 138.22 239.218C137.709 238.917 137.16 238.767 136.574 238.767C135.987 238.767 135.446 238.91 134.95 239.195C134.454 239.481 134.048 239.902 133.732 240.458C133.432 240.999 133.281 241.646 133.281 242.397C133.281 243.149 133.432 243.81 133.732 244.381C134.048 244.938 134.454 245.366 134.95 245.667C135.461 245.967 136.002 246.118 136.574 246.118C137.16 246.118 137.709 245.975 138.22 245.689C138.731 245.389 139.137 244.968 139.437 244.427C139.738 243.87 139.888 243.209 139.888 242.442ZM161.243 232.949V235.497H154.681V239.533H159.709V242.036H154.681V248.688H151.524V232.949H161.243ZM169.028 248.891C167.826 248.891 166.743 248.628 165.781 248.102C164.819 247.561 164.06 246.802 163.504 245.825C162.963 244.848 162.692 243.72 162.692 242.442C162.692 241.164 162.97 240.037 163.526 239.06C164.097 238.083 164.872 237.331 165.849 236.805C166.826 236.264 167.916 235.993 169.118 235.993C170.321 235.993 171.411 236.264 172.388 236.805C173.365 237.331 174.132 238.083 174.688 239.06C175.259 240.037 175.545 241.164 175.545 242.442C175.545 243.72 175.252 244.848 174.665 245.825C174.094 246.802 173.313 247.561 172.32 248.102C171.343 248.628 170.246 248.891 169.028 248.891ZM169.028 246.14C169.599 246.14 170.133 246.005 170.629 245.734C171.14 245.449 171.546 245.028 171.847 244.472C172.147 243.915 172.298 243.239 172.298 242.442C172.298 241.255 171.982 240.345 171.351 239.714C170.734 239.067 169.975 238.744 169.073 238.744C168.171 238.744 167.412 239.067 166.796 239.714C166.195 240.345 165.894 241.255 165.894 242.442C165.894 243.63 166.187 244.547 166.773 245.193C167.375 245.825 168.126 246.14 169.028 246.14ZM189.654 236.196V248.688H186.474V247.11C186.068 247.651 185.535 248.08 184.873 248.395C184.227 248.696 183.52 248.846 182.754 248.846C181.777 248.846 180.912 248.643 180.161 248.237C179.409 247.816 178.815 247.208 178.379 246.411C177.958 245.599 177.748 244.637 177.748 243.525V236.196H180.905V243.074C180.905 244.066 181.153 244.832 181.649 245.374C182.145 245.9 182.821 246.163 183.678 246.163C184.55 246.163 185.234 245.9 185.73 245.374C186.226 244.832 186.474 244.066 186.474 243.074V236.196H189.654ZM199.691 236.016C201.179 236.016 202.382 236.489 203.299 237.436C204.216 238.368 204.674 239.676 204.674 241.36V248.688H201.517V241.788C201.517 240.796 201.269 240.037 200.773 239.511C200.277 238.97 199.601 238.699 198.744 238.699C197.872 238.699 197.181 238.97 196.669 239.511C196.173 240.037 195.925 240.796 195.925 241.788V248.688H192.768V236.196H195.925V237.752C196.346 237.211 196.88 236.79 197.526 236.489C198.188 236.174 198.909 236.016 199.691 236.016ZM206.865 242.397C206.865 241.134 207.113 240.014 207.609 239.037C208.12 238.06 208.811 237.309 209.683 236.782C210.555 236.256 211.525 235.993 212.592 235.993C213.404 235.993 214.178 236.174 214.915 236.534C215.651 236.88 216.237 237.346 216.673 237.932V232.002H219.875V248.688H216.673V246.839C216.283 247.456 215.734 247.952 215.027 248.328C214.321 248.703 213.502 248.891 212.569 248.891C211.517 248.891 210.555 248.621 209.683 248.08C208.811 247.538 208.12 246.779 207.609 245.802C207.113 244.81 206.865 243.675 206.865 242.397ZM216.696 242.442C216.696 241.676 216.546 241.022 216.245 240.481C215.944 239.924 215.538 239.503 215.027 239.218C214.516 238.917 213.968 238.767 213.381 238.767C212.795 238.767 212.254 238.91 211.758 239.195C211.262 239.481 210.856 239.902 210.54 240.458C210.239 240.999 210.089 241.646 210.089 242.397C210.089 243.149 210.239 243.81 210.54 244.381C210.856 244.938 211.262 245.366 211.758 245.667C212.269 245.967 212.81 246.118 213.381 246.118C213.968 246.118 214.516 245.975 215.027 245.689C215.538 245.389 215.944 244.968 216.245 244.427C216.546 243.87 216.696 243.209 216.696 242.442Z" fill="#9C4D4B"/>
</g>
<defs>
<clipPath id="clip0_1266_3609">
<rect width="276.718" height="259" fill="white" transform="translate(0 0.609375)"/>
</clipPath>
</defs>
</svg>
