<svg width="81" height="81" viewBox="0 0 81 81" fill="none" xmlns="http://www.w3.org/2000/svg">
<rect x="0.625" y="0.722656" width="80" height="80" rx="10" fill="#D9D9D9"/>
<path d="M57 26.616L55.384 25L25 55.384L26.616 57L28.9017 54.7143H52.4286C53.0345 54.7134 53.6154 54.4723 54.0438 54.0438C54.4723 53.6154 54.7134 53.0345 54.7143 52.4286V28.9017L57 26.616ZM52.4286 52.4286H31.1874L40.0937 43.5223L42.8126 46.2411C43.2412 46.6696 43.8225 46.9104 44.4286 46.9104C45.0347 46.9104 45.6159 46.6696 46.0446 46.2411L47.8571 44.4286L52.4286 48.9966V52.4286ZM52.4286 45.7634L49.4731 42.808C49.0445 42.3795 48.4632 42.1388 47.8571 42.1388C47.2511 42.1388 46.6698 42.3795 46.2411 42.808L44.4286 44.6206L41.712 41.904L52.4286 31.1874V45.7634ZM29.5714 47.8571V44.4286L35.2857 38.7177L36.8549 40.288L38.4731 38.6697L36.9017 37.0983C36.4731 36.6698 35.8918 36.4291 35.2857 36.4291C34.6796 36.4291 34.0983 36.6698 33.6697 37.0983L29.5714 41.1966V29.5714H47.8571V27.2857H29.5714C28.9652 27.2857 28.3838 27.5265 27.9552 27.9552C27.5265 28.3838 27.2857 28.9652 27.2857 29.5714V47.8571H29.5714Z" fill="#898989"/>
</svg>
