<svg width="258" height="259" viewBox="0 0 258 259" fill="none" xmlns="http://www.w3.org/2000/svg">
<g clip-path="url(#clip0_1266_3437)">
<path d="M206.795 50.487L206.525 51.2256L221.993 56.8799L222.263 56.1413L206.795 50.487Z" fill="#9C4D4B"/>
<path d="M197.931 47.2468L197.661 47.9854L202.596 49.7893L202.866 49.0507L197.931 47.2468Z" fill="#9C4D4B"/>
<path d="M149.06 32.3055L230.767 62.1721C232.991 62.9918 234.8 64.6585 235.799 66.808C236.798 68.9575 236.906 71.4149 236.098 73.6434L173.542 244.793C172.722 247.017 171.055 248.826 168.906 249.825C166.756 250.824 164.299 250.932 162.07 250.124L80.3604 220.264C78.1362 219.443 76.3271 217.776 75.3282 215.626C74.3293 213.476 74.2218 211.018 75.0293 208.789L137.586 37.648C138.405 35.4227 140.072 33.6119 142.222 32.611C144.371 31.61 146.83 31.5002 149.06 32.3055Z" fill="#9C4D4B"/>
<path d="M170.37 243.52L232.853 72.5777C233.406 71.0641 233.335 69.3929 232.656 67.9315C231.977 66.4701 230.745 65.3383 229.231 64.7849L146.427 34.5137C144.914 33.961 143.243 34.032 141.782 34.7112C140.322 35.3903 139.19 36.622 138.637 38.1352L76.1576 209.083C75.6056 210.595 75.6767 212.265 76.3552 213.725C77.0338 215.185 78.2642 216.317 79.7763 216.87L162.58 247.141C164.093 247.694 165.764 247.623 167.225 246.944C168.686 246.264 169.817 245.033 170.37 243.52Z" fill="#F9F9FA"/>
<path d="M197.08 51.8292C195.93 53.3714 194.314 54.5016 192.471 55.0519C190.629 55.6022 188.657 55.5432 186.851 54.8837L185.204 54.2796C183.396 53.6188 181.85 52.3916 180.797 50.781C179.743 49.1703 179.238 47.2623 179.357 45.3413L197.08 51.8292Z" fill="#9C4D4B"/>
<path opacity="0.27" d="M167.968 242.673C168.34 242.808 168.749 242.789 169.108 242.623C169.466 242.456 169.744 242.155 169.88 241.784L231.252 73.8769C231.386 73.5054 231.368 73.0959 231.201 72.7377C231.035 72.3796 230.733 72.1018 230.363 71.9651C229.991 71.8308 229.582 71.8489 229.224 72.0154C228.865 72.182 228.588 72.4834 228.451 72.854L167.088 240.761C166.953 241.132 166.97 241.54 167.135 241.898C167.3 242.256 167.599 242.535 167.968 242.673Z" fill="#8A8A8A"/>
<path opacity="0.27" d="M78.5397 209.986C78.9111 210.121 79.3209 210.103 79.6793 209.937C80.0377 209.77 80.3154 209.468 80.4515 209.097L141.823 41.1897C141.956 40.8182 141.938 40.409 141.772 40.051C141.605 39.6931 141.304 39.4152 140.934 39.2779C140.563 39.1428 140.153 39.1605 139.794 39.3272C139.436 39.4938 139.158 39.7958 139.022 40.1668L77.6507 208.074C77.5156 208.446 77.5333 208.856 77.7 209.214C77.8666 209.572 78.1686 209.85 78.5397 209.986Z" fill="#8A8A8A"/>
<path d="M159.138 237.012C158.697 237.012 158.257 236.978 157.822 236.909L80.4259 224.942C78.18 224.591 76.1644 223.365 74.8199 221.532C73.4754 219.699 72.9115 217.408 73.2513 215.161L98.4991 51.7864C98.6711 50.6717 99.0611 49.6018 99.6466 48.6378C100.232 47.6738 101.002 46.8346 101.912 46.1681C102.822 45.5015 103.854 45.0208 104.95 44.7533C106.046 44.4858 107.183 44.4368 108.298 44.609L185.694 56.5761C187.945 56.9242 189.965 58.1521 191.31 59.9897C192.656 61.8273 193.216 64.1242 192.868 66.375L167.621 229.735C167.296 231.755 166.266 233.595 164.713 234.928C163.16 236.26 161.185 236.999 159.138 237.012ZM106.967 46.9939C105.514 46.9979 104.111 47.5205 103.009 48.4676C101.907 49.4146 101.18 50.7239 100.958 52.1597L75.716 215.531C75.5936 216.322 75.6282 217.129 75.8179 217.907C76.0076 218.684 76.3486 219.416 76.8214 220.062C77.2943 220.708 77.8897 221.254 78.5737 221.669C79.2577 222.085 80.0168 222.361 80.8077 222.483L158.204 234.45C159.801 234.695 161.429 234.297 162.733 233.342C164.036 232.388 164.908 230.955 165.156 229.359L190.404 65.9874C190.529 65.1961 190.496 64.388 190.309 63.6092C190.121 62.8304 189.781 62.0963 189.309 61.4489C188.837 60.8016 188.242 60.2536 187.559 59.8365C186.875 59.4194 186.115 59.1412 185.324 59.018L107.928 47.0509C107.609 47.0071 107.288 46.9881 106.967 46.9939Z" fill="#9C4D4B"/>
<path d="M173.165 122.293C172.776 122.292 172.388 122.261 172.003 122.202L101.534 111.311C99.57 111.007 97.8074 109.936 96.6323 108.333C95.4572 106.731 94.9655 104.728 95.2652 102.764L100.428 69.361C100.731 67.3967 101.802 65.6331 103.405 64.4577C105.008 63.2824 107.011 62.7913 108.976 63.0925L179.448 73.9826C181.414 74.2886 183.178 75.362 184.353 76.9672C185.529 78.5725 186.019 80.5784 185.717 82.5448L180.565 115.933C180.292 117.703 179.395 119.316 178.037 120.482C176.678 121.648 174.947 122.291 173.157 122.293H173.165ZM107.822 63.7735C106.22 63.7779 104.672 64.3545 103.457 65.3994C102.243 66.4442 101.441 67.8886 101.197 69.4721L96.0402 102.869C95.9052 103.741 95.9433 104.631 96.1524 105.488C96.3614 106.346 96.7373 107.153 97.2585 107.865C97.7798 108.577 98.4362 109.18 99.1903 109.638C99.9443 110.096 100.781 110.402 101.653 110.536L172.123 121.418C172.995 121.553 173.885 121.515 174.742 121.306C175.599 121.097 176.407 120.721 177.119 120.2C177.831 119.678 178.433 119.022 178.892 118.268C179.35 117.514 179.655 116.677 179.79 115.805L184.953 82.408C185.223 80.6476 184.783 78.8523 183.731 77.4155C182.679 75.9787 181.1 75.0178 179.34 74.7433L108.868 63.8618C108.522 63.8053 108.172 63.7758 107.822 63.7735Z" fill="#8A8A8A"/>
<path d="M163.777 173.068C163.3 173.068 162.824 173.032 162.352 172.959L95.4133 162.613C94.2077 162.426 93.0508 162.004 92.0085 161.369C90.9663 160.735 90.0592 159.902 89.339 158.917C88.6188 157.932 88.0996 156.815 87.8111 155.63C87.5226 154.445 87.4704 153.214 87.6575 152.008C87.8445 150.803 88.2673 149.646 88.9015 148.604C89.5357 147.561 90.369 146.654 91.3537 145.934C92.3385 145.214 93.4555 144.695 94.6409 144.406C95.8264 144.118 97.057 144.065 98.2626 144.252L165.202 154.595C167.513 154.956 169.603 156.175 171.055 158.01C172.506 159.844 173.213 162.158 173.033 164.49C172.853 166.823 171.8 169.001 170.084 170.591C168.369 172.181 166.116 173.066 163.777 173.068ZM96.818 144.928C94.6755 144.929 92.6123 145.739 91.041 147.195C89.4697 148.652 88.506 150.648 88.3426 152.784C88.1792 154.921 88.8281 157.04 90.1596 158.718C91.491 160.397 93.407 161.511 95.5244 161.838L162.463 172.181C164.692 172.523 166.965 171.967 168.784 170.636C170.603 169.304 171.82 167.305 172.168 165.078C172.339 163.974 172.29 162.848 172.026 161.763C171.761 160.677 171.285 159.655 170.625 158.754C169.965 157.853 169.134 157.09 168.18 156.51C167.225 155.93 166.166 155.544 165.062 155.373L98.1344 145.027C97.7017 144.96 97.2644 144.927 96.8266 144.928H96.818Z" fill="#8A8A8A"/>
<path d="M160.378 195.067C159.901 195.067 159.425 195.029 158.953 194.956L92.0142 184.613C90.8084 184.426 89.6513 184.003 88.6089 183.369C87.5665 182.734 86.6592 181.901 85.9389 180.916C85.2185 179.931 84.6993 178.814 84.4107 177.629C84.1221 176.443 84.0698 175.212 84.2569 174.006C84.444 172.801 84.8668 171.643 85.5011 170.601C86.1353 169.559 86.9687 168.651 87.9536 167.931C89.9428 166.476 92.4283 165.871 94.8635 166.249L161.802 176.595C164.114 176.956 166.204 178.175 167.656 180.009C169.107 181.843 169.814 184.158 169.634 186.49C169.454 188.822 168.401 191.001 166.685 192.591C164.969 194.181 162.717 195.065 160.378 195.067ZM93.4189 166.924C91.2773 166.928 89.2161 167.74 87.647 169.198C86.0778 170.655 85.1163 172.651 84.9544 174.787C84.7925 176.922 85.4421 179.04 86.7736 180.717C88.105 182.395 90.0202 183.508 92.1367 183.835L159.076 194.181C161.305 194.525 163.58 193.97 165.4 192.638C167.22 191.305 168.436 189.304 168.78 187.075C169.125 184.845 168.57 182.571 167.237 180.751C165.905 178.931 163.904 177.715 161.674 177.37L94.7353 167.027C94.2988 166.959 93.8578 166.925 93.4161 166.924H93.4189Z" fill="#8A8A8A"/>
<path d="M156.993 217.067C156.511 217.066 156.03 217.029 155.554 216.955L88.6147 206.612C87.4091 206.425 86.2522 206.003 85.21 205.368C84.1677 204.734 83.2606 203.901 82.5404 202.916C81.8202 201.931 81.3011 200.814 81.0125 199.629C80.724 198.444 80.6718 197.213 80.8589 196.007C81.046 194.802 81.4687 193.645 82.1029 192.603C82.7371 191.56 83.5704 190.653 84.5552 189.933C85.54 189.213 86.657 188.694 87.8424 188.405C89.0278 188.117 90.2585 188.064 91.4641 188.251L158.4 198.597C160.835 198.974 163.021 200.302 164.477 202.289C165.933 204.277 166.54 206.762 166.165 209.197C165.825 211.385 164.716 213.38 163.037 214.823C161.358 216.267 159.218 217.063 157.004 217.069L156.993 217.067ZM90.0337 188.924C87.8904 188.923 85.8258 189.731 84.2529 191.187C82.6799 192.643 81.7146 194.639 81.5501 196.776C81.3855 198.913 82.0339 201.033 83.3654 202.713C84.6969 204.392 86.6134 205.507 88.7316 205.835L155.671 216.18C157.897 216.52 160.168 215.963 161.984 214.631C163.8 213.298 165.014 211.3 165.358 209.074C165.53 207.97 165.482 206.843 165.217 205.758C164.953 204.673 164.477 203.65 163.817 202.749C163.157 201.847 162.326 201.085 161.371 200.505C160.416 199.925 159.356 199.539 158.252 199.37L91.333 189.024C90.9011 188.958 90.4649 188.925 90.028 188.924H90.0337Z" fill="#8A8A8A"/>
<path d="M168.826 138.48C168.657 138.479 168.488 138.466 168.321 138.44L134.836 133.265C133.982 133.128 133.217 132.659 132.708 131.96C132.198 131.26 131.987 130.388 132.119 129.533C132.251 128.678 132.716 127.91 133.413 127.397C134.109 126.884 134.981 126.667 135.836 126.794L169.322 131.96C169.747 132.025 170.154 132.173 170.522 132.396C170.89 132.619 171.21 132.912 171.464 133.259C171.718 133.606 171.901 133.999 172.003 134.417C172.105 134.835 172.123 135.268 172.057 135.693C171.94 136.467 171.55 137.173 170.957 137.684C170.364 138.195 169.608 138.477 168.826 138.48ZM135.335 127.541C134.71 127.545 134.109 127.783 133.652 128.209C133.195 128.635 132.914 129.218 132.867 129.841C132.819 130.464 133.007 131.083 133.394 131.573C133.781 132.064 134.339 132.391 134.956 132.49L168.441 137.659C168.765 137.71 169.096 137.697 169.414 137.62C169.733 137.543 170.033 137.404 170.298 137.21C170.562 137.017 170.786 136.774 170.957 136.494C171.127 136.214 171.24 135.903 171.29 135.579C171.342 135.255 171.328 134.925 171.251 134.606C171.174 134.287 171.035 133.987 170.842 133.722C170.649 133.458 170.405 133.234 170.125 133.063C169.845 132.893 169.534 132.78 169.21 132.73L135.717 127.572C135.59 127.552 135.463 127.542 135.335 127.541Z" fill="#8A8A8A"/>
<path d="M167.373 147.948C167.205 147.949 167.037 147.935 166.871 147.908L119.288 140.557C118.433 140.42 117.668 139.95 117.159 139.251C116.65 138.552 116.438 137.679 116.57 136.824C116.702 135.969 117.168 135.201 117.864 134.688C118.561 134.175 119.432 133.959 120.288 134.086L167.871 141.44C168.729 141.573 169.498 142.041 170.011 142.741C170.523 143.441 170.738 144.315 170.607 145.173C170.487 145.945 170.095 146.648 169.502 147.157C168.909 147.666 168.154 147.946 167.373 147.948ZM119.789 134.841C119.162 134.841 118.558 135.078 118.098 135.504C117.638 135.93 117.356 136.515 117.308 137.14C117.261 137.765 117.451 138.386 117.841 138.877C118.232 139.367 118.793 139.693 119.413 139.787L166.997 147.142C167.65 147.24 168.315 147.075 168.846 146.683C169.378 146.291 169.732 145.705 169.83 145.052C169.929 144.399 169.764 143.733 169.372 143.202C168.98 142.671 168.393 142.317 167.74 142.218L120.157 134.867C120.035 134.846 119.912 134.835 119.789 134.833V134.841Z" fill="#8A8A8A"/>
<path d="M122.597 95.9118C126.604 91.5427 126.31 84.753 121.941 80.7467C117.572 76.7404 110.782 77.0344 106.776 81.4035C102.769 85.7726 103.063 92.5622 107.432 96.5686C111.801 100.575 118.591 100.281 122.597 95.9118Z" fill="#8A8A8A"/>
<path d="M228.664 117.289C229.194 116.967 229.713 116.628 230.226 116.281C229.719 116.634 229.203 116.973 228.664 117.289Z" fill="#8A8A8A"/>
<path d="M232.141 114.924L233.622 113.799L233.651 113.836L232.161 114.95L232.141 114.924Z" fill="#8A8A8A"/>
<path d="M235.449 112.326L236.859 111.118L236.913 111.178L235.491 112.377L235.449 112.326Z" fill="#8A8A8A"/>
<path d="M238.6 109.542L239.939 108.257L240.019 108.337L238.666 109.613L238.6 109.542Z" fill="#8A8A8A"/>
<path d="M241.586 106.585L242.848 105.223L242.957 105.32L241.68 106.673L241.586 106.585Z" fill="#8A8A8A"/>
<path d="M244.393 103.453L245.569 102.017L245.706 102.128L244.515 103.559L244.393 103.453Z" fill="#8A8A8A"/>
<path d="M246.994 100.156L248.074 98.646L248.245 98.7657L247.151 100.273L246.994 100.156Z" fill="#8A8A8A"/>
<path d="M249.37 96.6942L250.342 95.1128L250.55 95.2353L249.564 96.8167L249.37 96.6942Z" fill="#8A8A8A"/>
<path d="M251.493 93.0731L252.342 91.4233L252.59 91.5459L251.724 93.1956L251.493 93.0731Z" fill="#8A8A8A"/>
<path d="M253.334 89.3004L254.052 87.5908L254.328 87.7019L253.599 89.4172L253.334 89.3004Z" fill="#8A8A8A"/>
<path d="M254.87 85.397L255.439 83.6333L255.741 83.7273L255.16 85.4996L254.87 85.397Z" fill="#8A8A8A"/>
<path d="M256.063 81.3792L256.479 79.5728L256.807 79.6411L256.38 81.459L256.063 81.3792Z" fill="#8A8A8A"/>
<path d="M256.901 77.2705L257.155 75.4355L257.502 75.4783L257.243 77.3246L256.901 77.2705Z" fill="#8A8A8A"/>
<path d="M257.369 73.1051L257.414 72.1819C257.414 71.8713 257.451 71.5636 257.457 71.2559H257.827C257.827 71.5664 257.796 71.877 257.782 72.1876L257.73 73.1193L257.369 73.1051Z" fill="#8A8A8A"/>
<path d="M257.485 68.9137L257.448 67.0617L257.836 67.0503L257.864 68.9137H257.485Z" fill="#8A8A8A"/>
<path d="M257.328 64.7222L257.175 62.8758L257.579 62.8359L257.727 64.6965L257.328 64.7222Z" fill="#8A8A8A"/>
<path d="M256.898 60.5509L256.619 58.7216L257.038 58.6504L257.312 60.4968L256.898 60.5509Z" fill="#8A8A8A"/>
<path d="M256.183 56.4221L255.773 54.6157L256.203 54.5103L256.61 56.3338L256.183 56.4221Z" fill="#8A8A8A"/>
<path d="M255.172 52.3562L254.627 50.584L255.066 50.4443L255.608 52.2309L255.172 52.3562Z" fill="#8A8A8A"/>
<path d="M253.855 48.3784L253.177 46.6574L253.619 46.4722L254.297 48.2131L253.855 48.3784Z" fill="#8A8A8A"/>
<path d="M252.234 44.5177L251.422 42.8537L251.855 42.6343L252.673 44.3125L252.234 44.5177Z" fill="#8A8A8A"/>
<path d="M250.311 40.7994L249.362 39.2095L249.781 38.9502L250.735 40.5572L250.311 40.7994Z" fill="#8A8A8A"/>
<path d="M248.085 37.2519L247.008 35.7475L247.41 35.4512L248.493 36.9727L248.085 37.2519Z" fill="#8A8A8A"/>
<path d="M245.572 33.9069L244.373 32.4965L244.752 32.1631L245.96 33.5877L245.572 33.9069Z" fill="#8A8A8A"/>
<path d="M242.788 30.7814L241.478 29.4735L241.831 29.106L243.153 30.428L242.788 30.7814Z" fill="#8A8A8A"/>
<path d="M239.76 27.892L238.346 26.6953L238.674 26.2964L240.099 27.5073L239.76 27.892Z" fill="#8A8A8A"/>
<path d="M236.509 25.2562L235.007 24.1706L235.306 23.7432L236.819 24.8402L236.509 25.2562Z" fill="#8A8A8A"/>
<path d="M233.064 22.8743L231.488 21.9027L231.759 21.4468L233.346 22.4298L233.064 22.8743Z" fill="#8A8A8A"/>
<path d="M229.456 20.746L227.815 19.8884L228.057 19.4097L229.71 20.2787L229.456 20.746Z" fill="#8A8A8A"/>
<path d="M225.71 18.871L224.017 18.1188L224.231 17.623L225.935 18.381L225.71 18.871Z" fill="#8A8A8A"/>
<path d="M221.849 17.2358L220.114 16.589L220.299 16.0732L222.048 16.7286L221.849 17.2358Z" fill="#8A8A8A"/>
<path d="M217.9 15.8338L216.13 15.2839L216.29 14.7539L218.071 15.3095L217.9 15.8338Z" fill="#8A8A8A"/>
<path d="M213.879 14.6485L212.081 14.1927L212.215 13.6484L214.022 14.1129L213.879 14.6485Z" fill="#8A8A8A"/>
<path d="M209.799 13.6711L207.984 13.2979L208.092 12.7451L209.919 13.1212L209.799 13.6711Z" fill="#8A8A8A"/>
<path d="M205.682 12.8817L203.85 12.5911L203.935 12.0298L205.776 12.3233L205.682 12.8817Z" fill="#8A8A8A"/>
<path d="M201.53 12.2691L199.69 12.0497L199.749 11.4912L201.602 11.7078L201.53 12.2691Z" fill="#8A8A8A"/>
<path d="M197.356 11.819L195.507 11.6709L195.55 11.1152L197.407 11.2606L197.356 11.819Z" fill="#8A8A8A"/>
<path d="M193.171 11.5255L191.316 11.4401L191.338 10.8901L193.199 10.9699L193.171 11.5255Z" fill="#8A8A8A"/>
<path d="M188.974 11.3716L187.119 11.346L187.122 10.8018L188.985 10.8246L188.974 11.3716Z" fill="#8A8A8A"/>
<path d="M184.774 11.3519L182.919 11.3833L182.907 10.8447L184.768 10.8105L184.774 11.3519Z" fill="#8A8A8A"/>
<path d="M180.577 11.4542L178.722 11.5368L178.693 11.0069L180.554 10.9214L180.577 11.4542Z" fill="#8A8A8A"/>
<path d="M176.382 11.6848L174.536 11.8387L174.488 11.3144L176.343 11.1577L176.382 11.6848Z" fill="#8A8A8A"/>
<path d="M172.205 12.0869L170.368 12.3234L170.296 11.8077L172.146 11.5684L172.205 12.0869Z" fill="#8A8A8A"/>
<path d="M168.054 12.6737L166.227 12.9957L166.133 12.4885L167.968 12.1665L168.054 12.6737Z" fill="#8A8A8A"/>
<path d="M163.928 13.4517L162.119 13.8506L162.005 13.3576L163.823 12.9502L163.928 13.4517Z" fill="#8A8A8A"/>
<path d="M159.842 14.4061L158.05 14.8791L157.916 14.3947L159.717 13.916L159.842 14.4061Z" fill="#8A8A8A"/>
<path d="M155.793 15.5173L154.015 16.053L153.87 15.58L155.654 15.0415L155.793 15.5173Z" fill="#8A8A8A"/>
<path d="M151.778 16.7568L150.012 17.3323L149.861 16.865L151.627 16.2866L151.778 16.7568Z" fill="#8A8A8A"/>
<path d="M147.784 18.0705L146.023 18.6603L145.869 18.2044L147.63 17.6089L147.784 18.0705Z" fill="#8A8A8A"/>
<path d="M143.792 19.4008L142.022 19.9764L141.88 19.529L143.644 18.9478L143.792 19.4008Z" fill="#8A8A8A"/>
<path d="M139.777 20.6805L137.993 21.2105L137.868 20.7802L139.643 20.2417L139.777 20.6805Z" fill="#8A8A8A"/>
<path d="M135.728 21.843L133.922 22.3074L133.819 21.8886L135.614 21.4185L135.728 21.843Z" fill="#8A8A8A"/>
<path d="M131.628 22.8371L129.802 23.2075L129.725 22.8029L131.54 22.4268L131.628 22.8371Z" fill="#8A8A8A"/>
<path d="M127.482 23.6153L125.636 23.8831L125.585 23.4928L127.417 23.2192L127.482 23.6153Z" fill="#8A8A8A"/>
<path d="M123.297 24.1538L121.442 24.3105L121.413 23.9372L123.26 23.772L123.297 24.1538Z" fill="#8A8A8A"/>
<path d="M119.091 24.4444L117.228 24.4957L117.222 24.1424L119.074 24.0825L119.091 24.4444Z" fill="#8A8A8A"/>
<path d="M114.874 24.4985L113.011 24.4529L113.022 24.1167L114.877 24.1537L114.874 24.4985Z" fill="#8A8A8A"/>
<path d="M110.66 24.3329L108.805 24.1962L108.831 23.8799L110.68 24.0081L110.66 24.3329Z" fill="#8A8A8A"/>
<path d="M106.463 23.9684L104.614 23.7519L104.651 23.4556L106.494 23.6636L106.463 23.9684Z" fill="#8A8A8A"/>
<path d="M102.283 23.4299L100.445 23.1393L100.491 22.8657L102.326 23.145L102.283 23.4299Z" fill="#8A8A8A"/>
<path d="M98.1287 22.7318L96.3023 22.3757L96.3507 22.1392L98.1772 22.4754L98.1287 22.7318Z" fill="#8A8A8A"/>
<path d="M94.0028 21.8943L92.1877 21.4869L92.2333 21.2817L94.0483 21.6749L94.0028 21.8943Z" fill="#8A8A8A"/>
<path d="M89.9027 20.9398L88.0991 20.4839L88.1419 20.313L89.9455 20.7546L89.9027 20.9398Z" fill="#8A8A8A"/>
<path d="M85.8255 19.8825L84.0333 19.3838L84.0732 19.2471L85.8682 19.7315L85.8255 19.8825Z" fill="#8A8A8A"/>
<path d="M81.7764 18.7344L79.9955 18.1988L80.0269 18.0962L81.8106 18.6148L81.7764 18.7344Z" fill="#8A8A8A"/>
<path d="M77.7503 17.5035L75.9809 16.9393L76.0037 16.8652L77.7788 17.418L77.7503 17.5035Z" fill="#8A8A8A"/>
<path d="M73.75 16.2042L71.9891 15.6087L72.0033 15.5659L73.767 16.15L73.75 16.2042Z" fill="#8A8A8A"/>
<path d="M69.7696 14.8392L68.0173 14.218L68.0201 14.2095L69.7782 14.8164L69.7696 14.8392Z" fill="#8A8A8A"/>
<path d="M60.0048 6.12603L29.463 1.4617L65.7548 0L60.0048 6.12603Z" fill="#9C4D4B"/>
<g style="mix-blend-mode:multiply" opacity="0.45">
<path d="M60.0048 6.09182L60.6744 16.5118L30.3264 1.41895L60.0048 6.09182Z" fill="#D08480"/>
</g>
<g style="mix-blend-mode:multiply" opacity="0.45">
<path d="M58.338 8.03244L60.6744 16.5462L29.463 1.46191L58.338 8.03244Z" fill="#D08480"/>
</g>
<path d="M49.9354 16.4693L58.338 8.03244L29.463 1.46191L49.9354 16.4693Z" fill="#9C4D4B"/>
<path d="M224.023 181.128L253.664 185.787L220.498 173.769L224.023 181.128Z" stroke="#9C4D4B" stroke-width="0.284932" stroke-miterlimit="10"/>
<path d="M224.023 181.128L220.342 190.58L252.869 185.525L224.023 181.128Z" stroke="#9C4D4B" stroke-width="0.284932" stroke-miterlimit="10"/>
<g style="mix-blend-mode:multiply" opacity="0.45">
<path d="M224.023 181.128L220.342 190.58L252.869 185.525L224.023 181.128Z" stroke="#9C4D4B" stroke-width="0.284932" stroke-miterlimit="10"/>
</g>
<path d="M225.006 183.385L220.342 190.579L253.664 185.787L225.006 183.385Z" stroke="#9C4D4B" stroke-width="0.284932" stroke-miterlimit="10"/>
<g style="mix-blend-mode:multiply" opacity="0.2">
<path d="M225.006 183.385L220.342 190.579L253.664 185.787L225.006 183.385Z" stroke="#9C4D4B" stroke-width="0.284932" stroke-miterlimit="10"/>
</g>
<path d="M230.303 193.662L225.006 183.385L253.664 185.787L230.303 193.662Z" stroke="#9C4D4B" stroke-width="0.284932" stroke-miterlimit="10"/>
<path d="M0.137878 238.337C0.251727 238.929 0.422532 239.508 0.647906 240.066H0.630811C0.412993 239.507 0.247964 238.928 0.137878 238.337Z" fill="#8A8A8A"/>
<path d="M1.63669 242.115C1.93538 242.636 2.26062 243.142 2.61115 243.631L2.56841 243.662C2.22365 243.169 1.89883 242.659 1.60535 242.135L1.63669 242.115Z" fill="#8A8A8A"/>
<path d="M4.03587 245.406L5.28672 246.702L5.22688 246.765L3.97888 245.454L4.03587 245.406Z" fill="#8A8A8A"/>
<path d="M6.99905 248.201L8.43795 249.284L8.36672 249.386L6.93066 248.287L6.99905 248.201Z" fill="#8A8A8A"/>
<path d="M10.3413 250.529L11.9056 251.423L11.8258 251.566L10.2672 250.654L10.3413 250.529Z" fill="#8A8A8A"/>
<path d="M13.9371 252.447L15.5812 253.179L15.5042 253.361L13.8602 252.612L13.9371 252.447Z" fill="#8A8A8A"/>
<path d="M17.7011 254.011L19.4021 254.603L19.3252 254.826L17.6241 254.216L17.7011 254.011Z" fill="#8A8A8A"/>
<path d="M21.5761 255.273L23.3142 255.746L23.2458 256.008L21.5049 255.518L21.5761 255.273Z" fill="#8A8A8A"/>
<path d="M25.5281 256.279L27.289 256.652L27.2292 256.946L25.4626 256.561L25.5281 256.279Z" fill="#8A8A8A"/>
<path d="M29.5257 257.068L31.3037 257.356L31.2581 257.672L29.4716 257.373L29.5257 257.068Z" fill="#8A8A8A"/>
<path d="M33.5604 257.669L35.3498 257.877L35.3128 258.216L33.5177 257.997L33.5604 257.669Z" fill="#8A8A8A"/>
<path d="M37.6149 258.103L39.4128 258.245L39.3843 258.604L37.5836 258.45L37.6149 258.103Z" fill="#8A8A8A"/>
<path d="M41.6838 258.387L43.4845 258.473L43.4703 258.852L41.6638 258.758L41.6838 258.387Z" fill="#8A8A8A"/>
<path d="M45.7611 258.544L47.5647 258.578L47.559 258.977L45.7526 258.937L45.7611 258.544Z" fill="#8A8A8A"/>
<path d="M49.8415 258.587L51.6451 258.573L51.6508 258.994L49.8415 259V258.587Z" fill="#8A8A8A"/>
<path d="M53.9216 258.527L55.7252 258.47L55.7394 258.912L53.933 258.96L53.9216 258.527Z" fill="#8A8A8A"/>
<path d="M58.0018 258.373L59.7968 258.262L59.831 258.724L58.0217 258.826L58.0018 258.373Z" fill="#8A8A8A"/>
<path d="M62.0621 258.059L63.8486 257.849L63.9113 258.324L62.1105 258.53L62.0621 258.059Z" fill="#8A8A8A"/>
<path d="M66.0995 257.521L67.8718 257.213L67.9602 257.692L66.1736 258L66.0995 257.521Z" fill="#8A8A8A"/>
<path d="M70.1028 256.766L71.858 256.37L71.9691 256.852L70.2054 257.248L70.1028 256.766Z" fill="#8A8A8A"/>
<path d="M74.0634 255.817L75.7986 255.336L75.9354 255.82L74.1888 256.299L74.0634 255.817Z" fill="#8A8A8A"/>
<path d="M77.9754 254.681L79.6907 254.125L79.8503 254.609L78.1264 255.165L77.9754 254.681Z" fill="#8A8A8A"/>
<path d="M81.8392 253.381L83.5289 252.757L83.7112 253.239L82.013 253.863L81.8392 253.381Z" fill="#8A8A8A"/>
<path d="M85.6488 251.931L87.3157 251.247L87.518 251.729L85.8426 252.412L85.6488 251.931Z" fill="#8A8A8A"/>
<path d="M89.407 250.347L91.051 249.609L91.2704 250.09L89.6207 250.828L89.407 250.347Z" fill="#8A8A8A"/>
<path d="M93.1138 248.643L94.7351 247.856L94.9716 248.338L93.3417 249.124L93.1138 248.643Z" fill="#8A8A8A"/>
<path d="M96.7695 246.836L98.3679 246.007L98.6215 246.486L97.0145 247.318L96.7695 246.836Z" fill="#8A8A8A"/>
<path d="M100.377 244.933L101.958 244.067L102.226 244.546L100.639 245.415L100.377 244.933Z" fill="#8A8A8A"/>
<path d="M103.944 242.95L105.506 242.049L105.785 242.531L104.218 243.428L103.944 242.95Z" fill="#8A8A8A"/>
<path d="M107.469 240.893L109.013 239.964L109.307 240.445L107.754 241.374L107.469 240.893Z" fill="#8A8A8A"/>
<path d="M110.956 238.772L112.489 237.821L112.791 238.302L111.255 239.257L110.956 238.772Z" fill="#8A8A8A"/>
<path d="M114.415 236.604L115.934 235.633L116.239 236.106L114.72 237.083L114.415 236.604Z" fill="#8A8A8A"/>
<path d="M117.846 234.393L119.356 233.402L119.661 233.866L118.154 234.861L117.846 234.393Z" fill="#8A8A8A"/>
<path d="M121.254 232.143L122.753 231.137L123.06 231.593L121.562 232.601L121.254 232.143Z" fill="#8A8A8A"/>
<path d="M124.642 229.86L126.135 228.843L126.44 229.293L124.949 230.31L124.642 229.86Z" fill="#8A8A8A"/>
<path d="M128.015 227.555L129.5 226.529L129.805 226.971L128.32 228L128.015 227.555Z" fill="#8A8A8A"/>
<path d="M131.377 225.233L132.859 224.201L133.161 224.634L131.679 225.669L131.377 225.233Z" fill="#8A8A8A"/>
<path d="M134.731 222.896L136.213 221.865L136.512 222.292L135.03 223.326L134.731 222.896Z" fill="#8A8A8A"/>
<path d="M138.082 220.56L139.563 219.525L139.86 219.947L138.381 220.984L138.082 220.56Z" fill="#8A8A8A"/>
<path d="M141.438 218.223L142.923 217.192L143.211 217.611L141.729 218.642L141.438 218.223Z" fill="#8A8A8A"/>
<path d="M144.801 215.895L146.288 214.873L146.573 215.286L145.085 216.311L144.801 215.895Z" fill="#8A8A8A"/>
<path d="M148.174 213.585L149.67 212.57L149.946 212.981L148.453 213.995L148.174 213.585Z" fill="#8A8A8A"/>
<path d="M151.565 211.299L153.072 210.299L153.34 210.704L151.838 211.707L151.565 211.299Z" fill="#8A8A8A"/>
<path d="M154.978 209.046L156.497 208.063L156.756 208.465L155.243 209.451L154.978 209.046Z" fill="#8A8A8A"/>
<path d="M158.423 206.835L159.956 205.877L160.201 206.268L158.677 207.234L158.423 206.835Z" fill="#8A8A8A"/>
<path d="M161.905 204.684L163.455 203.752L163.68 204.128L162.139 205.065L161.905 204.684Z" fill="#8A8A8A"/>
<path d="M165.424 202.595L166.994 201.697L167.202 202.059L165.64 202.965L165.424 202.595Z" fill="#8A8A8A"/>
<path d="M168.991 200.586L170.584 199.726L170.772 200.076L169.188 200.942L168.991 200.586Z" fill="#8A8A8A"/>
<path d="M172.61 198.669L174.228 197.859L174.396 198.198L172.786 199.013L172.61 198.669Z" fill="#8A8A8A"/>
<path d="M176.288 196.868L177.932 196.116L178.08 196.441L176.445 197.201L176.288 196.868Z" fill="#8A8A8A"/>
<path d="M180.029 195.204L181.705 194.517L181.827 194.831L180.163 195.523L180.029 195.204Z" fill="#8A8A8A"/>
<path d="M183.839 193.699L185.546 193.095L185.648 193.392L183.953 194.004L183.839 193.699Z" fill="#8A8A8A"/>
<path d="M187.72 192.388L189.455 191.878L189.535 192.16L187.808 192.679L187.72 192.388Z" fill="#8A8A8A"/>
<path d="M191.669 191.3L193.435 190.907L193.49 191.167L191.734 191.577L191.669 191.3Z" fill="#8A8A8A"/>
<path d="M195.684 190.488L197.473 190.223L197.504 190.448L195.723 190.73L195.684 190.488Z" fill="#8A8A8A"/>
<path d="M199.747 189.975L201.55 189.858L201.562 190.049L199.764 190.183L199.747 189.975Z" fill="#8A8A8A"/>
<path d="M203.836 189.807L205.645 189.85L205.639 190.007L203.836 189.978V189.807Z" fill="#8A8A8A"/>
<path d="M207.921 189.881L209.728 189.887V190.007L207.921 190.015V189.881Z" fill="#8A8A8A"/>
<path d="M212.01 189.898L213.814 189.907V189.99L212.01 189.998V189.898Z" fill="#8A8A8A"/>
<path d="M216.096 189.916L217.902 189.924V189.97L216.096 189.978V189.916Z" fill="#8A8A8A"/>
<path d="M220.182 189.936L221.988 189.944V189.953L220.182 189.961V189.936Z" fill="#8A8A8A"/>
<path d="M110.358 137.172C110.11 136.807 109.871 136.428 109.628 136.032C109.414 135.665 109.224 135.284 109.059 134.892C107.235 130.636 107.89 124.575 106.517 109.394C106.466 108.824 106.392 108.294 106.309 107.77C106.261 107.485 106.209 107.2 106.144 106.915C105.913 105.778 105.572 104.666 105.124 103.596C105.001 103.288 104.867 102.991 104.728 102.709C104.588 102.427 104.443 102.14 104.283 101.872C104.232 101.778 104.175 101.689 104.121 101.587C104.018 101.412 103.913 101.241 103.804 101.074C103.739 100.971 103.668 100.869 103.599 100.766C103.5 100.618 103.397 100.481 103.292 100.333C103.186 100.185 103.141 100.125 103.064 100.025C102.987 99.9256 102.853 99.7603 102.747 99.6293L102.505 99.3443C102.394 99.2161 102.28 99.0907 102.166 98.9682C102.052 98.8457 102.006 98.7916 101.927 98.7089C101.742 98.5152 101.553 98.33 101.357 98.1391C101.254 98.045 101.152 97.9567 101.052 97.8684L100.744 97.5835C100.63 97.4866 100.513 97.3954 100.399 97.2985L100.115 97.0734C99.993 96.9784 99.8705 96.8835 99.747 96.7885L99.482 96.6004C99.3509 96.5093 99.2199 96.4181 99.0888 96.3326L98.858 96.1816C98.7155 96.0904 98.5731 95.9992 98.4278 95.9137L98.3223 95.8511C97.7658 95.5224 97.2073 95.228 96.6469 94.9678L96.5415 94.9165L96.0286 94.6885L95.8976 94.6316C95.7238 94.5603 95.5528 94.4891 95.3818 94.4236L95.2764 94.3808L94.735 94.1785C94.0199 93.9221 93.3104 93.7141 92.655 93.5403C92.6948 93.2828 92.7157 93.0229 92.7177 92.7624C92.7152 92.4323 92.6818 92.1032 92.618 91.7794C92.6009 91.6882 92.5838 91.597 92.5639 91.4945C92.5439 91.3919 92.5126 91.295 92.4812 91.1953C92.4499 91.0956 92.41 90.9759 92.3701 90.8705C92.3302 90.765 92.316 90.7137 92.2818 90.6368C92.2057 90.4562 92.1191 90.2802 92.0225 90.1097C92.0054 90.0783 91.9855 90.0499 91.9655 90.0185C91.8785 89.8663 91.7834 89.7189 91.6806 89.5769C91.6549 89.5398 91.6264 89.5056 91.6008 89.4714C91.4822 89.3187 91.3557 89.1722 91.2218 89.0326L91.2019 89.0099C90.4659 88.2497 89.521 87.7247 88.4868 87.5014C87.4525 87.2781 86.3752 87.3664 85.3911 87.7552C84.407 88.144 83.5603 88.8159 82.958 89.6858C82.3557 90.5558 82.0248 91.5848 82.0071 92.6427C82.0042 92.6788 82.0042 92.715 82.0071 92.751C82.007 92.9519 82.0184 93.1526 82.0413 93.3522C82.0413 93.4121 82.0613 93.469 82.0698 93.5289C78.0096 94.5803 72.6671 97.0506 69.9146 102.858C69.7836 103.142 69.6497 103.427 69.5328 103.744C69.0993 104.81 68.7729 105.918 68.5584 107.049C68.4985 107.334 68.4501 107.619 68.4074 107.904C68.3333 108.368 68.2677 108.85 68.225 109.345C66.8687 124.344 67.4899 130.43 65.7404 134.687C65.5604 135.135 65.348 135.569 65.105 135.987C64.897 136.343 64.689 136.673 64.4753 136.998C62.0961 140.617 59.5631 142.041 59.5631 142.041L57.2836 142.232L59.5631 144.01C60.1956 144.141 60.8225 144.264 61.4465 144.383L61.9651 144.483C62.4608 144.577 62.9566 144.666 63.4467 144.754L63.8627 144.828C64.4687 144.934 65.0708 145.035 65.6692 145.13L66.1051 145.198C66.5752 145.272 67.0454 145.347 67.5127 145.415L68.0427 145.492L69.7522 145.731L69.9118 145.751C70.456 145.822 70.9945 145.888 71.5302 145.953L72.0744 146.016L73.3737 146.161L73.8239 146.21C74.371 146.264 74.9152 146.318 75.4566 146.367L75.9409 146.409L77.1491 146.512L77.6933 146.555L79.1892 146.66L79.494 146.677L80.6338 146.746C80.6338 146.817 80.6338 146.888 80.6338 146.959C80.6337 148.473 81.1437 149.944 82.0814 151.133C83.0191 152.321 84.3299 153.16 85.8024 153.513H85.7768L85.8822 153.533C86.056 153.573 86.2355 153.604 86.4179 153.629C86.4863 153.629 86.5547 153.652 86.6259 153.658C86.8717 153.688 87.1191 153.703 87.3667 153.704C88.999 153.703 90.5757 153.11 91.8036 152.035C93.0316 150.96 93.8272 149.475 94.0427 147.857C94.0818 147.563 94.1008 147.267 94.0996 146.971C94.0996 146.928 94.0996 146.888 94.0996 146.845H94.2792C95.171 146.805 96.0372 146.757 96.8806 146.706L97.1256 146.689L98.3052 146.606H98.3651L99.6501 146.501H99.69C100.103 146.466 100.508 146.429 100.907 146.389H100.944C104.323 146.065 107.178 145.651 109.423 145.264L109.594 145.235C113.201 144.603 115.182 144.039 115.182 144.039V142.076C115.182 142.076 112.711 140.682 110.358 137.172Z" fill="#8A8A8A"/>
<path d="M78.363 145.212C78.363 145.478 78.3802 145.744 78.4143 146.007C78.6051 147.638 79.3852 149.142 80.6079 150.238C81.8305 151.333 83.4113 151.944 85.0528 151.955C86.6943 151.966 88.2833 151.377 89.5207 150.298C90.7582 149.22 91.5588 147.726 91.7719 146.099C91.8111 145.805 91.8301 145.509 91.8288 145.212C91.8288 143.427 91.1195 141.714 89.8568 140.452C88.5942 139.189 86.8816 138.479 85.0959 138.479C83.3102 138.479 81.5977 139.189 80.335 140.452C79.0723 141.714 78.363 143.427 78.363 145.212Z" fill="#8A8A8A"/>
<path opacity="0.2" d="M78.4143 146.008C78.3802 145.744 78.363 145.479 78.363 145.213C78.3622 144.328 78.5358 143.452 78.8739 142.634C79.2119 141.817 79.7077 141.074 80.333 140.448C80.9583 139.822 81.7008 139.326 82.518 138.987C83.3353 138.648 84.2113 138.474 85.0959 138.474H85.1472C85.2754 138.474 85.4008 138.474 85.529 138.494C85.6572 138.514 85.7142 138.494 85.8139 138.511C85.9621 138.511 86.0989 138.551 86.2527 138.577C86.3297 138.577 86.4038 138.597 86.4778 138.614C86.6288 138.645 86.777 138.685 86.9223 138.728C86.9879 138.745 87.0562 138.759 87.1218 138.779C87.2671 138.825 87.4067 138.882 87.5463 138.936L87.7401 139.007C87.874 139.064 88.0051 139.132 88.1361 139.198C88.1988 139.229 88.2644 139.258 88.327 139.292C88.4524 139.36 88.5692 139.437 88.6889 139.511C88.7516 139.551 88.82 139.588 88.8798 139.631C88.9909 139.705 89.0964 139.788 89.2018 139.867C89.3072 139.947 89.3357 139.964 89.3984 140.018C89.4611 140.073 89.5836 140.184 89.6833 140.269C89.783 140.355 89.8201 140.389 89.8856 140.454C89.9511 140.52 90.0366 140.623 90.1136 140.705C90.1905 140.788 90.2532 140.853 90.3187 140.933C90.3842 141.013 90.4412 141.098 90.5039 141.181C90.5666 141.264 90.6407 141.358 90.7034 141.452C90.7661 141.546 90.8031 141.617 90.8544 141.7C90.9057 141.782 90.9826 141.902 91.0396 142.007C91.0966 142.113 91.1251 142.184 91.1678 142.272C91.2105 142.361 91.2761 142.483 91.3217 142.594C91.3673 142.705 91.3929 142.788 91.4271 142.879C91.4613 142.97 91.5126 143.096 91.5468 143.207C91.581 143.318 91.6009 143.418 91.6294 143.523C91.6579 143.629 91.6892 143.74 91.712 143.851C91.7348 143.962 91.7548 144.119 91.7747 144.253C91.7747 144.341 91.8061 144.429 91.8146 144.52C91.8375 144.749 91.8489 144.978 91.8488 145.207C91.8501 145.503 91.831 145.799 91.7918 146.093C91.577 147.711 90.7815 149.197 89.5534 150.272C88.3253 151.348 86.7483 151.94 85.1159 151.94C84.5801 151.941 84.0463 151.876 83.5259 151.749H83.5858C84.5226 151.751 85.4494 151.557 86.3069 151.179C87.8455 150.495 89.4668 148.874 88.0962 147.173C87.156 146.005 85.5319 146.21 84.2041 146.193C82.2684 146.172 80.3385 146.11 78.4143 146.008Z" fill="#2A2B2A"/>
<path d="M79.7307 91.0041C79.7307 92.4263 80.2956 93.7903 81.3013 94.7959C82.3069 95.8016 83.6709 96.3665 85.0931 96.3665C86.5153 96.3665 87.8792 95.8016 88.8849 94.7959C89.8905 93.7903 90.4555 92.4263 90.4555 91.0041C90.4597 90.9682 90.4597 90.9318 90.4555 90.8959C90.4555 89.4759 89.8914 88.1142 88.8874 87.1101C87.8834 86.1061 86.5216 85.542 85.1016 85.542C83.6817 85.542 82.3199 86.1061 81.3159 87.1101C80.3118 88.1142 79.7478 89.4759 79.7478 90.8959C79.7378 90.9311 79.7321 90.9675 79.7307 91.0041Z" fill="#8A8A8A"/>
<path opacity="0.2" d="M83.7967 96.1988L83.6285 96.156C83.4351 96.0987 83.2449 96.0312 83.0587 95.9537C82.8555 95.8708 82.6576 95.7757 82.466 95.6688L82.4147 95.6346C82.2426 95.5347 82.0761 95.4253 81.9161 95.3069L81.8648 95.267C81.2062 94.7692 80.672 94.1255 80.3042 93.3864C79.9364 92.6472 79.7449 91.8329 79.7449 91.0073C79.7407 90.9713 79.7407 90.935 79.7449 90.899C79.7763 90.7737 81.01 90.6141 81.1696 90.5685C82.3422 90.3187 83.5335 90.1662 84.7312 90.1126C85.3379 90.095 85.9451 90.116 86.5491 90.1753C86.854 90.2038 87.1702 90.2294 87.4723 90.2864C87.7067 90.3676 87.9616 90.3676 88.196 90.2864C88.6262 90.0927 88.6832 89.6567 88.6832 89.235C88.6858 88.2463 88.4103 87.2767 87.8883 86.437C88.9353 87.0714 89.733 88.0459 90.1481 89.1976C90.5632 90.3493 90.5707 91.6086 90.1691 92.7651C89.7676 93.9216 88.9815 94.9054 87.942 95.5521C86.9025 96.1988 85.6726 96.4693 84.4577 96.3184C84.395 96.3184 84.3352 96.3013 84.2753 96.2928C84.1101 96.2681 83.9505 96.2368 83.7967 96.1988Z" fill="#2A2B2A"/>
<path d="M57.3351 140.312V142.284C89.5324 148.908 112.951 142.284 112.951 142.284V140.312C112.951 140.312 110.483 138.921 108.133 135.408C107.882 135.044 107.643 134.665 107.403 134.269C107.188 133.902 106.998 133.521 106.833 133.129C105.013 128.872 105.665 122.811 104.292 107.63C104.243 107.06 104.166 106.53 104.084 106.009C104.035 105.71 103.984 105.439 103.919 105.154C103.688 104.017 103.347 102.906 102.901 101.835C102.776 101.527 102.645 101.231 102.502 100.949C97.6586 91.0444 85.1444 91.0444 85.1444 91.0444C85.1444 91.0444 72.4678 91.0444 67.6895 101.154C67.5556 101.439 67.4245 101.724 67.3077 102.04C66.8732 103.107 66.5459 104.214 66.3304 105.345C66.2734 105.63 66.2221 105.915 66.1822 106.2C66.1053 106.662 66.0398 107.143 65.9999 107.639C64.6408 122.638 65.2619 128.724 63.5153 132.981C63.3343 133.429 63.121 133.863 62.877 134.28C62.669 134.636 62.4639 134.967 62.2473 135.291C59.8682 138.887 57.3351 140.312 57.3351 140.312Z" fill="#8A8A8A"/>
<path d="M62.1987 135.251C70.0897 136.587 78.0784 137.263 86.0817 137.271C93.4582 137.303 100.823 136.673 108.087 135.391C107.836 135.029 107.597 134.647 107.358 134.251C107.142 133.885 106.951 133.504 106.788 133.111C98.6158 134.536 83.0528 136.143 63.478 132.955C63.297 133.403 63.0837 133.837 62.8398 134.254C62.6204 134.596 62.4152 134.929 62.1987 135.251Z" fill="#2A2B2A"/>
<path d="M67.2593 102.003C82.3065 99.9656 94.7296 100.709 102.853 101.795C102.728 101.487 102.597 101.191 102.454 100.909C94.3563 99.8659 82.241 99.1991 67.6411 101.117C67.5072 101.396 67.3761 101.695 67.2593 102.003Z" fill="#2A2B2A"/>
<path d="M66.1337 106.16C82.4461 103.841 95.7666 104.784 104.03 105.978C103.981 105.678 103.93 105.408 103.864 105.123C95.5586 103.949 82.3748 103.046 66.2762 105.314C66.2221 105.587 66.1736 105.869 66.1337 106.16Z" fill="#2A2B2A"/>
<path opacity="0.2" d="M107.321 143.46C107.215 143.48 107.11 143.497 107.001 143.511C98.1031 145.044 79.8617 146.908 57.2895 142.266V140.403C65.6045 142.117 74.0557 143.088 82.543 143.303C88.8234 143.472 95.1079 143.192 101.348 142.466C102.169 142.369 102.992 142.429 103.426 141.588C104.406 139.693 103.055 137.95 102.047 136.459C101.79 136.08 101.542 135.673 101.291 135.243C101.071 134.855 100.875 134.455 100.704 134.043C98.8239 129.547 99.5049 123.136 98.0888 107.103C98.0375 106.507 97.9549 105.943 97.8723 105.393C97.8238 105.08 97.7725 104.781 97.6985 104.484C97.4639 103.285 97.1147 102.112 96.6556 100.98C96.5217 100.658 96.3906 100.344 96.2396 100.045C93.8405 95.019 89.632 92.409 85.8966 91.0527C88.7203 91.2493 98.3453 92.5258 102.46 100.923C102.602 101.208 102.745 101.493 102.859 101.809C103.304 102.88 103.645 103.992 103.876 105.128C103.941 105.413 103.993 105.698 104.041 105.983C104.124 106.505 104.201 107.043 104.249 107.604C105.622 122.786 104.97 128.846 106.791 133.103C106.954 133.495 107.145 133.876 107.36 134.243C107.6 134.65 107.839 135.032 108.09 135.382C110.441 138.896 112.908 140.286 112.908 140.286V142.258C112.908 142.258 110.928 142.828 107.321 143.46Z" fill="#2A2B2A"/>
<path opacity="0.4" d="M79.7534 92.9731C78.0723 93.7795 76.3856 94.3038 74.8099 95.3666C73.5688 96.196 72.4264 97.1644 71.405 98.2529C66.3303 103.718 67.0797 111.844 66.7207 118.728C66.4357 124.156 66.7463 129.926 64.1848 134.935C63.8081 135.688 63.3777 136.412 62.8969 137.103C62.4695 137.71 61.8198 138.209 61.4722 138.839C66.1551 139.837 70.9308 140.333 75.7188 140.32C74.1887 140.015 72.6729 139.645 71.1599 139.223C69.6469 138.802 66.5241 138.343 66.3161 136.374C66.2935 135.69 66.4199 135.01 66.6865 134.379C67.1424 133.052 67.2563 131.687 67.4558 130.305C67.7389 128.767 67.9047 127.209 67.9516 125.646C67.9972 123.099 68.0171 120.555 68.0798 118.007C68.1567 114.218 68.2394 110.382 69.0657 106.664C69.6125 104.031 70.678 101.533 72.1999 99.3157C74.1404 96.5963 76.7394 94.414 79.7534 92.9731Z" fill="white"/>
<path d="M74.1915 108.168C80.0674 108.168 84.8308 103.405 84.8308 97.529C84.8308 91.653 80.0674 86.8896 74.1915 86.8896C68.3155 86.8896 63.5521 91.653 63.5521 97.529C63.5521 103.405 68.3155 108.168 74.1915 108.168Z" fill="#9C4D4B"/>
<path d="M84.8339 97.5262C84.8347 99.7701 84.1261 101.957 82.8093 103.774C81.4925 105.591 79.635 106.945 77.5023 107.642C75.3696 108.34 73.0709 108.345 70.9349 107.658C68.7989 106.971 66.9349 105.625 65.6095 103.815C67.659 105.326 70.1825 106.052 72.7219 105.862C75.2612 105.671 77.6479 104.575 79.4483 102.775C81.2488 100.974 82.3437 98.5869 82.534 96.0475C82.7244 93.5081 81.9977 90.9847 80.4858 88.9355C81.8366 89.9232 82.9347 91.2163 83.6903 92.7093C84.446 94.2023 84.8378 95.8529 84.8339 97.5262Z" fill="#D08480"/>
<path d="M74.2001 100.219C73.879 100.219 73.57 100.096 73.3371 99.8751C73.1042 99.6539 72.9654 99.3516 72.9493 99.0309L72.6017 92.3749C72.5905 92.158 72.6235 91.9411 72.6988 91.7373C72.774 91.5336 72.8899 91.3473 73.0395 91.1898C73.189 91.0323 73.369 90.9068 73.5685 90.8211C73.7681 90.7353 73.983 90.691 74.2001 90.6909C74.4173 90.691 74.6322 90.7353 74.8318 90.8211C75.0313 90.9068 75.2113 91.0323 75.3608 91.1898C75.5103 91.3473 75.6263 91.5336 75.7015 91.7373C75.7768 91.9411 75.8098 92.158 75.7986 92.3749L75.451 99.0309C75.4349 99.3516 75.296 99.6539 75.0632 99.8751C74.8303 100.096 74.5213 100.219 74.2001 100.219Z" fill="#F9F9FA"/>
<path d="M75.8926 102.664C75.8926 103.002 75.7924 103.332 75.6045 103.613C75.4167 103.895 75.1497 104.114 74.8373 104.243C74.5249 104.373 74.1811 104.406 73.8495 104.34C73.5179 104.274 73.2133 104.112 72.9742 103.873C72.7351 103.633 72.5723 103.329 72.5063 102.997C72.4403 102.666 72.4742 102.322 72.6036 102.009C72.733 101.697 72.9521 101.43 73.2332 101.242C73.5144 101.054 73.8449 100.954 74.183 100.954C74.6364 100.954 75.0713 101.134 75.3919 101.455C75.7125 101.775 75.8926 102.21 75.8926 102.664Z" fill="#F9F9FA"/>
</g>
<defs>
<clipPath id="clip0_1266_3437">
<rect width="257.726" height="259" fill="white" transform="translate(0.136841)"/>
</clipPath>
</defs>
</svg>
