<svg width="336" height="260" viewBox="0 0 336 260" fill="none" xmlns="http://www.w3.org/2000/svg">
<g clip-path="url(#clip0_1266_3319)">
<path d="M59.7873 167.731C59.7961 167.678 59.7921 167.623 59.7757 167.572C59.7592 167.521 59.7308 167.474 59.6928 167.436C59.6548 167.398 59.6082 167.369 59.557 167.353C59.5058 167.336 59.4514 167.332 59.3983 167.341C58.8504 167.419 56.7939 170.016 56.1276 170.846C54.8863 172.39 53.0497 173.298 51.9707 174.964C51.9717 174.97 51.9717 174.977 51.9707 174.984C51.9099 175.082 51.849 175.18 51.7915 175.285C51.77 175.333 51.7599 175.385 51.762 175.438C51.7641 175.49 51.7783 175.541 51.8036 175.587C51.8288 175.633 51.8644 175.673 51.9075 175.703C51.9506 175.732 52 175.752 52.0519 175.759C52.1232 175.972 52.1664 176.193 52.1804 176.416C52.1804 176.833 52.1635 177.249 52.1804 177.669C52.1974 177.981 52.1601 178.59 52.4815 178.776C52.8671 179.003 53.3135 178.404 53.4962 178.174C54.1151 177.466 54.8491 176.89 55.5019 176.227C56.2156 175.474 56.9918 174.783 57.8222 174.161C58.1527 173.882 58.4635 173.579 58.7523 173.257C59.0651 173.01 59.3939 172.783 59.7366 172.58C60.1864 172.255 59.5404 168.811 59.7873 167.731Z" fill="#F9F9FA"/>
<path d="M185.61 88.4395C185.725 83.6108 182.667 79.869 177.245 79.8148C176.258 79.7915 175.275 79.9634 174.354 80.3207C173.433 80.678 172.591 81.2138 171.877 81.8973C171.163 82.5808 170.59 83.3986 170.192 84.3039C169.794 85.2092 169.578 86.1842 169.557 87.1731C169.469 90.776 171.211 95.3947 177.607 95.7097C181.253 95.818 185.535 91.7986 185.61 88.4395Z" fill="#F9F9FA"/>
<path d="M176.048 96.2514C169.49 97.5652 165.583 103.291 162.055 105.814C160.354 106.977 158.52 107.934 156.593 108.665C155.105 109.271 153.407 109.681 152.439 111.036C151.286 112.658 151.925 114.611 153.742 115.417C154.885 115.925 156.048 115.624 157.168 115.102C159.326 114.086 163.706 111.818 165.982 110.724C166.611 108.015 167.355 105.238 168.089 103.007C168.363 104.361 168.059 105.679 167.633 106.948C166.364 110.7 166.381 114.374 164.825 118.438C164.46 119.393 163.899 119.897 163.5 120.659C161.335 124.77 158.741 128.508 154.743 131.102C153.701 131.779 152.784 133.08 153.146 134.488C153.508 135.897 154.026 136.466 155.436 136.903C156.42 137.207 157.695 136.832 158.443 136.341C162.18 133.879 165.793 131.299 168.472 127.58C169.663 125.968 170.957 124.433 172.344 122.985C172.767 122.528 173.4 121.726 174.107 121.936C174.942 122.183 175.05 123.107 175.067 123.859C175.137 126.688 175.112 129.516 174.993 132.345C174.871 135.115 174.654 137.895 174.732 140.665C174.803 143.12 175.564 144.908 178.016 144.881C179.616 144.881 180.54 143.78 180.617 142.937C181.23 136.185 181.795 129.429 182.512 122.687C183.124 116.931 184.203 111.256 185.217 105.563C185.491 104.013 186.936 103.677 187.903 103.01C192.131 100.091 195.486 96.3225 198.75 92.4419C199.543 91.5012 200.277 90.5128 200.949 89.4824C201.747 88.2532 201.943 86.8141 200.925 85.7305C199.907 84.6469 198.266 85.1819 197.269 85.9472C196.091 86.8327 195.032 87.8673 194.12 89.0252C192.54 91.057 190.852 92.4114 188.397 93.1903C186.929 93.6474 181.886 96.4613 179.505 96.2378C178.847 96.3938 178.172 96.4666 177.496 96.4546C176.981 96.3936 176.501 96.3293 176.048 96.2514Z" fill="#F9F9FA"/>
<path d="M229.58 115.776C227.889 115.708 226.36 114.875 226.218 113.237C226.063 111.388 225.88 109.728 225.718 108.117C224.026 108.096 222.728 108.079 222.051 108.079C221.602 108.218 221.162 108.386 220.735 108.584C215.185 111.269 210.325 114.808 204.94 117.703C205.758 118.38 220.675 118.248 227.382 118.468C233.866 118.678 240.343 118.529 246.82 118.292C247.171 118.27 247.51 118.153 247.801 117.953C252.343 114.814 257.752 111.919 262.385 108.327C260.356 108.327 258.908 108.14 257.566 108.225C254.183 108.435 242.991 108.327 233.96 108.225C233.96 109.265 233.926 110.189 233.855 110.934C233.554 113.968 232.489 115.888 229.58 115.776Z" fill="#F9F9FA"/>
<path d="M262.812 109.393C259.237 111.632 255.533 113.69 252.13 116.166C250.598 117.283 249.299 118.167 248.072 118.661C248.14 118.9 248.159 119.15 248.126 119.396C247.957 120.683 248.068 141.007 247.71 149.615C247.371 157.45 246.468 186.585 246.357 193.297C246.089 210.884 246.018 236.823 245.822 254.414C245.822 255.917 246.242 255.308 247.568 254.753C251.129 253.303 254.407 251.333 257.769 249.504C258.479 249.118 258.611 248.613 258.635 247.94C258.719 245.522 258.858 237.395 258.895 234.974C259.074 223.17 259.04 209.51 259.45 197.726C259.825 186.93 259.568 176.125 260.052 165.337C260.343 158.828 262.717 116.474 263.133 109.058L262.764 109.417L262.812 109.393Z" fill="#F9F9FA"/>
<path d="M245.619 119.081C245.176 118.973 242.836 119.081 242.366 119.118C236.122 119.745 229.871 119.301 223.631 119.091C218.101 118.905 211.532 119.193 205.194 118.753C204.159 118.844 204.027 119.091 204.179 121.959C204.396 126.138 205.397 144.986 205.755 150.204C206.212 156.847 210.856 218.307 211.796 228.174C212.435 234.869 212.99 247.022 213.487 253.73C213.612 255.392 213.724 255.89 215.388 255.883C224.321 255.833 235.408 256.131 244.54 256.181C244.628 255.548 244.726 254.512 244.777 254.15C245.477 249.047 245.454 211.253 245.586 200.743C245.772 186.578 247.189 137.966 247.304 127.811C247.334 125.146 247.016 122 247.196 119.345C247.196 119.237 247.196 119.088 247.216 118.939C246.696 119.077 246.156 119.125 245.619 119.081Z" fill="#F9F9FA"/>
<path d="M214.058 68.83C214 68.956 213.93 69.0762 213.849 69.189C212.364 71.5593 211.819 74.2886 211.025 76.9298C210.497 78.7076 209.178 79.9198 207.798 80.9932C206.107 82.3037 202.234 83.3907 200.654 84.3794C200.898 84.4677 201.127 84.5946 201.331 84.7553C202.214 85.4664 202.542 87.5388 202.038 89.0287C203.901 89.0558 207.605 88.1415 209.019 87.83C214.133 86.7058 217.448 83.7361 218.888 78.6635C219.118 77.8509 219.626 77.1194 220.005 76.3474L220.471 76.5573C219.922 78.4796 219.162 80.3352 218.205 82.0904C218.436 82.2559 218.618 82.4804 218.733 82.7405C220.918 86.5128 223.343 89.3165 224.791 93.4375C225.415 95.5268 225.787 97.6833 225.9 99.8611C225.87 99.8611 226.37 107.758 226.719 111.713C226.942 114.263 228.176 115.001 230.202 115.099C231.789 115.167 232.627 113.606 232.908 111.689C233.246 109.481 232.908 97.2267 232.824 93.3359C232.824 92.828 232.824 91.3516 233.209 91.7038C235.871 94.0741 238.249 96.7526 242.051 97.2707C244.794 97.6466 247.848 98.1342 249.83 98.4694C252.39 98.9062 254.058 97.8193 254.004 95.7808C253.977 94.836 253.666 93.9455 252.651 93.7491C251.9 93.6136 249.867 93.0075 249.113 92.9093C243.481 92.1508 241.472 88.7239 238.12 84.7181C233.663 79.3047 228.901 74.1504 223.857 69.2804C222.112 67.6212 220.204 66.0974 217.607 65.989C217.557 65.9925 217.507 65.9925 217.458 65.989C216.63 67.2517 215.447 68.2404 214.058 68.83Z" fill="#F9F9FA"/>
<path d="M217.779 61.7767C217.888 57.273 214.458 53.7141 209.787 53.7345C206.029 53.7345 202.88 57.0495 202.836 60.7879C202.779 65.5286 205.88 68.6947 210.639 68.7522C214.674 68.7997 217.681 65.8638 217.779 61.7767Z" fill="#F9F9FA"/>
<path d="M37.6601 235.102C37.6448 235.252 37.6165 235.401 37.5755 235.546C37.0884 239.342 36.5608 251.217 36.0298 255.006C35.9249 255.751 35.6915 256.727 35.519 257.949C38.0727 256.466 41.083 254.519 43.5419 253.063C44.2793 252.626 44.3943 251.823 44.4924 251.055C45.0471 246.653 46.0516 236.643 46.9885 232.322C47.1475 231.591 47.6312 230.697 47.5128 229.444C44.8881 231.425 40.4437 232.996 38.208 234.821C38.0118 234.926 37.8326 235.018 37.6601 235.102Z" fill="#F9F9FA"/>
<path d="M79.4723 137.682C79.222 137.739 77.5342 141.613 76.6446 141.799C75.1443 142.989 73.2786 143.622 71.3648 143.59C70.4304 143.583 69.5003 143.462 68.5947 143.232C68.4493 143.784 67.7254 144.552 67.5597 144.826C64.2044 150.37 62.8312 154.379 61.255 160.582C60.2031 165.614 60.6767 169.508 60.4365 172.221C60.8977 172.173 61.3638 172.22 61.8063 172.359C62.2488 172.497 62.6585 172.725 63.0105 173.027C64.3161 174.066 64.4513 175.82 63.7681 177.303C63.5817 177.708 63.3705 178.1 63.1356 178.478C63.8933 180.192 64.7321 182.833 64.4344 184.435C63.9271 187.144 63.484 189.907 64.0725 192.694C64.2291 193.301 64.5769 193.841 65.0643 194.234C65.5517 194.628 66.1528 194.853 66.7784 194.878C68.155 194.915 69.0107 194.739 69.677 193.236C70.2554 191.928 70.9691 187.455 71.1889 184.909C71.7842 182.142 70.9894 178.265 69.8868 172.884C69.8529 172.712 69.7684 172.546 69.7278 172.38C69.5045 171.489 69.4369 170.348 70.137 169.938C70.9522 169.454 71.3006 170.643 71.7335 171.174C73.1135 172.851 74.3785 174.628 75.7551 176.308C77.4192 178.34 77.8893 180.642 77.7845 183.216C77.7445 185.519 77.8213 187.822 78.0145 190.117C78.1633 192.311 80.1284 193.503 82.195 192.761C83.0068 192.474 83.4397 191.996 83.4871 191.099C83.6494 188.095 83.8253 185.092 84.0587 182.095C84.2143 180.063 83.5953 178.269 82.7261 176.508C81.3968 173.799 79.9898 171.147 78.7755 168.401C77.0607 164.521 77.7608 160.535 78.6064 156.597C78.9717 154.904 79.7834 152.425 80.2773 150.641C79.2152 150.979 78.4204 152.334 77.2501 151.694C80.6765 149.413 84.2543 147.368 87.9585 145.575C91.1109 144.027 94.5033 139.3 96.942 137.038C97.0127 136.969 97.0924 136.91 97.1788 136.862C94.6251 136.771 94.0636 132.822 94.6251 130.337C92.4097 127.543 83.6697 136.696 79.4723 137.682Z" fill="#F9F9FA"/>
<path d="M32.9214 236.132C27.212 236.234 21.4959 236.132 15.7831 235.973C12.5631 235.881 9.3567 235.519 6.13672 235.262C6.17105 235.409 6.19367 235.558 6.20437 235.709C6.5426 238.932 7.12436 249.189 7.50994 252.409C7.68921 253.93 8.0545 255.427 8.25067 256.947C8.38258 257.986 8.6092 258.024 9.43787 258.085C12.7323 258.328 28.8423 258.064 33.378 258.278C34.4671 258.328 34.785 257.973 34.9068 256.923C35.4311 252.494 36.0297 240.077 36.6149 235.59C35.2078 236.19 34.6092 236.101 32.9214 236.132Z" fill="#F9F9FA"/>
<path d="M29.4106 233.318C27.043 232.417 26.1872 230.348 27.043 227.643L27.0937 227.484C26.0046 227.582 24.8783 227.355 23.7892 227.314C22.5546 227.27 21.3268 227.216 20.0923 227.209C20.0302 227.209 19.969 227.196 19.913 227.169C18.5432 228.356 17.1006 229.456 15.5938 230.463C14.7008 231.029 13.9026 231.283 12.6647 230.511C12.526 230.426 12.3975 230.335 12.2689 230.24L6.28223 234.232C6.53252 234.429 7.17854 234.341 7.29692 234.358C14.9782 235.262 25.9166 235.6 35.1741 235.255C36.253 235.255 39.314 233.223 43.3593 231.009C44.5668 230.348 47.7259 228.659 46.975 228.3C44.2692 227.782 38.7424 228.354 36.1854 228.049C36.1854 228.049 35.8742 228.462 35.1233 230.778C34.3725 233.095 31.5076 234.117 29.4106 233.318Z" fill="#F9F9FA"/>
<path d="M75.9244 141.278C78.8738 139.513 80.061 134.075 78.1331 130.835C75.9312 127.11 70.878 126.168 67.5227 128.007C63.6128 129.734 61.9892 135.42 64.4042 139.141C66.8192 142.862 71.9367 143.662 75.9244 141.278Z" fill="#F9F9FA"/>
<path d="M14.0513 230.172C15.4042 230.409 16.3073 229.255 17.251 228.544C19.6457 226.739 21.8983 224.748 24.249 222.878C25.6358 221.774 27.0766 219.655 28.5243 216.14C28.5243 216.14 28.5547 215.327 27.6685 212.957C26.7824 210.586 26.6403 208.121 26.3021 205.68C26.3021 205.68 26.3021 205.643 26.3021 205.626C25.2874 207.749 24.1205 210.522 23.2918 212.164C21.3876 215.943 17.4505 219.001 14.3658 221.612C13.4299 222.42 12.5401 223.281 11.7006 224.189C11.2789 224.631 10.9939 225.186 10.8799 225.787C10.7659 226.388 10.8277 227.009 11.0579 227.575C11.616 228.913 12.6341 229.925 14.0513 230.172Z" fill="#F9F9FA"/>
<path d="M44.0458 170.098C43.1372 170.076 42.2333 170.234 41.386 170.563C40.5386 170.892 39.7645 171.386 39.1081 172.015C38.4516 172.644 37.9257 173.397 37.5605 174.23C37.1953 175.063 36.9981 175.96 36.9801 176.87C36.9294 179.074 37.6227 181.685 39.8213 183.273C40.1132 183.17 40.4115 183.085 40.7142 183.019C43.349 182.467 45.8249 181.255 48.4766 180.649C49.5336 180.409 50.5415 179.988 51.4565 179.406C51.6208 178.963 51.7133 178.497 51.7304 178.025C51.8387 173.585 49.028 170.148 44.0458 170.098Z" fill="#F9F9FA"/>
<path d="M59.3305 173.271C58.0554 173.924 57.0069 175.143 56.0835 176.227C53.8613 178.834 51.2738 180.764 47.8205 181.57C45.1349 182.193 42.5609 183.287 39.9329 184.147C38.7525 184.529 37.7634 185.349 37.1695 186.44C34.8526 190.337 32.5323 194.228 30.0159 198.01C27.4994 201.793 26.4712 205.798 27.7396 210.234C28.2232 211.927 28.663 213.658 29.309 215.297C30.4251 218.144 30.4421 220.908 29.1432 223.684C28.5161 225.148 28.0313 226.668 27.6956 228.225C27.1612 230.335 27.973 231.991 29.8704 232.593C30.3171 232.751 30.7908 232.817 31.2635 232.788C31.7362 232.759 32.1983 232.636 32.6225 232.425C33.0467 232.214 33.4243 231.92 33.733 231.56C34.0416 231.201 34.2752 230.783 34.4197 230.331C34.9913 228.784 35.4344 227.179 36.1311 225.692C37.9824 221.782 38.7187 217.436 38.2586 213.133C38.0455 210.986 37.9204 208.799 39.0163 206.75C40.1798 204.566 41.1302 202.263 42.3681 200.127C44.6884 196.117 46.7652 191.888 51.0066 189.399C55.7926 186.595 59.1242 182.562 62.3543 178.225C62.8684 177.547 63.369 176.508 63.4029 176.01C63.4739 173.531 61.3599 172.224 59.3305 173.271Z" fill="#F9F9FA"/>
<path d="M131.831 105.157C132.169 99.7597 128.817 97.0507 124.224 96.7663C119.086 96.448 115.903 99.7631 115.629 103.745C115.318 108.245 117.919 112.231 123.747 112.634C127.826 112.922 131.493 110.172 131.831 105.157Z" fill="#9C4D4B"/>
<path d="M143.723 112.512C139.039 113.636 134.31 113.999 129.558 112.851C129.274 112.783 128.97 112.793 128.685 112.722C128.562 112.692 128.446 112.636 128.347 112.556C127.014 113.242 125.522 113.561 124.025 113.48C122.917 113.428 121.82 113.24 120.757 112.922C117.27 113.463 112.508 115.854 110.164 117.811C106.677 120.723 103.896 124.391 100.206 127.073C98.6436 128.214 92.5385 130.98 94.5781 134.587C95.5048 136.225 97.0945 136.662 98.7485 135.714C100.93 134.483 102.982 133.034 104.874 131.39C107.58 128.908 110.286 127.543 113.015 125.068C114.104 124.079 115.346 124.811 115.383 126.389C115.433 128.576 115.082 130.733 114.706 132.89C113.188 141.603 111.348 150.265 110.695 159.109C110.583 160.664 111.077 161.764 112.745 162.093C114.412 162.421 116.127 161.541 116.658 160.217C117.409 158.385 117.514 156.421 117.848 154.525C118.451 151.091 119.499 147.772 120.216 144.366C120.432 143.507 120.754 142.679 121.177 141.901C121.586 141.088 122.218 140.292 123.206 140.546C124.143 140.77 124.769 141.518 124.972 142.548C125.851 147.055 126.95 151.521 127.566 156.092C127.745 157.447 128.083 158.754 128.296 160.091C128.56 161.761 129.866 162.265 131.141 162.103C132.416 161.94 133.485 161.155 133.566 159.509C133.671 157.257 133.455 155.032 133.346 152.798C133.049 146.841 132.599 140.902 132.054 134.962C131.675 130.804 131.266 126.619 131.716 122.434C131.824 121.377 132.183 120.896 133.37 120.933C139.144 121.113 144.768 120.476 149.886 117.463C149.957 117.419 151.716 116.332 152.592 115.827C150.924 114.777 150.37 112.834 151.384 111.086C149.155 110.785 145.327 112.129 143.723 112.512Z" fill="#9C4D4B"/>
<path d="M102.909 199.981C103.609 210.282 104.583 220.562 105.435 230.853C105.953 237.148 106.49 249.138 106.961 255.447C107.045 256.605 107.421 257.14 108.628 257.174C115.41 257.394 122.184 257.407 128.959 256.991C130.343 256.906 130.901 256.473 130.972 255.041C131.276 248.901 130.995 237.053 131.026 230.914C131.107 214.796 131.169 198.677 131.212 182.559C131.212 178.37 131.327 171.801 130.907 167.619C130.907 167.477 130.877 167.335 130.87 167.196C123.378 167.074 105.865 167.345 101.085 167.145C101.363 168.093 101.271 169.332 101.305 169.935C101.84 179.948 102.232 189.975 102.909 199.981Z" fill="#F9F9FA"/>
<path d="M153.113 147.342C153.079 152.357 153.546 159.99 153.637 164.995C153.853 176.677 154.445 188.332 155.058 200.001C155.761 213.434 156.627 226.86 157.381 240.297C157.527 242.891 157.719 251.19 157.675 253.787C157.655 255.183 158.284 255.839 159.705 255.755C164.826 255.447 169.94 256.327 175.071 255.85C177.354 255.64 179.644 256.131 181.954 255.995C182.968 255.934 183.385 255.846 183.425 254.688C183.763 245.254 185.225 150.268 185.15 147.156C184.517 147.346 183.859 147.443 183.198 147.444C175.835 147.783 168.499 146.767 161.136 147.105C158.467 147.227 155.781 146.889 153.103 146.746C153.116 146.945 153.119 147.144 153.113 147.342Z" fill="#F9F9FA"/>
<path d="M186.056 147.698C185.069 158.195 185.864 171.615 185.322 182.095C185.404 196.923 184.585 243.964 184.281 251.512C184.247 252.281 184.247 253.049 184.203 253.815C184.115 255.227 184.602 255.413 185.793 254.719C189.05 252.816 192.354 250.994 195.635 249.135C196.029 248.936 196.36 248.631 196.59 248.254C196.82 247.877 196.94 247.443 196.937 247.002C197.719 229.732 198.233 206.733 199.437 189.477C199.968 181.885 200.144 174.269 200.232 166.651C200.33 158.571 200.448 148.121 200.729 140.045C200.729 139.931 200.718 139.818 200.695 139.707C195.852 142.216 190.734 143.922 186.033 146.713C186.117 147.035 186.125 147.372 186.056 147.698Z" fill="#F9F9FA"/>
<path d="M101.65 166.325C103.957 166.498 123.203 166.363 129.795 166.41C131.297 166.41 132.46 165.679 133.718 165.018C136.901 163.346 139.617 161.791 142.824 160.169C143.83 159.682 144.762 159.053 145.59 158.3C144.352 158.276 139.658 158.395 134.429 158.514C134.429 158.585 134.429 158.656 134.429 158.727C134.594 161.436 131.821 163.735 129.237 162.607C128.83 162.455 128.468 162.202 128.185 161.872C127.902 161.543 127.706 161.147 127.617 160.721C127.427 160.044 127.278 159.35 127.14 158.656C122.82 158.727 119.076 158.744 117.669 158.622C117.568 159.093 117.466 159.567 117.355 160.037C116.928 161.839 114.561 163.254 112.721 162.929C111.03 162.631 110.13 161.669 109.914 160.075C109.447 160.332 108.879 160.552 108.682 160.715C107.164 161.991 100.338 166.414 101.65 166.325Z" fill="#F9F9FA"/>
<path d="M131.784 238.357C131.817 242.132 131.909 251.617 131.844 255.389C131.821 256.818 132.413 256.906 133.41 256.439C136.238 255.115 139.032 253.73 141.866 252.376C142.587 252.037 142.458 251.431 142.485 250.869C142.746 245.789 142.844 235.008 143.273 229.956C144.227 218.713 144.599 207.454 144.941 196.185C145.238 186.216 145.671 176.25 146.057 166.285C146.125 164.571 146.311 160.904 146.686 159.099C141.772 161.659 137.128 163.894 132.392 166.888C132.201 167.009 131.992 167.099 131.773 167.155C131.773 167.314 131.743 167.473 131.746 167.626C132.213 190.398 131.584 215.554 131.784 238.357Z" fill="#F9F9FA"/>
<path d="M209.554 78.0203C208.977 78.2554 208.387 78.4589 207.788 78.6298C206.415 79.0632 205.038 79.4933 203.651 79.8657C202.265 80.2382 200.743 80.5836 199.427 81.2575C198.432 81.762 196.87 83.3366 197.763 84.6064C198.506 84.2525 199.337 84.1275 200.151 84.2475C200.489 83.3332 202.857 82.4867 203.604 82.2327C206.486 81.2372 208.305 80.1028 209.554 78.0203Z" fill="#F9F9FA"/>
<path d="M181.446 142.04C181.26 144.84 179.917 146.025 177.211 145.456C173.789 144.742 174.167 143.651 174.083 138.281C173.105 138.233 172.125 138.258 171.15 138.355C169.405 138.596 169.03 138.911 167.389 139.71C163.784 141.444 160.09 142.994 156.441 144.633C155.97 144.847 155.544 145.151 154.604 145.703C156.945 145.92 158.771 146.303 160.577 146.221C168.299 145.883 175.997 146.99 183.719 146.56C184.065 146.571 184.409 146.516 184.734 146.398C189.351 144.183 199.078 139.764 199.467 139.422C196.396 139.53 193.352 139.378 190.568 139.226C188.569 139.114 184.72 139.199 182.715 139.165C182.376 139.165 181.886 139.337 181.663 139.114C181.585 140.082 181.51 141.068 181.446 142.04Z" fill="#F9F9FA"/>
<path d="M85.9294 199.754C85.0974 216.258 83.7715 238.976 83.9745 255.521C83.9981 257.553 84.1639 257.682 85.8956 256.811C87.9994 255.751 90.066 254.614 92.1901 253.605C93.127 253.158 93.4788 252.528 93.5194 251.536C93.9456 240.981 94.7269 224.209 94.7607 213.631C94.7844 206.557 95.3695 199.486 95.8126 192.423C95.8369 192.151 95.8221 191.877 95.7686 191.61C93.3401 193.185 89.3151 195.535 87.1843 196.842C85.9497 197.614 86.0005 198.349 85.9294 199.754Z" fill="#F9F9FA"/>
<path d="M85.3036 197.722C85.0398 197.743 84.7929 197.722 84.5629 197.722C79.6754 197.722 70.834 197.631 65.9601 197.661C63.4944 197.661 61.0286 197.868 58.5629 198C57.9609 198.034 57.6531 197.861 57.829 198.775C58.1367 206.401 58.5054 211.843 58.9553 218.246C59.7231 229.014 60.3995 245.501 61.0388 256.276C61.1369 257.969 62.2801 258.2 63.4064 258.274C67.5227 258.542 79.4217 258.772 81.2448 258.755C82.8277 258.755 83.2066 258.013 83.2167 256.581C83.2641 249.673 83.2641 236.528 83.6294 229.624C84.1841 219.194 84.7365 208.765 85.2867 198.335C85.2901 198.125 85.2833 197.915 85.3036 197.722Z" fill="#F9F9FA"/>
<path d="M57.9644 196.964C65.9669 196.882 77.4094 196.744 85.6994 197.021C88.341 195.304 92.6028 192.883 95.4778 191.085C95.1659 190.881 94.7926 190.793 94.4225 190.835C93.171 190.855 88.615 190.804 84.3634 190.764C84.1808 192.484 83.0511 193.669 81.3768 193.787C79.4252 193.926 77.318 192.541 77.203 190.801C77.203 190.77 77.203 190.737 77.203 190.706H76.4894C76.0226 190.706 72.4576 190.919 71.0776 190.74C71.0235 191.135 70.9626 191.535 70.895 191.939C70.6109 193.601 70.161 194.986 68.568 195.477C66.0515 196.273 63.8327 195.382 63.3423 192.768C63.3253 192.68 63.3118 192.589 63.2983 192.497C62.1551 193.459 58.6036 195.833 57.9644 196.964Z" fill="#F9F9FA"/>
<path d="M257.853 108.222L257.671 108.269C252.178 109.901 246.766 111.818 241.121 112.878C238.415 113.382 235.709 113.775 233.003 114.086C232.347 115.214 231.282 115.837 229.587 115.78C228.488 115.736 227.46 115.366 226.834 114.662C221.009 115.075 215.165 115.18 209.296 115.201C207.869 116.064 206.428 116.911 204.947 117.706C205.765 118.384 220.681 118.251 227.389 118.472C233.872 118.682 240.35 118.533 246.827 118.295C247.178 118.273 247.517 118.156 247.808 117.957C252.35 114.818 257.758 111.923 262.392 108.33C260.512 108.343 259.115 108.178 257.853 108.222Z" fill="#F9F9FA"/>
<path d="M262.771 109.434L262.812 109.393C260.735 110.694 258.614 111.936 256.534 113.233C256.453 123.534 256.298 133.834 256.071 144.132C255.692 161.615 255.161 179.098 254.61 196.571C254.342 205.138 254.092 213.698 253.497 222.248C253.06 228.547 252.482 237.182 245.995 240.385L245.9 240.429C245.876 243.239 245.849 251.722 245.822 254.427C245.822 255.931 246.242 255.321 247.568 254.766C251.129 253.317 254.407 251.346 257.769 249.517C258.479 249.131 258.611 248.627 258.635 247.953C258.719 245.535 258.858 237.408 258.895 234.987C259.074 223.183 259.04 209.523 259.45 197.739C259.825 186.944 259.568 176.139 260.052 165.35C260.343 158.842 262.717 116.487 263.133 109.072L262.771 109.434Z" fill="#F9F9FA"/>
<path d="M247.199 119.349C247.199 119.24 247.199 119.091 247.219 118.942C246.702 123.937 246.154 128.928 245.741 133.933C244.365 150.525 244.185 216.302 243.881 220.23C243.563 224.294 243.116 228.54 241.926 232.471C240.032 238.726 234.634 248.021 228.37 248.925C225.461 249.345 222.569 249.545 219.64 249.7C218.415 249.768 217.188 249.836 215.97 249.971C215.831 249.992 215.696 250.012 215.561 250.039C215.063 250.13 214.576 250.239 214.089 250.378C213.815 250.452 213.536 250.505 213.254 250.537C213.335 251.6 213.42 252.667 213.501 253.74C213.626 255.403 213.738 255.9 215.402 255.894C224.334 255.843 235.422 256.141 244.554 256.192C244.642 255.558 244.74 254.522 244.791 254.16C245.491 249.057 245.467 211.264 245.599 200.753C245.785 186.588 247.202 137.976 247.317 127.821C247.338 125.143 247.02 121.997 247.199 119.349Z" fill="#F9F9FA"/>
<path d="M47.5128 229.444C46.8402 229.942 46.1351 230.395 45.4022 230.799C45.1497 232.239 44.861 233.673 44.5363 235.102C43.4709 239.802 41.5971 252.013 36.2462 253.337C36.1752 253.933 36.1008 254.502 36.0298 255.03C35.9249 255.775 35.6915 256.75 35.519 257.973C38.0727 256.49 41.083 254.543 43.5419 253.087C44.2793 252.65 44.3943 251.847 44.4924 251.079C45.0471 246.676 46.0516 236.667 46.9885 232.346C47.1475 231.584 47.6312 230.697 47.5128 229.444Z" fill="#F9F9FA"/>
<path d="M35.1845 236.03C35.254 236.395 35.2858 236.766 35.2792 237.138C35.2352 240.416 34.4031 249.633 31.9611 251.99C29.6848 254.187 26.9316 255.037 23.874 255.376C21.2493 255.677 18.5299 255.43 15.9052 255.257C13.181 255.104 10.4695 254.775 7.7876 254.272C7.94657 255.156 8.12583 256.039 8.23406 256.93C8.36598 257.97 8.59259 258.007 9.42126 258.068C12.7156 258.312 28.8257 258.047 33.3614 258.261C34.4505 258.312 34.7684 257.956 34.8902 256.906C35.4145 252.477 36.0131 240.06 36.5983 235.573C36.1467 235.781 35.6721 235.934 35.1845 236.03Z" fill="#F9F9FA"/>
<path d="M28.176 234.293C24.1984 234.395 20.2445 234.154 16.2702 234.06C13.9026 234.002 11.2543 234.161 9.02868 233.318C8.7378 233.206 8.44692 233.088 8.15942 232.979L6.28223 234.229C6.53252 234.425 7.17854 234.337 7.29692 234.354C14.9782 235.258 25.9166 235.597 35.1741 235.251C36.253 235.251 39.314 233.22 43.3593 231.005C44.0358 230.643 45.2737 229.969 46.143 229.373C40.6535 232.478 34.4796 234.168 28.176 234.293Z" fill="#F9F9FA"/>
<path d="M130.907 167.619C130.907 167.477 130.877 167.335 130.87 167.196C129.595 167.175 128.029 167.165 126.284 167.162C126.521 182.451 126.913 197.739 127.099 213.028C127.194 220.918 127.41 229.282 125.611 237.006C124.708 240.879 123.05 250.963 119.249 252.822C115.9 254.458 112.45 254.123 108.861 254.092C108.167 254.084 107.48 253.952 106.832 253.703C106.876 254.285 106.923 254.864 106.967 255.447C107.052 256.605 107.427 257.14 108.635 257.174C115.416 257.394 122.191 257.407 128.966 256.991C130.349 256.906 130.907 256.473 130.978 255.04C131.283 248.901 131.002 237.053 131.033 230.914C131.114 214.795 131.176 198.677 131.219 182.559C131.219 178.37 131.327 171.801 130.907 167.619Z" fill="#F9F9FA"/>
<path d="M184.314 174.219C184.02 182.779 184.054 191.414 183.279 199.954C182.887 204.234 182.332 208.497 181.832 212.764C181.297 217.284 181.548 221.988 180.354 226.41C178.588 232.932 180.354 246.121 173.217 248.522C170.43 249.46 163.229 249.606 160.307 249.419C159.414 249.365 158.49 249.291 157.56 249.176C157.641 250.713 157.699 252.247 157.675 253.788C157.655 255.183 158.284 255.84 159.704 255.755C164.825 255.447 169.939 256.327 175.07 255.85C177.353 255.64 179.643 256.131 181.953 255.995C182.968 255.934 183.384 255.846 183.425 254.688C183.699 247.103 184.696 182.193 185.038 157.664C184.73 163.183 184.504 168.696 184.314 174.219Z" fill="#F9F9FA"/>
<path d="M200.695 139.717C199.271 140.455 197.824 141.122 196.369 141.769C196.217 144.349 196.092 146.929 196.146 149.516C196.264 155.016 196.508 160.511 196.549 166.017C196.609 174.649 196.592 183.287 196.126 191.895C195.757 198.738 195.03 205.561 194.742 212.405C194.323 221.961 193.948 241.242 184.453 246.23C184.389 248.6 184.335 250.408 184.291 251.509C184.257 252.277 184.257 253.046 184.213 253.811C184.125 255.223 184.612 255.41 185.803 254.715C189.06 252.812 192.365 250.991 195.645 249.132C196.039 248.933 196.37 248.628 196.6 248.251C196.83 247.874 196.951 247.44 196.948 246.998C197.729 229.729 198.243 206.73 199.447 189.474C199.978 181.882 200.154 174.266 200.242 166.647C200.34 158.568 200.458 148.118 200.739 140.042C200.735 139.932 200.721 139.823 200.695 139.717Z" fill="#F9F9FA"/>
<path d="M135.71 158.483L134.435 159.16C134.293 161.673 131.685 163.654 129.247 162.59C129.006 162.485 128.779 162.351 128.57 162.191C127.206 162.83 125.808 163.396 124.383 163.884C117.571 166.153 110.265 165.37 103.21 165.353C102.947 165.353 102.685 165.334 102.425 165.296C101.644 165.926 101.248 166.346 101.66 166.312C103.967 166.484 123.213 166.349 129.805 166.396C131.307 166.396 132.47 165.665 133.728 165.005C136.911 163.332 139.627 161.778 142.834 160.156C143.84 159.669 144.772 159.039 145.6 158.286C144.454 158.28 140.408 158.378 135.71 158.483Z" fill="#F9F9FA"/>
<path d="M144.768 160.085C144.684 165.54 144.403 170.992 144.092 176.443C143.906 179.704 142.353 203.015 142.225 203.848C142.191 204.065 140.246 236.985 140.195 237.314C139.81 240.463 138.075 246.815 135.318 249.098C134.33 249.94 133.127 250.492 131.844 250.692C131.844 252.253 131.844 253.814 131.844 255.372C131.821 256.801 132.413 256.889 133.41 256.422C136.238 255.098 139.032 253.713 141.866 252.358C142.587 252.02 142.458 251.414 142.485 250.852C142.746 245.772 142.844 234.991 143.273 229.938C144.227 218.696 144.599 207.437 144.941 196.168C145.238 186.199 145.671 176.233 146.057 166.268C146.125 164.554 146.311 160.887 146.686 159.082L144.768 160.085Z" fill="#F9F9FA"/>
<path d="M193.21 139.331C189.437 141.155 185.425 142.436 181.294 143.133C180.847 145.138 179.532 145.944 177.211 145.456C175.666 145.135 174.901 144.732 174.506 143.899C169.07 144.207 163.614 143.899 158.172 143.848C157.591 144.103 157.011 144.36 156.434 144.62C155.964 144.833 155.537 145.138 154.597 145.69C156.938 145.907 158.764 146.289 160.57 146.208C168.292 145.869 175.99 146.977 183.712 146.547C184.058 146.558 184.402 146.503 184.727 146.384C189.344 144.169 199.071 139.75 199.46 139.408C197.34 139.48 195.232 139.419 193.21 139.331Z" fill="#F9F9FA"/>
<path d="M95.7686 191.627C95.1463 192.027 94.4157 192.48 93.6513 192.951C93.8035 201.471 91.3006 233.765 91.1856 234.75C91.0706 236.904 90.729 244.685 89.7481 246.636C88.5406 249.04 86.4233 250.178 83.9609 250.635C83.9609 252.274 83.9609 253.909 83.9609 255.538C83.9846 257.57 84.1503 257.698 85.8821 256.828C87.9859 255.768 90.0525 254.631 92.1766 253.621C93.1135 253.174 93.4653 252.545 93.5059 251.552C93.932 240.998 94.7134 224.226 94.7472 213.647C94.7709 206.574 95.356 199.503 95.7991 192.44C95.8279 192.169 95.8176 191.895 95.7686 191.627Z" fill="#F9F9FA"/>
<path d="M84.5628 197.722H83.6259C83.7882 208.182 79.7937 249.358 77.8387 251.563C75.4711 254.272 70.2623 254.136 66.7345 253.882C64.7377 253.687 62.7589 253.338 60.8154 252.839C60.8865 253.984 60.9541 255.132 61.0251 256.276C61.1232 257.969 62.2665 258.2 63.3928 258.274C67.5091 258.542 79.4081 258.772 81.2312 258.755C82.8141 258.755 83.1929 258.013 83.2031 256.581C83.2504 249.673 83.2504 236.528 83.6157 229.624C84.1704 219.194 84.7229 208.765 85.2731 198.335C85.2731 198.129 85.2731 197.919 85.2967 197.722C85.0397 197.739 84.7928 197.722 84.5628 197.722Z" fill="#F9F9FA"/>
<path d="M89.2881 190.811C87.317 191.67 85.2977 192.414 83.2405 193.039C82.7137 193.488 82.0541 193.751 81.3633 193.787C81.1282 193.809 80.8915 193.809 80.6564 193.787C79.7432 194.027 78.8311 194.253 77.9201 194.465C72.0619 195.765 65.5678 196.896 59.6555 195.321C58.8708 195.961 58.2146 196.564 57.9644 196.991C65.9669 196.91 77.4094 196.771 85.6994 197.048C88.341 195.332 92.6028 192.91 95.4778 191.112C95.1659 190.908 94.7926 190.82 94.4225 190.862C93.6479 190.848 91.6726 190.835 89.2881 190.811Z" fill="#F9F9FA"/>
<path d="M62.8312 177.835C62.9293 178.028 63.0308 178.245 63.1322 178.479C63.3671 178.1 63.5783 177.708 63.7647 177.304C64.4412 175.82 64.3127 174.066 63.0071 173.027C62.6551 172.725 62.2454 172.497 61.8029 172.359C61.3604 172.22 60.8944 172.173 60.4331 172.221C60.4331 172.366 60.4061 172.512 60.3892 172.651C59.9901 173.095 59.8108 172.82 59.7127 172.383C59.3615 172.507 59.0274 172.674 58.7183 172.881C57.4123 173.795 56.228 174.871 55.1939 176.085C54.3825 177.01 53.493 177.865 52.5354 178.638C52.5259 178.853 52.5044 179.068 52.4711 179.281C52.0856 179.41 51.7034 179.552 51.3313 179.711C51.3719 179.61 51.4091 179.508 51.4429 179.406C50.528 179.988 49.5201 180.409 48.4631 180.649C45.8113 181.245 43.3355 182.457 40.7006 183.019C40.3979 183.085 40.0997 183.17 39.8077 183.273C39.9328 183.365 40.058 183.453 40.1933 183.538C39.8787 183.69 39.5676 183.852 39.2665 184.029C39.1211 183.927 38.9858 183.822 38.8539 183.717C37.7783 184.384 36.892 185.317 36.2799 186.426C33.5741 190.855 30.8141 195.23 28.1623 199.7C27.3743 201.027 26.5828 202.429 26.3224 203.939C25.3922 205.294 23.931 209.252 23.4575 210.062C21.2489 213.824 19.0605 217.562 15.2351 220.041C14.0046 220.854 12.8699 221.803 11.8528 222.872C9.77262 224.947 9.75233 227.839 11.6701 229.729C9.97894 230.782 6.79617 232.935 5.28089 233.904C5.14866 233.975 5.04276 234.087 4.97881 234.223C4.91487 234.359 4.89627 234.512 4.92574 234.659C4.96108 234.791 5.03535 234.909 5.13883 234.998C5.07447 235.28 5.09327 235.575 5.19295 235.848C6.24823 240.764 6.58309 252.839 7.44896 257.78C7.6147 258.728 7.92249 259.067 8.87292 259.104C12.1707 259.236 29.1263 258.66 34.2945 259.402C34.9473 259.493 35.3092 259.128 35.8741 258.83C38.1673 257.607 39.3409 256.236 41.2858 255.244C43.6534 254.042 45.0063 253.07 45.2769 251.857C45.3006 251.752 45.5949 249.257 45.6152 249.148C46.1462 244.509 47.6682 234.351 48.2906 229.732C48.5578 227.731 48.25 227.423 46.18 227.406C43.3524 227.382 39.7333 227.291 36.9023 227.284C35.7557 227.284 36.1988 227.013 36.8076 225.879C38.8776 222.015 39.3781 217.853 39.0365 213.536C38.952 212.483 39.0365 211.413 39.0162 210.349C39.0236 208.866 39.399 207.408 40.1087 206.107C41.1234 204.109 42.0908 202.084 43.2137 200.15C45.4055 196.388 47.4552 192.497 51.426 190.185C54.0623 188.607 56.3975 186.573 58.3226 184.178C59.7533 182.451 61.3667 181.011 62.6452 179.23L62.5945 179.135C62.3983 178.783 62.493 178.347 62.8312 177.835ZM11.0511 227.589C10.8209 227.022 10.7591 226.401 10.8731 225.801C10.9871 225.2 11.2721 224.645 11.6938 224.202C12.5333 223.294 13.4231 222.434 14.3591 221.626C17.4437 219.015 21.3808 215.957 23.285 212.178C24.1137 210.536 25.2738 207.776 26.2953 205.639C26.2953 205.639 26.2953 205.677 26.2953 205.693C26.6335 208.135 26.7891 210.62 27.6651 212.97C28.5412 215.32 28.5209 216.153 28.5209 216.153C27.0732 219.668 25.6324 221.788 24.2456 222.892C21.878 224.761 19.6423 226.752 17.2476 228.557C16.3039 229.268 15.3941 230.423 14.0479 230.186C12.6341 229.925 11.616 228.913 11.0511 227.589ZM28.8997 216.953C29.3225 217.586 29.4476 218.862 29.4612 219.353C29.4613 219.883 29.3745 220.409 29.2041 220.911C28.602 222.841 27.9763 224.761 27.3574 226.668C27.3225 226.664 27.2874 226.664 27.2525 226.668C26.116 226.803 24.9356 226.549 23.7958 226.512C22.8047 226.478 21.8137 226.434 20.8227 226.417C21.4417 225.916 22.0708 225.425 22.7236 224.968C24.9447 223.416 26.7537 221.344 27.9932 218.933C28.2131 218.524 28.8997 216.953 28.8997 216.953ZM33.3779 258.264C28.8422 258.051 12.7457 258.315 9.43777 258.071C8.6091 258.01 8.38248 257.973 8.25057 256.933C8.0544 255.413 7.68911 253.916 7.50984 252.396C7.12426 249.176 6.54926 238.919 6.20426 235.695C6.19357 235.545 6.17095 235.395 6.13662 235.248C9.35321 235.506 12.563 235.868 15.783 235.959C21.4958 236.125 27.2119 236.22 32.9213 236.118C34.6124 236.088 35.2077 236.176 36.6148 235.58C36.0296 240.08 35.431 252.511 34.9067 256.913C34.7849 257.973 34.467 258.335 33.3779 258.278V258.264ZM46.9884 232.309C46.0515 236.63 45.0469 246.646 44.4922 251.041C44.3941 251.81 44.2791 252.613 43.5418 253.049C41.0828 254.505 38.0726 256.453 35.5189 257.936C35.6745 256.713 35.9248 255.738 36.0296 254.993C36.5607 251.204 37.0883 239.329 37.5754 235.533C37.6164 235.387 37.6447 235.239 37.6599 235.089C37.8324 235.004 37.9982 234.913 38.2079 234.808C40.4436 232.983 44.888 231.422 47.5126 229.431C47.631 230.697 47.1474 231.584 46.9884 232.322V232.309ZM36.2021 228.029C38.7592 228.334 44.269 227.761 46.9918 228.279C47.7426 228.645 44.5835 230.335 43.3761 230.988C39.3173 233.2 36.2732 235.245 35.1908 235.235C25.9334 235.573 14.9949 235.235 7.31367 234.337C7.17838 234.32 6.53235 234.408 6.29897 234.212L12.2755 230.23C12.4041 230.325 12.5326 230.416 12.6713 230.501C13.916 231.273 14.7007 231.019 15.6004 230.453C17.1065 229.454 18.5491 228.361 19.9196 227.182C19.9756 227.209 20.0368 227.223 20.0989 227.223C21.3334 227.223 22.5612 227.284 23.7958 227.328C24.8849 227.368 26.0112 227.595 27.1003 227.497L27.0496 227.656C26.1871 230.365 27.0496 232.431 29.4172 233.332C31.5142 234.131 34.3791 233.152 35.1469 230.785C35.9146 228.418 36.2021 228.042 36.2021 228.042V228.029ZM50.9931 189.399C46.7415 191.888 44.6749 196.117 42.3546 200.127C41.1167 202.263 40.1662 204.566 39.0027 206.75C37.9102 208.799 38.032 210.986 38.2451 213.133C38.703 217.436 37.9644 221.783 36.1108 225.692C35.4107 227.179 34.971 228.784 34.3994 230.331C34.2554 230.781 34.023 231.198 33.7161 231.556C33.4091 231.915 33.0336 232.208 32.6117 232.42C32.1898 232.631 31.73 232.756 31.2592 232.787C30.7885 232.818 30.3163 232.754 29.8704 232.6C27.9729 231.997 27.1646 230.342 27.6956 228.232C28.0313 226.675 28.5161 225.155 29.1432 223.691C30.442 220.914 30.4251 218.151 29.309 215.303C28.6629 213.665 28.2232 211.941 27.7396 210.241C26.4712 205.795 27.4825 201.816 30.0159 198.017C32.5492 194.218 34.8526 190.344 37.1695 186.446C37.7634 185.356 38.7525 184.536 39.9328 184.154C42.5609 183.294 45.1349 182.2 47.8204 181.577C51.2738 180.771 53.8613 178.841 56.0835 176.234C57.0068 175.15 58.0554 173.931 59.3305 173.277C61.3599 172.231 63.4739 173.538 63.3893 175.986C63.3622 176.484 62.8549 177.51 62.3408 178.201C59.1107 182.562 55.7858 186.595 50.9931 189.399Z" fill="#9C4D4B"/>
<path d="M200.695 139.717C200.718 139.828 200.729 139.942 200.729 140.055C200.448 148.131 200.33 158.581 200.232 166.661C200.144 174.28 199.968 181.898 199.437 189.487C198.233 206.757 197.719 229.739 196.937 247.012C196.94 247.453 196.82 247.887 196.59 248.264C196.36 248.641 196.029 248.946 195.635 249.145C192.354 251.004 189.05 252.826 185.792 254.729C184.602 255.423 184.101 255.237 184.203 253.825C184.247 253.059 184.247 252.291 184.281 251.522C184.585 243.978 185.403 196.937 185.322 182.105C185.863 171.608 185.069 158.195 186.056 147.708C186.122 147.386 186.112 147.054 186.029 146.736L185.83 146.851C185.616 146.978 185.389 147.082 185.153 147.159C185.228 150.271 183.766 245.258 183.428 254.692C183.388 255.85 182.982 255.938 181.957 255.999C179.647 256.134 177.357 255.643 175.074 255.853C169.943 256.33 164.829 255.45 159.708 255.758C158.281 255.843 157.651 255.186 157.679 253.791C157.716 251.194 157.53 242.894 157.384 240.3C156.63 226.871 155.764 213.444 155.061 200.004C154.448 188.336 153.856 176.68 153.64 164.998C153.549 159.993 153.082 152.361 153.116 147.346C153.126 147.146 153.126 146.946 153.116 146.746H153.035C152.74 146.746 152.375 146.784 152.192 146.557C152.192 146.641 152.192 146.723 152.192 146.807C152.476 155.175 152.869 166.176 153.014 174.547C153.187 184.882 154.046 195.176 154.574 205.487C155.111 215.984 155.737 226.481 156.393 236.951C156.637 240.835 157.053 250.418 157.07 254.322C157.07 256.805 157.215 256.784 159.705 256.801C166.949 256.845 174.205 256.723 181.436 257.069C183.553 257.17 184.883 256.49 186.445 255.433C189.709 253.229 193.081 251.173 196.724 249.626C197.33 249.368 197.695 249.152 197.681 248.393C197.597 244.14 198.192 234.198 198.273 229.955C198.452 220.748 198.794 211.558 199.43 202.368C200.418 188.065 200.888 173.731 201.219 159.394C201.351 153.735 201.351 145.71 201.557 140.055C201.58 139.806 201.586 139.556 201.574 139.307C201.385 139.513 200.972 139.574 200.695 139.717Z" fill="#9C4D4B"/>
<path d="M146.676 159.099C146.3 160.904 146.114 164.571 146.047 166.285C145.661 176.25 145.228 186.216 144.93 196.185C144.592 207.454 144.217 218.713 143.263 229.956C142.833 235.008 142.735 245.8 142.475 250.869C142.448 251.431 142.576 252.037 141.856 252.376C139.032 253.706 136.238 255.085 133.4 256.439C132.402 256.906 131.81 256.818 131.834 255.389C131.898 251.617 131.807 242.132 131.773 238.357C131.574 215.571 132.203 190.415 131.726 167.629C131.726 167.477 131.726 167.318 131.753 167.159C131.575 167.202 131.392 167.222 131.208 167.219H130.87C130.87 167.358 130.89 167.501 130.907 167.643C131.327 171.825 131.218 178.394 131.212 182.583C131.185 198.701 131.123 214.819 131.026 230.938C130.995 237.077 131.276 248.925 130.972 255.064C130.901 256.497 130.342 256.93 128.959 257.015C122.194 257.431 115.409 257.418 108.628 257.198C107.42 257.16 107.045 256.629 106.96 255.471C106.49 249.172 105.946 237.185 105.435 230.877C104.583 220.586 103.608 210.305 102.908 200.005C102.232 189.998 101.84 179.972 101.305 169.959C101.271 169.356 101.363 168.117 101.085 167.169L100.365 167.128C100.305 167.136 100.244 167.127 100.189 167.103C100.134 167.079 100.086 167.041 100.05 166.993C100.084 167.785 100.389 168.94 100.389 169.251C100.585 172.492 100.808 175.729 101.001 178.97C101.562 188.393 101.816 197.834 102.661 207.241C103.49 216.468 104.4 225.689 104.951 234.94C105.262 240.182 105.695 251.129 106.078 256.368C106.159 257.479 106.341 258.196 107.884 258.207C114.358 258.251 120.831 258.251 127.295 257.936C129.663 257.824 132.115 258.474 134.432 257.018C136.648 255.674 138.985 254.54 141.413 253.632C143.08 252.982 143.584 252.294 143.54 250.337C143.395 244.086 143.74 232.109 144.335 225.885C145.773 210.878 145.221 195.796 146.239 180.774C146.679 174.249 146.368 165.564 147.542 159.086C147.582 158.929 147.611 158.769 147.63 158.608C147.534 158.676 147.432 158.735 147.325 158.784L146.676 159.099Z" fill="#9C4D4B"/>
<path d="M244.479 256.551L244.452 256.51L244.483 256.534C244.503 256.442 244.523 256.317 244.547 256.168C235.415 256.117 224.327 255.829 215.395 255.87C213.73 255.87 213.619 255.379 213.494 253.716C212.986 247.008 212.432 234.855 211.803 228.161C210.862 218.293 206.218 156.834 205.762 150.19C205.403 144.959 204.409 126.125 204.186 121.946C204.04 119.091 204.186 118.831 205.2 118.739C211.539 119.176 218.107 118.888 223.637 119.078C229.878 119.288 236.128 119.731 242.372 119.105C242.842 119.058 245.183 118.959 245.626 119.068C246.163 119.113 246.704 119.066 247.226 118.929C247.256 118.611 247.347 118.282 247.689 118.306C247.78 118.316 247.866 118.354 247.935 118.415C248.004 118.475 248.052 118.555 248.075 118.644C249.306 118.15 250.605 117.266 252.133 116.149C255.536 113.674 259.236 111.615 262.815 109.376L262.774 109.417L263.143 109.058C263.184 108.34 263.207 107.951 263.207 107.951C263.725 107.88 263.978 108.005 264.093 108.242C264.143 108.168 264.171 108.083 264.177 107.994C264.182 107.905 264.164 107.817 264.124 107.738C263.894 107.175 263.312 107.44 262.862 107.446C260.863 107.47 258.868 107.389 256.859 107.446C254.491 107.528 243.184 107.335 233.953 107.206C233.953 107.545 233.953 107.883 233.953 108.188C242.984 108.303 254.183 108.411 257.559 108.188C258.912 108.103 260.366 108.3 262.379 108.289C257.745 111.882 252.336 114.777 247.794 117.916C247.503 118.116 247.164 118.233 246.813 118.255C240.336 118.492 233.859 118.641 227.375 118.431C220.668 118.211 205.752 118.343 204.933 117.666C210.318 114.771 215.178 111.232 220.729 108.547C221.155 108.349 221.595 108.181 222.044 108.042C222.721 108.042 224.009 108.059 225.711 108.08C225.677 107.741 225.643 107.433 225.613 107.111C223.526 107.111 222.041 107.111 221.53 107.138C221.249 107.158 220.938 107.158 220.81 107.368C220.224 107.615 219.658 107.907 219.119 108.242C214.339 110.897 209.908 114.154 204.997 116.569C203.644 117.226 203.289 117.944 203.252 119.362C203.093 125.407 204.737 145.737 204.97 149.919C205.352 156.81 207 179.755 207.372 184.34C207.947 191.153 211.962 239.83 212.58 254.692C212.641 256.182 212.79 256.927 214.37 256.91C223.502 256.808 235.002 256.815 244.134 257.015C244.672 257.015 245.149 256.994 245.487 256.676C245.324 256.751 245.143 256.779 244.965 256.756C244.787 256.734 244.619 256.663 244.479 256.551Z" fill="#9C4D4B"/>
<path d="M259.622 237.899C259.94 216.194 260.298 192.643 260.694 170.937C260.812 164.751 261.211 158.568 261.35 152.378C261.492 146.001 263.718 119.369 264.141 109.17C264.203 108.867 264.185 108.553 264.09 108.259C263.975 108.022 263.721 107.896 263.204 107.968C263.204 107.968 263.18 108.357 263.139 109.075C262.723 116.491 260.349 158.852 260.058 165.353C259.574 176.142 259.832 186.947 259.456 197.742C259.047 209.54 259.081 223.2 258.901 234.991C258.864 237.412 258.725 245.539 258.641 247.956C258.617 248.634 258.485 249.135 257.775 249.521C254.413 251.349 251.136 253.32 247.574 254.769C246.248 255.308 245.812 255.917 245.829 254.431C246.018 236.823 246.096 210.901 246.363 193.313C246.465 186.588 247.378 157.453 247.716 149.631C248.075 141.024 247.963 120.7 248.132 119.413C248.165 119.167 248.147 118.917 248.078 118.678C248.056 118.589 248.007 118.509 247.938 118.448C247.869 118.388 247.783 118.35 247.692 118.34C247.354 118.316 247.259 118.644 247.229 118.963C247.229 119.112 247.229 119.261 247.209 119.369C247.029 122.017 247.347 125.163 247.317 127.834C247.202 137.993 245.785 186.602 245.599 200.766C245.463 211.264 245.49 249.07 244.79 254.173C244.74 254.542 244.641 255.579 244.554 256.205C244.53 256.354 244.51 256.479 244.489 256.571C244.628 256.694 244.8 256.775 244.983 256.803C245.167 256.831 245.355 256.806 245.524 256.73C245.764 256.645 246.001 256.51 246.241 256.412C250.774 254.583 254.826 251.773 259.365 249.958C259.767 249.771 259.595 239.65 259.622 237.899Z" fill="#9C4D4B"/>
<path d="M76.4689 190.709H77.1826L77.1318 189.985C74.338 189.985 72.1226 190.029 71.2905 190.046H71.1553C71.1248 190.279 71.0944 190.513 71.0605 190.75C72.4372 190.923 76.0021 190.716 76.4689 190.709Z" fill="#9C4D4B"/>
<path d="M84.3496 190.764C88.6012 190.804 93.1437 190.855 94.4087 190.835C94.7788 190.793 95.1521 190.881 95.464 191.085C92.589 192.883 88.3272 195.305 85.6856 197.021C77.4091 196.744 65.9667 196.883 57.9506 196.964C58.5898 195.833 62.1413 193.459 63.2676 192.491C63.2304 192.254 63.1999 192.006 63.1762 191.752C61.5155 192.63 58.0182 195.62 56.7803 196.954C56.6331 197.103 56.5436 197.3 56.5275 197.51C56.5114 197.719 56.5698 197.928 56.6923 198.098C56.9644 198.621 57.1049 199.202 57.1016 199.791C57.8017 210.509 58.5323 221.219 59.2155 231.936C59.6214 238.299 59.9799 250.371 60.3114 256.737C60.3858 258.169 60.7782 258.87 62.4321 259.016C68.385 259.544 72.5182 259.422 80.2502 259.463C81.4645 259.297 82.7565 259.646 83.893 259.029C87.1028 257.296 90.2856 255.504 93.4988 253.777C94.0501 253.479 94.5135 253.28 94.456 252.511C94.1956 248.376 94.73 238.032 94.8957 233.911C95.2542 225.012 95.3388 216.099 95.7515 207.2C96.0085 201.735 96.7188 191.58 96.7188 190.825C96.7188 190.256 90.6306 190.049 84.3834 189.988C84.3834 190.137 84.3665 190.283 84.3598 190.432C84.353 190.581 84.3632 190.655 84.3496 190.764ZM83.6224 229.62C83.2571 236.525 83.2571 249.67 83.2098 256.578C83.2098 258.01 82.8208 258.738 81.2379 258.752C79.4148 258.752 67.5158 258.538 63.3995 258.271C62.2664 258.196 61.1232 257.976 61.0318 256.273C60.3926 245.498 59.7161 229.011 58.9483 218.243C58.4883 211.839 58.1298 206.391 57.822 198.772C57.6461 197.858 57.9539 198.031 58.556 197.997C61.0217 197.858 63.4874 197.658 65.9531 197.658C70.8406 197.628 79.682 197.716 84.556 197.719C84.7859 197.719 85.0329 197.746 85.2967 197.719C85.2764 197.915 85.2967 198.125 85.273 198.332C84.7431 208.761 84.1929 219.191 83.6224 229.62ZM95.7988 192.433C95.3557 199.497 94.7841 206.567 94.7469 213.641C94.7131 224.219 93.9318 240.991 93.5056 251.546C93.465 252.538 93.1132 253.168 92.1763 253.615C90.0522 254.631 87.9856 255.762 85.8818 256.822C84.1501 257.692 83.9843 257.556 83.9607 255.532C83.7577 238.987 85.0836 216.252 85.9156 199.764C85.9867 198.349 85.9359 197.614 87.184 196.842C89.3014 195.535 93.3263 193.185 95.7548 191.62C95.8129 191.887 95.8322 192.161 95.8123 192.433H95.7988Z" fill="#9C4D4B"/>
<path d="M226.198 113.23C226.34 114.869 227.889 115.702 229.56 115.769C232.475 115.888 233.541 113.968 233.835 110.917C233.906 110.182 233.937 109.258 233.94 108.208C233.94 107.89 233.94 107.565 233.94 107.226C233.879 101.51 233.196 93.3427 233.713 93.0887C235.479 95.0696 238.154 96.6679 238.915 97.2233C239.221 97.494 239.584 97.692 239.977 97.8023C243.475 98.3373 246.965 98.9434 250.48 99.2854C253.497 99.5834 255.381 96.9998 254.339 94.257C253.869 92.828 249.702 92.1067 247.764 91.6767C245.951 91.313 244.292 90.4074 243.005 89.0795C238.056 83.7056 233.855 77.905 228.653 72.7512C226.154 70.2827 223.962 67.4417 220.715 65.8264C219.839 65.3862 218.956 64.9663 217.955 65.0002C217.807 65.3245 217.636 65.638 217.444 65.9382C217.494 65.9417 217.544 65.9417 217.593 65.9382C220.191 66.0466 222.098 67.5703 223.844 69.2296C228.888 74.0996 233.65 79.2538 238.107 84.6672C241.459 88.6731 243.468 92.0999 249.1 92.8585C249.854 92.9567 251.887 93.5628 252.637 93.6982C253.652 93.8845 253.963 94.775 253.99 95.7299C254.045 97.7617 252.377 98.8554 249.817 98.4186C247.845 98.08 244.79 97.5957 242.037 97.2199C238.236 96.7018 235.858 94.0301 233.196 91.653C232.803 91.3144 232.8 92.7772 232.81 93.2851C232.895 97.1758 233.223 109.43 232.895 111.638C232.607 113.555 231.768 115.116 230.189 115.048C228.16 114.96 226.928 114.222 226.705 111.662C226.367 107.724 225.856 99.8306 225.887 99.8103C225.776 97.6469 225.409 95.5042 224.794 93.4273C223.346 89.3063 220.921 86.5026 218.736 82.7303C218.622 82.4703 218.44 82.2457 218.209 82.0802C218.063 82.3375 217.911 82.5949 217.749 82.859L217.664 82.9877C217.733 83.0797 217.806 83.1679 217.884 83.2518C219.345 84.9178 221.195 87.769 222.325 89.628C223.989 92.3708 225.136 96.5122 225.173 99.8916C225.203 102.553 225.386 104.825 225.613 107.128C225.643 107.45 225.677 107.771 225.711 108.096C225.86 109.722 226.056 111.374 226.198 113.23Z" fill="#9C4D4B"/>
<path d="M97.179 136.855C97.0926 136.903 97.0129 136.962 96.9422 137.031C94.5035 139.293 91.1111 144.021 87.9587 145.568C84.2519 147.363 80.6719 149.41 77.2435 151.694C78.4138 152.351 79.2086 150.966 80.2707 150.641C79.7769 152.425 78.9651 154.887 78.5998 156.597C77.7542 160.535 77.0541 164.521 78.7689 168.401C79.9832 171.147 81.3902 173.819 82.7195 176.508C83.5888 178.269 84.2077 180.073 84.0521 182.095C83.8221 185.092 83.6429 188.095 83.4805 191.099C83.4332 191.996 83.0002 192.474 82.1885 192.761C80.1219 193.493 78.1567 192.311 78.0079 190.117C77.8147 187.822 77.738 185.519 77.7779 183.216C77.8726 180.642 77.4025 178.34 75.7485 176.308C74.3719 174.615 73.1069 172.851 71.7269 171.174C71.2872 170.633 70.949 169.454 70.1203 169.955C69.4202 170.372 69.4878 171.506 69.7111 172.397C69.7516 172.566 69.8362 172.735 69.87 172.901C70.9727 178.282 71.7675 182.159 71.1722 184.926C70.9524 187.472 70.2387 191.945 69.6603 193.252C68.9839 194.756 68.1383 194.946 66.7617 194.895C66.1361 194.87 65.535 194.645 65.0476 194.251C64.5602 193.858 64.2124 193.318 64.0558 192.711C63.4673 189.924 63.9104 187.157 64.4177 184.452C64.7154 182.85 63.8765 180.209 63.1189 178.495C63.0174 178.262 62.916 178.045 62.8179 177.852C62.4796 178.363 62.3816 178.8 62.5777 179.152L62.6285 179.247C63.4774 180.818 63.6939 183.067 63.4943 184.665C63.2407 186.697 62.9667 189.507 63.173 191.776C63.1967 192.03 63.2271 192.277 63.2643 192.514C63.2643 192.606 63.2914 192.697 63.3083 192.785C63.7818 195.409 66.0142 196.3 68.534 195.494C70.1271 194.99 70.5634 193.618 70.8611 191.956C70.9287 191.554 70.9896 191.154 71.0437 190.757C71.0775 190.52 71.108 190.286 71.1384 190.052C71.3955 188.021 71.5578 186.094 71.984 184.025C72.2918 182.528 72.126 181.126 71.8588 179.67C71.3853 177.077 69.7077 169.512 70.9659 171.469C72.0313 172.708 73.1374 174.178 74.1554 175.458C75.9988 177.767 77.1995 180.266 77.0135 183.388C76.9003 185.59 76.9342 187.797 77.115 189.995L77.1657 190.72C77.1657 190.75 77.1657 190.784 77.1657 190.814C77.2942 192.555 79.3879 193.94 81.3395 193.801C83.0138 193.682 84.1435 192.497 84.3261 190.777C84.3261 190.669 84.3464 190.56 84.3498 190.439C84.3532 190.317 84.3498 190.144 84.3735 189.995C84.4377 188.789 84.5798 187.584 84.5933 186.375C84.6271 183.328 85.3577 180.236 83.9574 177.3C82.6045 174.425 81.2516 171.544 79.7667 168.719C79.1842 167.645 78.7982 166.476 78.6269 165.266C78.2379 162.574 78.6269 159.956 79.1038 157.359C79.8986 153.14 81.1501 150.034 82.1174 149.635C88.9531 146.134 93.1912 143.431 97.6762 136.835L97.8825 136.53C97.5679 136.771 97.4089 136.73 97.179 136.855Z" fill="#9C4D4B"/>
<path d="M127.15 158.656H127.596C127.555 158.432 127.546 158.204 127.569 157.978H127.025C123.054 158.016 119.79 158.029 118.745 157.978C118.457 157.978 118.109 157.857 117.818 157.995C117.707 158.056 117.61 158.14 117.533 158.241C117.456 158.342 117.401 158.458 117.372 158.581C117.456 158.581 117.561 158.605 117.676 158.615C119.086 158.744 122.831 158.727 127.15 158.656Z" fill="#9C4D4B"/>
<path d="M134.219 158.517H134.425C139.658 158.398 144.352 158.28 145.587 158.303C144.759 159.056 143.827 159.686 142.82 160.173C139.614 161.795 136.898 163.349 133.715 165.022C132.457 165.699 131.293 166.427 129.791 166.413C123.199 166.366 103.954 166.501 101.647 166.329C100.335 166.417 107.16 161.994 108.686 160.718C108.882 160.555 109.45 160.335 109.917 160.078C110.384 159.821 110.803 159.475 110.482 159.126C110.448 159.079 110.406 159.04 110.357 159.009C110.308 158.979 110.253 158.959 110.196 158.949C110.139 158.94 110.081 158.943 110.025 158.956C109.969 158.97 109.916 158.994 109.87 159.028C109.63 159.204 109.404 159.398 109.193 159.607C106.995 161.449 102.746 163.782 100.037 166.041C99.7462 166.149 99.8105 166.698 100.037 166.959C100.073 167.007 100.121 167.045 100.176 167.069C100.231 167.093 100.292 167.102 100.352 167.094L101.072 167.135C105.851 167.334 123.365 167.064 130.857 167.185H131.195C131.378 167.188 131.561 167.168 131.74 167.125C131.959 167.068 132.168 166.978 132.359 166.857C137.094 163.877 141.738 161.642 146.652 159.069L147.312 158.73C147.419 158.681 147.52 158.622 147.616 158.554C147.687 158.499 147.74 158.423 147.767 158.337C147.795 158.252 147.795 158.159 147.769 158.073C147.687 157.538 147.43 157.606 147.024 157.623C145.611 157.684 140.148 157.782 134.364 157.863H134.307C134.311 158.084 134.282 158.305 134.219 158.517Z" fill="#9C4D4B"/>
<path d="M157.168 115.099C156.048 115.62 154.885 115.922 153.742 115.414C151.925 114.608 151.286 112.654 152.439 111.032C153.407 109.678 155.105 109.268 156.593 108.662C158.519 107.935 160.353 106.983 162.055 105.824C165.583 103.301 169.496 97.5754 176.048 96.2615C175.469 96.1647 174.897 96.0278 174.336 95.8518C172.165 96.3597 169.507 97.9038 167.849 99.5766C164.247 103.22 160.543 106.752 155.372 108.198C154.012 108.544 152.791 109.298 151.871 110.358C151.992 110.391 152.107 110.445 152.209 110.517C151.807 110.727 152.118 111.171 151.55 111.076C151.492 111.076 151.431 111.076 151.37 111.056C150.356 112.793 150.91 114.737 152.578 115.797C152.673 115.857 152.767 115.915 152.869 115.969C152.97 116.023 153.095 116.081 153.207 116.132C154.452 116.667 155.71 116.558 157.097 115.983C159.282 115.068 163.686 112.58 165.739 111.425L165.827 111.381C165.874 111.164 165.925 110.947 165.975 110.727C163.706 111.804 159.326 114.083 157.168 115.099Z" fill="#9C4D4B"/>
<path d="M218.209 82.0938C219.165 80.3386 219.925 78.483 220.475 76.5608L220.008 76.3508C219.629 77.1229 219.122 77.8543 218.892 78.667C217.451 83.7463 214.136 86.7092 209.022 87.8334C207.609 88.145 203.905 89.0592 202.041 89.0321C201.955 89.2704 201.842 89.4977 201.703 89.7094L201.602 89.8651C203.573 89.8651 207.751 89.1879 208.87 88.7409C212.391 87.3864 215.297 86.6753 217.647 82.9844L217.732 82.8557C217.911 82.6085 218.08 82.3512 218.209 82.0938Z" fill="#9C4D4B"/>
<path d="M202.041 89.0253C202.545 87.5354 202.217 85.463 201.334 84.7519C201.13 84.5912 200.902 84.4643 200.658 84.3761C202.238 83.3873 206.12 82.3003 207.801 80.9899C209.181 79.9131 210.507 78.7008 211.028 76.9264C211.806 74.2852 212.381 71.5695 213.852 69.1856C213.933 69.0728 214.004 68.9526 214.062 68.8267C213.673 68.9928 213.272 69.1275 212.861 69.2296C212.259 70.2692 211.6 71.5051 211.377 72.6361C211.132 74.0144 210.749 75.3644 210.233 76.6657C210.186 76.6871 210.142 76.7169 210.105 76.7537C209.466 77.3768 208.414 77.6071 207.582 77.8644C206.641 78.1556 205.698 78.4401 204.757 78.7279C203.012 79.2561 201.226 79.6354 199.535 80.3397C197.844 81.0441 195.909 83.1367 197.083 84.9822C196.843 85.1369 196.617 85.3113 196.406 85.5037C195.571 86.2479 194.798 87.06 194.096 87.9316C192.321 90.2308 190.396 91.8833 187.629 92.8517C186.743 93.1599 184.22 94.2468 182.004 95.1814C181.228 95.6545 180.382 96.0029 179.498 96.2142C181.866 96.4309 186.939 93.617 188.39 93.1666C190.846 92.398 192.534 91.0435 194.113 89.0016C195.026 87.8437 196.084 86.8091 197.262 85.9236C198.277 85.1583 199.894 84.6199 200.918 85.7069C201.943 86.7938 201.74 88.2296 200.942 89.4588C200.27 90.4892 199.536 91.4776 198.744 92.4183C195.48 96.2989 192.124 100.068 187.896 102.987C186.929 103.664 185.485 104.002 185.211 105.54C184.213 111.232 183.131 116.914 182.505 122.664C181.788 129.406 181.223 136.161 180.611 142.913C180.533 143.756 179.596 144.84 178.01 144.857C175.558 144.884 174.797 143.096 174.726 140.641C174.648 137.871 174.864 135.091 174.986 132.321C175.108 129.49 175.133 126.662 175.061 123.835C175.044 123.084 174.935 122.159 174.1 121.912C173.393 121.702 172.747 122.505 172.338 122.962C170.95 124.409 169.657 125.944 168.465 127.557C165.786 131.282 162.174 133.855 158.436 136.317C157.689 136.808 156.407 137.184 155.429 136.879C154.019 136.442 153.502 135.863 153.14 134.465C152.778 133.066 153.694 131.756 154.736 131.078C158.734 128.485 161.328 124.746 163.493 120.635C163.892 119.874 164.454 119.369 164.819 118.414C166.375 114.351 166.358 110.677 167.626 106.925C168.052 105.655 168.357 104.344 168.083 102.983C167.345 105.225 166.611 108.012 165.992 110.697C165.942 110.917 165.891 111.134 165.844 111.351C165.478 112.959 165.167 114.517 164.903 115.888C164.393 118.692 163.361 119.813 161.88 122.173C160.344 124.624 158.913 126.873 156.535 128.647C155.372 129.448 154.257 130.317 153.197 131.251C151.844 132.548 151.871 134.458 153.102 136.154C154.232 137.709 156.535 138.034 157.892 137.214C160.459 135.663 162.965 134.268 165.187 132.237C167.961 129.69 169.71 126.433 172.487 123.876C172.825 123.575 173.163 122.86 173.735 123.006C174.411 123.175 174.218 123.866 174.239 124.36C174.408 128.315 174.212 132.267 174.137 136.212C174.113 137.566 174.093 137.597 174.093 137.597C170.149 137.797 168.8 137.875 167.193 138.85C165.405 139.878 163.55 140.783 161.639 141.559C158.724 142.818 155.829 144.126 152.937 145.429C152.598 145.588 152.051 145.639 152.088 146.191C152.088 146.312 152.126 146.431 152.196 146.53C152.379 146.757 152.744 146.706 153.038 146.719H153.119C155.798 146.862 158.484 147.2 161.152 147.078C168.516 146.74 175.852 147.756 183.215 147.417C183.876 147.416 184.534 147.319 185.167 147.129C185.403 147.051 185.63 146.948 185.843 146.821L186.043 146.706C190.744 143.916 195.852 142.209 200.705 139.7C200.983 139.558 201.382 139.497 201.585 139.28C201.631 139.226 201.663 139.161 201.678 139.091C201.693 139.021 201.69 138.949 201.669 138.88C201.554 138.352 200.905 138.433 200.442 138.481C197.086 138.819 193.724 138.366 190.366 138.359C188.417 138.359 184.616 138.322 182.684 138.311C182.383 138.311 181.96 138.217 181.73 138.359C182.556 128.17 184.041 117.026 185.573 107.206C185.881 105.218 186.249 104.734 188.005 103.562C191.196 101.438 194.096 98.9067 196.633 96.0314C198.392 94.0538 200.181 92.0932 201.629 89.8685L201.73 89.7127C201.86 89.4965 201.965 89.2658 202.041 89.0253ZM200.154 84.2474C199.34 84.1274 198.509 84.2524 197.766 84.6063C196.873 83.3365 198.443 81.7619 199.43 81.2574C200.746 80.5801 202.234 80.2415 203.655 79.8657C205.075 79.4898 206.418 79.0631 207.791 78.6297C208.39 78.4588 208.98 78.2554 209.557 78.0202C208.309 80.1027 206.489 81.2269 203.607 82.2326C202.86 82.4866 200.492 83.3331 200.154 84.2474ZM182.715 139.141C184.72 139.175 188.57 139.09 190.568 139.202C193.352 139.354 196.396 139.507 199.467 139.398C199.078 139.737 189.351 144.159 184.734 146.374C184.409 146.493 184.065 146.548 183.719 146.536C175.997 146.98 168.299 145.859 160.577 146.198C158.771 146.279 156.945 145.896 154.604 145.68C155.544 145.128 155.957 144.823 156.441 144.61C160.09 142.971 163.784 141.42 167.389 139.686C169.03 138.901 169.419 138.586 171.151 138.332C172.125 138.234 173.105 138.209 174.083 138.257C174.181 143.628 173.789 144.718 177.212 145.433C179.918 146.001 181.27 144.816 181.446 142.016C181.511 141.044 181.585 140.059 181.663 139.063C181.889 139.31 182.39 139.141 182.715 139.141Z" fill="#9C4D4B"/>
<path d="M128.685 112.708C128.97 112.779 129.274 112.769 129.558 112.837C134.31 113.998 139.029 113.636 143.723 112.498C145.326 112.116 149.155 110.771 151.374 111.036C151.435 111.036 151.496 111.036 151.553 111.056C152.122 111.151 151.81 110.717 152.213 110.497C152.11 110.425 151.996 110.371 151.875 110.338C150.86 110.043 148.682 110.396 148.283 110.507C142.353 112.15 136.424 113.711 130.218 112.004C129.948 111.939 129.673 111.902 129.396 111.892C129.065 112.132 128.715 112.345 128.351 112.529C128.447 112.613 128.562 112.674 128.685 112.708Z" fill="#9C4D4B"/>
<path d="M76.645 141.799C77.5346 141.613 78.8266 141.152 79.0769 141.095C83.2778 140.106 90.0965 135.514 93.5195 131.969C93.8374 131.63 94.1283 131.319 94.3853 131.011C94.5781 130.814 94.5308 130.594 94.1621 130.706C93.8797 130.813 93.616 130.964 93.3808 131.153C93.0864 131.346 92.806 131.56 92.542 131.793C90.2014 134.109 84.0861 138.785 80.856 139.561C80.1796 139.727 79.4794 139.872 78.8063 140.076C78.7184 140.103 78.4309 140.211 78.069 140.367C77.651 140.898 77.1732 141.378 76.645 141.799Z" fill="#9C4D4B"/>
<path d="M201.507 209.872C200.927 215.722 200.777 221.608 201.057 227.48C201.023 221.764 202.836 216.624 201.507 209.872Z" fill="#9C4D4B"/>
<path d="M53.8411 200.77L52.938 200.804C52.9718 205.148 54.4262 219.218 54.6731 223.518C54.6731 219.191 53.8411 205.097 53.8411 200.77Z" fill="#9C4D4B"/>
<path d="M185.129 131.773C185.731 127.484 186.332 123.205 186.932 118.936L186.256 118.848C185.601 123.127 185.225 127.445 185.129 131.773Z" fill="#9C4D4B"/>
<path d="M252.918 257.597V257.143C251.082 257.045 249.245 256.937 247.408 256.852C247.121 256.852 246.769 256.906 246.732 257.269C246.685 257.756 247.07 257.76 247.429 257.807C249.259 257.992 251.107 257.921 252.918 257.597Z" fill="#9C4D4B"/>
<path d="M27.4355 193.016L33.9093 185.982L33.4764 185.613C31.1798 187.838 29.0591 190.215 27.4355 193.016Z" fill="#9C4D4B"/>
<path d="M95.4034 142.805C94.1045 145.026 91.9229 146.36 90.1709 148.138C92.4337 146.95 94.4935 145.517 95.9784 143.377C96.1373 143.147 96.3775 142.873 96.1001 142.598C95.8228 142.324 95.5454 142.561 95.4034 142.805Z" fill="#9C4D4B"/>
<path d="M189.168 256.673C188.884 256.717 188.583 256.832 188.654 257.218C188.705 257.506 188.992 257.556 189.202 257.526C190.744 257.326 192.334 257.688 193.836 257.008C192.316 256.593 190.731 256.48 189.168 256.673Z" fill="#9C4D4B"/>
<path d="M58.3635 137.543C58.3027 134.58 58.8033 131.651 60.2644 128.918C58.1775 131.082 57.9374 132.223 58.3635 137.543Z" fill="#9C4D4B"/>
<path d="M257.653 93.7661C256.879 90.6982 255.286 89.2658 252.374 89.4385C254.832 90.5356 256.821 91.5413 257.653 93.7661Z" fill="#9C4D4B"/>
<path d="M206.475 257.004C207.744 256.838 210.324 256.91 211.589 256.727C210.345 255.938 207.707 255.795 206.394 255.911C205.985 255.948 205.532 256.137 205.616 256.659C205.687 257.113 206.14 257.048 206.475 257.004Z" fill="#9C4D4B"/>
<path d="M168.431 95.8181L168.093 95.3169C166.114 96.1871 162.461 99.4718 161.846 101.71C163.75 99.0756 166.635 96.9355 168.431 95.8181Z" fill="#9C4D4B"/>
<path d="M52.999 170.325C53.2459 170.579 53.2561 170.325 53.4624 170.098C54.4771 169.011 56.8447 167.104 57.8391 165.472C56.2021 166.356 54.3317 168.52 53.2425 169.464C52.9923 169.681 52.6439 169.955 52.999 170.325Z" fill="#9C4D4B"/>
<path d="M100.081 257.736C100.051 258.23 100.511 258.223 100.842 258.23C101.921 258.257 103.007 258.342 104.103 257.783C103.037 257.611 101.972 257.411 100.9 257.279C100.578 257.238 100.111 257.279 100.081 257.736Z" fill="#9C4D4B"/>
<path d="M146.733 252.548C147.833 252.48 148.949 252.548 150.018 251.945C148.901 251.698 147.789 251.387 146.635 251.678C146.334 251.752 146.067 251.928 146.165 252.281C146.226 252.521 146.476 252.579 146.733 252.548Z" fill="#9C4D4B"/>
<path d="M82.929 133.723C83.4769 133.791 87.3429 131.197 88.0668 130.056C86.9506 130.676 84.4172 132.267 83.3112 132.904C83.0203 133.083 82.4217 133.669 82.929 133.723Z" fill="#9C4D4B"/>
<path d="M145.387 122.156L140.209 122.996C142.103 123.656 143.764 123.002 145.387 122.156Z" fill="#9C4D4B"/>
<path d="M54.4163 258.125C54.0071 258.19 53.2697 258.054 53.449 258.762C53.5843 259.297 54.2168 259.101 54.67 259.006C55.5798 258.83 57.2845 259.446 58.7288 259.168C57.244 258.626 55.431 257.963 54.4163 258.125Z" fill="#9C4D4B"/>
<path d="M228.467 68.8096C227.284 65.735 223.989 63.964 221.797 64.3602C223.773 64.8749 226.228 66.3072 228.467 68.8096Z" fill="#9C4D4B"/>
<path d="M193.582 81.4571C194.749 80.2787 196.2 79.4491 197.38 78.2944C195.652 78.8159 194.306 79.7776 193.582 81.4571Z" fill="#9C4D4B"/>
<path d="M0.535728 258.115C0.535728 258.454 0.914549 258.531 1.21219 258.538C2.08483 258.538 2.96086 258.538 3.8335 258.538L3.86394 258.132C3.01159 257.963 2.17277 257.793 1.3069 257.634C0.934842 257.58 0.528963 257.658 0.535728 258.115Z" fill="#9C4D4B"/>
<path d="M108.104 114.977L111.635 112.827C109.728 112.986 108.757 113.673 108.104 114.977Z" fill="#9C4D4B"/>
<path d="M38.4111 258.965C38.3772 259.866 39.3006 259.348 39.8046 259.371C40.4221 259.356 41.0379 259.299 41.6479 259.202C41.4236 258.976 41.1516 258.804 40.8518 258.698C40.552 258.592 40.2323 258.555 39.9162 258.589C39.3784 258.586 38.4347 258.267 38.4111 258.965Z" fill="#9C4D4B"/>
<path d="M177.493 96.4342C178.169 96.4463 178.844 96.3734 179.502 96.2175C180.386 96.0062 181.231 95.6578 182.008 95.1847C184.48 93.688 186.202 91.0603 186.253 88.4123C186.368 82.605 183.547 79.0901 176.847 79.0935C172.45 79.0935 168.864 82.5542 168.702 87.261C168.59 90.5389 169.679 94.3314 174.34 95.8281C174.901 96.0041 175.472 96.141 176.052 96.2378C176.502 96.3292 176.982 96.3936 177.493 96.4342ZM169.568 87.173C169.589 86.1841 169.805 85.2091 170.203 84.3038C170.601 83.3985 171.173 82.5807 171.887 81.8972C172.601 81.2137 173.443 80.6779 174.364 80.3206C175.286 79.9633 176.268 79.7914 177.256 79.8148C182.668 79.8689 185.735 83.6107 185.62 88.4394C185.539 91.7985 181.257 95.8179 177.618 95.7096C171.218 95.3947 169.476 90.7759 169.564 87.173H169.568Z" fill="#9C4D4B"/>
<path d="M67.736 142.968C67.3402 143.384 66.9851 144.126 66.7754 144.322C66.6223 144.5 66.4979 144.701 66.4067 144.918C64.5836 148.477 62.8417 152.07 61.7053 155.92C60.6883 159.539 60.0312 163.25 59.7435 166.999C58.2012 167.314 57.2913 168.855 56.2868 169.956C55.5122 170.802 54.6869 171.605 53.9191 172.448C53.2866 173.125 52.6068 173.823 52.0047 174.54C50.8987 171.313 48.1726 169.187 43.6842 169.19C39.6254 169.19 36.3716 172.614 36.2228 176.938C36.1416 179.244 36.7031 181.919 38.8813 183.71C39.0132 183.815 39.1485 183.92 39.2939 184.022C39.595 183.846 39.9061 183.683 40.2207 183.531C40.0854 183.446 39.9603 183.358 39.8351 183.267C37.6366 181.679 36.9432 179.068 36.994 176.863C37.012 175.954 37.2092 175.056 37.5744 174.223C37.9395 173.39 38.4655 172.637 39.1219 172.008C39.7784 171.379 40.5525 170.886 41.3998 170.557C42.2472 170.228 43.1511 170.069 44.0596 170.091C49.0418 170.142 51.839 173.579 51.7443 178.018C51.7272 178.49 51.6347 178.957 51.4703 179.4C51.4365 179.501 51.3993 179.603 51.3587 179.704C51.7308 179.545 52.113 179.403 52.4986 179.274C52.5319 179.061 52.5533 178.846 52.5628 178.631C52.5628 178.59 52.5628 178.55 52.5628 178.512C52.5977 177.421 52.4839 176.329 52.2246 175.268L52.2516 175.238C52.7928 174.561 53.449 174.016 53.9868 173.345C54.6091 172.573 55.3397 171.889 56.0162 171.168C56.6182 170.524 57.1932 169.857 57.7885 169.207C58.3838 168.557 58.8878 167.893 59.7063 167.663C59.6275 168.831 59.6083 170.002 59.6488 171.171C59.6488 171.574 59.677 171.977 59.7334 172.377C59.8213 172.813 60.0006 173.088 60.4098 172.644C60.4267 172.505 60.4403 172.36 60.4538 172.214C60.6939 169.505 60.2204 165.608 61.2723 160.576C62.8316 154.379 64.2048 150.37 67.5668 144.827C67.7326 144.552 68.4564 143.784 68.6018 143.232C68.3088 143.159 68.0198 143.07 67.736 142.968Z" fill="#9C4D4B"/>
<path d="M152.872 115.952C152.771 115.898 152.676 115.841 152.581 115.78C151.712 116.284 149.953 117.371 149.875 117.415C144.758 120.429 139.133 121.066 133.36 120.886C132.172 120.849 131.814 121.33 131.706 122.386C131.269 126.585 131.679 130.77 132.044 134.915C132.588 140.854 133.038 146.794 133.336 152.75C133.444 154.985 133.674 157.21 133.556 159.462C133.475 161.107 132.392 161.896 131.131 162.055C129.869 162.215 128.55 161.717 128.286 160.044C128.073 158.706 127.735 157.386 127.555 156.045C126.94 151.484 125.841 147.017 124.961 142.5C124.758 141.484 124.133 140.722 123.196 140.499C122.181 140.262 121.562 141.058 121.166 141.853C120.744 142.631 120.421 143.46 120.206 144.319C119.492 147.705 118.443 151.037 117.838 154.477C117.5 156.373 117.398 158.337 116.647 160.169C116.103 161.493 114.371 162.37 112.734 162.045C111.097 161.72 110.573 160.616 110.684 159.062C111.337 150.217 113.177 141.555 114.696 132.843C115.071 130.686 115.423 128.529 115.372 126.341C115.335 124.763 114.094 124.032 113.005 125.021C110.275 127.496 107.576 128.861 104.863 131.343C102.972 132.986 100.92 134.435 98.738 135.667C97.0841 136.615 95.4944 136.178 94.5676 134.539C92.5382 130.933 98.6264 128.166 100.196 127.025C103.886 124.343 106.666 120.676 110.153 117.764C112.497 115.807 117.256 113.416 120.747 112.874C120.284 112.733 119.832 112.56 119.394 112.356C117.76 112.695 115.707 112.725 113.113 114.703C111.385 116.02 109.751 116.948 108.195 118.465C103.771 122.782 101.092 126.229 95.4876 129.101C95.1756 129.34 94.9029 129.627 94.6792 129.951C93.6916 129.203 92.6228 129.324 91.4931 129.849C89.9304 130.577 88.6147 131.766 87.1806 132.707C86.6191 133.08 80.8353 136.584 79.6109 137.302C79.9716 136.059 80.0616 134.753 79.8748 133.473C79.0326 127.658 73.6039 125.464 68.6928 126.514C64.5156 127.408 62.4287 131.194 62.4287 135.105C62.4287 138.945 64.4581 141.748 67.7254 142.934C68.0071 143.036 68.2938 143.124 68.5845 143.198C69.4901 143.429 70.4202 143.549 71.3547 143.557C73.2685 143.588 75.1341 142.955 76.6345 141.765C77.1627 141.344 77.6405 140.864 78.0585 140.333C78.5585 139.694 78.9704 138.99 79.2829 138.24C80.4599 137.512 81.6336 136.781 82.8715 136.161C83.4769 135.856 84.0621 135.545 84.6371 135.186C85.2121 134.827 85.689 134.363 86.2572 134.004C87.5019 133.222 88.7365 132.46 89.9034 131.563C91.0703 130.665 92.9475 129.392 94.3004 130.455L94.1482 130.672C94.5169 130.56 94.5642 130.781 94.3714 130.977C94.1144 131.285 93.8235 131.603 93.5056 131.935C92.9407 134.434 94.598 136.733 97.1652 136.821C97.3952 136.696 97.5542 136.744 97.8789 136.483L97.6726 136.788C98.941 136.632 99.8271 135.714 100.811 135.095C105.073 132.349 109.127 129.293 112.94 125.952C113.302 125.64 113.59 125.234 114.114 125.464C114.713 125.728 114.49 126.402 114.496 126.897C114.544 130.882 113.377 134.705 112.856 138.62C111.956 145.334 110.272 151.934 109.866 158.727C109.866 158.811 109.866 158.893 109.866 158.974C109.912 158.94 109.965 158.915 110.021 158.902C110.077 158.888 110.136 158.886 110.192 158.895C110.249 158.904 110.304 158.925 110.353 158.955C110.402 158.985 110.444 159.025 110.478 159.072C110.799 159.411 110.414 159.749 109.913 160.024C110.13 161.619 111.033 162.58 112.721 162.878C114.561 163.217 116.928 161.788 117.354 159.986C117.466 159.516 117.567 159.042 117.669 158.571C117.554 158.571 117.449 158.551 117.365 158.537C117.394 158.414 117.449 158.298 117.526 158.197C117.603 158.096 117.7 158.012 117.811 157.951C118.244 155.92 118.636 153.888 119.113 151.856C119.82 148.876 120.5 145.883 121.532 142.995C121.792 142.27 122.11 141.467 123.033 141.454C124.085 141.454 124.122 142.432 124.281 143.113C124.873 145.639 125.384 148.192 125.898 150.725C126.382 153.096 126.598 155.523 127.018 157.911H127.562C127.539 158.137 127.548 158.365 127.589 158.588H127.143C127.278 159.265 127.43 159.973 127.62 160.654C127.709 161.079 127.905 161.475 128.188 161.805C128.471 162.134 128.833 162.387 129.24 162.54C131.824 163.667 134.597 161.378 134.432 158.659C134.432 158.588 134.432 158.517 134.432 158.446H134.225C134.294 158.243 134.331 158.03 134.337 157.816H134.395C134.009 151.203 133.823 144.576 133.042 137.993C132.498 133.122 132.296 128.22 132.436 123.321C132.453 122.491 132.511 121.516 133.715 121.628C136.935 121.922 140.053 121.289 143.185 120.72C145.793 120.243 150.606 117.564 153.224 116.044C153.099 116.064 152.987 116.013 152.872 115.952ZM75.9242 141.278C71.9364 143.648 66.7919 142.818 64.404 139.141C62.0161 135.464 63.6125 129.734 67.5225 128.007C70.8778 126.168 75.931 127.127 78.1329 130.835C80.0608 134.062 78.8736 139.513 75.9242 141.278Z" fill="#9C4D4B"/>
<path d="M124.025 113.467C125.522 113.548 127.014 113.229 128.347 112.543C128.712 112.358 129.061 112.146 129.392 111.906C131.364 110.487 132.775 108.127 132.775 104.927C132.71 98.7777 128.324 95.5337 123.111 95.6928C117.994 95.852 114.794 100.173 114.835 104.751C114.835 108.476 116.553 111.039 119.415 112.39C119.853 112.594 120.305 112.767 120.767 112.908C121.827 113.226 122.92 113.414 124.025 113.467ZM115.613 103.745C115.887 99.7631 119.07 96.448 124.207 96.7663C128.8 97.0507 132.149 99.7597 131.814 105.157C131.476 110.172 127.826 112.922 123.72 112.634C117.903 112.231 115.302 108.245 115.613 103.745Z" fill="#9C4D4B"/>
<path d="M217.455 65.9485C217.647 65.6483 217.817 65.3348 217.965 65.0105C218.49 63.8704 218.747 62.6252 218.716 61.3704C218.701 60.254 218.466 59.1516 218.024 58.1267C217.582 57.1018 216.941 56.1745 216.139 55.3984C215.338 54.6223 214.391 54.0126 213.353 53.6044C212.315 53.1962 211.206 52.9976 210.091 53.02C209.025 53.0181 207.969 53.229 206.985 53.6405C206.001 54.0521 205.109 54.6559 204.361 55.4168C203.613 56.1776 203.024 57.0802 202.629 58.0716C202.233 59.0631 202.039 60.1235 202.058 61.1909C202.136 66.3752 205.627 69.5751 211.055 69.4735C211.663 69.46 212.268 69.3793 212.858 69.2331C213.268 69.131 213.67 68.9963 214.059 68.8302C215.452 68.2291 216.634 67.2258 217.455 65.9485ZM210.639 68.7523C205.87 68.6947 202.779 65.5422 202.836 60.7879C202.88 57.0631 206.029 53.748 209.787 53.7345C214.458 53.7142 217.888 57.2731 217.779 61.7767C217.681 65.8639 214.674 68.7997 210.639 68.7523Z" fill="#9C4D4B"/>
<path d="M293.844 62.7147C299.594 62.8366 305.378 62.6944 311.142 62.481C311.493 62.4602 311.833 62.3431 312.123 62.1424C316.665 59.0034 322.073 56.1116 326.704 52.5189C324.695 52.5189 323.227 52.3292 321.887 52.4139C320.663 52.4918 319.432 52.5019 318.204 52.5155C314.859 52.5527 311.517 52.5155 308.172 52.5155C306.249 52.5019 304.332 52.4839 302.422 52.4613C301.475 52.4613 300.528 52.4613 299.581 52.4308C298.566 52.4308 297.518 52.1735 296.503 52.0753C296.188 52.0414 295.87 52.0143 295.556 51.9872C293.959 51.845 292.36 51.7028 290.756 51.7028C290.159 51.6901 289.561 51.7287 288.97 51.8179C288.286 51.9818 287.594 52.1106 286.897 52.2039C286.248 52.274 285.62 52.4744 285.05 52.7931C279.5 55.4784 274.64 59.0136 269.255 61.9122C270.073 62.5894 284.989 62.454 291.697 62.6741C292.4 62.6808 293.114 62.6978 293.844 62.7147Z" fill="#F9F9FA"/>
<path d="M327.12 53.5887C323.548 55.827 319.844 57.8858 316.442 60.3611C314.91 61.4752 313.607 62.359 312.383 62.8567C312.454 63.0936 312.473 63.3433 312.437 63.5881C312.271 64.8783 312.38 85.1989 312.025 93.8066C311.686 101.646 310.783 130.777 310.672 137.488C310.404 155.097 310.333 237.642 310.134 255.233C310.134 256.737 310.553 256.127 311.879 255.572C315.441 254.126 318.722 252.155 322.08 250.327C322.794 249.937 322.926 249.433 322.949 248.759C323.034 246.341 323.173 238.214 323.206 235.797C323.389 223.989 323.355 177.181 323.765 165.384C324.137 154.585 323.883 120.31 324.363 109.512C324.658 103.007 327.032 60.6489 327.448 53.2332L327.079 53.5921L327.12 53.5887Z" fill="#F9F9FA"/>
<path d="M309.931 63.2901C309.488 63.1852 307.147 63.2901 306.677 63.3274C300.43 63.9538 294.183 63.5102 287.939 63.3003C282.409 63.114 275.844 63.4053 269.505 62.9617C268.47 63.0531 268.335 63.3172 268.49 66.1684C268.707 70.3504 269.708 89.1945 270.067 94.4127C270.523 101.06 275.167 219.14 276.108 229.007C276.747 235.705 277.301 247.855 277.799 254.563C277.924 256.225 278.032 256.727 279.7 256.716C288.632 256.666 299.72 256.964 308.848 257.014C308.94 256.381 309.038 255.345 309.089 254.983C309.789 249.88 309.765 178.939 309.897 168.428C310.08 154.264 311.5 82.1749 311.615 72.0197C311.646 69.3548 311.324 66.209 311.507 63.5543C311.507 63.4459 311.507 63.2969 311.527 63.1479C311.007 63.2853 310.467 63.3334 309.931 63.2901Z" fill="#F9F9FA"/>
<path d="M322.165 52.4171L321.982 52.4679C316.489 54.0967 311.003 55.678 305.432 57.0732C294.774 59.7415 279.463 59.3656 273.594 59.3859C272.167 60.2494 270.726 61.079 269.245 61.8951C270.063 62.5723 284.979 62.4369 291.686 62.657C298.17 62.8703 304.647 62.7179 311.125 62.4809C311.476 62.4601 311.816 62.3429 312.105 62.1423C316.648 59.0033 322.056 56.1115 326.687 52.5187C324.82 52.539 323.426 52.3731 322.165 52.4171Z" fill="#F9F9FA"/>
<path d="M327.083 53.6295L327.12 53.5889C325.043 54.8892 322.922 56.1319 320.842 57.4288C320.761 67.7296 320.607 78.0293 320.379 88.3279C320.003 105.811 319.472 146.763 318.928 164.243C318.661 172.807 318.41 214.518 317.815 223.068C317.375 229.366 316.8 243.724 310.313 246.917C310.283 246.934 310.249 246.944 310.218 246.958C310.195 249.772 310.168 252.541 310.137 255.25C310.137 256.754 310.557 256.144 311.883 255.589C315.444 254.143 318.725 252.172 322.084 250.344C322.797 249.954 322.929 249.45 322.953 248.776C323.037 246.358 323.176 238.231 323.21 235.814C323.393 224.006 323.359 177.199 323.768 165.401C324.14 154.602 323.886 120.327 324.367 109.529C324.661 103.024 327.035 60.666 327.451 53.2502L327.083 53.6295Z" fill="#F9F9FA"/>
<path d="M311.51 63.5443C311.51 63.4359 311.51 63.2869 311.531 63.1379C311.013 68.1292 310.465 73.1204 310.049 78.1252C308.673 94.7176 308.497 217.118 308.192 221.046C307.874 225.127 307.424 229.356 306.234 233.291C304.33 239.545 298.918 248.854 292.671 249.744C289.762 250.164 286.87 250.364 283.941 250.523C282.717 250.588 281.489 250.655 280.268 250.791C280.132 250.814 279.994 250.831 279.859 250.858C279.365 250.953 278.878 251.062 278.391 251.197C278.116 251.273 277.835 251.327 277.552 251.36C277.637 252.421 277.721 253.487 277.802 254.56C277.927 256.222 278.035 256.723 279.703 256.713C288.636 256.662 299.723 256.96 308.852 257.011C308.943 256.378 309.041 255.342 309.092 254.98C309.792 249.877 309.768 178.936 309.9 168.425C310.083 154.26 311.504 82.1717 311.619 72.0165C311.649 69.3381 311.328 66.1923 311.51 63.5443Z" fill="#F9F9FA"/>
<path d="M308.791 257.373L308.764 257.333L308.794 257.36C308.815 257.268 308.835 257.14 308.855 256.991C299.723 256.94 288.639 256.652 279.706 256.693C278.039 256.693 277.931 256.202 277.806 254.539C277.298 247.831 276.744 235.681 276.114 228.984C275.174 219.116 270.53 101.036 270.074 94.3891C269.715 89.1608 268.721 70.3267 268.497 66.1448C268.349 63.2936 268.497 63.0295 269.512 62.9381C275.851 63.3783 282.416 63.0871 287.946 63.2767C294.19 63.4866 300.437 63.9302 306.684 63.3038C307.154 63.2564 309.495 63.1615 309.938 63.2665C310.475 63.3113 311.016 63.2644 311.538 63.1277C311.568 62.8094 311.656 62.4809 311.998 62.5046C312.089 62.515 312.174 62.553 312.243 62.6135C312.312 62.6741 312.361 62.7542 312.383 62.8432C313.614 62.3455 314.916 61.4617 316.442 60.3476C319.845 57.8689 323.545 55.8101 327.12 53.5752L327.083 53.6159L327.451 53.2569C327.492 52.5424 327.516 52.1496 327.516 52.1496C328.03 52.0785 328.287 52.2038 328.402 52.4442C328.451 52.3697 328.48 52.2835 328.485 52.1944C328.49 52.1052 328.472 52.0162 328.432 51.9363C328.199 51.3742 327.621 51.6417 327.171 51.6451C325.172 51.6688 323.173 51.5909 321.167 51.6451C318.799 51.7297 307.492 51.5367 298.258 51.4081C298.258 51.7467 298.258 52.0853 298.258 52.3867C307.289 52.5018 318.488 52.6102 321.864 52.3867C323.217 52.302 324.671 52.5018 326.68 52.4916C322.05 56.0844 316.641 58.9762 312.099 62.1152C311.809 62.3159 311.47 62.433 311.118 62.4538C304.641 62.6909 298.164 62.8432 291.68 62.6299C284.973 62.4098 270.057 62.5419 269.238 61.868C274.623 58.9694 279.483 55.4342 285.034 52.749C285.46 52.5498 285.899 52.3812 286.349 52.2445C287.026 52.2445 298.394 52.3596 300.095 52.3833C300.061 52.0447 300.027 51.7365 299.997 51.4148C297.91 51.4148 286.346 51.3031 285.835 51.337C285.554 51.3573 285.243 51.3573 285.111 51.5706C284.526 51.8163 283.961 52.1072 283.42 52.4408C278.641 55.0956 274.207 58.3532 269.299 60.7709C267.946 61.4278 267.591 62.1457 267.554 63.5611C267.391 69.6055 269.039 89.9362 269.269 94.1182C269.654 101.009 270.178 123.954 270.564 128.539C270.865 132.115 272.045 176.582 273.314 198.748C274.464 218.825 276.165 245.573 276.882 255.514C276.987 257.004 277.092 257.749 278.671 257.732C287.804 257.631 299.304 257.641 308.436 257.837C308.97 257.837 309.451 257.82 309.789 257.499C309.627 257.571 309.448 257.598 309.272 257.576C309.096 257.554 308.93 257.484 308.791 257.373Z" fill="#9C4D4B"/>
<path d="M323.947 238.719C324.265 217.013 324.623 136.838 325.019 115.123C325.134 108.933 325.533 102.75 325.675 96.5597C325.817 90.1868 328.023 63.5544 328.466 53.3518C328.528 53.05 328.51 52.7372 328.415 52.4443C328.3 52.2039 328.043 52.0786 327.529 52.1497C327.529 52.1497 327.505 52.5425 327.465 53.257C327.049 60.6728 324.674 103.034 324.38 109.536C323.9 120.327 324.153 154.602 323.781 165.408C323.372 177.205 323.406 224.013 323.223 235.82C323.189 238.238 323.051 246.365 322.966 248.783C322.942 249.46 322.81 249.961 322.097 250.351C318.738 252.179 315.457 254.15 311.896 255.596C310.57 256.138 310.134 256.747 310.15 255.257C310.343 237.666 310.895 155.104 311.165 137.512C311.267 130.787 311.71 101.656 312.034 93.8304C312.373 85.2227 312.281 64.9021 312.447 63.612C312.483 63.3671 312.464 63.1175 312.393 62.8806C312.371 62.7915 312.322 62.7114 312.253 62.6508C312.184 62.5903 312.098 62.5523 312.007 62.5419C311.669 62.5182 311.578 62.8467 311.547 63.165C311.547 63.314 311.547 63.463 311.527 63.5713C311.344 66.2193 311.666 69.3651 311.635 72.0368C311.52 82.1954 310.1 154.281 309.917 168.445C309.782 178.942 309.809 249.897 309.109 255C309.058 255.369 308.96 256.405 308.868 257.032C308.848 257.181 308.828 257.309 308.808 257.401C308.947 257.524 309.118 257.604 309.302 257.633C309.485 257.661 309.673 257.635 309.843 257.56C310.083 257.472 310.316 257.336 310.56 257.241C315.092 255.413 319.141 252.602 323.683 250.784C324.079 250.591 323.906 240.47 323.947 238.719Z" fill="#9C4D4B"/>
<path d="M330.921 79.6591C330.921 83.0148 330.306 89.6958 329.907 96.5596C329.464 104.439 329.23 112.563 328.834 116.2C330.187 103.481 330.996 96.414 331.003 78.5078C331.016 75.8191 330.918 81.8093 330.921 79.6591Z" fill="#9C4D4B"/>
<path d="M268.332 184.855C267.97 190.554 270.195 222.563 270.699 228.249C270.462 222.574 269.871 191.573 268.332 184.855Z" fill="#9C4D4B"/>
<path d="M317.226 258.416V257.963C315.39 257.864 313.553 257.756 311.713 257.675C311.429 257.675 311.077 257.726 311.037 258.088C310.986 258.576 311.375 258.582 311.73 258.626C313.577 258.874 315.403 258.674 317.226 258.416Z" fill="#9C4D4B"/>
<path d="M270.787 257.824C272.055 257.661 274.636 257.732 275.901 257.549C274.656 256.76 272.018 256.618 270.706 256.733C270.297 256.767 269.843 256.96 269.925 257.478C269.999 257.932 270.452 257.868 270.787 257.824Z" fill="#9C4D4B"/>
<path d="M295.052 57.3848C295.052 57.3848 298.059 57.5812 299.158 57.3408C298.99 57.065 298.898 56.7496 298.891 56.4265C298.908 55.194 297.947 54.8384 296.97 54.8079C295.925 54.7775 294.677 55.2718 295.052 57.3848Z" fill="#9C4D4B"/>
<path d="M296.814 12.5379C298.224 11.9419 300.376 11.7895 301.441 11.7489C306.853 11.5491 312.177 12.3855 317.51 13.2829C321.979 14.0346 326.531 14.4714 331.107 13.7231C329.278 13.1609 327.421 12.7919 325.628 12.1248C323.409 11.3053 321.383 10.0931 319.151 9.31761C318.782 9.18894 318.248 9.09074 318.417 8.49816C318.552 8.02747 319.016 8.15954 319.357 8.15954C321.505 8.07573 323.643 7.83695 325.757 7.44505C326.744 7.29267 327.711 7.02797 328.638 6.65606C326.802 6.57818 324.241 6.65606 322.611 6.45966C318.846 5.99914 315.275 4.70561 311.564 4.04192C307.722 3.36468 303.863 2.68744 299.922 3.08024C299.73 3.09773 299.539 3.12713 299.351 3.16828C296.882 3.69991 296.567 4.06901 296.672 6.57818C296.696 7.12675 296.746 9.3447 296.814 12.5379Z" fill="#F9F9FA"/>
<path d="M295.052 57.3848C295.052 57.3848 298.059 57.5812 299.158 57.3408C298.99 57.065 298.898 56.7496 298.891 56.4265C298.908 55.194 297.947 54.8384 296.97 54.8079C295.925 54.7775 294.677 55.2718 295.052 57.3848Z" fill="#9C4D4B"/>
<path d="M324.076 12.8968C321.329 12.3685 318.715 11.3628 316.053 10.5265C313.043 9.59864 311.176 9.1923 308.324 9.09749C304.455 8.96542 300.609 9.43611 296.757 9.77473C296.757 10.5739 296.794 11.4915 296.814 12.5142C298.225 11.9182 300.376 11.7658 301.441 11.7252C306.853 11.5254 312.177 12.3618 317.511 13.2591C321.979 14.0109 326.531 14.4477 331.108 13.6993L330.6 13.5503C328.411 13.5166 326.229 13.298 324.076 12.8968Z" fill="#F9F9FA"/>
<path d="M296.293 26.8075C296.513 37.965 296.885 50.4397 296.969 54.0223H297.068C297.296 54.0323 297.522 54.064 297.744 54.1171C297.643 52.0516 297.369 38.6829 297.122 26.6212C297.122 26.3368 297.037 22.4697 297.007 20.8985C297.007 20.6615 297.007 20.4245 297.007 20.1908C296.956 17.8205 296.912 15.5924 296.871 13.6622C298.387 11.7186 308.016 12.4703 312.67 13.2898C318.569 14.3293 324.475 15.1285 330.482 14.5494C332.075 14.397 333.549 13.8383 335.494 13.3676C331.926 13.5878 325.039 11.1937 321.545 9.46336C320.554 8.94188 320.25 9.01638 320.25 9.01638C320.737 8.92157 322.07 8.71163 322.425 8.67776C323.462 8.56016 324.493 8.3895 325.513 8.16645C327.962 7.55693 330.468 7.0998 333.116 5.68437C332.723 5.62356 332.324 5.59863 331.926 5.60987C328.152 6.3298 324.266 6.21422 320.541 5.27125C315.339 4.0319 310.144 2.77563 304.793 2.32526C302.797 2.15934 300.812 2.08145 298.853 2.6097C297.105 3.077 295.786 3.4427 295.836 5.25432C295.836 5.60987 295.989 7.21493 296.012 7.57048C296.06 8.65067 296.29 26.5772 296.293 26.8075ZM299.337 3.15826C299.526 3.11712 299.717 3.08771 299.909 3.07022C303.863 2.67742 307.712 3.35466 311.564 4.0319C315.285 4.70914 318.846 5.98912 322.611 6.44965C324.231 6.64943 326.802 6.56816 328.638 6.64605C327.711 7.01795 326.744 7.28266 325.756 7.43503C323.643 7.82693 321.505 8.06571 319.357 8.14952C319.019 8.14952 318.552 8.02762 318.417 8.48814C318.248 9.08072 318.782 9.16538 319.151 9.3076C321.383 10.0695 323.409 11.2953 325.628 12.1148C327.421 12.792 329.277 13.1509 331.107 13.713C326.531 14.4614 321.975 14.0246 317.51 13.2728C312.176 12.3755 306.87 11.5391 301.441 11.7389C300.375 11.7795 298.224 11.9319 296.814 12.5279C296.746 9.33468 296.695 7.10996 296.672 6.55801C296.567 4.05899 296.888 3.69328 299.351 3.15826H299.337Z" fill="#9C4D4B"/>
<path d="M297.727 54.1169C297.505 54.0638 297.279 54.0321 297.051 54.0221H296.953C294.639 53.9916 294.162 55.7457 294.193 57.6826C294.264 57.6826 294.565 58.0043 294.754 58.0212C296.302 58.173 297.859 58.2081 299.412 58.1262C299.54 58.1262 299.73 58.1431 299.75 58.0246C299.882 57.6354 299.935 57.2234 299.904 56.8134C299.874 56.4033 299.761 56.0037 299.572 55.6386C299.383 55.2735 299.122 54.9505 298.805 54.689C298.488 54.4275 298.121 54.2329 297.727 54.1169Z" fill="#9C4D4B"/>
<path d="M299.158 56.677C299.131 56.9019 299.131 57.1293 299.158 57.3542C298.059 57.5947 295.052 57.3983 295.052 57.3983C294.677 55.2853 295.925 54.7909 296.97 54.8214C297.947 54.8248 299.175 55.4478 299.158 56.677Z" fill="#9C4D4B"/>
<path d="M315.008 16.449C320.112 18.0913 325.314 17.5766 330.502 17.0991C325.327 17.0077 320.132 17.6274 315.008 16.449Z" fill="#9C4D4B"/>
<path d="M292.894 2.37595C294.152 1.23142 295.908 1.25512 297.291 0.5C295.624 0.662537 293.878 0.672694 292.894 2.37595Z" fill="#9C4D4B"/>
<path d="M301.813 57.957L301.391 57.869L300.2 57.7742C299.862 57.8961 299.936 58.15 300.345 58.15H301.509C301.918 58.15 302.223 57.957 301.813 57.957Z" fill="#9C4D4B"/>
<path d="M14.6908 237.077H16.8758C16.9468 237.077 17.5286 237.679 18.6211 238.878C19.7136 240.077 20.9448 241.448 22.3112 242.982L25.9641 247.086L27.5538 248.888V237.077H29.7354C29.9629 237.078 30.1852 237.145 30.3762 237.268C30.5673 237.392 30.7193 237.567 30.8144 237.774C30.9729 238.067 31.0533 238.396 31.0478 238.729V252.7C31.0544 252.958 31.0086 253.214 30.9133 253.453C30.8179 253.693 30.675 253.91 30.4931 254.092C30.3859 254.181 30.2648 254.252 30.1346 254.302C29.9776 254.364 29.8088 254.389 29.6407 254.377H27.6113C27.5324 254.377 26.9439 253.777 25.8458 252.579C24.7476 251.38 23.5074 250.011 22.1252 248.471C20.7542 246.938 19.5388 245.57 18.479 244.367L16.8893 242.579V254.377H14.7517C14.4713 254.39 14.1953 254.302 13.9738 254.129C13.7199 253.906 13.5375 253.613 13.4495 253.286C13.3975 253.105 13.3713 252.917 13.3717 252.728V238.766C13.3611 238.516 13.4032 238.266 13.4952 238.032C13.5873 237.799 13.7273 237.587 13.9061 237.412C14.0063 237.304 14.1279 237.219 14.263 237.161C14.3982 237.103 14.5439 237.074 14.6908 237.077Z" fill="#8A8A8A"/>
<path d="M68.6522 237.077H75.6062C76.83 237.099 78.0004 237.583 78.8837 238.431C79.1143 238.626 79.3261 238.843 79.5162 239.078L79.6413 239.213C79.9593 239.677 80.1859 240.033 80.3178 240.283C81.0006 241.593 81.3492 243.052 81.3325 244.53V246.927C81.3611 248.655 80.8786 250.353 79.9458 251.807C79.7341 252.119 79.4929 252.411 79.2253 252.677C78.9293 253.003 78.5941 253.29 78.2275 253.534C77.4467 254.077 76.5199 254.371 75.569 254.377H68.6691C67.3718 254.36 66.1324 253.837 65.2157 252.917C64.9565 252.645 64.7116 252.359 64.4817 252.061C64.229 251.728 64.0103 251.37 63.8289 250.994C63.2107 249.751 62.8954 248.38 62.909 246.991V244.496C62.8874 242.861 63.3296 241.253 64.1841 239.86C64.3059 239.677 64.5054 239.396 64.7828 239.014C65.0018 238.766 65.2429 238.54 65.5032 238.336C66.3655 237.548 67.4846 237.1 68.6522 237.077ZM66.4097 244.591V246.853C66.3924 247.378 66.4954 247.9 66.7107 248.38C66.7898 248.607 66.9039 248.821 67.0489 249.013C67.235 249.286 67.4841 249.509 67.775 249.665C68.0659 249.82 68.39 249.904 68.7198 249.907H75.5183C76.2759 249.907 76.8712 249.514 77.3616 248.729C77.4928 248.515 77.6006 248.288 77.683 248.051C77.7951 247.647 77.8464 247.228 77.8352 246.809V244.699C77.8523 244.293 77.8066 243.886 77.6999 243.494C77.5339 242.892 77.178 242.359 76.6852 241.976C76.3575 241.714 75.9513 241.57 75.5318 241.567H68.7097C67.9588 241.567 67.3567 241.973 66.846 242.786C66.723 242.99 66.6242 243.209 66.5517 243.436C66.4425 243.811 66.3945 244.201 66.4097 244.591Z" fill="#8A8A8A"/>
<path d="M112.417 237.077H127.434C127.612 237.074 127.788 237.112 127.95 237.187C128.111 237.263 128.253 237.375 128.364 237.513C128.473 237.635 128.561 237.773 128.625 237.923C128.729 238.154 128.789 238.402 128.801 238.655V241.587H121.566V254.377H119.316C119.142 254.367 118.971 254.319 118.817 254.235C118.663 254.152 118.53 254.034 118.427 253.893C118.418 253.881 118.411 253.869 118.407 253.855C118.378 253.82 118.352 253.783 118.329 253.744C118.147 253.453 118.05 253.118 118.048 252.775V241.601H111.05V239.315C111.031 239.016 111.044 238.717 111.087 238.421C111.129 238.137 111.231 237.865 111.388 237.625C111.487 237.504 111.6 237.396 111.727 237.304C111.921 237.145 112.166 237.064 112.417 237.077Z" fill="#8A8A8A"/>
<path d="M177.878 237.077C178.086 237.08 178.289 237.138 178.467 237.245C178.645 237.352 178.792 237.504 178.893 237.686C179.03 237.896 179.12 238.132 179.156 238.38C179.177 238.521 179.186 238.662 179.183 238.804V241.35H166.909V243.846H175.514V247.598H166.929V250.242H179.183V252.741C179.181 253.123 179.063 253.495 178.845 253.808C178.764 253.925 178.666 254.03 178.554 254.119C178.35 254.278 178.096 254.361 177.837 254.353H164.639C164.511 254.345 164.386 254.312 164.271 254.255C163.924 254.081 163.66 253.778 163.533 253.412C163.454 253.171 163.414 252.92 163.415 252.667V243.957C163.415 243.538 163.415 242.164 163.415 239.836V238.695C163.422 238.398 163.492 238.106 163.621 237.839C163.736 237.604 163.909 237.403 164.125 237.256C164.222 237.191 164.33 237.144 164.443 237.117C164.5 237.098 164.559 237.085 164.619 237.08L177.878 237.077Z" fill="#8A8A8A"/>
<path d="M227.889 237.077H230.73C231.031 237.088 231.323 237.179 231.577 237.341C231.831 237.503 232.037 237.729 232.174 237.998C232.321 238.271 232.451 238.552 232.563 238.841C232.587 238.892 232.611 238.939 232.631 238.99C232.69 239.105 233.188 240.222 234.126 242.342C234.39 242.947 234.693 243.635 235.036 244.404C237.164 249.217 238.257 251.677 238.313 251.783L239.45 254.377H236.463C235.672 254.377 235.09 253.902 234.718 252.951C234.451 252.372 234.258 251.935 234.133 251.658C234.083 251.527 234.025 251.399 233.96 251.275H224.696C224.687 251.276 224.679 251.278 224.672 251.282C224.664 251.286 224.657 251.292 224.652 251.299C224.631 251.327 224.62 251.362 224.618 251.397L223.746 253.361C223.604 253.66 223.383 253.913 223.105 254.093C222.828 254.272 222.506 254.371 222.176 254.377H219.196V254.356C220.628 251.119 221.868 248.312 222.917 245.935C223.76 244.039 224.437 242.507 224.946 241.34C225.751 239.534 226.172 238.59 226.208 238.509C226.303 238.282 226.416 238.062 226.546 237.852C226.688 237.622 226.885 237.43 227.12 237.295C227.354 237.159 227.618 237.084 227.889 237.077ZM229.313 240.768L226.269 247.611H232.357C230.375 243.155 229.364 240.874 229.323 240.768H229.313Z" fill="#8A8A8A"/>
<path d="M285.338 237.077H288.412C288.899 237.077 289.255 237.381 289.481 237.984C289.545 238.109 289.961 239.03 290.733 240.754L294.135 248.292C294.183 248.393 294.331 248.718 294.582 249.274C294.618 249.183 295.142 248.02 296.155 245.782C297.638 242.505 298.421 240.766 298.502 240.568C298.567 240.441 298.997 239.493 299.791 237.723C299.913 237.475 300.114 237.274 300.362 237.151C300.496 237.098 300.638 237.073 300.782 237.077H303.826V252.917C303.842 253.162 303.798 253.408 303.698 253.633C303.599 253.857 303.446 254.055 303.254 254.207C303.104 254.325 302.92 254.39 302.73 254.394H300.362V245.4C300.234 245.671 299.557 247.156 298.333 249.856L296.888 253.124C296.812 253.305 296.686 253.461 296.524 253.573C296.362 253.686 296.172 253.749 295.975 253.757H293.232C293.043 253.751 292.858 253.692 292.701 253.587C292.543 253.481 292.418 253.334 292.339 253.161C292.299 253.097 291.92 252.25 291.196 250.628C291.149 250.538 290.609 249.345 289.576 247.049C289.206 246.229 288.957 245.68 288.828 245.4V254.366H286.461C286.291 254.358 286.125 254.308 285.98 254.219C285.834 254.13 285.714 254.006 285.629 253.859C285.455 253.593 285.364 253.282 285.365 252.965V237.09C285.365 237.09 285.331 237.077 285.338 237.077Z" fill="#8A8A8A"/>
</g>
<defs>
<clipPath id="clip0_1266_3319">
<rect width="334.928" height="259" fill="white" transform="translate(0.535645 0.5)"/>
</clipPath>
</defs>
</svg>
