<svg width="302" height="260" viewBox="0 0 302 260" fill="none" xmlns="http://www.w3.org/2000/svg">
<g clip-path="url(#clip0_1266_2623)">
<path d="M148.171 243.717H148.119C146.552 243.717 144.964 243.685 143.406 243.627C143.328 243.624 143.252 243.606 143.181 243.574C143.111 243.541 143.047 243.495 142.994 243.438C142.941 243.381 142.9 243.314 142.873 243.241C142.846 243.168 142.833 243.091 142.836 243.013C142.839 242.935 142.857 242.859 142.889 242.788C142.922 242.717 142.968 242.654 143.025 242.601C143.082 242.548 143.149 242.507 143.221 242.479C143.294 242.452 143.372 242.44 143.45 242.443C144.996 242.501 146.566 242.53 148.119 242.53H148.171C148.328 242.53 148.479 242.592 148.591 242.704C148.702 242.815 148.764 242.966 148.764 243.123C148.764 243.281 148.702 243.432 148.591 243.543C148.479 243.655 148.328 243.717 148.171 243.717ZM152.913 243.624C152.835 243.626 152.757 243.611 152.685 243.583C152.612 243.554 152.546 243.512 152.49 243.457C152.377 243.348 152.312 243.198 152.309 243.041C152.306 242.883 152.366 242.731 152.476 242.618C152.585 242.505 152.735 242.44 152.892 242.437C154.459 242.376 156.044 242.283 157.605 242.147C157.762 242.135 157.916 242.185 158.036 242.288C158.155 242.39 158.228 242.536 158.24 242.692C158.252 242.849 158.202 243.004 158.099 243.123C157.997 243.242 157.851 243.316 157.695 243.328C156.119 243.453 154.52 243.546 152.936 243.618L152.913 243.624ZM138.694 243.354H138.647C137.068 243.232 135.472 243.064 133.903 242.896C133.746 242.877 133.604 242.798 133.506 242.675C133.408 242.551 133.364 242.394 133.382 242.238C133.4 242.082 133.479 241.939 133.602 241.841C133.726 241.744 133.883 241.699 134.039 241.717C135.594 241.9 137.176 242.051 138.737 242.173C138.894 242.178 139.042 242.246 139.149 242.362C139.256 242.477 139.313 242.63 139.307 242.787C139.301 242.944 139.234 243.092 139.118 243.199C139.003 243.306 138.851 243.363 138.694 243.357V243.354ZM162.37 242.884C162.213 242.893 162.059 242.84 161.942 242.736C161.825 242.631 161.754 242.485 161.744 242.328C161.735 242.171 161.789 242.017 161.893 241.9C161.997 241.783 162.143 241.712 162.3 241.702C163.858 241.52 165.431 241.302 166.978 241.058C167.132 241.034 167.289 241.072 167.415 241.163C167.541 241.255 167.625 241.393 167.65 241.547C167.674 241.701 167.636 241.858 167.544 241.984C167.453 242.11 167.315 242.195 167.161 242.219C165.602 242.466 164.012 242.684 162.439 242.869L162.37 242.884ZM129.271 242.254H129.178C127.617 242.007 126.036 241.729 124.486 241.424C124.41 241.409 124.337 241.379 124.273 241.336C124.208 241.293 124.152 241.237 124.109 241.173C124.066 241.108 124.036 241.036 124.021 240.959C124.005 240.883 124.005 240.805 124.02 240.728C124.035 240.652 124.065 240.58 124.108 240.515C124.151 240.45 124.207 240.395 124.271 240.351C124.336 240.308 124.408 240.278 124.484 240.263C124.561 240.248 124.639 240.247 124.715 240.263C126.25 240.553 127.814 240.843 129.358 241.084C129.436 241.09 129.511 241.111 129.58 241.147C129.649 241.182 129.711 241.23 129.761 241.289C129.812 241.349 129.85 241.417 129.874 241.491C129.898 241.565 129.907 241.642 129.901 241.72C129.895 241.797 129.874 241.873 129.838 241.942C129.803 242.011 129.755 242.072 129.696 242.123C129.637 242.173 129.568 242.212 129.494 242.236C129.421 242.26 129.343 242.269 129.265 242.263L129.271 242.254ZM171.74 241.406C171.586 241.422 171.432 241.375 171.312 241.277C171.193 241.179 171.117 241.038 171.101 240.884C171.086 240.73 171.132 240.576 171.23 240.456C171.328 240.336 171.47 240.26 171.624 240.245C173.162 239.955 174.714 239.601 176.235 239.235C176.311 239.216 176.39 239.212 176.468 239.223C176.546 239.235 176.62 239.262 176.688 239.302C176.755 239.343 176.814 239.396 176.861 239.459C176.907 239.522 176.941 239.594 176.96 239.67C176.979 239.747 176.983 239.826 176.972 239.904C176.96 239.981 176.933 240.056 176.893 240.123C176.852 240.191 176.799 240.25 176.736 240.296C176.673 240.343 176.601 240.377 176.525 240.396C174.987 240.765 173.42 241.107 171.882 241.415C171.834 241.418 171.787 241.415 171.74 241.406ZM119.965 240.419C119.919 240.419 119.873 240.413 119.829 240.402C118.291 240.033 116.738 239.633 115.215 239.203C115.14 239.182 115.07 239.146 115.009 239.098C114.947 239.05 114.896 238.991 114.858 238.923C114.82 238.855 114.796 238.78 114.786 238.703C114.777 238.626 114.783 238.548 114.804 238.473C114.825 238.398 114.86 238.328 114.909 238.267C114.957 238.205 115.016 238.154 115.084 238.116C115.152 238.078 115.226 238.054 115.303 238.044C115.381 238.035 115.459 238.041 115.534 238.062C117.043 238.486 118.581 238.884 120.101 239.249C120.255 239.267 120.396 239.346 120.492 239.468C120.588 239.589 120.632 239.744 120.614 239.898C120.595 240.052 120.517 240.193 120.395 240.289C120.274 240.385 120.119 240.429 119.965 240.411V240.419ZM180.965 239.197C180.811 239.219 180.655 239.178 180.531 239.085C180.407 238.991 180.325 238.852 180.303 238.698C180.282 238.544 180.322 238.388 180.416 238.263C180.509 238.139 180.648 238.057 180.802 238.036C182.311 237.609 183.832 237.148 185.321 236.666C185.394 236.642 185.472 236.632 185.55 236.639C185.627 236.645 185.703 236.666 185.772 236.701C185.841 236.737 185.903 236.785 185.953 236.844C186.004 236.904 186.042 236.972 186.066 237.046C186.09 237.12 186.1 237.198 186.093 237.275C186.087 237.353 186.066 237.428 186.031 237.498C185.995 237.567 185.947 237.629 185.888 237.679C185.829 237.73 185.76 237.768 185.686 237.792C184.183 238.283 182.648 238.747 181.124 239.177C181.072 239.191 181.019 239.197 180.965 239.197ZM110.833 237.853C110.771 237.852 110.709 237.842 110.65 237.824C109.141 237.333 107.62 236.808 106.132 236.259C106.059 236.232 105.992 236.191 105.934 236.139C105.877 236.086 105.831 236.022 105.798 235.951C105.765 235.881 105.747 235.804 105.743 235.726C105.74 235.648 105.752 235.57 105.779 235.497C105.806 235.424 105.847 235.357 105.9 235.299C105.953 235.242 106.016 235.196 106.087 235.163C106.158 235.13 106.234 235.112 106.312 235.109C106.39 235.105 106.468 235.118 106.541 235.145C108.015 235.69 109.521 236.21 111.016 236.695C111.17 236.719 111.308 236.803 111.399 236.929C111.491 237.055 111.529 237.213 111.505 237.367C111.48 237.521 111.396 237.659 111.27 237.751C111.144 237.842 110.987 237.88 110.833 237.856V237.853ZM189.987 236.262C189.833 236.289 189.674 236.255 189.546 236.165C189.418 236.075 189.331 235.939 189.303 235.785C189.276 235.631 189.311 235.472 189.4 235.344C189.49 235.216 189.627 235.128 189.781 235.101C191.246 234.561 192.72 233.983 194.162 233.382C194.236 233.353 194.315 233.338 194.394 233.338C194.473 233.339 194.552 233.355 194.625 233.386C194.698 233.417 194.764 233.462 194.82 233.519C194.875 233.576 194.919 233.643 194.949 233.716C194.979 233.79 194.994 233.869 194.993 233.948C194.992 234.027 194.976 234.106 194.945 234.179C194.914 234.252 194.869 234.318 194.812 234.374C194.756 234.429 194.689 234.473 194.615 234.503C193.164 235.107 191.67 235.69 190.19 236.245C190.124 236.263 190.055 236.269 189.987 236.262ZM101.91 234.561C101.831 234.561 101.753 234.546 101.68 234.517C100.229 233.911 98.7437 233.263 97.3044 232.601C97.1618 232.535 97.0514 232.414 96.997 232.266C96.9427 232.119 96.9489 231.955 97.0142 231.812C97.0454 231.74 97.0909 231.675 97.1478 231.621C97.2048 231.568 97.272 231.526 97.3455 231.499C97.4189 231.472 97.4971 231.46 97.5754 231.464C97.6536 231.468 97.7302 231.487 97.8006 231.522C99.2283 232.178 100.685 232.816 102.136 233.417C102.211 233.432 102.282 233.462 102.346 233.504C102.409 233.546 102.464 233.601 102.506 233.664C102.548 233.728 102.578 233.799 102.593 233.874C102.608 233.949 102.608 234.026 102.593 234.101C102.578 234.176 102.549 234.247 102.506 234.311C102.464 234.374 102.409 234.429 102.346 234.471C102.283 234.514 102.211 234.543 102.136 234.558C102.062 234.573 101.985 234.573 101.91 234.558V234.561ZM198.724 232.636C198.578 232.66 198.428 232.627 198.305 232.544C198.183 232.46 198.096 232.333 198.064 232.188C198.033 232.043 198.057 231.892 198.133 231.765C198.21 231.637 198.332 231.544 198.475 231.504C199.894 230.848 201.318 230.157 202.711 229.446C202.851 229.375 203.014 229.362 203.163 229.411C203.313 229.46 203.437 229.566 203.508 229.706C203.579 229.846 203.592 230.009 203.543 230.158C203.494 230.307 203.388 230.431 203.248 230.503C201.844 231.22 200.404 231.919 198.971 232.581C198.894 232.617 198.809 232.636 198.724 232.636ZM93.2766 230.578C93.1838 230.578 93.0923 230.557 93.0096 230.514C91.5964 229.791 90.1803 229.034 88.7991 228.259C88.6621 228.182 88.5613 228.053 88.5188 227.902C88.4764 227.751 88.4957 227.589 88.5727 227.452C88.6497 227.315 88.7779 227.214 88.9292 227.171C89.0805 227.129 89.2424 227.148 89.3794 227.225C90.7491 227.992 92.1507 228.743 93.5465 229.458C93.6792 229.507 93.7892 229.604 93.8557 229.729C93.9221 229.854 93.9405 229.999 93.9073 230.137C93.8741 230.275 93.7917 230.396 93.6755 230.477C93.5593 230.558 93.4174 230.594 93.2766 230.578ZM207.154 228.331C207.015 228.347 206.876 228.312 206.761 228.233C206.646 228.154 206.563 228.036 206.528 227.901C206.493 227.766 206.507 227.623 206.569 227.498C206.631 227.372 206.735 227.274 206.864 227.219C208.228 226.456 209.595 225.652 210.926 224.833C211.06 224.751 211.221 224.726 211.374 224.762C211.527 224.799 211.658 224.895 211.74 225.029C211.822 225.163 211.848 225.324 211.811 225.477C211.774 225.629 211.678 225.761 211.545 225.843C210.198 226.671 208.817 227.481 207.441 228.253C207.354 228.303 207.255 228.33 207.154 228.331ZM84.986 225.927C84.8766 225.927 84.7694 225.897 84.6755 225.84C83.3262 225.013 81.9768 224.145 80.6594 223.263C80.5948 223.219 80.5393 223.164 80.4962 223.099C80.4531 223.034 80.4231 222.962 80.408 222.885C80.3929 222.809 80.393 222.731 80.4083 222.654C80.4235 222.578 80.4536 222.506 80.4969 222.441C80.5401 222.376 80.5957 222.321 80.6603 222.278C80.725 222.235 80.7976 222.205 80.8738 222.19C80.9501 222.174 81.0285 222.175 81.1048 222.19C81.181 222.205 81.2535 222.235 81.3181 222.278C82.621 223.149 83.9617 224.02 85.2965 224.83C85.3641 224.87 85.423 224.923 85.4696 224.986C85.5162 225.049 85.5496 225.12 85.5678 225.197C85.5859 225.273 85.5885 225.352 85.5753 225.429C85.5621 225.506 85.5334 225.58 85.4909 225.646C85.4392 225.732 85.366 225.803 85.2785 225.853C85.1911 225.902 85.0923 225.928 84.9918 225.927H84.986ZM215.221 223.373C215.089 223.384 214.957 223.349 214.847 223.275C214.737 223.2 214.656 223.09 214.618 222.964C214.579 222.837 214.585 222.7 214.635 222.577C214.684 222.454 214.775 222.352 214.89 222.287C216.193 221.416 217.502 220.508 218.759 219.587C218.886 219.495 219.044 219.457 219.199 219.481C219.354 219.506 219.493 219.591 219.586 219.718C219.678 219.845 219.716 220.004 219.692 220.159C219.667 220.314 219.582 220.453 219.455 220.545C218.178 221.474 216.864 222.392 215.549 223.271C215.454 223.336 215.342 223.372 215.227 223.373H215.221ZM77.093 220.644C76.9677 220.645 76.8456 220.605 76.7448 220.531C75.465 219.599 74.1853 218.629 72.9433 217.648C72.8822 217.6 72.8311 217.54 72.793 217.472C72.755 217.404 72.7307 217.329 72.7215 217.252C72.7123 217.175 72.7185 217.096 72.7396 217.021C72.7608 216.946 72.7965 216.876 72.8447 216.815C72.8929 216.754 72.9527 216.703 73.0206 216.665C73.0885 216.627 73.1633 216.602 73.2406 216.593C73.318 216.584 73.3964 216.59 73.4713 216.611C73.5463 216.632 73.6163 216.668 73.6775 216.716C74.9079 217.689 76.1731 218.65 77.4499 219.573C77.5596 219.642 77.6431 219.745 77.6873 219.867C77.7314 219.988 77.7337 220.121 77.6937 220.244C77.6536 220.367 77.5737 220.474 77.4664 220.546C77.3591 220.618 77.2308 220.653 77.1017 220.644H77.093ZM222.882 217.796C222.755 217.806 222.628 217.773 222.521 217.702C222.414 217.632 222.333 217.529 222.291 217.408C222.249 217.287 222.248 217.156 222.288 217.034C222.329 216.913 222.408 216.808 222.514 216.737C223.744 215.767 224.971 214.76 226.161 213.744C226.28 213.642 226.435 213.591 226.592 213.603C226.748 213.616 226.893 213.69 226.995 213.809C227.097 213.928 227.148 214.083 227.136 214.24C227.123 214.396 227.049 214.542 226.93 214.644C225.729 215.671 224.49 216.676 223.248 217.668C223.146 217.75 223.021 217.795 222.891 217.796H222.882ZM69.6497 214.763C69.5093 214.762 69.3737 214.711 69.2667 214.62C68.0624 213.59 66.8639 212.524 65.7032 211.45C65.646 211.397 65.5998 211.334 65.5672 211.263C65.5346 211.193 65.5162 211.116 65.5131 211.038C65.5069 210.881 65.5632 210.728 65.6698 210.613C65.7764 210.497 65.9245 210.429 66.0815 210.423C66.2385 210.416 66.3916 210.473 66.507 210.579C67.6678 211.642 68.8459 212.699 70.0357 213.717C70.0964 213.767 70.1465 213.828 70.1828 213.898C70.2192 213.967 70.2412 214.043 70.2475 214.121C70.2537 214.199 70.2441 214.278 70.2191 214.352C70.1942 214.426 70.1545 214.495 70.1024 214.554C70.0463 214.619 69.9769 214.671 69.8988 214.707C69.8207 214.743 69.7357 214.762 69.6497 214.763ZM230.099 211.636C229.976 211.643 229.854 211.612 229.751 211.545C229.647 211.479 229.568 211.381 229.523 211.267C229.479 211.152 229.472 211.026 229.503 210.908C229.535 210.789 229.603 210.683 229.699 210.605C230.859 209.543 231.991 208.443 233.1 207.334C233.211 207.222 233.362 207.16 233.519 207.16C233.676 207.16 233.827 207.222 233.938 207.334C234.049 207.445 234.112 207.596 234.112 207.753C234.112 207.911 234.049 208.061 233.938 208.173C232.833 209.293 231.672 210.408 230.511 211.476C230.4 211.582 230.252 211.639 230.099 211.636ZM62.6853 208.318C62.6075 208.318 62.5304 208.303 62.4587 208.273C62.3869 208.243 62.3218 208.199 62.2674 208.144C61.1473 207.026 60.0359 205.868 58.9622 204.707C58.8556 204.591 58.7992 204.438 58.8055 204.281C58.8118 204.124 58.8801 203.976 58.9956 203.869C59.111 203.762 59.2641 203.706 59.4211 203.712C59.5781 203.719 59.7262 203.787 59.8328 203.902C60.8948 205.064 61.9975 206.199 63.1031 207.305C63.1598 207.359 63.2048 207.424 63.2356 207.496C63.2664 207.568 63.2823 207.646 63.2823 207.724C63.2823 207.803 63.2664 207.88 63.2356 207.952C63.2048 208.024 63.1598 208.089 63.1031 208.144C63.0487 208.199 62.9837 208.243 62.9119 208.273C62.8401 208.303 62.763 208.318 62.6853 208.318ZM236.811 204.927C236.693 204.933 236.576 204.903 236.476 204.841C236.375 204.779 236.296 204.688 236.249 204.58C236.202 204.472 236.188 204.352 236.211 204.236C236.234 204.12 236.291 204.014 236.376 203.931C237.438 202.77 238.494 201.595 239.516 200.404C239.618 200.285 239.763 200.211 239.919 200.199C240.076 200.187 240.231 200.237 240.35 200.339C240.469 200.441 240.543 200.586 240.555 200.743C240.567 200.899 240.517 201.054 240.415 201.174C239.385 202.375 238.32 203.574 237.243 204.738C237.189 204.798 237.122 204.846 237.047 204.879C236.973 204.911 236.892 204.928 236.811 204.927ZM56.2461 201.354C56.1603 201.354 56.0755 201.336 55.9977 201.3C55.92 201.263 55.8512 201.21 55.7963 201.145C54.7661 199.943 53.765 198.703 52.7696 197.464C52.6719 197.34 52.6272 197.183 52.6455 197.026C52.6637 196.87 52.7433 196.727 52.8668 196.629C52.9904 196.531 53.1477 196.486 53.3041 196.505C53.4606 196.523 53.6034 196.603 53.7011 196.726C54.6704 197.957 55.6773 199.182 56.6958 200.375C56.7976 200.495 56.8481 200.65 56.8361 200.806C56.8241 200.963 56.7508 201.109 56.632 201.211C56.5237 201.302 56.3873 201.352 56.2461 201.354ZM242.989 197.713C242.856 197.714 242.727 197.669 242.623 197.585C242.561 197.538 242.508 197.479 242.469 197.411C242.43 197.343 242.405 197.268 242.396 197.19C242.387 197.112 242.394 197.033 242.416 196.958C242.438 196.883 242.475 196.813 242.525 196.752C243.497 195.524 244.457 194.256 245.38 192.978C245.426 192.916 245.484 192.862 245.55 192.822C245.616 192.781 245.69 192.754 245.767 192.742C245.843 192.73 245.922 192.733 245.997 192.751C246.073 192.769 246.144 192.802 246.207 192.848C246.27 192.894 246.323 192.951 246.364 193.018C246.405 193.084 246.432 193.158 246.444 193.234C246.456 193.311 246.453 193.39 246.435 193.465C246.416 193.541 246.383 193.612 246.338 193.675C245.406 194.955 244.437 196.236 243.456 197.478C243.402 197.551 243.332 197.61 243.251 197.651C243.169 197.692 243.08 197.713 242.989 197.713ZM50.3843 193.91C50.2905 193.911 50.1979 193.889 50.1142 193.846C50.0305 193.804 49.958 193.742 49.9026 193.666C48.974 192.386 48.057 191.074 47.1778 189.759C47.0904 189.628 47.0585 189.469 47.0889 189.315C47.1194 189.16 47.2098 189.025 47.3403 188.937C47.4707 188.85 47.6305 188.818 47.7845 188.849C47.9385 188.879 48.0741 188.969 48.1615 189.1C49.0321 190.401 49.9403 191.713 50.8631 192.967C50.9549 193.095 50.9927 193.253 50.9682 193.409C50.9438 193.564 50.8591 193.704 50.7325 193.797C50.6277 193.872 50.5016 193.912 50.3727 193.91H50.3843ZM248.581 190.038C248.464 190.038 248.35 190.002 248.253 189.936C248.187 189.894 248.131 189.839 248.087 189.774C248.042 189.71 248.012 189.637 247.997 189.56C247.982 189.483 247.982 189.404 247.998 189.328C248.014 189.251 248.046 189.179 248.09 189.115C248.961 187.811 249.832 186.47 250.644 185.135C250.685 185.068 250.738 185.011 250.801 184.965C250.864 184.919 250.936 184.886 251.012 184.868C251.087 184.85 251.166 184.847 251.243 184.86C251.32 184.872 251.393 184.899 251.46 184.94C251.526 184.981 251.583 185.034 251.629 185.097C251.675 185.16 251.708 185.232 251.726 185.308C251.744 185.383 251.747 185.462 251.734 185.539C251.722 185.616 251.695 185.689 251.654 185.756C250.824 187.106 249.956 188.458 249.074 189.773C249.02 189.858 248.944 189.926 248.855 189.973C248.766 190.019 248.667 190.041 248.566 190.038H248.581ZM45.1 186.023C44.9978 186.023 44.8972 185.997 44.8085 185.946C44.7199 185.895 44.6463 185.821 44.5951 185.733C43.7681 184.386 42.9556 183.004 42.1808 181.628C42.1038 181.49 42.0846 181.328 42.1273 181.176C42.17 181.025 42.2712 180.896 42.4086 180.819C42.5459 180.742 42.7083 180.723 42.8598 180.766C43.0114 180.808 43.1398 180.91 43.2167 181.047C43.9799 182.409 44.7837 183.776 45.605 185.111C45.6474 185.177 45.6761 185.251 45.6893 185.328C45.7025 185.405 45.7 185.484 45.6818 185.561C45.6636 185.637 45.6302 185.709 45.5836 185.772C45.537 185.835 45.4781 185.887 45.4105 185.927C45.3175 185.986 45.2103 186.019 45.1 186.023ZM253.54 181.93C253.439 181.93 253.338 181.904 253.25 181.854C253.181 181.817 253.12 181.767 253.071 181.706C253.022 181.645 252.986 181.574 252.965 181.499C252.944 181.423 252.938 181.345 252.948 181.267C252.958 181.189 252.984 181.115 253.024 181.047C253.793 179.677 254.544 178.275 255.258 176.878C255.33 176.739 255.454 176.633 255.603 176.585C255.753 176.537 255.915 176.55 256.055 176.621C256.194 176.693 256.3 176.817 256.348 176.967C256.396 177.116 256.383 177.279 256.311 177.418C255.592 178.829 254.834 180.246 254.057 181.628C254.008 181.722 253.934 181.802 253.842 181.857C253.751 181.912 253.647 181.941 253.54 181.941V181.93ZM40.4629 177.775C40.3534 177.777 40.2458 177.748 40.1523 177.691C40.0589 177.634 39.9834 177.551 39.9347 177.453C39.2151 176.045 38.5157 174.605 37.8541 173.174C37.8213 173.104 37.8028 173.027 37.7995 172.95C37.7962 172.872 37.8082 172.794 37.8349 172.721C37.8616 172.648 37.9024 172.581 37.955 172.524C38.0075 172.467 38.0709 172.42 38.1414 172.387C38.2119 172.355 38.2882 172.336 38.3658 172.333C38.4435 172.329 38.5211 172.341 38.5941 172.368C38.6671 172.395 38.7342 172.436 38.7914 172.488C38.8487 172.541 38.895 172.604 38.9278 172.675C39.5836 174.094 40.2772 175.52 40.9881 176.913C41.0249 176.982 41.0476 177.057 41.0546 177.135C41.0617 177.213 41.0531 177.291 41.0292 177.365C41.0054 177.439 40.9669 177.508 40.9159 177.567C40.865 177.626 40.8027 177.674 40.7327 177.709C40.6495 177.752 40.5569 177.775 40.4629 177.775ZM257.861 173.476C257.776 173.476 257.692 173.457 257.614 173.421C257.543 173.39 257.478 173.344 257.424 173.287C257.37 173.23 257.329 173.163 257.301 173.089C257.274 173.016 257.262 172.938 257.266 172.859C257.27 172.781 257.29 172.705 257.324 172.634C257.983 171.209 258.621 169.749 259.222 168.3C259.282 168.154 259.397 168.039 259.543 167.978C259.688 167.918 259.851 167.918 259.997 167.978C260.142 168.038 260.258 168.153 260.318 168.299C260.379 168.444 260.379 168.607 260.319 168.753C259.712 170.204 259.065 171.691 258.401 173.131C258.355 173.235 258.279 173.323 258.183 173.385C258.087 173.446 257.975 173.478 257.861 173.476ZM36.4902 169.185C36.3725 169.187 36.257 169.153 36.1591 169.088C36.0611 169.023 35.9853 168.929 35.9418 168.82C35.3382 167.368 34.752 165.873 34.2007 164.393C34.1738 164.32 34.1616 164.242 34.1647 164.164C34.1678 164.087 34.1862 164.01 34.2188 163.939C34.2514 163.869 34.2976 163.805 34.3547 163.753C34.4119 163.7 34.4788 163.659 34.5518 163.632C34.6248 163.605 34.7023 163.593 34.78 163.596C34.8577 163.599 34.9341 163.617 35.0047 163.65C35.0753 163.683 35.1388 163.729 35.1915 163.786C35.2442 163.843 35.2852 163.91 35.3121 163.983C35.8547 165.435 36.4322 166.921 37.0329 168.364C37.0644 168.436 37.0811 168.513 37.0819 168.592C37.0827 168.67 37.0675 168.748 37.0374 168.82C37.0073 168.893 36.9629 168.958 36.9067 169.013C36.8506 169.068 36.7839 169.111 36.7108 169.139C36.641 169.169 36.5661 169.184 36.4902 169.185ZM261.506 164.694C261.435 164.693 261.366 164.681 261.3 164.657C261.226 164.631 261.158 164.591 261.1 164.539C261.042 164.486 260.995 164.422 260.962 164.351C260.929 164.28 260.911 164.203 260.909 164.125C260.907 164.047 260.92 163.969 260.949 163.896C261.494 162.419 262.014 160.915 262.498 159.42C262.522 159.346 262.561 159.277 262.611 159.218C262.662 159.158 262.723 159.109 262.793 159.074C262.862 159.039 262.938 159.017 263.016 159.011C263.093 159.005 263.171 159.014 263.245 159.038C263.32 159.062 263.388 159.1 263.447 159.151C263.507 159.201 263.556 159.263 263.591 159.333C263.626 159.402 263.648 159.478 263.654 159.555C263.66 159.633 263.651 159.711 263.627 159.785C263.137 161.295 262.611 162.816 262.06 164.305C262.019 164.42 261.944 164.518 261.845 164.587C261.745 164.657 261.627 164.693 261.506 164.692V164.694ZM33.2053 160.296C33.0797 160.296 32.9574 160.256 32.8558 160.182C32.7542 160.108 32.6785 160.004 32.6395 159.884C32.152 158.38 31.6848 156.845 31.2553 155.324C31.2126 155.172 31.2317 155.01 31.3084 154.873C31.3852 154.736 31.5132 154.635 31.6645 154.592C31.8157 154.549 31.9777 154.568 32.1148 154.645C32.252 154.722 32.353 154.85 32.3957 155.001C32.8223 156.508 33.2837 158.029 33.7683 159.518C33.7939 159.592 33.8044 159.671 33.799 159.749C33.7937 159.827 33.7726 159.903 33.7371 159.972C33.7016 160.042 33.6524 160.104 33.5924 160.154C33.5325 160.204 33.463 160.242 33.3882 160.264C33.3293 160.285 33.2676 160.296 33.2053 160.296ZM264.44 155.652C264.384 155.652 264.33 155.645 264.277 155.628C264.201 155.609 264.13 155.574 264.068 155.526C264.006 155.478 263.955 155.418 263.916 155.35C263.878 155.282 263.854 155.206 263.846 155.128C263.838 155.05 263.845 154.972 263.868 154.897C264.292 153.39 264.692 151.852 265.058 150.327C265.096 150.174 265.194 150.041 265.33 149.959C265.466 149.878 265.629 149.854 265.783 149.892C265.937 149.931 266.069 150.029 266.151 150.165C266.233 150.301 266.257 150.464 266.218 150.618C265.85 152.156 265.446 153.71 265.017 155.234C264.981 155.358 264.905 155.466 264.8 155.542C264.695 155.617 264.569 155.656 264.44 155.652ZM30.6256 151.164C30.491 151.167 30.3596 151.123 30.2537 151.04C30.1478 150.957 30.0741 150.839 30.0452 150.708C29.6767 149.169 29.3314 147.602 29.0238 146.048C28.9934 145.895 29.0254 145.735 29.1127 145.604C29.2001 145.474 29.3356 145.384 29.4895 145.353C29.6434 145.323 29.8031 145.355 29.9335 145.442C30.0638 145.53 30.1541 145.665 30.1845 145.819C30.4747 147.355 30.8287 148.908 31.1944 150.432C31.2141 150.508 31.2184 150.587 31.2069 150.664C31.1954 150.742 31.1684 150.816 31.1275 150.883C31.0865 150.949 31.0325 151.007 30.9687 151.052C30.9049 151.098 30.8326 151.13 30.7562 151.146C30.7135 151.157 30.6696 151.163 30.6256 151.164ZM266.645 146.423C266.606 146.427 266.567 146.427 266.529 146.423C266.375 146.392 266.239 146.302 266.152 146.171C266.064 146.04 266.032 145.881 266.062 145.726C266.352 144.191 266.642 142.626 266.886 141.081C266.898 141.005 266.925 140.932 266.966 140.866C267.006 140.801 267.059 140.743 267.121 140.698C267.184 140.653 267.255 140.62 267.33 140.602C267.405 140.584 267.483 140.582 267.559 140.594C267.635 140.606 267.708 140.633 267.774 140.673C267.84 140.714 267.897 140.767 267.942 140.829C267.987 140.892 268.02 140.963 268.038 141.038C268.056 141.113 268.059 141.191 268.047 141.267C267.8 142.832 267.521 144.411 267.214 145.961C267.186 146.092 267.115 146.209 267.011 146.293C266.908 146.377 266.778 146.423 266.645 146.423ZM28.7771 141.857C28.6358 141.858 28.499 141.808 28.3921 141.715C28.2853 141.623 28.2158 141.494 28.1967 141.354C27.9501 139.793 27.7295 138.205 27.5438 136.631C27.5254 136.475 27.5697 136.318 27.6671 136.194C27.7645 136.07 27.907 135.991 28.0633 135.972C28.2195 135.954 28.3767 135.998 28.5002 136.096C28.6237 136.193 28.7035 136.336 28.722 136.492C28.9048 138.051 29.1224 139.624 29.3662 141.171C29.3798 141.248 29.3777 141.327 29.3601 141.404C29.3424 141.48 29.3096 141.552 29.2635 141.615C29.2175 141.678 29.1591 141.731 29.092 141.771C29.0248 141.811 28.9503 141.837 28.8729 141.848C28.8413 141.854 28.8092 141.857 28.7771 141.857ZM268.116 137.049H268.047C267.969 137.042 267.893 137.019 267.825 136.981C267.756 136.944 267.696 136.893 267.647 136.832C267.599 136.77 267.563 136.7 267.542 136.625C267.522 136.549 267.517 136.471 267.527 136.393C267.71 134.837 267.864 133.255 267.986 131.693C267.992 131.616 268.013 131.54 268.048 131.47C268.083 131.401 268.131 131.339 268.19 131.289C268.249 131.238 268.318 131.199 268.392 131.175C268.466 131.151 268.544 131.141 268.621 131.147C268.699 131.153 268.774 131.174 268.844 131.21C268.913 131.245 268.975 131.293 269.026 131.352C269.076 131.411 269.115 131.48 269.139 131.554C269.163 131.628 269.173 131.706 269.167 131.783C269.045 133.362 268.876 134.959 268.705 136.53C268.69 136.674 268.621 136.808 268.512 136.904C268.403 137 268.262 137.052 268.116 137.049ZM27.6715 132.433C27.523 132.434 27.38 132.377 27.272 132.275C27.164 132.173 27.0993 132.033 27.0911 131.885C26.9664 130.311 26.8735 128.709 26.801 127.127C26.7944 126.969 26.8507 126.816 26.9573 126.7C27.064 126.584 27.2123 126.515 27.3697 126.508C27.5271 126.502 27.6806 126.558 27.7966 126.665C27.9125 126.772 27.9813 126.92 27.9878 127.077C28.0487 128.645 28.1416 130.233 28.278 131.792C28.286 131.87 28.2781 131.948 28.2549 132.023C28.2316 132.098 28.1935 132.167 28.1428 132.227C28.0922 132.287 28.0299 132.335 27.9599 132.37C27.8899 132.405 27.8135 132.426 27.7353 132.431L27.6715 132.433ZM268.856 127.588H268.816C268.737 127.586 268.66 127.568 268.588 127.536C268.516 127.504 268.452 127.458 268.398 127.401C268.344 127.344 268.302 127.277 268.274 127.203C268.246 127.13 268.233 127.051 268.235 126.973C268.296 125.408 268.325 123.82 268.325 122.25V122.041C268.325 121.885 268.386 121.736 268.494 121.625C268.603 121.514 268.75 121.449 268.905 121.446C269.059 121.446 269.207 121.507 269.316 121.616C269.425 121.724 269.486 121.872 269.486 122.026V122.238C269.486 123.823 269.454 125.431 269.393 127.008C269.393 127.155 269.337 127.298 269.237 127.405C269.136 127.513 268.998 127.579 268.85 127.588H268.856ZM27.2972 122.944C27.1432 122.944 26.9956 122.882 26.8868 122.773C26.7779 122.665 26.7168 122.517 26.7168 122.363V122.255C26.7168 120.708 26.7458 119.141 26.8039 117.596C26.8096 117.439 26.8777 117.29 26.9931 117.183C27.1084 117.076 27.2617 117.019 27.419 117.024C27.5764 117.03 27.7251 117.098 27.8323 117.214C27.9395 117.329 27.9965 117.482 27.9907 117.64C27.9327 119.17 27.9037 120.723 27.9037 122.255V122.363C27.9037 122.517 27.8425 122.665 27.7337 122.773C27.6248 122.882 27.4772 122.944 27.3233 122.944H27.2972ZM268.847 117.881C268.694 117.881 268.546 117.819 268.437 117.711C268.328 117.602 268.267 117.454 268.267 117.3C268.203 115.735 268.11 114.147 267.977 112.586C267.965 112.429 268.015 112.274 268.117 112.154C268.219 112.035 268.364 111.961 268.521 111.948C268.678 111.936 268.833 111.986 268.952 112.089C269.072 112.191 269.146 112.336 269.158 112.493C269.283 114.069 269.378 115.686 269.448 117.254C269.453 117.333 269.441 117.412 269.414 117.487C269.387 117.561 269.345 117.629 269.291 117.687C269.237 117.745 269.171 117.79 269.098 117.822C269.025 117.853 268.947 117.869 268.868 117.869L268.847 117.881ZM27.6512 113.468H27.6048C27.5266 113.464 27.4502 113.444 27.3801 113.409C27.3099 113.374 27.2475 113.326 27.1965 113.267C27.1456 113.207 27.1071 113.138 27.0835 113.063C27.0599 112.989 27.0517 112.91 27.0592 112.832C27.1811 111.253 27.3494 109.656 27.5177 108.086C27.5358 107.93 27.6152 107.787 27.7385 107.689C27.8617 107.591 28.0187 107.547 28.175 107.565C28.3312 107.583 28.4739 107.662 28.5715 107.786C28.6692 107.909 28.7139 108.066 28.6959 108.222C28.513 109.778 28.3621 111.358 28.2432 112.922C28.2302 113.071 28.1623 113.209 28.0528 113.31C27.9433 113.411 27.8001 113.467 27.6512 113.468ZM268.09 108.428C267.946 108.429 267.806 108.376 267.699 108.279C267.592 108.183 267.524 108.05 267.51 107.906C267.324 106.35 267.106 104.774 266.86 103.229C266.835 103.075 266.872 102.918 266.963 102.791C267.054 102.664 267.192 102.579 267.346 102.554C267.5 102.529 267.657 102.566 267.784 102.658C267.91 102.749 267.995 102.887 268.02 103.041C268.267 104.605 268.488 106.193 268.673 107.764C268.684 107.841 268.679 107.92 268.659 107.996C268.639 108.071 268.604 108.142 268.555 108.203C268.507 108.265 268.447 108.316 268.378 108.354C268.31 108.391 268.235 108.415 268.157 108.423L268.09 108.428ZM28.7452 104.042H28.6552C28.4994 104.018 28.3596 103.933 28.2666 103.805C28.1735 103.678 28.1348 103.519 28.159 103.363C28.4057 101.798 28.6843 100.219 28.9889 98.6686C29.019 98.5146 29.1089 98.3789 29.239 98.2912C29.369 98.2035 29.5286 98.1712 29.6825 98.2012C29.8364 98.2312 29.9721 98.3212 30.0597 98.4513C30.1473 98.5814 30.1797 98.741 30.1497 98.895C29.8595 100.434 29.5693 101.998 29.3285 103.54C29.3093 103.68 29.2395 103.809 29.132 103.902C29.0245 103.994 28.887 104.044 28.7452 104.042ZM266.601 99.0576C266.464 99.0597 266.329 99.0127 266.223 98.9249C266.117 98.8372 266.045 98.7144 266.021 98.5786C265.731 97.0429 265.374 95.4927 265.008 93.9686C264.989 93.8924 264.985 93.8131 264.997 93.7354C265.009 93.6577 265.035 93.583 265.076 93.5156C265.116 93.4482 265.169 93.3894 265.233 93.3426C265.296 93.2958 265.367 93.2619 265.444 93.2429C265.52 93.2238 265.599 93.22 265.677 93.2315C265.754 93.2431 265.829 93.2699 265.896 93.3103C265.964 93.3507 266.023 93.404 266.069 93.4672C266.116 93.5303 266.15 93.6021 266.169 93.6783C266.538 95.2169 266.883 96.7845 267.193 98.3231C267.224 98.4775 267.193 98.6377 267.106 98.7688C267.019 98.9 266.883 98.9913 266.729 99.0228C266.688 99.0378 266.645 99.0494 266.601 99.0576ZM30.5734 94.7321C30.5264 94.732 30.4796 94.7261 30.4341 94.7147C30.357 94.6984 30.2841 94.6667 30.2198 94.6213C30.1554 94.576 30.1009 94.518 30.0597 94.4509C30.0184 94.3838 29.9912 94.3091 29.9797 94.2311C29.9683 94.1532 29.9728 94.0738 29.993 93.9977C30.3586 92.4591 30.762 90.906 31.1886 89.3819C31.2309 89.2306 31.3316 89.1023 31.4684 89.0253C31.6053 88.9482 31.7671 88.9288 31.9184 88.9711C32.0696 89.0135 32.1978 89.1142 32.2748 89.2511C32.3518 89.388 32.3713 89.5499 32.329 89.7012C31.9082 91.2108 31.5078 92.7494 31.145 94.2735C31.117 94.404 31.0448 94.5209 30.9407 94.6045C30.8366 94.688 30.7068 94.7331 30.5734 94.7321ZM264.376 89.8318C264.245 89.8331 264.117 89.7916 264.013 89.7134C263.908 89.6353 263.831 89.525 263.795 89.3993C263.369 87.8926 262.907 86.3744 262.42 84.8822C262.396 84.8083 262.387 84.7303 262.393 84.6528C262.399 84.5753 262.42 84.4997 262.455 84.4305C262.491 84.3612 262.539 84.2995 262.598 84.249C262.658 84.1985 262.726 84.1602 262.8 84.1362C262.874 84.1121 262.952 84.1029 263.029 84.1091C263.107 84.1152 263.182 84.1365 263.252 84.1718C263.321 84.2071 263.382 84.2557 263.433 84.3148C263.483 84.374 263.522 84.4425 263.546 84.5165C264.039 86.0202 264.506 87.5559 264.936 89.0771C264.959 89.152 264.966 89.2307 264.958 89.3086C264.949 89.3865 264.925 89.4618 264.887 89.5302C264.849 89.5985 264.797 89.6584 264.735 89.7063C264.673 89.7541 264.602 89.7889 264.527 89.8086C264.48 89.8234 264.431 89.8312 264.382 89.8318H264.376ZM33.1328 85.5935C33.0707 85.5936 33.009 85.5838 32.95 85.5645C32.8752 85.5418 32.8057 85.5042 32.7457 85.4541C32.6858 85.4039 32.6366 85.3421 32.601 85.2724C32.5655 85.2027 32.5445 85.1266 32.5391 85.0486C32.5338 84.9706 32.5442 84.8923 32.5698 84.8184C33.0573 83.3088 33.5826 81.7876 34.131 80.2984C34.1579 80.2254 34.1989 80.1584 34.2516 80.1012C34.3044 80.0441 34.3679 79.9979 34.4385 79.9652C34.5091 79.9326 34.5854 79.9142 34.6631 79.9111C34.7408 79.908 34.8183 79.9203 34.8913 79.9471C34.9643 79.974 35.0313 80.015 35.0884 80.0678C35.1455 80.1205 35.1917 80.184 35.2243 80.2547C35.2569 80.3253 35.2753 80.4017 35.2784 80.4794C35.2815 80.5571 35.2693 80.6347 35.2424 80.7077C34.6998 82.1824 34.1804 83.6891 33.6958 85.1842C33.659 85.3031 33.5851 85.4071 33.4847 85.4808C33.3844 85.5545 33.2631 85.594 33.1386 85.5935H33.1328ZM261.43 80.8122C261.309 80.8136 261.19 80.7767 261.091 80.707C260.991 80.6372 260.916 80.5379 260.876 80.4232C260.331 78.9717 259.753 77.4854 259.152 76.0426C259.122 75.9707 259.107 75.8937 259.107 75.8158C259.107 75.738 259.122 75.6609 259.152 75.5889C259.181 75.5169 259.225 75.4515 259.28 75.3964C259.334 75.3412 259.4 75.2974 259.472 75.2675C259.543 75.2376 259.62 75.2221 259.698 75.2219C259.776 75.2218 259.853 75.237 259.925 75.2666C259.997 75.2963 260.062 75.3398 260.118 75.3948C260.173 75.4497 260.216 75.515 260.246 75.5868C260.853 77.0383 261.439 78.5334 261.987 80.011C262.016 80.084 262.03 80.1622 262.028 80.2407C262.026 80.3193 262.008 80.3966 261.975 80.4679C261.943 80.5393 261.896 80.6033 261.837 80.656C261.779 80.7087 261.711 80.749 261.636 80.7745C261.572 80.7979 261.504 80.8106 261.436 80.8122H261.43ZM36.4235 76.6667C36.3457 76.6666 36.2687 76.6508 36.1972 76.6203C36.124 76.592 36.0573 76.5492 36.0012 76.4944C35.9451 76.4396 35.9006 76.3741 35.8705 76.3016C35.8404 76.2292 35.8253 76.1514 35.826 76.0729C35.8268 75.9945 35.8435 75.917 35.875 75.8452C36.4815 74.3937 37.1257 72.9074 37.7903 71.4675C37.8229 71.3968 37.869 71.3331 37.9262 71.2803C37.9833 71.2274 38.0503 71.1863 38.1234 71.1594C38.1964 71.1324 38.274 71.1201 38.3518 71.1232C38.4296 71.1262 38.506 71.1446 38.5767 71.1772C38.6474 71.2098 38.7109 71.256 38.7638 71.3131C38.8166 71.3703 38.8577 71.4373 38.8846 71.5104C38.9116 71.5835 38.9239 71.6611 38.9208 71.7389C38.9178 71.8167 38.8994 71.8932 38.8669 71.9639C38.2081 73.3893 37.5726 74.8495 36.9719 76.2981C36.9272 76.4069 36.8512 76.5 36.7536 76.5656C36.656 76.6312 36.5411 76.6664 36.4235 76.6667ZM257.788 72.0742C257.675 72.0757 257.564 72.044 257.469 71.9831C257.374 71.9223 257.298 71.8349 257.252 71.7316C256.593 70.3121 255.899 68.8867 255.186 67.4962C255.15 67.4268 255.129 67.3511 255.122 67.2734C255.116 67.1957 255.125 67.1176 255.149 67.0435C255.173 66.9694 255.212 66.9007 255.262 66.8414C255.313 66.7821 255.374 66.7333 255.444 66.6978C255.513 66.6624 255.589 66.6409 255.666 66.6347C255.744 66.6285 255.822 66.6377 255.896 66.6617C255.97 66.6857 256.039 66.724 256.098 66.7746C256.158 66.8251 256.206 66.8868 256.242 66.9562C256.961 68.3613 257.661 69.8011 258.325 71.2323C258.371 71.3223 258.392 71.4224 258.387 71.5231C258.382 71.6237 258.351 71.7212 258.296 71.8062C258.242 71.8911 258.167 71.9604 258.078 72.0074C257.989 72.0544 257.889 72.0774 257.788 72.0742ZM40.4019 68.0303C40.3079 68.0303 40.2153 68.0073 40.1321 67.9635C40.0619 67.9294 39.9993 67.8814 39.9481 67.8225C39.8968 67.7637 39.858 67.695 39.8339 67.6208C39.8098 67.5465 39.8009 67.4682 39.8077 67.3904C39.8146 67.3126 39.8371 67.237 39.8738 67.1681C40.5935 65.7573 41.3508 64.3377 42.1256 62.9559C42.1637 62.888 42.2148 62.8283 42.276 62.7802C42.3372 62.7321 42.4072 62.6965 42.4821 62.6755C42.557 62.6545 42.6353 62.6484 42.7126 62.6577C42.7899 62.6669 42.8645 62.6913 42.9324 62.7294C43.0002 62.7676 43.0598 62.8187 43.1079 62.8799C43.156 62.941 43.1916 63.0111 43.2126 63.0861C43.2336 63.161 43.2397 63.2393 43.2304 63.3166C43.2212 63.3939 43.1968 63.4686 43.1587 63.5365C42.3926 64.9067 41.641 66.3117 40.9301 67.7081C40.8814 67.8062 40.806 67.8884 40.7125 67.9455C40.619 68.0025 40.5114 68.0319 40.4019 68.0303ZM253.485 63.6468C253.381 63.6493 253.278 63.6236 253.187 63.5725C253.096 63.5215 253.021 63.4468 252.969 63.3565C252.2 61.9921 251.396 60.6248 250.577 59.2923C250.537 59.2261 250.509 59.1526 250.497 59.0759C250.485 58.9992 250.487 58.9208 250.505 58.8451C250.523 58.7695 250.556 58.6982 250.601 58.6352C250.647 58.5722 250.704 58.5188 250.77 58.478C250.836 58.4372 250.91 58.4098 250.987 58.3975C251.063 58.3851 251.142 58.3879 251.217 58.4059C251.293 58.4238 251.364 58.4564 251.427 58.5019C251.49 58.5474 251.544 58.6049 251.584 58.671C252.414 60.0151 253.227 61.397 254.002 62.773C254.051 62.8635 254.076 62.9653 254.075 63.0685C254.074 63.1716 254.046 63.2727 253.994 63.3619C253.942 63.451 253.868 63.5251 253.778 63.5771C253.689 63.6291 253.588 63.6571 253.485 63.6584V63.6468ZM45.0449 59.7422C44.938 59.7464 44.832 59.7209 44.7386 59.6685C44.6453 59.6161 44.5682 59.539 44.516 59.4456C44.4637 59.3521 44.4383 59.2461 44.4426 59.1391C44.4468 59.0321 44.4805 58.9284 44.54 58.8394C45.3728 57.4837 46.2434 56.1338 47.1139 54.8071C47.1572 54.7425 47.2127 54.6871 47.2774 54.6439C47.3421 54.6008 47.4146 54.5708 47.4909 54.5557C47.5671 54.5406 47.6456 54.5407 47.7219 54.5559C47.7981 54.5712 47.8706 54.6013 47.9352 54.6446C47.9997 54.6878 48.0552 54.7434 48.0983 54.8081C48.1414 54.8728 48.1714 54.9454 48.1865 55.0217C48.2016 55.098 48.2015 55.1765 48.1863 55.2527C48.171 55.329 48.1409 55.4015 48.0977 55.4661C47.2271 56.7696 46.3565 58.1108 45.5498 59.4461C45.4981 59.5347 45.4245 59.6084 45.3361 59.6602C45.2476 59.7121 45.1474 59.7403 45.0449 59.7422ZM248.52 55.5793C248.422 55.5808 248.326 55.5576 248.24 55.5119C248.154 55.4663 248.08 55.3996 248.027 55.3181C247.156 54.0175 246.245 52.7054 245.322 51.4513C245.229 51.3242 245.191 51.1655 245.215 51.0101C245.239 50.8547 245.324 50.7152 245.451 50.6225C245.578 50.5297 245.737 50.4912 245.892 50.5154C246.048 50.5396 246.187 50.6246 246.28 50.7516C247.211 52.0319 248.131 53.344 249.01 54.6562C249.055 54.7203 249.087 54.7928 249.103 54.8693C249.119 54.9459 249.119 55.0249 249.104 55.1016C249.089 55.1783 249.058 55.2512 249.014 55.3158C248.97 55.3805 248.914 55.4355 248.848 55.4777C248.751 55.5429 248.637 55.5773 248.52 55.5764V55.5793ZM50.3234 51.8461C50.1984 51.8451 50.0768 51.8056 49.9752 51.7329C49.8486 51.6395 49.7639 51.5 49.7395 51.3446C49.715 51.1891 49.7528 51.0304 49.8446 50.9026C50.7761 49.6224 51.7453 48.3422 52.7261 47.0997C52.7743 47.0387 52.8341 46.9878 52.9019 46.9499C52.9698 46.912 53.0445 46.8878 53.1217 46.8788C53.1989 46.8698 53.2771 46.876 53.3519 46.8972C53.4266 46.9185 53.4965 46.9542 53.5575 47.0024C53.6185 47.0506 53.6693 47.1104 53.7072 47.1783C53.7451 47.2462 53.7693 47.3209 53.7783 47.3981C53.7873 47.4754 53.781 47.5536 53.7598 47.6284C53.7386 47.7032 53.7029 47.7731 53.6547 47.8341C52.6855 49.065 51.725 50.3336 50.8051 51.608C50.7486 51.682 50.6757 51.7418 50.5921 51.7826C50.5084 51.8235 50.4164 51.8442 50.3234 51.8432V51.8461ZM242.934 47.9183C242.845 47.9193 242.756 47.8997 242.676 47.8609C242.595 47.8222 242.525 47.7653 242.47 47.6948C241.497 46.4668 240.488 45.2388 239.469 44.0515C239.367 43.9318 239.316 43.7763 239.328 43.6192C239.341 43.4622 239.415 43.3164 239.534 43.214C239.654 43.1116 239.809 43.061 239.966 43.0732C240.124 43.0855 240.269 43.1596 240.372 43.2793C241.399 44.4812 242.403 45.7178 243.398 46.9574C243.448 47.0177 243.486 47.0875 243.508 47.1627C243.53 47.2378 243.537 47.3166 243.528 47.3945C243.519 47.4723 243.495 47.5475 243.456 47.6156C243.417 47.6837 243.365 47.7432 243.302 47.7906C243.198 47.8734 243.067 47.9175 242.934 47.9154V47.9183ZM56.2025 44.3854C56.0867 44.3915 55.9717 44.3628 55.8724 44.3029C55.7731 44.243 55.6939 44.1548 55.6452 44.0495C55.5965 43.9442 55.5804 43.8267 55.5991 43.7122C55.6177 43.5977 55.6702 43.4914 55.7498 43.4071C56.7771 42.2052 57.845 41.0063 58.9187 39.8422C59.0253 39.7267 59.1733 39.6583 59.3303 39.652C59.4874 39.6458 59.6404 39.7021 59.7559 39.8088C59.8713 39.9154 59.9397 40.0636 59.9459 40.2206C59.9522 40.3777 59.8958 40.5308 59.7892 40.6463C58.7242 41.8075 57.6709 42.9861 56.6523 44.1793C56.5972 44.2446 56.5282 44.297 56.4505 44.3327C56.3727 44.3683 56.2881 44.3863 56.2025 44.3854ZM236.767 40.7131C236.686 40.7137 236.604 40.6969 236.529 40.6639C236.454 40.6309 236.387 40.5823 236.332 40.5215C235.264 39.3603 234.165 38.2281 233.056 37.1221C232.945 37.0108 232.882 36.8599 232.882 36.7026C232.882 36.5452 232.945 36.3943 233.056 36.2831C233.167 36.1718 233.318 36.1093 233.475 36.1093C233.633 36.1093 233.783 36.1718 233.895 36.2831C235.012 37.4007 236.123 38.5561 237.2 39.7173C237.254 39.7736 237.296 39.8402 237.324 39.9132C237.352 39.9862 237.365 40.0641 237.362 40.1422C237.359 40.2202 237.34 40.2969 237.307 40.3675C237.273 40.4382 237.226 40.5014 237.168 40.5534C237.06 40.6561 236.916 40.7133 236.767 40.7131ZM62.6563 37.4153C62.5359 37.4225 62.4162 37.392 62.3139 37.3281C62.2116 37.2641 62.1318 37.1699 62.0855 37.0585C62.0392 36.947 62.0288 36.8239 62.0557 36.7063C62.0826 36.5887 62.1454 36.4824 62.2355 36.4021C63.3527 35.2845 64.5076 34.1697 65.6684 33.0956C65.7255 33.0426 65.7926 33.0014 65.8657 32.9743C65.9387 32.9472 66.0164 32.9348 66.0943 32.9378C66.1722 32.9408 66.2487 32.959 66.3195 32.9916C66.3903 33.0242 66.454 33.0703 66.507 33.1275C66.56 33.1847 66.6012 33.2518 66.6282 33.3249C66.6553 33.398 66.6677 33.4757 66.6647 33.5536C66.6618 33.6315 66.6435 33.7081 66.611 33.7789C66.5784 33.8498 66.5323 33.9135 66.4751 33.9665C65.3144 35.0319 64.1826 36.1321 63.0741 37.2411C63.018 37.2984 62.9506 37.3435 62.8762 37.3735C62.8018 37.4035 62.7219 37.4177 62.6417 37.4153H62.6563ZM230.067 34.01C229.917 34.011 229.773 33.9537 229.664 33.8504C228.503 32.7879 227.325 31.7341 226.132 30.7151C226.012 30.6127 225.938 30.467 225.926 30.3099C225.914 30.1528 225.965 29.9973 226.067 29.8776C226.169 29.7579 226.315 29.6837 226.472 29.6715C226.629 29.6593 226.784 29.7099 226.904 29.8123C228.105 30.84 229.307 31.9054 230.47 32.9795C230.566 33.057 230.635 33.1631 230.666 33.2823C230.698 33.4015 230.691 33.5276 230.646 33.6424C230.601 33.7572 230.52 33.8547 230.416 33.9208C230.312 33.9869 230.19 34.0181 230.067 34.01ZM69.6004 30.9706C69.5146 30.9712 69.4298 30.9527 69.3521 30.9166C69.2743 30.8804 69.2055 30.8275 69.1506 30.7616C69.0984 30.7032 69.0584 30.6349 69.0333 30.5607C69.0081 30.4865 68.9982 30.408 69.0042 30.3299C69.0101 30.2518 69.0318 30.1757 69.068 30.1062C69.1041 30.0367 69.1539 29.9752 69.2144 29.9255C70.4158 28.8979 71.6549 27.8934 72.894 26.8977C73.0175 26.8003 73.1747 26.756 73.3308 26.7745C73.487 26.793 73.6295 26.8728 73.7268 26.9964C73.8242 27.12 73.8685 27.2772 73.85 27.4334C73.8315 27.5897 73.7517 27.7322 73.6282 27.8295C72.4007 28.7992 71.1761 29.8094 69.9863 30.8283C69.8794 30.9213 69.7421 30.9719 69.6004 30.9706ZM222.833 27.847C222.7 27.8475 222.571 27.8024 222.467 27.7192C221.237 26.7496 219.969 25.7887 218.695 24.8685C218.567 24.7761 218.482 24.6369 218.457 24.4814C218.432 24.326 218.47 24.1671 218.563 24.0397C218.655 23.9123 218.794 23.8268 218.95 23.802C219.105 23.7772 219.264 23.8152 219.391 23.9076C220.671 24.8395 221.951 25.8091 223.195 26.7874C223.301 26.8591 223.38 26.9639 223.421 27.0853C223.461 27.2067 223.46 27.338 223.418 27.4587C223.376 27.5795 223.295 27.6831 223.188 27.7533C223.082 27.8235 222.954 27.8564 222.827 27.847H222.833ZM77.0378 25.0891C76.9085 25.0988 76.7796 25.0649 76.6718 24.9927C76.564 24.9206 76.4834 24.8143 76.443 24.691C76.4026 24.5677 76.4046 24.4344 76.4488 24.3124C76.493 24.1904 76.5767 24.0867 76.6867 24.0179C77.9664 23.086 79.2781 22.1687 80.5897 21.2891C80.7202 21.2013 80.8801 21.169 81.0344 21.1992C81.1887 21.2294 81.3247 21.3197 81.4124 21.4502C81.5001 21.5807 81.5324 21.7407 81.5022 21.8951C81.472 22.0494 81.3818 22.1854 81.2513 22.2732C79.9513 23.1441 78.6397 24.0527 77.3861 24.9759C77.2852 25.0502 77.1631 25.09 77.0378 25.0891ZM215.166 22.2645C215.049 22.2653 214.935 22.2309 214.838 22.1658C213.532 21.2949 212.195 20.424 210.857 19.617C210.791 19.5762 210.733 19.5227 210.687 19.4596C210.642 19.3966 210.609 19.3251 210.591 19.2494C210.573 19.1736 210.57 19.0951 210.582 19.0182C210.594 18.9413 210.622 18.8675 210.662 18.8012C210.703 18.7349 210.757 18.6772 210.82 18.6316C210.883 18.5859 210.954 18.5531 211.03 18.535C211.106 18.517 211.184 18.514 211.261 18.5263C211.338 18.5386 211.411 18.5659 211.478 18.6067C212.827 19.4341 214.179 20.2992 215.497 21.1788C215.613 21.2434 215.703 21.3457 215.753 21.4688C215.802 21.5919 215.808 21.7283 215.769 21.8552C215.731 21.9821 215.65 22.092 215.54 22.1664C215.43 22.2409 215.298 22.2755 215.166 22.2645ZM84.9222 19.8115C84.8199 19.8119 84.7194 19.7852 84.6307 19.7342C84.542 19.6833 84.4684 19.6098 84.4173 19.5212C84.3748 19.4553 84.3461 19.3816 84.3329 19.3043C84.3197 19.2271 84.3222 19.148 84.3404 19.0718C84.3586 18.9956 84.392 18.9238 84.4386 18.8608C84.4852 18.7979 84.5441 18.745 84.6117 18.7054C85.9552 17.8781 87.3365 17.0652 88.712 16.2901C88.849 16.2131 89.0109 16.1937 89.1622 16.2362C89.3135 16.2787 89.4418 16.3795 89.5187 16.5166C89.5957 16.6536 89.6151 16.8156 89.5726 16.967C89.5302 17.1183 89.4294 17.2466 89.2924 17.3236C87.9285 18.09 86.5617 18.8941 85.2298 19.7157C85.1334 19.7769 85.0218 19.81 84.9077 19.8115H84.9222ZM207.067 17.3004C206.965 17.3011 206.865 17.275 206.777 17.2249C205.407 16.4585 204.003 15.7095 202.607 14.9983C202.537 14.963 202.476 14.9144 202.425 14.8553C202.375 14.7962 202.336 14.7276 202.312 14.6537C202.288 14.5797 202.279 14.5016 202.285 14.424C202.291 14.3464 202.312 14.2708 202.347 14.2014C202.382 14.132 202.431 14.0703 202.49 14.0197C202.549 13.9691 202.618 13.9306 202.692 13.9065C202.766 13.8823 202.844 13.873 202.921 13.879C202.999 13.8851 203.074 13.9063 203.144 13.9416C204.554 14.6586 205.973 15.4163 207.354 16.1914C207.48 16.2472 207.582 16.346 207.642 16.4703C207.702 16.5945 207.716 16.736 207.681 16.8695C207.646 17.0029 207.565 17.1195 207.452 17.1985C207.339 17.2774 207.201 17.3135 207.064 17.3004H207.067ZM93.1751 15.1696C93.0343 15.1858 92.8924 15.1499 92.7762 15.0687C92.66 14.9875 92.5775 14.8666 92.5443 14.7288C92.5111 14.5909 92.5295 14.4457 92.596 14.3205C92.6625 14.1952 92.7724 14.0987 92.9052 14.049C94.3097 13.3291 95.749 12.6294 97.1825 11.9646C97.2532 11.932 97.3296 11.9137 97.4074 11.9106C97.4852 11.9076 97.5628 11.9199 97.6358 11.9469C97.7088 11.9738 97.7758 12.0149 97.833 12.0678C97.8902 12.1206 97.9363 12.1842 97.9689 12.2549C98.0015 12.3257 98.0198 12.4021 98.0229 12.4799C98.0259 12.5577 98.0136 12.6354 97.9867 12.7084C97.9597 12.7815 97.9187 12.8485 97.8658 12.9057C97.813 12.9629 97.7494 13.0091 97.6787 13.0417C96.2626 13.6977 94.8378 14.3916 93.4449 15.1028C93.3577 15.1497 93.2596 15.1727 93.1605 15.1696H93.1751ZM198.591 13.0039C198.505 13.0039 198.421 12.985 198.344 12.9488C196.916 12.2927 195.46 11.654 194.009 11.056C193.863 10.9959 193.748 10.8805 193.687 10.7352C193.627 10.5898 193.627 10.4264 193.687 10.2809C193.747 10.1354 193.862 10.0197 194.007 9.95926C194.153 9.89883 194.316 9.89861 194.461 9.95867C195.912 10.5654 197.398 11.207 198.84 11.8717C198.983 11.9118 199.105 12.005 199.181 12.1322C199.258 12.2594 199.282 12.411 199.25 12.5558C199.218 12.7007 199.132 12.8278 199.01 12.9112C198.887 12.9945 198.737 13.0277 198.591 13.0039ZM101.756 11.207C101.605 11.2374 101.447 11.2064 101.319 11.121C101.191 11.0355 101.101 10.9025 101.071 10.7512C101.041 10.5999 101.072 10.4427 101.157 10.3142C101.242 10.1858 101.375 10.0965 101.527 10.0661C102.978 9.45935 104.472 8.87585 105.952 8.32428C106.025 8.2974 106.102 8.28517 106.18 8.28828C106.258 8.29138 106.334 8.30977 106.405 8.34239C106.475 8.37501 106.539 8.42122 106.592 8.47838C106.644 8.53554 106.685 8.60254 106.712 8.67554C106.739 8.74855 106.751 8.82613 106.748 8.90386C106.745 8.9816 106.727 9.05796 106.694 9.12858C106.661 9.19921 106.615 9.26272 106.558 9.31549C106.501 9.36826 106.434 9.40925 106.361 9.43613C104.91 9.97899 103.424 10.5596 101.982 11.1576C101.908 11.1849 101.829 11.1968 101.75 11.1924L101.756 11.207ZM189.804 9.36936C189.735 9.36909 189.666 9.35732 189.601 9.33452C188.127 8.79166 186.621 8.27202 185.126 7.79013C184.976 7.74201 184.852 7.63637 184.78 7.49645C184.708 7.35654 184.695 7.19381 184.743 7.04406C184.791 6.89431 184.897 6.7698 185.037 6.69794C185.176 6.62608 185.339 6.61274 185.489 6.66086C187.001 7.14856 188.521 7.67401 190.01 8.21977C190.164 8.2471 190.301 8.33449 190.39 8.4627C190.48 8.59091 190.515 8.74944 190.487 8.90343C190.46 9.05741 190.373 9.19423 190.244 9.28379C190.116 9.37335 189.958 9.4083 189.804 9.38097V9.36936ZM110.636 7.91786C110.482 7.94211 110.324 7.9042 110.198 7.81247C110.072 7.72073 109.988 7.58269 109.964 7.4287C109.939 7.27472 109.977 7.11741 110.069 6.99137C110.161 6.86534 110.299 6.78091 110.453 6.75666C111.959 6.26605 113.491 5.79867 115.014 5.36902C115.166 5.32629 115.328 5.34541 115.465 5.42217C115.602 5.49894 115.703 5.62706 115.746 5.77835C115.788 5.92964 115.769 6.0917 115.693 6.2289C115.616 6.36609 115.488 6.46717 115.337 6.5099C113.83 6.93664 112.31 7.39822 110.821 7.88302C110.759 7.89944 110.694 7.90533 110.63 7.90044L110.636 7.91786ZM180.765 6.46636C180.711 6.46556 180.657 6.45775 180.605 6.44313C179.099 6.0222 177.561 5.62449 176.035 5.26161C175.881 5.22312 175.748 5.12503 175.667 4.98892C175.626 4.92153 175.6 4.84683 175.588 4.7691C175.576 4.69136 175.58 4.61211 175.599 4.53586C175.618 4.45962 175.652 4.38787 175.699 4.32472C175.746 4.26158 175.805 4.20826 175.872 4.16783C176.008 4.08617 176.171 4.06192 176.325 4.10041C177.866 4.46619 179.418 4.86971 180.939 5.29645C181.093 5.31762 181.232 5.3991 181.326 5.52295C181.42 5.64681 181.46 5.8029 181.439 5.95688C181.418 6.11087 181.337 6.25013 181.213 6.34405C181.089 6.43796 180.933 6.47882 180.779 6.45765L180.765 6.46636ZM119.765 5.3516C119.611 5.37008 119.456 5.32664 119.334 5.23082C119.212 5.135 119.133 4.99466 119.115 4.84068C119.096 4.68669 119.14 4.53167 119.235 4.40972C119.331 4.28777 119.472 4.20888 119.625 4.1904C121.163 3.82172 122.73 3.47627 124.283 3.16564C124.437 3.13523 124.597 3.16724 124.727 3.25462C124.857 3.342 124.948 3.47759 124.978 3.63158C125.008 3.78556 124.976 3.94532 124.889 4.07571C124.802 4.2061 124.666 4.29643 124.512 4.32685C122.977 4.63456 121.425 4.97421 119.904 5.33999C119.855 5.33938 119.806 5.33255 119.759 5.31967L119.765 5.3516ZM171.537 4.27169C171.499 4.27598 171.461 4.27598 171.424 4.27169C169.886 3.98139 168.321 3.69109 166.781 3.45304C166.704 3.44103 166.631 3.41413 166.565 3.37385C166.5 3.33358 166.442 3.28073 166.397 3.21833C166.352 3.15592 166.319 3.08518 166.301 3.01014C166.283 2.93511 166.28 2.85724 166.292 2.781C166.304 2.70475 166.331 2.63162 166.371 2.56577C166.411 2.49993 166.464 2.44266 166.526 2.39724C166.589 2.35181 166.659 2.31913 166.734 2.30104C166.809 2.28296 166.887 2.27983 166.963 2.29184C168.525 2.53569 170.106 2.81438 171.656 3.1192C171.81 3.13421 171.951 3.20978 172.049 3.32928C172.148 3.44878 172.194 3.60242 172.179 3.7564C172.164 3.91039 172.089 4.0521 171.969 4.15037C171.85 4.24864 171.696 4.29541 171.543 4.2804L171.537 4.27169ZM129.065 3.49659C128.909 3.50852 128.754 3.45788 128.635 3.3558C128.517 3.25372 128.443 3.10857 128.431 2.95227C128.419 2.79598 128.47 2.64135 128.572 2.52239C128.674 2.40343 128.819 2.3299 128.975 2.31797C130.536 2.07121 132.124 1.85059 133.697 1.66479C133.853 1.64632 134.01 1.69068 134.133 1.78813C134.257 1.88558 134.337 2.02814 134.355 2.18443C134.374 2.34073 134.329 2.49796 134.232 2.62154C134.135 2.74512 133.992 2.82493 133.836 2.84341C132.278 3.0292 130.705 3.24693 129.161 3.49078C129.126 3.48545 129.092 3.47669 129.059 3.46465L129.065 3.49659ZM162.167 2.81148H162.097C160.542 2.63149 158.96 2.48054 157.399 2.36151C157.321 2.3556 157.246 2.33447 157.176 2.29932C157.107 2.26418 157.045 2.2157 156.994 2.15667C156.892 2.03744 156.841 1.88244 156.853 1.72576C156.865 1.56908 156.939 1.42356 157.058 1.32121C157.177 1.21885 157.332 1.16806 157.489 1.17999C159.067 1.29901 160.663 1.45287 162.233 1.63576C162.39 1.64462 162.537 1.71535 162.641 1.8324C162.746 1.94945 162.799 2.10323 162.791 2.25991C162.782 2.41659 162.711 2.56333 162.594 2.66786C162.477 2.77239 162.323 2.82614 162.167 2.81729V2.81148ZM138.479 2.3499C138.322 2.35606 138.169 2.29957 138.053 2.19287C137.938 2.08616 137.87 1.93798 137.864 1.78091C137.857 1.62385 137.914 1.47077 138.021 1.35535C138.127 1.23994 138.275 1.17164 138.432 1.16548C140.008 1.04065 141.61 0.947752 143.191 0.875177C143.269 0.872127 143.347 0.884425 143.42 0.911369C143.493 0.938313 143.56 0.979374 143.617 1.03221C143.674 1.08504 143.72 1.14862 143.753 1.2193C143.785 1.28999 143.804 1.36639 143.807 1.44416C143.81 1.52194 143.797 1.59955 143.77 1.67256C143.743 1.74558 143.702 1.81258 143.65 1.86972C143.597 1.92687 143.533 1.97305 143.463 2.00563C143.392 2.03821 143.316 2.05655 143.238 2.0596C141.674 2.12347 140.086 2.21636 138.528 2.3499H138.479ZM152.698 2.0596H152.678C151.166 2.00154 149.631 1.97541 148.116 1.97541H147.956C147.799 1.97541 147.648 1.91287 147.537 1.80153C147.425 1.6902 147.363 1.5392 147.363 1.38175C147.363 1.2243 147.425 1.0733 147.537 0.961967C147.648 0.850633 147.799 0.788086 147.956 0.788086H148.119C149.648 0.788086 151.198 0.817117 152.724 0.875177C152.881 0.878257 153.03 0.943604 153.139 1.05684C153.248 1.17008 153.307 1.32194 153.304 1.479C153.301 1.63607 153.236 1.78547 153.123 1.89436C153.01 2.00324 152.858 2.06268 152.701 2.0596H152.698Z" fill="#2A2B2A"/>
<path opacity="0.09" d="M92.8618 49.8717C81.6374 38.0478 66.8148 30.5494 50.901 28.9382C41.3626 27.9715 31.0407 29.0514 22.0624 34.779C-9.23412 54.7546 -5.34273 134.297 28.9717 160.406C56.5828 181.418 89.0807 158.766 98.445 149.459C113.659 134.34 111.686 138.138 117.771 135.043C126.477 130.622 131.248 130.146 136.105 129.934C153.487 129.182 174.645 152.429 177.651 176.448C181.371 206.164 155.133 219.596 161.766 237.766C168.475 256.142 203.338 264.377 229.38 257.216C276.32 244.312 320.028 174.402 292.93 121.895C274.039 85.3609 225.352 65.9021 188.24 81.3025C169.831 88.9432 168.827 109.929 154.436 110.06C142.936 110.161 136.706 98.2329 108.242 66.5379C102.624 60.279 97.4293 54.6907 92.8618 49.8717Z" fill="#8A8A8A"/>
<path opacity="0.19" d="M189.046 127.162C189.046 136.571 185.5 145.635 179.116 152.546C172.732 159.457 163.978 163.706 154.601 164.448C153.634 164.527 152.653 164.566 151.659 164.564C150.717 164.564 149.783 164.529 148.859 164.459C141.604 163.914 134.666 161.263 128.895 156.832C123.123 152.4 118.77 146.381 116.368 139.511C113.966 132.641 113.62 125.219 115.372 118.155C117.124 111.091 120.898 104.692 126.231 99.7423C131.565 94.7923 138.226 91.5066 145.398 90.2879C152.571 89.0692 159.943 89.9704 166.611 92.881C173.279 95.7917 178.953 100.585 182.939 106.674C186.924 112.763 189.046 119.883 189.046 127.162Z" fill="#8A8A8A"/>
<path d="M185.503 121.983C185.504 131.393 181.959 140.458 175.574 147.369C169.19 154.279 160.436 158.529 151.058 159.269C150.091 159.346 149.11 159.385 148.116 159.385C147.176 159.385 146.241 159.35 145.319 159.28C138.064 158.736 131.125 156.085 125.354 151.654C119.582 147.223 115.228 141.204 112.826 134.334C110.423 127.464 110.077 120.042 111.828 112.978C113.58 105.914 117.354 99.5142 122.687 94.564C128.021 89.6138 134.682 86.3278 141.854 85.1089C149.027 83.8899 156.399 84.791 163.068 87.7016C169.736 90.6122 175.41 95.4059 179.395 101.495C183.381 107.584 185.503 114.704 185.503 121.983Z" fill="#F9F9FA"/>
<path d="M175.565 147.825C169.182 154.79 160.394 159.072 150.977 159.806C150.008 159.881 149.024 159.919 148.035 159.919C147.093 159.919 146.16 159.885 145.237 159.817C135.768 159.116 126.924 154.827 120.508 147.825L137.176 140.692L137.399 140.669L143.345 140.013L146.073 139.723L148.035 139.505L149.994 139.723L152.713 140.013L158.894 140.692L175.565 147.825Z" fill="#8A8A8A"/>
<path d="M139.108 115.08L139.083 139.468L157.062 139.487L157.088 115.099L139.108 115.08Z" fill="white"/>
<path d="M153.014 140.687L149.77 143.758L150.977 159.806C150.008 159.881 149.024 159.919 148.035 159.919C147.093 159.919 146.16 159.885 145.237 159.817L146.294 143.755L143.058 140.675L142.84 140.469L143.345 140.013L143.926 139.482L148.04 135.801L152.135 139.488L152.715 140.01L153.235 140.478L153.014 140.687Z" fill="white"/>
<path d="M140.165 120.882H139.103C138.333 120.882 137.595 120.576 137.051 120.032C136.507 119.487 136.201 118.749 136.201 117.979C136.201 117.209 136.507 116.471 137.051 115.926C137.595 115.382 138.333 115.076 139.103 115.076H140.153C140.923 115.076 141.661 115.382 142.205 115.926C142.75 116.471 143.055 117.209 143.055 117.979C143.055 118.747 142.751 119.484 142.21 120.028C141.668 120.572 140.933 120.879 140.165 120.882Z" fill="#8A8A8A"/>
<path d="M157.094 120.9H156.044C155.274 120.9 154.536 120.594 153.992 120.049C153.448 119.505 153.142 118.767 153.142 117.997C153.142 117.227 153.448 116.488 153.992 115.944C154.536 115.4 155.274 115.094 156.044 115.094H157.094C157.864 115.094 158.602 115.4 159.146 115.944C159.691 116.488 159.996 117.227 159.996 117.997C159.996 118.767 159.691 119.505 159.146 120.049C158.602 120.594 157.864 120.9 157.094 120.9Z" fill="#8A8A8A"/>
<path opacity="0.08" d="M157.095 120.139V126.598C155.519 129.852 150.754 136.953 139.103 137.162V120.125L157.095 120.139Z" fill="#8A8A8A"/>
<path d="M155.225 100.59C155.225 100.59 163.615 99.9718 157.869 115.976H155.208L155.225 100.59Z" fill="#8A8A8A"/>
<path d="M156.317 105.766C156.317 105.766 159.7 98.5641 151.383 97.1503C143.067 95.7366 136.004 102.805 136.247 105.438C136.491 108.071 138.357 115.968 138.357 115.968L156.317 105.766Z" fill="#8A8A8A"/>
<path d="M158.113 106.954V119.936C158.107 121.317 157.817 122.682 157.259 123.945C156.702 125.208 155.89 126.343 154.874 127.278C153.857 128.213 152.659 128.927 151.354 129.377C150.049 129.827 148.665 130.003 147.289 129.893C142.066 129.463 138.116 124.958 138.122 119.709V106.936C138.127 106.473 138.314 106.031 138.642 105.704C138.971 105.378 139.415 105.195 139.878 105.194L156.363 105.212C156.593 105.212 156.821 105.257 157.033 105.346C157.245 105.434 157.438 105.564 157.599 105.727C157.761 105.89 157.889 106.084 157.976 106.297C158.063 106.51 158.106 106.738 158.104 106.968L158.113 106.954Z" fill="white"/>
<path d="M143.165 140.675H137.182L138.087 135.801H148.04C148.04 137.094 147.526 138.333 146.611 139.247C145.697 140.161 144.458 140.675 143.165 140.675Z" fill="#8A8A8A"/>
<path d="M152.91 140.687H158.893L157.994 135.81H148.041C148.041 137.102 148.553 138.342 149.466 139.256C150.379 140.171 151.618 140.685 152.91 140.687Z" fill="#8A8A8A"/>
<path opacity="0.08" d="M151.024 105.191C146.807 106.112 140.127 108.989 138.107 117.938V106.93C138.112 106.467 138.299 106.025 138.628 105.699C138.956 105.373 139.4 105.189 139.863 105.188L151.024 105.191Z" fill="#8A8A8A"/>
<path d="M148.2 121.01C146.861 121.001 145.542 120.681 144.347 120.075C144.143 119.963 143.992 119.774 143.928 119.551C143.863 119.327 143.89 119.087 144.003 118.884C144.115 118.68 144.304 118.529 144.527 118.465C144.751 118.4 144.99 118.427 145.194 118.54C145.322 118.609 148.157 120.113 150.916 118.54C151.119 118.424 151.359 118.394 151.584 118.455C151.808 118.517 151.999 118.665 152.115 118.868C152.23 119.07 152.261 119.31 152.199 119.535C152.138 119.76 151.989 119.951 151.787 120.067C150.695 120.691 149.458 121.016 148.2 121.01Z" fill="#8A8A8A"/>
<g style="mix-blend-mode:multiply" opacity="0.25">
<path d="M152.251 222.839C128.612 222.81 105.827 213.998 88.3142 198.114C70.8018 182.229 59.8112 160.404 57.4742 136.871C55.1372 113.339 61.6205 89.7768 75.6665 70.7558C89.7124 51.7348 110.32 38.6108 133.491 33.9295C156.662 29.2483 180.745 33.3435 201.069 45.4209C221.393 57.4983 236.508 76.6968 243.483 99.2923C250.458 121.888 248.795 146.27 238.817 167.708C228.839 189.146 211.257 206.113 189.482 215.317C177.704 220.304 165.041 222.862 152.251 222.839ZM152.251 51.1812C110.372 51.1812 76.3009 85.2653 76.3009 127.161C76.3009 169.058 110.374 203.15 152.251 203.15C194.128 203.15 228.204 169.058 228.204 127.161C228.204 85.2653 194.131 51.1812 152.251 51.1812Z" fill="#3A7FC2"/>
</g>
<path d="M148.119 217.93C124.471 217.903 101.677 209.091 84.1568 193.202C66.6368 177.313 55.6407 155.48 53.3015 131.939C50.9624 108.398 57.447 84.8273 71.4973 65.7989C85.5477 46.7704 106.162 33.6411 129.342 28.9578C152.521 24.2745 176.613 28.3711 196.944 40.453C217.276 52.5349 232.396 71.7406 239.373 94.3446C246.35 116.948 244.685 141.339 234.703 162.785C224.72 184.23 207.131 201.202 185.347 210.408C173.57 215.396 160.908 217.954 148.119 217.93ZM148.119 46.2695C106.239 46.2695 72.1659 80.3536 72.1659 122.25C72.1659 164.146 106.239 198.233 148.119 198.233C189.999 198.233 224.069 164.146 224.069 122.25C224.069 80.3536 189.999 46.2695 148.119 46.2695Z" fill="#D08480"/>
<path opacity="0.18" d="M83.6863 235.758C90.4106 234.17 94.5751 227.43 92.988 220.703C91.401 213.976 84.6633 209.81 77.939 211.398C71.2148 212.985 67.0502 219.726 68.6373 226.453C70.2244 233.18 76.9621 237.346 83.6863 235.758Z" fill="#8A8A8A"/>
<path d="M79.6119 233.655C86.521 233.655 92.1218 228.052 92.1218 221.14C92.1218 214.229 86.521 208.625 79.6119 208.625C72.7029 208.625 67.1021 214.229 67.1021 221.14C67.1021 228.052 72.7029 233.655 79.6119 233.655Z" fill="#8A8A8A"/>
<path d="M86.6376 217.152V225.126C86.6376 225.192 86.6245 225.258 86.5991 225.319C86.5736 225.38 86.5364 225.436 86.4895 225.482C86.4426 225.529 86.3869 225.566 86.3256 225.591C86.2644 225.616 86.1988 225.629 86.1326 225.628H73.0743C72.9411 225.628 72.8134 225.576 72.7193 225.481C72.6252 225.387 72.5723 225.259 72.5723 225.126V217.155C72.573 217.021 72.6266 216.893 72.7212 216.799C72.8158 216.705 72.9438 216.652 73.0772 216.652H86.1355C86.2684 216.653 86.3957 216.706 86.4897 216.8C86.5837 216.894 86.6368 217.022 86.6376 217.155V217.152Z" fill="#F9F9FA"/>
<path d="M86.4983 216.795L79.9604 221.149C79.8566 221.215 79.7364 221.249 79.6136 221.249C79.4909 221.249 79.3707 221.215 79.2668 221.149L72.7261 216.818C72.7727 216.768 72.8293 216.728 72.8923 216.701C72.9553 216.674 73.0232 216.66 73.0917 216.661H86.15C86.279 216.659 86.4038 216.707 86.4983 216.795Z" fill="#8A8A8A"/>
<path d="M86.4983 216.795L79.7718 219.117C79.6677 219.182 79.5476 219.216 79.425 219.216C79.3024 219.216 79.1823 219.182 79.0782 219.117L72.7261 216.815C72.7727 216.765 72.8293 216.725 72.8923 216.698C72.9553 216.671 73.0232 216.657 73.0917 216.658H86.15C86.2794 216.657 86.4043 216.706 86.4983 216.795Z" fill="white"/>
<path opacity="0.19" d="M241.358 54.5367C248.117 53.1021 252.433 46.458 250.999 39.6968C249.565 32.9355 242.923 28.6175 236.165 30.0522C229.406 31.4869 225.09 38.131 226.524 44.8922C227.958 51.6534 234.599 55.9714 241.358 54.5367Z" fill="#8A8A8A"/>
<path d="M240.806 52.4641C247.531 50.8764 251.695 44.1361 250.108 37.4091C248.521 30.6822 241.783 26.516 235.059 28.1037C228.335 29.6914 224.17 36.4318 225.757 43.1587C227.345 49.8856 234.082 54.0518 240.806 52.4641Z" fill="#8A8A8A"/>
<path d="M236.414 33.2115C236.567 33.3027 236.694 33.4328 236.781 33.5889C236.869 33.7449 236.913 33.9212 236.91 34.0999C236.98 34.8256 237.043 35.5533 237.101 36.2829C237.113 36.3939 237.113 36.5058 237.101 36.6168C237.094 36.7692 237.035 36.9144 236.933 37.0277C236.83 37.141 236.692 37.2153 236.541 37.238C236.305 37.2903 236.07 37.3367 235.836 37.3774C235.733 37.3921 235.636 37.4355 235.557 37.5028C235.477 37.5701 235.418 37.6584 235.386 37.7576C235.278 38.0274 235.251 38.3235 235.311 38.6082C235.647 40.2422 236.421 41.7537 237.551 42.9801C237.789 43.2324 238.047 43.4644 238.323 43.674C238.503 43.8027 238.72 43.8708 238.941 43.8685C239.018 43.8726 239.094 43.859 239.165 43.8288C239.235 43.7986 239.298 43.7526 239.348 43.6943L239.797 43.195C239.852 43.1171 239.921 43.051 240.001 43.0005C240.082 42.95 240.171 42.9161 240.265 42.901C240.359 42.8858 240.454 42.8896 240.546 42.9122C240.639 42.9348 240.725 42.9757 240.801 43.0324C241.013 43.1572 241.211 43.3227 241.411 43.4562C241.798 43.7291 242.174 44.0049 242.54 44.2836C242.635 44.3533 242.731 44.4287 242.83 44.5071C242.96 44.5993 243.066 44.7216 243.14 44.8636C243.213 45.0056 243.251 45.1631 243.251 45.3229L243.175 45.587C243.059 45.7786 242.96 45.9818 242.827 46.1676C242.561 46.554 242.206 46.8697 241.79 47.0872C241.375 47.3048 240.913 47.4176 240.444 47.4159C240.247 47.4159 240.044 47.384 239.844 47.3666L239.391 47.2388C239.214 47.1605 239.034 47.085 238.863 46.9979C238.024 46.5363 237.282 45.9185 236.675 45.1777C235.05 43.2081 233.814 40.9484 233.03 38.5182C232.801 37.7663 232.697 36.9816 232.723 36.1958C232.737 35.9665 232.772 35.7372 232.795 35.5078L232.923 35.0549C232.942 35.0236 232.959 34.9905 232.972 34.9562C233.164 34.453 233.495 34.0145 233.926 33.6914C234.357 33.3682 234.87 33.1737 235.407 33.1303C235.66 33.1128 235.914 33.1128 236.167 33.1303L236.414 33.2115Z" fill="white"/>
<path d="M59.1831 224.31C61.4909 224.31 63.3617 222.439 63.3617 220.13C63.3617 217.821 61.4909 215.95 59.1831 215.95C56.8753 215.95 55.0044 217.821 55.0044 220.13C55.0044 222.439 56.8753 224.31 59.1831 224.31Z" fill="#8A8A8A"/>
<path d="M56.2433 212.141C57.4741 212.141 58.4719 211.143 58.4719 209.912C58.4719 208.68 57.4741 207.682 56.2433 207.682C55.0124 207.682 54.0146 208.68 54.0146 209.912C54.0146 211.143 55.0124 212.141 56.2433 212.141Z" fill="#8A8A8A"/>
<path d="M239.096 60.3949C239.523 58.5956 238.41 56.7911 236.612 56.3644C234.813 55.9378 233.009 57.0506 232.583 58.8499C232.156 60.6492 233.269 62.4538 235.067 62.8804C236.866 63.3071 238.67 62.1943 239.096 60.3949Z" fill="#8A8A8A"/>
<path d="M245.716 64.7059C245.972 63.6199 245.3 62.5317 244.214 62.2754C243.129 62.019 242.041 62.6916 241.785 63.7777C241.529 64.8637 242.201 65.9519 243.286 66.2083C244.372 66.4646 245.46 65.792 245.716 64.7059Z" fill="#8A8A8A"/>
<path d="M245.427 183.7C244.465 184.305 243.328 184.565 242.199 184.437C241.071 184.31 240.02 183.804 239.217 183.001L238.604 182.388C237.886 182.143 237.234 181.735 236.698 181.198L228.373 172.872L218.248 183.001C217.783 183.466 217.231 183.835 216.623 184.087C216.015 184.339 215.364 184.468 214.706 184.468C214.048 184.468 213.397 184.339 212.789 184.087C212.182 183.835 211.63 183.466 211.165 183.001C210.992 182.818 210.831 182.624 210.683 182.42C209.863 182.16 209.123 181.693 208.536 181.064C207.948 180.436 207.532 179.666 207.328 178.83C207.124 177.994 207.139 177.119 207.37 176.29C207.602 175.461 208.043 174.706 208.652 174.097L219.136 163.609L208.652 153.123C208.186 152.658 207.818 152.105 207.566 151.497C207.314 150.889 207.185 150.237 207.185 149.579C207.185 148.921 207.315 148.269 207.567 147.661C207.819 147.053 208.188 146.501 208.653 146.035C209.118 145.57 209.671 145.201 210.279 144.949C210.886 144.698 211.538 144.568 212.196 144.568C212.854 144.568 213.505 144.698 214.113 144.95C214.721 145.202 215.273 145.571 215.738 146.037L216.35 146.649C217.068 146.894 217.72 147.3 218.257 147.837L221.536 151.117C218.321 143.064 216.228 134.515 216.275 125.875C210.412 127.422 204.991 130.314 200.441 134.322C195.891 138.33 192.337 143.344 190.063 148.966C187.788 154.588 186.854 160.663 187.336 166.709C187.817 172.754 189.701 178.605 192.838 183.795C195.974 188.986 200.276 193.373 205.404 196.61C210.531 199.846 216.342 201.843 222.375 202.44C228.408 203.038 234.497 202.221 240.16 200.053C245.822 197.886 250.901 194.428 254.994 189.953C251.957 188.256 249.031 186.367 246.233 184.298C245.964 184.098 245.694 183.898 245.427 183.7Z" fill="#8A8A8A"/>
<path d="M226.211 202.643C247.752 202.643 265.215 185.173 265.215 163.623C265.215 142.074 247.752 124.604 226.211 124.604C204.67 124.604 187.207 142.074 187.207 163.623C187.207 185.173 204.67 202.643 226.211 202.643Z" fill="#8A8A8A"/>
<path d="M215.729 181.198C215.082 181.846 214.269 182.304 213.379 182.522C212.489 182.74 211.557 182.71 210.683 182.435C210.831 182.639 210.992 182.832 211.165 183.015C211.63 183.481 212.182 183.85 212.79 184.102C213.397 184.353 214.049 184.483 214.707 184.483C215.364 184.483 216.016 184.353 216.623 184.102C217.231 183.85 217.783 183.481 218.248 183.015L228.373 172.887L226.211 170.727L215.729 181.198Z" fill="#2A2B2A"/>
<path d="M216.341 146.664L226.208 156.534L226.567 156.174L221.515 151.132L218.236 147.851C217.703 147.316 217.055 146.91 216.341 146.664Z" fill="#2A2B2A"/>
<path d="M246.3 147.851C245.733 147.282 245.036 146.858 244.269 146.618C244.983 147.582 245.327 148.771 245.238 149.967C245.15 151.164 244.635 152.289 243.787 153.138L233.297 163.623L243.778 174.121C244.581 174.921 245.088 175.971 245.217 177.098C245.346 178.225 245.089 179.362 244.487 180.323C243.886 181.284 242.976 182.013 241.907 182.39C240.838 182.767 239.672 182.769 238.601 182.397L239.214 183.01C240.018 183.812 241.071 184.317 242.199 184.443C243.328 184.569 244.466 184.307 245.427 183.701C245.741 183.502 246.033 183.269 246.297 183.007C247.237 182.067 247.765 180.792 247.765 179.462C247.765 178.133 247.237 176.858 246.297 175.918L235.813 165.432L245.331 155.913L246.297 154.943C246.763 154.478 247.133 153.926 247.386 153.317C247.638 152.709 247.768 152.057 247.769 151.398C247.769 150.739 247.639 150.087 247.387 149.478C247.135 148.87 246.766 148.317 246.3 147.851Z" fill="#2A2B2A"/>
<path d="M243.779 174.121L233.297 163.623L243.779 153.138C244.626 152.289 245.141 151.164 245.23 149.967C245.318 148.77 244.974 147.582 244.26 146.618C244.115 146.412 243.954 146.218 243.779 146.037C243.314 145.571 242.762 145.201 242.154 144.949C241.546 144.697 240.895 144.567 240.237 144.567C239.579 144.567 238.927 144.697 238.32 144.949C237.712 145.201 237.16 145.571 236.695 146.037L234.545 148.185L226.571 156.163L226.211 156.523L216.344 146.652L215.732 146.04C214.793 145.1 213.519 144.572 212.19 144.571C210.861 144.571 209.587 145.099 208.647 146.038C207.708 146.978 207.179 148.253 207.179 149.582C207.179 150.911 207.706 152.186 208.646 153.126L219.13 163.612L208.643 174.121C207.704 175.061 207.176 176.336 207.176 177.665C207.177 178.994 207.705 180.269 208.644 181.208C209.584 182.148 210.858 182.676 212.187 182.675C213.516 182.675 214.79 182.147 215.729 181.207L226.211 170.721L228.373 172.881L236.695 181.207C237.16 181.672 237.712 182.041 238.32 182.293C238.928 182.545 239.579 182.674 240.237 182.674C240.895 182.674 241.546 182.545 242.154 182.293C242.761 182.041 243.313 181.672 243.779 181.207C244.244 180.742 244.613 180.189 244.864 179.581C245.116 178.973 245.246 178.322 245.246 177.664C245.246 177.006 245.116 176.354 244.864 175.746C244.613 175.138 244.244 174.586 243.779 174.121Z" fill="#F9F9F9"/>
</g>
<defs>
<clipPath id="clip0_1266_2623">
<rect width="300.51" height="259" fill="white" transform="translate(0.745117 0.785156)"/>
</clipPath>
</defs>
</svg>
