<svg width="16" height="16" viewBox="0 0 16 16" fill="none" xmlns="http://www.w3.org/2000/svg">
<g clip-path="url(#clip0_377_4995)">
<path d="M7.9999 1.37793C4.0799 1.37793 0.899902 4.55793 0.899902 8.47793C0.899902 12.3979 4.0799 15.5779 7.9999 15.5779C11.9199 15.5779 15.0999 12.3979 15.0999 8.47793C15.0999 4.55793 11.9199 1.37793 7.9999 1.37793ZM6.8599 3.65793H9.1399V10.1579H6.8599V3.65793ZM9.0099 12.9579C8.7499 13.1879 8.4199 13.3079 7.9999 13.3079C7.5799 13.3079 7.2499 13.1979 6.9899 12.9779C6.7299 12.7579 6.6099 12.4779 6.6099 12.1279C6.6099 11.7679 6.7399 11.4679 6.9899 11.2379C7.2499 10.9979 7.5799 10.8879 7.9999 10.8879C8.4199 10.8879 8.7499 11.0079 9.0099 11.2379C9.2699 11.4679 9.3899 11.7579 9.3899 12.0979C9.3899 12.4379 9.2599 12.7279 9.0099 12.9579Z" fill="#7C7C7C"/>
</g>
<defs>
<clipPath id="clip0_377_4995">
<rect width="15" height="15" fill="white" transform="translate(0.5 0.828125)"/>
</clipPath>
</defs>
</svg>
