<svg width="162" height="48" viewBox="0 0 162 48" fill="none" xmlns="http://www.w3.org/2000/svg">
<path d="M18.4179 0.719614C17.9298 1.28285 17.8359 1.54569 17.8359 2.37177C17.8359 3.59211 18.2865 4.38064 19.244 4.83123C21.9851 6.14544 24.4446 2.57829 22.2292 0.531869C21.7786 0.11883 21.5533 0.0625067 20.3705 0.0625067C19.0375 0.0625067 18.9812 0.0812812 18.4179 0.719614Z" fill="#2B2B2B"/>
<path d="M24.8954 2.61597C24.8391 2.78495 24.7828 3.06656 24.7828 3.27308C24.7828 3.89264 24.1069 5.01911 23.2808 5.77009C22.6237 6.37087 22.5298 6.52107 22.7364 6.72759C22.8865 6.85901 25.928 9.09317 29.5327 11.6841L36.0475 16.4152V20.1701C36.0475 22.2165 36.1038 23.9062 36.1977 23.9062C36.2728 23.8875 36.5356 23.7748 36.7984 23.6246C37.418 23.2679 39.2579 23.2679 40.084 23.6059L40.7411 23.8875V18.931V13.9933L33.0999 8.28587C28.8756 5.15053 25.346 2.5221 25.2334 2.447C25.1019 2.37191 24.9517 2.447 24.8954 2.61597Z" fill="#2B2B2B"/>
<path d="M8.16725 8.39825L0.657456 13.8804L0.544809 18.7618C0.488486 21.4277 0.469711 23.6619 0.488486 23.6995C0.526035 23.737 0.807652 23.6619 1.14559 23.5493C1.99045 23.2676 3.6426 23.2864 4.41235 23.6056L5.06946 23.8872V20.245C5.06946 17.3537 5.12578 16.5652 5.3323 16.3399C5.4825 16.1897 8.48642 13.9367 11.9972 11.3271L18.3806 6.57713L17.4606 5.7135C16.8411 5.11272 16.4468 4.53071 16.2215 3.85483C16.0338 3.32914 15.8272 2.87855 15.7709 2.89733C15.7146 2.89733 12.2976 5.37556 8.16725 8.39825Z" fill="#2B2B2B"/>
<path d="M57.0742 18.2739V33.5L59.8528 33.4437L62.6127 33.3874L62.669 29.0129L62.7066 24.6572H66.5553C68.6769 24.6572 70.4604 24.6384 70.5543 24.6197C70.6294 24.5821 72.075 26.5534 73.7835 28.9753L76.8813 33.3874L79.9415 33.4437C82.401 33.4812 82.983 33.4437 82.8704 33.2559C82.7765 33.1245 81.2558 30.9279 79.4722 28.3933C77.6886 25.84 76.2242 23.6997 76.2242 23.6058C76.2242 23.512 76.7123 23.1928 77.3131 22.8736C79.6412 21.6721 81.6688 18.9873 82.2133 16.434C82.4761 15.1949 82.4761 12.8293 82.232 11.4963C81.7064 8.68012 79.5848 5.95782 76.9376 4.68116C74.0276 3.29184 72.3379 3.06655 63.8894 3.06655H57.0742V18.2739ZM73.1076 8.49238C74.4594 9.03684 75.6797 10.1258 76.2617 11.2898C76.6185 12.0032 76.6936 12.4726 76.6936 13.8619C76.6936 15.3263 76.6185 15.683 76.1679 16.6217C75.6046 17.767 74.9288 18.4429 73.746 19.0436C72.3567 19.7571 70.742 19.9636 66.6117 19.9636H62.7066V13.937V7.91037L67.3626 7.98547C71.6995 8.04179 72.075 8.07934 73.1076 8.49238Z" fill="#2B2B2B"/>
<path d="M96.5951 10.1259C96.3886 10.1634 95.7502 10.2948 95.187 10.4075C94.6238 10.5201 93.441 10.9519 92.5773 11.365C89.6297 12.7731 87.4144 15.5892 86.6258 18.9311C86.1752 20.9024 86.3254 24.1129 86.9825 25.9715C87.9588 28.7314 89.9114 30.928 92.5398 32.261C94.8491 33.4062 95.6939 33.5752 99.1296 33.5752C102.021 33.5564 102.321 33.5376 103.711 33.0495C105.438 32.4487 106.414 31.9043 107.578 30.8904C108.367 30.1958 108.404 30.1207 108.179 29.7077C108.048 29.4636 107.39 28.6751 106.752 27.9616L105.569 26.6474L104.8 27.2482C102.96 28.7126 100.312 29.3885 97.853 28.9942C95.2058 28.6 93.3846 27.3796 92.3896 25.3707C91.3758 23.3431 90.4934 23.5308 100.932 23.5308H110.075L109.963 21.4093C109.643 14.7068 105.382 10.3512 98.848 10.1071C97.8154 10.0695 96.8016 10.0695 96.5951 10.1259ZM101.12 14.9697C102.903 15.7958 104.349 17.523 104.668 19.2503L104.8 19.9637H98.2848H91.77L91.9015 19.2503C92.2957 17.0724 94.4172 15.0072 96.7453 14.5191C97.9656 14.2562 100.031 14.4628 101.12 14.9697Z" fill="#2B2B2B"/>
<path d="M147.474 10.1821C143.606 10.8204 140.321 13.0546 138.706 16.1148C137.73 18.011 137.373 19.513 137.373 21.841C137.355 25.3518 138.331 27.7925 140.621 30.1206C143.062 32.5613 145.859 33.6689 149.633 33.6689C153.444 33.6689 156.129 32.6363 158.57 30.1957C160.335 28.4496 161.273 26.7412 161.743 24.4319C163.019 17.9547 159.452 12.0783 153.238 10.4824C151.83 10.1257 148.807 9.97554 147.474 10.1821ZM152.637 15.2887C157.65 17.6168 157.875 25.5771 152.994 28.2243C151.83 28.8627 151.736 28.8815 149.633 28.8815C147.643 28.8815 147.399 28.8439 146.479 28.3558C145.202 27.6799 144.151 26.591 143.494 25.258C143.006 24.2629 142.968 24.0376 142.968 21.841C142.968 19.1375 143.231 18.3302 144.583 16.8658C146.122 15.2136 147.436 14.6879 149.915 14.763C151.248 14.8006 151.811 14.9132 152.637 15.2887Z" fill="#2B2B2B"/>
<path d="M111.239 10.7453C111.295 10.9518 113.341 15.7581 115.782 21.4092C118.204 27.0604 120.382 32.0919 120.588 32.5988L120.964 33.5L123.78 33.4437L126.596 33.3874L131.271 22.4982C133.843 16.5091 136.058 11.3273 136.209 10.9894L136.471 10.3698L133.824 10.4262L131.177 10.4825L127.591 18.7808C125.62 23.343 123.949 27.1167 123.893 27.173C123.836 27.2293 122.203 23.4744 120.25 18.8371L116.721 10.3886H113.923C111.239 10.3886 111.126 10.4074 111.239 10.7453Z" fill="#2B2B2B"/>
<path d="M18.061 22.5355L15.7705 24.3754V30.5147V36.654L17.8169 37.8743C18.9246 38.5502 19.976 39.151 20.145 39.2261C20.3515 39.3012 21.3278 38.8318 22.8109 37.9682L25.1578 36.5976V30.4772L25.139 24.3754L22.9799 22.6294C21.7971 21.6719 20.727 20.8458 20.5768 20.7895C20.4454 20.7332 19.3189 21.5217 18.061 22.5355Z" fill="#2B2B2B"/>
<path d="M1.57686 25.2954C-1.01402 26.4218 -0.0940717 30.3457 2.75965 30.3457C4.16774 30.3457 5.31298 29.2005 5.31298 27.7924C5.31298 25.7835 3.41676 24.5068 1.57686 25.2954Z" fill="#2B2B2B"/>
<path d="M37.1548 25.4269C34.8831 26.7411 35.7467 30.2895 38.3564 30.327C41.2476 30.3833 42.1864 26.6472 39.6143 25.3705C38.7506 24.9387 37.9809 24.9575 37.1548 25.4269Z" fill="#2B2B2B"/>
<path d="M32.2166 36.222C27.3728 39.1508 23.3175 41.629 23.2236 41.7229C23.1297 41.8168 23.2612 42.0796 23.524 42.3425C24.6692 43.4877 25.2137 45.8345 24.6129 46.9798C24.4815 47.1863 24.4627 47.374 24.5566 47.374C24.7256 47.374 40.7214 37.7052 40.9843 37.4423C41.0594 37.3672 41.0969 35.8653 41.0781 34.1192L41.0218 30.9276L32.2166 36.222Z" fill="#2B2B2B"/>
<path d="M0 34.2698V37.5177L3.22921 39.4891C12.5038 45.1214 16.2212 47.3556 16.2775 47.2993C16.315 47.2617 16.2587 47.0176 16.1461 46.736C15.6579 45.4406 16.1648 43.5444 17.3101 42.3616L17.8733 41.7796L17.1599 41.3102C16.0334 40.6155 0.882401 31.4911 0.413039 31.2471L0 31.0218V34.2698Z" fill="#2B2B2B"/>
<path d="M57.0742 43.1498C57.0742 44.7456 57.1305 45.1211 57.3371 45.1211C57.5248 45.1211 57.6375 44.8583 57.675 44.3138C57.7313 43.544 57.7501 43.5253 58.4448 43.4689C59.3647 43.3938 59.2708 42.9808 58.3133 42.9057C57.675 42.8494 57.6187 42.7931 57.675 42.3425C57.7313 41.8731 57.8064 41.8356 58.7264 41.7792C60.1908 41.6854 59.9092 41.2911 58.3321 41.216L57.0742 41.1597V43.1498Z" fill="#2B2B2B"/>
<path d="M63.3827 41.5728C62.9509 41.9108 62.8945 42.0797 62.8945 43.225C62.8945 44.7269 63.2325 45.1963 64.3402 45.1963C65.3352 45.1963 65.7107 44.6331 65.7107 43.1499C65.7107 42.0797 65.6544 41.9108 65.2226 41.5728C64.941 41.3475 64.5279 41.1785 64.3026 41.1785C64.0773 41.1785 63.6643 41.3475 63.3827 41.5728ZM64.7344 41.9671C64.8659 42.0985 64.9597 42.6805 64.9597 43.2813C64.9597 44.1637 64.8846 44.389 64.5842 44.558C64.021 44.8583 63.4578 44.2012 63.4578 43.2062C63.4578 42.0797 64.1524 41.3851 64.7344 41.9671Z" fill="#2B2B2B"/>
<path d="M69.2783 43.1498C69.2783 44.7456 69.3346 45.1211 69.5412 45.1211C69.7289 45.1211 69.8416 44.8583 69.8791 44.3326C69.9542 43.1685 70.4423 43.1498 70.9493 44.2575C71.2121 44.877 71.4374 45.1211 71.719 45.1211H72.0945L71.719 44.3701L71.3247 43.6004L71.719 43.1122C72.2071 42.4927 72.1884 42.1923 71.6251 41.6478C71.2684 41.2723 70.9868 41.1785 70.217 41.1785H69.2783V43.1498ZM71.0807 42.0045C71.3623 42.2298 71.3998 42.3425 71.2309 42.6241C70.9493 43.0747 69.973 43.0747 69.8791 42.6241C69.7101 41.798 70.3485 41.4788 71.0807 42.0045Z" fill="#2B2B2B"/>
<path d="M80.4113 41.4042C80.2423 41.6107 79.2285 44.7085 79.2285 45.0089C79.2285 45.2529 79.8105 45.1027 79.9044 44.8399C79.9795 44.6521 80.2799 44.5583 80.7492 44.5583C81.2374 44.5583 81.5378 44.6521 81.5941 44.8399C81.6692 44.9901 81.8757 45.1215 82.0822 45.1215C82.3639 45.1215 82.4202 45.0276 82.3263 44.7648C81.2562 41.3666 80.9182 40.7658 80.4113 41.4042ZM81.2749 43.751C81.2937 43.9012 81.0872 43.995 80.8056 43.995C80.3362 43.995 80.3174 43.9575 80.4489 43.3004C80.524 42.9061 80.6178 42.5118 80.6929 42.418C80.7868 42.2302 81.2562 43.2816 81.2749 43.751Z" fill="#2B2B2B"/>
<path d="M89.8924 41.2911C89.7985 41.3662 89.7422 42.2674 89.7422 43.2812V45.1211H90.8687C91.8637 45.1211 92.0139 45.0648 92.3143 44.633C92.6147 44.1636 92.6147 44.1073 92.3331 43.6004C92.1453 43.3 92.089 43.0184 92.2016 42.962C92.4833 42.7743 92.3894 41.8168 92.089 41.5539C91.7511 41.2723 90.0989 41.0658 89.8924 41.2911ZM91.5258 42.0045C92.0514 42.3988 91.7511 42.8682 90.9625 42.8682C90.3993 42.8682 90.3054 42.8118 90.3054 42.4363C90.3054 42.1923 90.3617 41.9294 90.4368 41.8731C90.6434 41.6666 91.1503 41.7229 91.5258 42.0045ZM91.5821 43.6004C91.7323 43.6942 91.8074 43.9195 91.7698 44.1073C91.7323 44.3701 91.5258 44.4828 91.0001 44.5203C90.3805 44.5766 90.3054 44.5391 90.3054 44.126C90.3054 43.882 90.3617 43.6191 90.4368 43.5628C90.6058 43.3751 91.2817 43.4126 91.5821 43.6004Z" fill="#2B2B2B"/>
<path d="M96.0689 41.3099C95.9938 41.3662 95.9375 42.2674 95.9375 43.2812V45.1211H97.2517C98.3031 45.1211 98.5659 45.0648 98.5659 44.8395C98.5659 44.633 98.3406 44.5579 97.6272 44.5579C96.7073 44.5579 96.6885 44.5391 96.6885 43.9946C96.6885 43.4689 96.7448 43.4314 97.3456 43.4314C97.7962 43.4314 98.0027 43.3375 98.0027 43.1498C98.0027 42.9433 97.7962 42.8682 97.3268 42.8682C96.7073 42.8682 96.6697 42.8306 96.726 42.3425C96.7824 41.8731 96.8575 41.8356 97.6835 41.7792C98.3031 41.7417 98.5659 41.6478 98.5659 41.4413C98.5659 41.2348 98.2843 41.1785 97.3831 41.1785C96.726 41.1785 96.1252 41.2348 96.0689 41.3099Z" fill="#2B2B2B"/>
<path d="M101.945 41.4413C101.945 41.6103 102.171 41.7417 102.471 41.7792C102.978 41.8356 102.978 41.8356 103.034 43.4689C103.072 44.7456 103.147 45.1211 103.353 45.1211C103.56 45.1211 103.635 44.7456 103.673 43.4689C103.729 41.8356 103.729 41.8356 104.255 41.7792C104.536 41.7417 104.761 41.6103 104.761 41.4413C104.761 41.2348 104.442 41.1785 103.353 41.1785C102.264 41.1785 101.945 41.2348 101.945 41.4413Z" fill="#2B2B2B"/>
<path d="M107.953 41.4413C107.953 41.6103 108.178 41.7417 108.479 41.7792C108.986 41.8356 108.986 41.8356 109.042 43.4689C109.08 44.7456 109.155 45.1211 109.361 45.1211C109.568 45.1211 109.643 44.7456 109.68 43.4689C109.737 41.8356 109.737 41.8356 110.262 41.7792C110.544 41.7417 110.769 41.6103 110.769 41.4413C110.769 41.2348 110.45 41.1785 109.361 41.1785C108.272 41.1785 107.953 41.2348 107.953 41.4413Z" fill="#2B2B2B"/>
<path d="M114.28 41.3099C114.205 41.3662 114.148 42.2674 114.148 43.2812V45.1211H115.463C116.514 45.1211 116.777 45.0648 116.777 44.8395C116.777 44.633 116.552 44.5579 115.838 44.5579C114.918 44.5579 114.899 44.5391 114.899 43.9946C114.899 43.4689 114.956 43.4314 115.557 43.4314C116.007 43.4314 116.214 43.3375 116.214 43.1498C116.214 42.9433 116.007 42.8682 115.538 42.8682C114.918 42.8682 114.881 42.8306 114.937 42.3425C114.993 41.8731 115.068 41.8356 115.894 41.7792C116.514 41.7417 116.777 41.6478 116.777 41.4413C116.777 41.2348 116.495 41.1785 115.594 41.1785C114.937 41.1785 114.336 41.2348 114.28 41.3099Z" fill="#2B2B2B"/>
<path d="M120.345 43.1498C120.345 44.7456 120.401 45.1211 120.608 45.1211C120.795 45.1211 120.908 44.8583 120.946 44.3326C121.021 43.1685 121.509 43.1498 122.016 44.2575C122.278 44.877 122.504 45.1211 122.785 45.1211H123.161L122.785 44.3701L122.41 43.6191L122.785 43.0934C123.536 42.0796 122.748 41.1785 121.077 41.1785H120.345V43.1498ZM122.147 42.0045C122.429 42.2298 122.466 42.3425 122.297 42.6241C122.016 43.0747 121.039 43.0747 120.946 42.6241C120.777 41.798 121.415 41.4788 122.147 42.0045Z" fill="#2B2B2B"/>
<path d="M130.482 43.1498C130.482 44.7832 130.539 45.1211 130.764 45.1211C130.971 45.1211 131.046 44.9146 131.046 44.3701C131.046 43.6379 131.064 43.6191 131.703 43.6191C132.566 43.6191 133.374 42.8682 133.205 42.2486C132.998 41.5352 132.397 41.1785 131.402 41.1785H130.482V43.1498ZM132.285 42.0045C132.773 42.38 132.435 42.9433 131.628 43.0184C131.102 43.0747 131.046 43.0371 131.046 42.5302C131.046 42.2298 131.102 41.9294 131.177 41.8731C131.384 41.6666 131.891 41.7229 132.285 42.0045Z" fill="#2B2B2B"/>
<path d="M136.679 43.1498V45.1211H137.899C138.857 45.1211 139.119 45.0648 139.119 44.8395C139.119 44.633 138.894 44.5579 138.181 44.5579H137.242V42.8682C137.242 41.4976 137.186 41.1785 136.96 41.1785C136.735 41.1785 136.679 41.5164 136.679 43.1498Z" fill="#2B2B2B"/>
<path d="M143.718 41.4038C143.531 41.9107 142.498 45.0085 142.498 45.0648C142.498 45.2713 143.23 45.0648 143.324 44.8395C143.474 44.4453 144.864 44.4453 145.014 44.8395C145.108 45.1211 145.69 45.2338 145.69 44.971C145.69 44.7269 144.751 41.9107 144.544 41.5352C144.338 41.1222 143.85 41.0659 143.718 41.4038ZM144.469 43.2812C144.601 43.9571 144.582 43.9947 144.113 43.9947C143.549 43.9947 143.549 43.9947 143.85 43.0184C144.094 42.1923 144.282 42.2674 144.469 43.2812Z" fill="#2B2B2B"/>
<path d="M149.482 41.498C148.994 41.8922 148.769 43.0187 148.957 44.0888C149.069 44.6333 149.219 44.8211 149.726 45.0463C150.627 45.4218 151.698 44.9337 151.698 44.1452C151.698 43.6946 151.416 43.7134 151.078 44.2015C150.872 44.4643 150.646 44.577 150.271 44.5207C149.745 44.4643 149.726 44.4268 149.67 43.3754C149.595 41.8359 150.158 41.2539 150.89 42.1175C151.266 42.5493 151.698 42.6057 151.698 42.2489C151.698 41.3853 150.233 40.8784 149.482 41.498Z" fill="#2B2B2B"/>
<path d="M155.396 41.3099C155.321 41.3662 155.265 42.2674 155.265 43.2812V45.1211H156.579C157.63 45.1211 157.893 45.0648 157.893 44.8395C157.893 44.6142 157.649 44.5579 156.842 44.5579C155.828 44.5579 155.809 44.5579 155.865 44.0322C155.922 43.6004 156.016 43.5253 156.635 43.4689C157.555 43.3938 157.461 42.9808 156.504 42.9057C155.865 42.8494 155.809 42.7931 155.865 42.3425C155.922 41.8731 155.997 41.8356 156.917 41.7792C157.611 41.7417 157.893 41.6478 157.893 41.4413C157.893 41.2348 157.611 41.1785 156.71 41.1785C156.053 41.1785 155.452 41.2348 155.396 41.3099Z" fill="#2B2B2B"/>
<path d="M19.0187 43.2439C17.5355 44.1451 17.4229 46.6608 18.8122 47.6371C19.0938 47.8436 19.6571 47.9375 20.4644 47.9375C21.5721 47.9375 21.7598 47.8812 22.1916 47.4118C23.1867 46.3417 23.3556 45.2903 22.7173 44.2202C21.9288 42.9435 20.2391 42.4929 19.0187 43.2439Z" fill="#2B2B2B"/>
<path d="M161.367 44.5391C161.217 44.8207 161.423 45.1211 161.761 45.1211C161.93 45.1211 162.024 44.9897 161.987 44.8019C161.912 44.4264 161.536 44.2762 161.367 44.5391Z" fill="#2B2B2B"/>
</svg>
