<svg width="17" height="20" viewBox="0 0 15 10" fill="none" xmlns="http://www.w3.org/2000/svg">
<path d="M6.04502 6.89003V7.85003H5.51502L6.60502 9.74003L7.68502 7.82003L7.02502 7.80003L7.04502 5.86003H6.58502L7.54502 4.12003L8.48502 5.86003H7.98502V6.93003C7.98502 6.93003 12.665 6.93003 12.685 6.93003C13.895 6.93003 14.735 5.78003 14.225 4.66003C13.785 3.70003 12.815 3.38003 11.815 3.52003C11.815 3.52003 12.085 1.09003 9.61502 0.400034C9.61502 0.400034 7.45502 -0.469966 6.09502 1.98003C6.09502 1.98003 4.02502 0.0600338 2.57502 2.83003C2.56502 2.85003 2.17502 2.85003 2.13502 2.86003C1.81502 2.91003 1.48502 2.99003 1.17502 3.13003C0.205017 3.59003 -0.274983 4.72003 0.235017 5.69003C0.675017 6.54003 1.58502 6.91003 2.50502 6.93003L6.04502 6.89003Z" fill="#7C7C7C"/>
</svg>
