<svg width="19" height="20" viewBox="0 0 19 20" fill="none" xmlns="http://www.w3.org/2000/svg">
<path d="M9.51029 0.866699C4.47029 0.866699 0.376953 4.96003 0.376953 10C0.376953 15.04 4.47029 19.1334 9.51029 19.1334C14.5503 19.1334 18.6436 15.04 18.6436 10C18.6436 4.96003 14.5503 0.866699 9.51029 0.866699ZM2.88362 10C2.88362 6.33337 5.85695 3.37337 9.51029 3.37337C10.4436 3.37337 11.337 3.57337 12.1503 3.92003L4.28362 14.0534C3.41695 12.92 2.88362 11.5334 2.88362 10ZM9.51029 16.6267C8.57695 16.6267 7.68362 16.4267 6.87029 16.08L14.737 5.9467C15.6036 7.0667 16.1503 8.4667 16.1503 9.9867C16.137 13.6667 13.177 16.6267 9.51029 16.6267Z" fill="white"/>
</svg>
