<svg width="16" height="15" viewBox="0 0 16 15" fill="none" xmlns="http://www.w3.org/2000/svg">
<path d="M7.9999 0.549805C4.0799 0.549805 0.899902 3.7298 0.899902 7.6498C0.899902 11.5698 4.0799 14.7498 7.9999 14.7498C11.9199 14.7498 15.0999 11.5698 15.0999 7.6498C15.0999 3.7298 11.9199 0.549805 7.9999 0.549805ZM6.8599 2.8298H9.1399V9.3298H6.8599V2.8298ZM9.0099 12.1298C8.7499 12.3598 8.4199 12.4798 7.9999 12.4798C7.5799 12.4798 7.2499 12.3698 6.9899 12.1498C6.7299 11.9298 6.6099 11.6498 6.6099 11.2998C6.6099 10.9398 6.7399 10.6398 6.9899 10.4098C7.2499 10.1698 7.5799 10.0598 7.9999 10.0598C8.4199 10.0598 8.7499 10.1798 9.0099 10.4098C9.2699 10.6398 9.3899 10.9298 9.3899 11.2698C9.3899 11.6098 9.2599 11.8998 9.0099 12.1298Z" fill="#7C7C7C"/>
</svg>
