<svg width="140" height="22" viewBox="0 0 140 22" fill="none" xmlns="http://www.w3.org/2000/svg">
<rect y="1" width="20" height="20" rx="10" fill="#F4CC47"/>
<path d="M12.18 12C12.22 11.67 12.25 11.34 12.25 11C12.25 10.66 12.22 10.33 12.18 10H13.87C13.95 10.32 14 10.655 14 11C14 11.345 13.95 11.68 13.87 12M11.295 14.78C11.595 14.225 11.825 13.625 11.985 13H13.46C12.9756 13.8341 12.2071 14.466 11.295 14.78ZM11.17 12H8.83C8.78 11.67 8.75 11.34 8.75 11C8.75 10.66 8.78 10.325 8.83 10H11.17C11.215 10.325 11.25 10.66 11.25 11C11.25 11.34 11.215 11.67 11.17 12ZM10 14.98C9.585 14.38 9.25 13.715 9.045 13H10.955C10.75 13.715 10.415 14.38 10 14.98ZM8 9H6.54C7.01932 8.16352 7.78733 7.53062 8.7 7.22C8.4 7.775 8.175 8.375 8 9ZM6.54 13H8C8.175 13.625 8.4 14.225 8.7 14.78C7.78913 14.4662 7.02214 13.8341 6.54 13ZM6.13 12C6.05 11.68 6 11.345 6 11C6 10.655 6.05 10.32 6.13 10H7.82C7.78 10.33 7.75 10.66 7.75 11C7.75 11.34 7.78 11.67 7.82 12M10 7.015C10.415 7.615 10.75 8.285 10.955 9H9.045C9.25 8.285 9.585 7.615 10 7.015ZM13.46 9H11.985C11.8283 8.38081 11.5966 7.78305 11.295 7.22C12.215 7.535 12.98 8.17 13.46 9ZM10 6C7.235 6 5 8.25 5 11C5 12.3261 5.52678 13.5979 6.46447 14.5355C6.92876 14.9998 7.47995 15.3681 8.08658 15.6194C8.69321 15.8707 9.34339 16 10 16C11.3261 16 12.5979 15.4732 13.5355 14.5355C14.4732 13.5979 15 12.3261 15 11C15 10.3434 14.8707 9.69321 14.6194 9.08658C14.3681 8.47995 13.9998 7.92876 13.5355 7.46447C13.0712 7.00017 12.52 6.63188 11.9134 6.3806C11.3068 6.12933 10.6566 6 10 6Z" fill="black"/>
<path d="M31.3807 18V8.18182H32.8381V9.66477H32.9403C33.1193 9.17898 33.4432 8.7848 33.9119 8.48224C34.3807 8.17969 34.9091 8.02841 35.4972 8.02841C35.608 8.02841 35.7464 8.03054 35.9126 8.0348C36.0788 8.03906 36.2045 8.04545 36.2898 8.05398V9.58807C36.2386 9.57528 36.1214 9.55611 35.9382 9.53054C35.7592 9.50071 35.5696 9.4858 35.3693 9.4858C34.892 9.4858 34.4659 9.58594 34.0909 9.78622C33.7202 9.98224 33.4261 10.255 33.2088 10.6044C32.9957 10.9496 32.8892 11.3437 32.8892 11.7869V18H31.3807ZM41.8956 18.2045C40.9496 18.2045 40.1335 17.9957 39.4474 17.5781C38.7656 17.1562 38.2393 16.5682 37.8686 15.8139C37.5021 15.0554 37.3189 14.1733 37.3189 13.1676C37.3189 12.1619 37.5021 11.2756 37.8686 10.5085C38.2393 9.73722 38.755 9.13636 39.4155 8.70597C40.0803 8.27131 40.8558 8.05398 41.7422 8.05398C42.2536 8.05398 42.7585 8.1392 43.2571 8.30966C43.7557 8.48011 44.2095 8.7571 44.6186 9.14062C45.0277 9.51989 45.3537 10.0227 45.5966 10.6491C45.8395 11.2756 45.9609 12.0469 45.9609 12.9631V13.6023H38.3928V12.2983H44.4268C44.4268 11.7443 44.3161 11.25 44.0945 10.8153C43.8771 10.3807 43.5661 10.0376 43.1612 9.78622C42.7607 9.5348 42.2876 9.40909 41.7422 9.40909C41.1413 9.40909 40.6214 9.55824 40.1825 9.85653C39.7479 10.1506 39.4134 10.5341 39.179 11.0071C38.9446 11.4801 38.8274 11.9872 38.8274 12.5284V13.3977C38.8274 14.1392 38.9553 14.7678 39.2109 15.2834C39.4709 15.7947 39.831 16.1847 40.2912 16.4531C40.7514 16.7173 41.2862 16.8494 41.8956 16.8494C42.2919 16.8494 42.6499 16.794 42.9695 16.6832C43.2933 16.5682 43.5724 16.3977 43.8068 16.1719C44.0412 15.9418 44.2223 15.6562 44.3501 15.3153L45.8075 15.7244C45.6541 16.2188 45.3963 16.6534 45.0341 17.0284C44.6719 17.3991 44.2244 17.6889 43.6918 17.8977C43.1591 18.1023 42.5604 18.2045 41.8956 18.2045ZM55.9853 8.18182L52.3546 18H50.8205L47.1898 8.18182H48.8262L51.5364 16.0057H51.6387L54.3489 8.18182H55.9853ZM61.6135 18.2045C60.7271 18.2045 59.9494 17.9936 59.2804 17.5717C58.6156 17.1499 58.0957 16.5597 57.7207 15.8011C57.35 15.0426 57.1646 14.1562 57.1646 13.142C57.1646 12.1193 57.35 11.2266 57.7207 10.4638C58.0957 9.70099 58.6156 9.10866 59.2804 8.68679C59.9494 8.26491 60.7271 8.05398 61.6135 8.05398C62.4998 8.05398 63.2754 8.26491 63.9402 8.68679C64.6092 9.10866 65.1291 9.70099 65.4998 10.4638C65.8748 11.2266 66.0623 12.1193 66.0623 13.142C66.0623 14.1562 65.8748 15.0426 65.4998 15.8011C65.1291 16.5597 64.6092 17.1499 63.9402 17.5717C63.2754 17.9936 62.4998 18.2045 61.6135 18.2045ZM61.6135 16.8494C62.2868 16.8494 62.8407 16.6768 63.2754 16.3317C63.71 15.9865 64.0318 15.5327 64.2406 14.9702C64.4494 14.4077 64.5538 13.7983 64.5538 13.142C64.5538 12.4858 64.4494 11.8743 64.2406 11.3075C64.0318 10.7408 63.71 10.2827 63.2754 9.93324C62.8407 9.58381 62.2868 9.40909 61.6135 9.40909C60.9402 9.40909 60.3862 9.58381 59.9515 9.93324C59.5169 10.2827 59.1951 10.7408 58.9863 11.3075C58.7775 11.8743 58.6731 12.4858 58.6731 13.142C58.6731 13.7983 58.7775 14.4077 58.9863 14.9702C59.1951 15.5327 59.5169 15.9865 59.9515 16.3317C60.3862 16.6768 60.9402 16.8494 61.6135 16.8494ZM68.3651 18V8.18182H69.8224V9.66477H69.9247C70.1037 9.17898 70.4276 8.7848 70.8963 8.48224C71.3651 8.17969 71.8935 8.02841 72.4815 8.02841C72.5923 8.02841 72.7308 8.03054 72.897 8.0348C73.0632 8.03906 73.1889 8.04545 73.2741 8.05398V9.58807C73.223 9.57528 73.1058 9.55611 72.9226 9.53054C72.7436 9.50071 72.554 9.4858 72.3537 9.4858C71.8764 9.4858 71.4503 9.58594 71.0753 9.78622C70.7045 9.98224 70.4105 10.255 70.1932 10.6044C69.9801 10.9496 69.8736 11.3437 69.8736 11.7869V18H68.3651ZM78.88 18.2045C77.9339 18.2045 77.1179 17.9957 76.4318 17.5781C75.75 17.1562 75.2237 16.5682 74.853 15.8139C74.4865 15.0554 74.3033 14.1733 74.3033 13.1676C74.3033 12.1619 74.4865 11.2756 74.853 10.5085C75.2237 9.73722 75.7393 9.13636 76.3999 8.70597C77.0646 8.27131 77.8402 8.05398 78.7266 8.05398C79.2379 8.05398 79.7429 8.1392 80.2415 8.30966C80.7401 8.48011 81.1939 8.7571 81.603 9.14062C82.0121 9.51989 82.3381 10.0227 82.581 10.6491C82.8239 11.2756 82.9453 12.0469 82.9453 12.9631V13.6023H75.3771V12.2983H81.4112C81.4112 11.7443 81.3004 11.25 81.0788 10.8153C80.8615 10.3807 80.5504 10.0376 80.1456 9.78622C79.745 9.5348 79.272 9.40909 78.7266 9.40909C78.1257 9.40909 77.6058 9.55824 77.1669 9.85653C76.7322 10.1506 76.3977 10.5341 76.1634 11.0071C75.929 11.4801 75.8118 11.9872 75.8118 12.5284V13.3977C75.8118 14.1392 75.9396 14.7678 76.1953 15.2834C76.4553 15.7947 76.8153 16.1847 77.2756 16.4531C77.7358 16.7173 78.2706 16.8494 78.88 16.8494C79.2763 16.8494 79.6342 16.794 79.9538 16.6832C80.2777 16.5682 80.5568 16.3977 80.7912 16.1719C81.0256 15.9418 81.2067 15.6562 81.3345 15.3153L82.7919 15.7244C82.6385 16.2188 82.3807 16.6534 82.0185 17.0284C81.6563 17.3991 81.2088 17.6889 80.6761 17.8977C80.1435 18.1023 79.5447 18.2045 78.88 18.2045ZM88.1293 18.2301C87.5071 18.2301 86.9425 18.1129 86.4354 17.8786C85.9283 17.6399 85.5256 17.2969 85.2273 16.8494C84.929 16.3977 84.7798 15.8523 84.7798 15.2131C84.7798 14.6506 84.8906 14.1946 85.1122 13.8452C85.3338 13.4915 85.63 13.2145 86.0007 13.0142C86.3714 12.8139 86.7805 12.6648 87.228 12.5668C87.6797 12.4645 88.1335 12.3835 88.5895 12.3239C89.1861 12.2472 89.6697 12.1896 90.0405 12.1513C90.4155 12.1087 90.6882 12.0384 90.8587 11.9403C91.0334 11.8423 91.1207 11.6719 91.1207 11.429V11.3778C91.1207 10.7472 90.9482 10.2571 90.603 9.90767C90.2621 9.55824 89.7443 9.38352 89.0497 9.38352C88.3295 9.38352 87.7649 9.54119 87.3558 9.85653C86.9467 10.1719 86.6591 10.5085 86.4929 10.8665L85.0611 10.3551C85.3168 9.75852 85.6577 9.29403 86.0838 8.96165C86.5142 8.625 86.983 8.39062 87.4901 8.25852C88.0014 8.12216 88.5043 8.05398 88.9986 8.05398C89.3139 8.05398 89.6761 8.09233 90.0852 8.16903C90.4986 8.24148 90.897 8.39276 91.2805 8.62287C91.6683 8.85298 91.9901 9.20028 92.2457 9.66477C92.5014 10.1293 92.6293 10.7514 92.6293 11.5312V18H91.1207V16.6705H91.044C90.9418 16.8835 90.7713 17.1115 90.5327 17.3544C90.294 17.5973 89.9766 17.804 89.5803 17.9744C89.1839 18.1449 88.7003 18.2301 88.1293 18.2301ZM88.3594 16.875C88.956 16.875 89.4588 16.7578 89.8679 16.5234C90.2813 16.2891 90.5923 15.9865 90.8011 15.6158C91.0142 15.245 91.1207 14.8551 91.1207 14.446V13.0653C91.0568 13.142 90.9162 13.2124 90.6989 13.2763C90.4858 13.3359 90.2386 13.3892 89.9574 13.4361C89.6804 13.4787 89.4098 13.517 89.1456 13.5511C88.8857 13.581 88.6747 13.6065 88.5128 13.6278C88.1207 13.679 87.7543 13.7621 87.4134 13.8771C87.0767 13.9879 86.804 14.1562 86.5952 14.3821C86.3906 14.6037 86.2884 14.9062 86.2884 15.2898C86.2884 15.8139 86.4822 16.2102 86.87 16.4787C87.2621 16.7429 87.7585 16.875 88.3594 16.875ZM96.8912 4.90909V18H95.3826V4.90909H96.8912ZM103.924 8.18182V9.46023H98.8359V8.18182H103.924ZM100.319 5.82955H101.827V15.1875C101.827 15.6136 101.889 15.9332 102.013 16.1463C102.141 16.3551 102.303 16.4957 102.499 16.5682C102.699 16.6364 102.91 16.6705 103.131 16.6705C103.298 16.6705 103.434 16.6619 103.54 16.6449C103.647 16.6236 103.732 16.6065 103.796 16.5938L104.103 17.9489C104.001 17.9872 103.858 18.0256 103.675 18.0639C103.491 18.1065 103.259 18.1278 102.978 18.1278C102.552 18.1278 102.134 18.0362 101.725 17.853C101.32 17.6697 100.984 17.3906 100.715 17.0156C100.451 16.6406 100.319 16.1676 100.319 15.5966V5.82955ZM107.165 21.6818C106.909 21.6818 106.681 21.6605 106.481 21.6179C106.281 21.5795 106.142 21.5412 106.065 21.5028L106.449 20.1733C106.815 20.267 107.139 20.3011 107.42 20.2756C107.702 20.25 107.951 20.1243 108.168 19.8984C108.39 19.6768 108.592 19.3168 108.776 18.8182L109.057 18.0511L105.426 8.18182H107.062L109.773 16.0057H109.875L112.585 8.18182H114.222L110.054 19.4318C109.866 19.9389 109.634 20.3587 109.357 20.6911C109.08 21.0277 108.759 21.277 108.392 21.4389C108.03 21.6009 107.621 21.6818 107.165 21.6818ZM116.697 18.1023C116.382 18.1023 116.111 17.9893 115.885 17.7635C115.659 17.5376 115.546 17.267 115.546 16.9517C115.546 16.6364 115.659 16.3658 115.885 16.1399C116.111 15.9141 116.382 15.8011 116.697 15.8011C117.012 15.8011 117.283 15.9141 117.509 16.1399C117.735 16.3658 117.847 16.6364 117.847 16.9517C117.847 17.1605 117.794 17.3523 117.688 17.527C117.585 17.7017 117.447 17.8423 117.272 17.9489C117.102 18.0511 116.91 18.1023 116.697 18.1023ZM123.444 18.2301C122.822 18.2301 122.257 18.1129 121.75 17.8786C121.243 17.6399 120.84 17.2969 120.542 16.8494C120.243 16.3977 120.094 15.8523 120.094 15.2131C120.094 14.6506 120.205 14.1946 120.427 13.8452C120.648 13.4915 120.944 13.2145 121.315 13.0142C121.686 12.8139 122.095 12.6648 122.542 12.5668C122.994 12.4645 123.448 12.3835 123.904 12.3239C124.501 12.2472 124.984 12.1896 125.355 12.1513C125.73 12.1087 126.003 12.0384 126.173 11.9403C126.348 11.8423 126.435 11.6719 126.435 11.429V11.3778C126.435 10.7472 126.263 10.2571 125.917 9.90767C125.577 9.55824 125.059 9.38352 124.364 9.38352C123.644 9.38352 123.079 9.54119 122.67 9.85653C122.261 10.1719 121.974 10.5085 121.807 10.8665L120.376 10.3551C120.631 9.75852 120.972 9.29403 121.398 8.96165C121.829 8.625 122.297 8.39062 122.805 8.25852C123.316 8.12216 123.819 8.05398 124.313 8.05398C124.628 8.05398 124.991 8.09233 125.4 8.16903C125.813 8.24148 126.211 8.39276 126.595 8.62287C126.983 8.85298 127.305 9.20028 127.56 9.66477C127.816 10.1293 127.944 10.7514 127.944 11.5312V18H126.435V16.6705H126.358C126.256 16.8835 126.086 17.1115 125.847 17.3544C125.608 17.5973 125.291 17.804 124.895 17.9744C124.498 18.1449 124.015 18.2301 123.444 18.2301ZM123.674 16.875C124.27 16.875 124.773 16.7578 125.182 16.5234C125.596 16.2891 125.907 15.9865 126.116 15.6158C126.329 15.245 126.435 14.8551 126.435 14.446V13.0653C126.371 13.142 126.231 13.2124 126.013 13.2763C125.8 13.3359 125.553 13.3892 125.272 13.4361C124.995 13.4787 124.724 13.517 124.46 13.5511C124.2 13.581 123.989 13.6065 123.827 13.6278C123.435 13.679 123.069 13.7621 122.728 13.8771C122.391 13.9879 122.118 14.1562 121.91 14.3821C121.705 14.6037 121.603 14.9062 121.603 15.2898C121.603 15.8139 121.797 16.2102 122.184 16.4787C122.577 16.7429 123.073 16.875 123.674 16.875ZM134.814 18.2045C133.868 18.2045 133.051 17.9957 132.365 17.5781C131.684 17.1562 131.157 16.5682 130.787 15.8139C130.42 15.0554 130.237 14.1733 130.237 13.1676C130.237 12.1619 130.42 11.2756 130.787 10.5085C131.157 9.73722 131.673 9.13636 132.333 8.70597C132.998 8.27131 133.774 8.05398 134.66 8.05398C135.172 8.05398 135.676 8.1392 136.175 8.30966C136.674 8.48011 137.127 8.7571 137.537 9.14062C137.946 9.51989 138.272 10.0227 138.515 10.6491C138.757 11.2756 138.879 12.0469 138.879 12.9631V13.6023H131.311V12.2983H137.345C137.345 11.7443 137.234 11.25 137.012 10.8153C136.795 10.3807 136.484 10.0376 136.079 9.78622C135.679 9.5348 135.206 9.40909 134.66 9.40909C134.059 9.40909 133.539 9.55824 133.1 9.85653C132.666 10.1506 132.331 10.5341 132.097 11.0071C131.863 11.4801 131.745 11.9872 131.745 12.5284V13.3977C131.745 14.1392 131.873 14.7678 132.129 15.2834C132.389 15.7947 132.749 16.1847 133.209 16.4531C133.669 16.7173 134.204 16.8494 134.814 16.8494C135.21 16.8494 135.568 16.794 135.887 16.6832C136.211 16.5682 136.49 16.3977 136.725 16.1719C136.959 15.9418 137.14 15.6562 137.268 15.3153L138.725 15.7244C138.572 16.2188 138.314 16.6534 137.952 17.0284C137.59 17.3991 137.142 17.6889 136.61 17.8977C136.077 18.1023 135.478 18.2045 134.814 18.2045Z" fill="black"/>
</svg>
